<svg width="359" height="428" viewBox="0 0 359 428" fill="none" xmlns="http://www.w3.org/2000/svg">
<rect x="142.157" y="167.38" width="74.3518" height="53.9887" fill="url(#paint0_linear_613_1231)" stroke="url(#paint1_linear_613_1231)" stroke-width="6"/>
<circle cx="179.058" cy="313.251" r="114.749" fill="url(#paint2_linear_613_1231)"/>
<circle cx="179.058" cy="313.251" r="91.134" fill="url(#paint3_linear_613_1231)" stroke="url(#paint4_linear_613_1231)"/>
<g filter="url(#filter0_ii_613_1231)">
<circle cx="179.058" cy="313.251" r="81.1773" fill="url(#paint5_linear_613_1231)"/>
</g>
<g filter="url(#filter1_di_613_1231)">
<rect x="50" y="40" width="258.667" height="20.3631" rx="10.1816" fill="#4A5B74"/>
</g>
<rect x="69.2624" y="49.9065" width="221.243" height="2.20142" rx="1.10071" fill="#242D3A"/>
<path fill-rule="evenodd" clip-rule="evenodd" d="M290.505 52.1082H70.363V52.4654C86.9415 56.7847 100.048 99.7832 100.614 152.823H258.053C258.644 97.4566 272.899 53.0317 290.505 52.1227V52.1082Z" fill="url(#paint6_linear_613_1231)"/>
<rect x="129.801" y="52.1079" width="11.0071" height="100.715" fill="#E3EBF8"/>
<rect x="220.06" y="52.1079" width="11.0071" height="100.715" fill="#E3EBF8"/>
<path d="M100.082 141.265L179.333 156.675V187.495L100.082 172.085V141.265Z" fill="url(#paint7_linear_613_1231)"/>
<g filter="url(#filter2_d_613_1231)">
<path d="M100.082 135.211L179.333 150.621V181.441L100.082 166.031V135.211Z" fill="#354358"/>
</g>
<path d="M258.584 141.265L179.333 156.675V187.495L258.584 172.085V141.265Z" fill="url(#paint8_linear_613_1231)"/>
<g filter="url(#filter3_d_613_1231)">
<path d="M258.584 135.211L179.333 150.621V181.441L258.584 166.031V135.211Z" fill="#354358"/>
</g>
<path d="M100.082 137.413L179.333 152.823V183.643L100.082 168.233V137.413Z" fill="url(#paint9_linear_613_1231)"/>
<path d="M258.584 137.413L179.333 152.823V183.643L258.584 168.233V137.413Z" fill="url(#paint10_linear_613_1231)"/>
<g clip-path="url(#clip0_613_1231)">
<path d="M179.333 365.015L124.298 306.535L145.318 276.347H213.348L234.369 306.535L179.333 365.015Z" fill="#1A1F29"/>
<path d="M156.899 306.535L179.333 365.015L124.298 306.535H156.899Z" fill="#1A1F29"/>
<path d="M124.298 306.535L145.318 276.347H213.348L234.369 306.535H124.298Z" fill="#1A1F29"/>
<path d="M124.298 306.535L145.318 276.347L156.899 306.535H124.298Z" fill="#1A1F29"/>
<path d="M145.318 276.347L179.333 365.015L213.348 276.347H145.318Z" fill="#1A1F29"/>
<path d="M156.899 306.535H201.768L179.333 276.347L156.899 306.535Z" fill="#1A1F29"/>
<path d="M156.899 306.535L145.32 276.347H179.333L156.899 306.535Z" fill="#1A1F29"/>
<path d="M179.333 365.015L156.899 306.535H201.768L179.333 365.015Z" fill="#1A1F29"/>
</g>
<g clip-path="url(#clip1_613_1231)">
<path d="M161.223 306.958L179.058 353.45L135.305 306.958H161.223Z" fill="url(#paint11_linear_613_1231)"/>
<path d="M196.945 307.197L206.301 282.982L179.058 282.959L196.945 307.197Z" fill="url(#paint12_linear_613_1231)"/>
<path d="M196.618 306.958L179.058 353.427L222.811 306.958H196.618Z" fill="url(#paint13_linear_613_1231)"/>
<path d="M160.859 306.709H135.784L151.952 283.489L160.859 306.709Z" fill="url(#paint14_linear_613_1231)" stroke="url(#paint15_linear_613_1231)" stroke-width="0.5"/>
<path d="M222.862 306.959L206.301 282.982L196.945 306.959H222.862Z" fill="url(#paint16_linear_613_1231)"/>
<path d="M161.72 306.709L179.059 283.377L196.457 306.709H161.72Z" fill="url(#paint17_linear_613_1231)" stroke="url(#paint18_linear_613_1231)" stroke-width="0.5"/>
<path d="M161.223 306.959L152.017 282.959H179.058L161.223 306.959Z" fill="url(#paint19_linear_613_1231)"/>
<path d="M196.53 307.208L179.058 352.752L161.586 307.208H196.53Z" fill="url(#paint20_linear_613_1231)" stroke="url(#paint21_linear_613_1231)" stroke-width="0.5"/>
</g>
<defs>
<filter id="filter0_ii_613_1231" x="97.8809" y="228.074" width="162.355" height="170.354" filterUnits="userSpaceOnUse" color-interpolation-filters="sRGB">
<feFlood flood-opacity="0" result="BackgroundImageFix"/>
<feBlend mode="normal" in="SourceGraphic" in2="BackgroundImageFix" result="shape"/>
<feColorMatrix in="SourceAlpha" type="matrix" values="0 0 0 0 0 0 0 0 0 0 0 0 0 0 0 0 0 0 127 0" result="hardAlpha"/>
<feOffset dy="-4"/>
<feGaussianBlur stdDeviation="5"/>
<feComposite in2="hardAlpha" operator="arithmetic" k2="-1" k3="1"/>
<feColorMatrix type="matrix" values="0 0 0 0 0 0 0 0 0 0 0 0 0 0 0 0 0 0 0.5 0"/>
<feBlend mode="normal" in2="shape" result="effect1_innerShadow_613_1231"/>
<feColorMatrix in="SourceAlpha" type="matrix" values="0 0 0 0 0 0 0 0 0 0 0 0 0 0 0 0 0 0 127 0" result="hardAlpha"/>
<feOffset dy="4"/>
<feGaussianBlur stdDeviation="25"/>
<feComposite in2="hardAlpha" operator="arithmetic" k2="-1" k3="1"/>
<feColorMatrix type="matrix" values="0 0 0 0 0 0 0 0 0 0 0 0 0 0 0 0 0 0 0.5 0"/>
<feBlend mode="normal" in2="effect1_innerShadow_613_1231" result="effect2_innerShadow_613_1231"/>
</filter>
<filter id="filter1_di_613_1231" x="0" y="0" width="358.667" height="120.363" filterUnits="userSpaceOnUse" color-interpolation-filters="sRGB">
<feFlood flood-opacity="0" result="BackgroundImageFix"/>
<feColorMatrix in="SourceAlpha" type="matrix" values="0 0 0 0 0 0 0 0 0 0 0 0 0 0 0 0 0 0 127 0" result="hardAlpha"/>
<feOffset dy="10"/>
<feGaussianBlur stdDeviation="25"/>
<feComposite in2="hardAlpha" operator="out"/>
<feColorMatrix type="matrix" values="0 0 0 0 0 0 0 0 0 0 0 0 0 0 0 0 0 0 0.3 0"/>
<feBlend mode="normal" in2="BackgroundImageFix" result="effect1_dropShadow_613_1231"/>
<feBlend mode="normal" in="SourceGraphic" in2="effect1_dropShadow_613_1231" result="shape"/>
<feColorMatrix in="SourceAlpha" type="matrix" values="0 0 0 0 0 0 0 0 0 0 0 0 0 0 0 0 0 0 127 0" result="hardAlpha"/>
<feOffset dy="4"/>
<feComposite in2="hardAlpha" operator="arithmetic" k2="-1" k3="1"/>
<feColorMatrix type="matrix" values="0 0 0 0 0.44191 0 0 0 0 0.504879 0 0 0 0 0.595833 0 0 0 1 0"/>
<feBlend mode="normal" in2="shape" result="effect2_innerShadow_613_1231"/>
</filter>
<filter id="filter2_d_613_1231" x="95.0823" y="128.211" width="89.2511" height="56.2297" filterUnits="userSpaceOnUse" color-interpolation-filters="sRGB">
<feFlood flood-opacity="0" result="BackgroundImageFix"/>
<feColorMatrix in="SourceAlpha" type="matrix" values="0 0 0 0 0 0 0 0 0 0 0 0 0 0 0 0 0 0 127 0" result="hardAlpha"/>
<feOffset dy="-2"/>
<feGaussianBlur stdDeviation="2.5"/>
<feComposite in2="hardAlpha" operator="out"/>
<feColorMatrix type="matrix" values="0 0 0 0 0.352344 0 0 0 0 0.416968 0 0 0 0 0.5125 0 0 0 1 0"/>
<feBlend mode="normal" in2="BackgroundImageFix" result="effect1_dropShadow_613_1231"/>
<feBlend mode="normal" in="SourceGraphic" in2="effect1_dropShadow_613_1231" result="shape"/>
</filter>
<filter id="filter3_d_613_1231" x="174.333" y="128.211" width="89.2511" height="56.2297" filterUnits="userSpaceOnUse" color-interpolation-filters="sRGB">
<feFlood flood-opacity="0" result="BackgroundImageFix"/>
<feColorMatrix in="SourceAlpha" type="matrix" values="0 0 0 0 0 0 0 0 0 0 0 0 0 0 0 0 0 0 127 0" result="hardAlpha"/>
<feOffset dy="-2"/>
<feGaussianBlur stdDeviation="2.5"/>
<feComposite in2="hardAlpha" operator="out"/>
<feColorMatrix type="matrix" values="0 0 0 0 0.352344 0 0 0 0 0.416968 0 0 0 0 0.5125 0 0 0 1 0"/>
<feBlend mode="normal" in2="BackgroundImageFix" result="effect1_dropShadow_613_1231"/>
<feBlend mode="normal" in="SourceGraphic" in2="effect1_dropShadow_613_1231" result="shape"/>
</filter>
<linearGradient id="paint0_linear_613_1231" x1="179.333" y1="186.394" x2="179.333" y2="224.369" gradientUnits="userSpaceOnUse">
<stop stop-color="#4A5B74"/>
<stop offset="1" stop-color="#2B3646"/>
</linearGradient>
<linearGradient id="paint1_linear_613_1231" x1="179.333" y1="164.38" x2="179.333" y2="224.369" gradientUnits="userSpaceOnUse">
<stop stop-color="#87909D"/>
<stop offset="0.578231" stop-color="#D4DBE4"/>
<stop offset="1" stop-color="#87909D"/>
</linearGradient>
<linearGradient id="paint2_linear_613_1231" x1="117.694" y1="214.187" x2="179.058" y2="428" gradientUnits="userSpaceOnUse">
<stop stop-color="#8998AF"/>
<stop offset="1" stop-color="#293546"/>
</linearGradient>
<linearGradient id="paint3_linear_613_1231" x1="130.055" y1="234.142" x2="179.058" y2="404.885" gradientUnits="userSpaceOnUse">
<stop stop-color="#313C4D"/>
<stop offset="1" stop-color="#43546D"/>
</linearGradient>
<linearGradient id="paint4_linear_613_1231" x1="179.058" y1="221.617" x2="179.058" y2="404.885" gradientUnits="userSpaceOnUse">
<stop stop-color="#9FADC1"/>
<stop offset="1" stop-color="#4D596A"/>
</linearGradient>
<linearGradient id="paint5_linear_613_1231" x1="135.647" y1="243.17" x2="179.058" y2="394.428" gradientUnits="userSpaceOnUse">
<stop stop-color="#313C4D"/>
<stop offset="1" stop-color="#43546D"/>
</linearGradient>
<linearGradient id="paint6_linear_613_1231" x1="180.434" y1="52.1082" x2="180.434" y2="152.823" gradientUnits="userSpaceOnUse">
<stop stop-color="#48576F"/>
<stop offset="0.489583" stop-color="#8AA2C6"/>
<stop offset="1" stop-color="#39485E"/>
</linearGradient>
<linearGradient id="paint7_linear_613_1231" x1="100.082" y1="155.574" x2="179.333" y2="173.461" gradientUnits="userSpaceOnUse">
<stop stop-color="#424E61"/>
<stop offset="1" stop-color="#B7BDC5"/>
</linearGradient>
<linearGradient id="paint8_linear_613_1231" x1="258.584" y1="155.574" x2="179.333" y2="173.461" gradientUnits="userSpaceOnUse">
<stop stop-color="#3C495C"/>
<stop offset="1" stop-color="#88909D"/>
</linearGradient>
<linearGradient id="paint9_linear_613_1231" x1="139.708" y1="137.413" x2="144.661" y2="176.213" gradientUnits="userSpaceOnUse">
<stop stop-color="#8BA0C0"/>
<stop offset="1" stop-color="#303B4D"/>
</linearGradient>
<linearGradient id="paint10_linear_613_1231" x1="218.959" y1="137.413" x2="237.396" y2="173.186" gradientUnits="userSpaceOnUse">
<stop stop-color="#8BA0C0"/>
<stop offset="1" stop-color="#424E61"/>
</linearGradient>
<linearGradient id="paint11_linear_613_1231" x1="161.172" y1="306.922" x2="149.339" y2="321.782" gradientUnits="userSpaceOnUse">
<stop stop-color="#2A3345"/>
<stop offset="1" stop-color="#4B5C7B"/>
</linearGradient>
<linearGradient id="paint12_linear_613_1231" x1="192.854" y1="282.959" x2="197.495" y2="307.748" gradientUnits="userSpaceOnUse">
<stop stop-color="#8998B0"/>
<stop offset="1" stop-color="#333C4B"/>
</linearGradient>
<linearGradient id="paint13_linear_613_1231" x1="200.797" y1="331.138" x2="190.891" y2="323.157" gradientUnits="userSpaceOnUse">
<stop stop-color="#2A3345"/>
<stop offset="1" stop-color="#4B5C7B"/>
</linearGradient>
<linearGradient id="paint14_linear_613_1231" x1="148.264" y1="282.959" x2="148.264" y2="306.959" gradientUnits="userSpaceOnUse">
<stop stop-color="#42526B"/>
<stop offset="1" stop-color="#8390A4"/>
</linearGradient>
<linearGradient id="paint15_linear_613_1231" x1="148.264" y1="282.959" x2="148.264" y2="306.959" gradientUnits="userSpaceOnUse">
<stop stop-color="#C2D0E2"/>
<stop offset="1" stop-color="#89A2C5" stop-opacity="0"/>
</linearGradient>
<linearGradient id="paint16_linear_613_1231" x1="209.904" y1="282.959" x2="209.904" y2="306.959" gradientUnits="userSpaceOnUse">
<stop stop-color="#42526B"/>
<stop offset="1" stop-color="#8390A4"/>
</linearGradient>
<linearGradient id="paint17_linear_613_1231" x1="179.058" y1="282.959" x2="179.058" y2="306.959" gradientUnits="userSpaceOnUse">
<stop stop-color="#21293A"/>
<stop offset="1" stop-color="#94A1BC"/>
</linearGradient>
<linearGradient id="paint18_linear_613_1231" x1="189.515" y1="299.217" x2="179.089" y2="306.959" gradientUnits="userSpaceOnUse">
<stop stop-color="#AFBACB"/>
<stop offset="1" stop-color="#C0CDE0" stop-opacity="0"/>
</linearGradient>
<linearGradient id="paint19_linear_613_1231" x1="165.538" y1="282.959" x2="160.896" y2="307.748" gradientUnits="userSpaceOnUse">
<stop stop-color="#8998B0"/>
<stop offset="1" stop-color="#333C4B"/>
</linearGradient>
<linearGradient id="paint20_linear_613_1231" x1="179.058" y1="306.958" x2="179.058" y2="353.45" gradientUnits="userSpaceOnUse">
<stop stop-color="#273041"/>
<stop offset="1" stop-color="#909DB8"/>
</linearGradient>
<linearGradient id="paint21_linear_613_1231" x1="170.803" y1="331.138" x2="187.864" y2="308.573" gradientUnits="userSpaceOnUse">
<stop stop-color="#677589"/>
<stop offset="1" stop-color="#B0BBCC" stop-opacity="0"/>
</linearGradient>
<clipPath id="clip0_613_1231">
<rect width="110.071" height="110.071" fill="white" transform="translate(124.298 265.646)"/>
</clipPath>
<clipPath id="clip1_613_1231">
<rect width="87.5064" height="87.5064" fill="white" transform="translate(135.305 274.451)"/>
</clipPath>
</defs>
</svg>
