<svg width="33" height="32" viewBox="0 0 33 32" fill="none" xmlns="http://www.w3.org/2000/svg">
<path d="M14.6614 0.113182C7.06168 0.930793 0.948823 6.98111 0.122762 14.3396C-0.868512 22.5157 4.25307 29.5472 11.5224 31.8365V28.0755C11.5224 28.0755 10.8616 28.239 10.0355 28.239C7.72253 28.239 6.73125 26.2767 6.56604 25.1321C6.40083 24.478 6.0704 23.9874 5.57477 23.4968C5.07913 23.3333 4.91392 23.3333 4.91392 23.1698C4.91392 22.8428 5.40955 22.8428 5.57477 22.8428C6.56604 22.8428 7.3921 23.9874 7.72253 24.478C8.54859 25.7862 9.53986 26.1132 10.0355 26.1132C10.6963 26.1132 11.192 25.9497 11.5224 25.7862C11.6876 24.6415 12.1833 23.4968 13.1745 22.8428C9.37465 22.0252 6.56604 19.8994 6.56604 16.3019C6.56604 14.5031 7.3921 12.7044 8.54859 11.3962C8.38337 11.0692 8.21816 10.2516 8.21816 9.1069C8.21816 8.45281 8.21816 7.47168 8.7138 6.49055C8.7138 6.49055 11.0268 6.49055 13.3397 8.61633C14.1658 8.28929 15.3223 8.12577 16.4788 8.12577C17.6353 8.12577 18.7917 8.28929 19.783 8.61633C21.9308 6.49055 24.409 6.49055 24.409 6.49055C24.7394 7.47168 24.7394 8.45281 24.7394 9.1069C24.7394 10.4151 24.5742 11.0692 24.409 11.3962C25.5654 12.7044 26.3915 14.3396 26.3915 16.3019C26.3915 19.8994 23.5829 22.0252 19.783 22.8428C20.7743 23.6604 21.4351 25.1321 21.4351 26.6038V32C28.2088 29.8742 33 23.6604 33 16.4654C33 6.65407 24.5742 -1.03147 14.6614 0.113182Z" fill="white"/>
</svg>
