<svg width="161" height="80" viewBox="0 0 161 80" fill="none" xmlns="http://www.w3.org/2000/svg">
<mask id="path-1-inside-1_25_1747" fill="white">
<path d="M7.79501 34.3244C4.49959 39.8731 6.37042 46.9666 11.9736 50.1683L53.6141 73.962C59.2173 77.1638 66.4311 75.2612 69.7265 69.7126C73.0219 64.164 71.1511 57.0704 65.5479 53.8687L23.9074 30.075C18.3042 26.8733 11.0904 28.7758 7.79501 34.3244Z"/>
</mask>
<path d="M7.79501 34.3244C4.49959 39.8731 6.37042 46.9666 11.9736 50.1683L53.6141 73.962C59.2173 77.1638 66.4311 75.2612 69.7265 69.7126C73.0219 64.164 71.1511 57.0704 65.5479 53.8687L23.9074 30.075C18.3042 26.8733 11.0904 28.7758 7.79501 34.3244Z" fill="black"/>
<path d="M25.6485 27.1434L67.289 50.9371L39.9393 96.9869L-1.70125 73.1932L25.6485 27.1434ZM51.873 76.8936L10.2325 53.0999L37.5823 7.05011L79.2228 30.8438L51.873 76.8936ZM10.2325 53.0999C17.4707 57.2359 26.7894 54.7782 31.0464 47.6105L-15.4564 21.0384C-4.60857 2.77346 19.1377 -3.48929 37.5823 7.05011L10.2325 53.0999ZM46.4751 56.4266C42.2181 63.5942 44.6348 72.7577 51.873 76.8936L79.2228 30.8438C97.6674 41.3832 103.826 64.7337 92.9779 82.9987L46.4751 56.4266ZM67.289 50.9371C60.0508 46.8012 50.7321 49.2589 46.4751 56.4266L92.9779 82.9987C82.1301 101.264 58.3839 107.526 39.9393 96.9869L67.289 50.9371ZM-1.70125 73.1932C-20.1459 62.6538 -26.3043 39.3033 -15.4564 21.0384L31.0464 47.6105C35.3034 40.4428 32.8867 31.2794 25.6485 27.1434L-1.70125 73.1932Z" fill="#EA4335" mask="url(#path-1-inside-1_25_1747)"/>
<rect x="8.05619" y="2.12472" width="60.4195" height="11.685" rx="5.8425" transform="matrix(0.868251 -0.496126 0.510645 0.859792 -0.0235787 40.0677)" fill="black" stroke="#4285F4" stroke-width="11.685"/>
<rect x="-8.05619" y="2.12472" width="58.1283" height="11.685" rx="5.8425" transform="matrix(-0.868251 -0.496126 -0.510645 0.859792 144.513 30.9368)" fill="black" stroke="#FBBC04" stroke-width="11.685"/>
<rect x="-8.05619" y="-2.12472" width="59.6441" height="11.685" rx="5.8425" transform="matrix(-0.868251 0.496126 -0.510645 -0.859792 144.864 44.4189)" fill="black" stroke="#0F9D58" stroke-width="11.685"/>
</svg>
