<svg width="345" height="772" viewBox="0 0 345 772" fill="none" xmlns="http://www.w3.org/2000/svg">
<g opacity="0.88">
<mask id="mask0_25_1807" style="mask-type:luminance" maskUnits="userSpaceOnUse" x="-279" y="249" width="473" height="522">
<path d="M-275.653 770.142C-275.468 769.957 -275.468 769.771 -275.839 769.399C-276.211 768.842 -276.955 768.284 -277.513 768.099C-277.698 768.099 -277.884 768.099 -278.07 768.285C-228.431 603.126 -178.792 438.153 -129.153 272.994C-123.018 252.93 -100.894 244.384 -64.0834 252.187C8.23712 267.606 109.746 340.804 162.36 415.488C198.799 467.135 202.331 506.148 177.047 520.082C26.2708 603.497 -124.691 686.727 -275.653 770.142Z" fill="white"/>
</mask>
<g mask="url(#mask0_25_1807)">
<path d="M-275.839 770.328H-276.025L-276.583 770.142L-275.653 769.585C-275.653 769.585 -275.653 769.399 -275.839 769.399L-276.025 769.214L-275.839 769.028L162.732 415.116L162.917 415.302C191.92 456.359 201.216 491.1 188.388 510.422C183.74 517.667 176.117 522.311 165.892 524.541C155.295 526.77 142.281 526.213 127.036 523.055L-275.282 769.957V770.142C-275.468 770.328 -275.653 770.328 -275.839 770.328ZM-275.468 769.399L126.85 522.683C142.095 526.027 155.109 526.399 165.52 524.169C175.56 521.94 182.996 517.295 187.83 510.236C200.472 491.1 191.176 456.731 162.546 415.859L-275.468 769.399Z" fill="white"/>
<path d="M179.65 518.108L-275.787 770.033L-275.517 770.521L179.92 518.595L179.65 518.108Z" fill="white"/>
<path d="M192.729 479.762L-275.615 769.583L-275.321 770.057L193.023 480.236L192.729 479.762Z" fill="white"/>
<path d="M-275.839 769.771L-276.025 769.585C-276.397 769.028 -277.141 768.656 -277.512 768.471H-277.698L-277.512 768.285L-63.8973 252.187H-63.7113C8.60919 267.607 110.304 340.99 162.918 415.674L163.104 415.86L162.918 416.045L-275.839 769.771ZM-277.141 767.913C-276.583 768.099 -276.025 768.471 -275.653 769.028L162.36 415.488C109.746 340.99 8.60919 267.978 -63.7113 252.559L-277.141 767.913Z" fill="white"/>
<path d="M-276.025 769.028L-276.397 768.656L96.3604 343.219L96.7322 343.591L-276.025 769.028Z" fill="white"/>
<path d="M14.8788 284.635L-276.866 768.363L-276.548 768.555L15.1973 284.827L14.8788 284.635Z" fill="white"/>
</g>
<mask id="mask1_25_1807" style="mask-type:luminance" maskUnits="userSpaceOnUse" x="-279" y="249" width="473" height="522">
<path d="M-275.653 770.142C-275.468 769.957 -275.468 769.771 -275.839 769.399C-276.211 768.842 -276.955 768.284 -277.513 768.099C-277.698 768.099 -277.884 768.099 -278.07 768.285C-228.431 603.126 -178.792 438.153 -129.153 272.994C-123.018 252.93 -100.894 244.384 -64.0834 252.187C8.23712 267.606 109.746 340.804 162.36 415.488C198.799 467.135 202.331 506.148 177.047 520.082C26.2708 603.497 -124.691 686.727 -275.653 770.142Z" fill="white"/>
</mask>
<g mask="url(#mask1_25_1807)">
<path d="M-275.653 770.328L-275.839 769.957C-275.839 769.957 -275.839 769.771 -276.025 769.585C-276.397 769.028 -277.141 768.656 -277.513 768.47C-277.698 768.47 -277.698 768.47 -277.698 768.47L-278.07 768.285L-129.153 272.994C-125.993 262.776 -118.928 255.717 -107.959 252.001C-96.6183 248.285 -81.7452 248.285 -63.7116 252.001C8.60895 267.421 110.304 340.804 162.917 415.488C186.9 449.486 197.497 479.582 192.85 499.832C190.805 509.121 185.599 515.995 177.605 520.454L-275.653 770.328ZM-277.513 767.913C-276.769 768.099 -276.025 768.656 -275.468 769.214C-275.282 769.399 -275.282 769.585 -275.282 769.771L177.233 519.896C185.227 515.438 190.247 508.75 192.292 499.646C196.94 479.396 186.343 449.671 162.36 415.674C109.746 341.176 8.23709 267.978 -63.8975 252.373C-81.9311 248.471 -96.6183 248.471 -107.773 252.187C-118.556 255.902 -125.621 262.776 -128.596 272.994L-277.513 767.913Z" fill="white"/>
</g>
<mask id="mask2_25_1807" style="mask-type:luminance" maskUnits="userSpaceOnUse" x="-278" y="359" width="456" height="412">
<path d="M177.233 520.082C26.2706 603.497 -124.692 686.727 -275.654 770.142C-275.654 770.142 -275.84 770.142 -276.026 770.142C-276.583 769.956 -277.327 769.399 -277.699 768.842L-99.5932 359.382C-46.9796 434.066 54.5294 507.263 126.85 522.683C149.16 527.699 166.078 526.398 177.233 520.082Z" fill="white"/>
</mask>
<g mask="url(#mask2_25_1807)">
<path d="M-276.026 770.328C-276.769 770.142 -277.513 769.585 -277.885 769.028V768.842V768.656L-99.5933 358.825L-99.4074 359.196C-46.7938 433.694 54.7152 506.892 126.85 522.497L127.408 522.683L126.85 523.055L-276.026 770.328ZM-277.513 768.842C-277.141 769.214 -276.583 769.771 -276.212 769.771L126.106 522.869C53.9716 507.263 -47.1656 434.252 -99.5933 359.939L-277.513 768.842Z" fill="white"/>
<path d="M-276.583 770.143L-276.769 769.771L47.4648 489.986L47.8367 490.357L-276.583 770.143Z" fill="white"/>
<path d="M-275.84 770.328H-276.026L-276.583 770.142L-275.654 769.585C-275.654 769.585 -275.654 769.399 -275.84 769.399L-276.026 769.214L-275.84 769.028L162.731 415.116L162.917 415.302C191.92 456.359 201.215 491.1 188.387 510.422C183.739 517.667 176.117 522.311 165.892 524.541C155.295 526.77 142.281 526.213 127.036 523.055L-275.282 769.957V770.142C-275.468 770.328 -275.654 770.328 -275.84 770.328ZM-275.468 769.399L126.85 522.683C142.095 526.027 155.109 526.399 165.52 524.169C175.559 521.94 182.996 517.295 187.829 510.236C200.472 491.1 191.176 456.731 162.545 415.859L-275.468 769.399Z" fill="white"/>
</g>
<mask id="mask3_25_1807" style="mask-type:luminance" maskUnits="userSpaceOnUse" x="-278" y="359" width="456" height="412">
<path d="M177.233 520.082C26.2706 603.497 -124.692 686.727 -275.654 770.142C-275.654 770.142 -275.84 770.142 -276.026 770.142C-276.583 769.956 -277.327 769.399 -277.699 768.842L-99.5932 359.382C-46.9796 434.066 54.5294 507.263 126.85 522.683C149.16 527.699 166.078 526.398 177.233 520.082Z" fill="white"/>
</mask>
<g mask="url(#mask3_25_1807)">
<path d="M-275.84 770.328H-276.026C-276.583 770.142 -277.513 769.585 -277.885 769.028V768.842V768.656L-99.5934 358.825L-99.4074 359.196C-46.7938 433.694 54.7152 506.892 126.85 522.497C148.23 527.142 165.706 526.213 177.232 519.896L177.418 520.268L-275.654 770.328H-275.84ZM-277.513 768.842C-277.141 769.399 -276.583 769.771 -276.026 769.771C-275.84 769.771 -275.84 769.771 -275.84 769.771L172.027 522.683C160.686 526.77 145.255 526.956 126.664 523.055C54.5293 507.635 -46.9797 434.437 -99.7793 359.939L-277.513 768.842Z" fill="white"/>
</g>
<mask id="mask4_25_1807" style="mask-type:luminance" maskUnits="userSpaceOnUse" x="-115" y="4" width="457" height="499">
<path d="M191.92 502.061C197.684 482.554 188.574 452.272 162.546 415.488C109.932 340.804 8.42326 267.606 -63.8972 252.187C-86.2069 247.356 -103.125 248.657 -114.466 254.973C-100.894 247.542 -82.6745 237.51 -69.1028 229.893C-62.224 226.177 -53.3001 221.161 -46.4213 217.446C-32.8496 210.015 -14.6301 199.982 -1.05834 192.365C12.5134 184.748 30.733 174.902 44.3047 167.285C51.1835 163.569 60.1073 158.553 66.9861 154.838C80.5578 147.407 98.7775 137.374 112.349 129.757C125.921 122.326 144.14 112.294 157.712 104.677C164.591 100.962 173.515 95.9454 180.394 92.2298C193.965 84.7986 212.185 74.7665 225.757 67.1495C239.328 59.7183 257.548 49.6861 271.12 42.0691C277.998 38.3535 286.922 33.3375 293.801 29.6219C307.373 22.1906 325.592 12.1585 339.164 4.5415C339.164 4.5415 339.35 4.5415 339.536 4.5415C340.094 4.72728 340.837 5.28463 341.209 5.84197C341.395 6.02775 341.395 6.39931 341.395 6.39931C291.198 171.93 241.559 336.903 191.92 502.061Z" fill="white"/>
</mask>
<g mask="url(#mask4_25_1807)">
<path d="M151.577 526.027C144.14 526.027 135.774 525.098 126.85 523.055H126.664L126.85 522.869L167.937 423.662C166.264 421.061 164.405 418.46 162.545 415.859V415.673V415.488L340.837 5.65625L341.023 6.02781C341.395 6.58515 341.395 6.77093 341.209 6.95671C341.209 6.95671 341.023 7.14249 340.651 7.14249L168.309 423.29C192.849 460.818 200.286 492.215 188.388 510.421C183.74 517.667 176.117 522.311 165.892 524.541C161.43 525.47 156.596 526.027 151.577 526.027ZM127.036 522.683C142.095 525.841 155.109 526.399 165.52 524.169C175.559 521.94 182.996 517.295 187.83 510.236C199.542 492.401 192.292 461.19 167.937 424.034L127.036 522.683ZM162.731 415.488C164.59 418.089 166.264 420.504 167.751 422.919L331.541 27.021L162.731 415.488Z" fill="white"/>
<path d="M193.035 480.139L192.478 479.953L340.651 6.58496L341.023 6.77074L193.035 480.139Z" fill="white"/>
<path d="M162.546 416.045L162.36 415.674C109.746 341.176 8.23724 267.978 -63.8974 252.373L-64.4551 252.187L-63.8974 251.815L338.978 4.72754C339.536 4.91332 340.465 5.47066 340.837 6.028V6.21378V6.39956L162.546 416.045ZM-63.3396 252.187C8.79498 267.793 109.932 340.804 162.36 415.116L340.279 6.21378C339.908 5.84222 339.35 5.28488 338.978 5.28488L-63.3396 252.187Z" fill="white"/>
<path d="M339.927 5.64955L96.2383 343.338L96.6907 343.664L340.379 5.97554L339.927 5.64955Z" fill="white"/>
<path d="M15.4881 285.07L15.1162 284.699L339.35 5.09912L339.722 5.47068L15.4881 285.07Z" fill="white"/>
<path d="M-99.7787 359.939L-99.9646 359.754C-128.781 318.51 -138.077 283.955 -125.249 264.634C-120.601 257.389 -112.979 252.744 -102.753 250.515C-92.1562 248.285 -79.1422 248.843 -63.8973 252.001L338.235 5.09891V4.91312C338.235 4.72734 338.42 4.54156 338.978 4.72734L339.536 4.91312L338.606 5.47046C338.606 5.47046 338.606 5.65625 338.792 5.65625L338.978 5.84202L338.792 6.02781L-99.7787 359.939ZM-88.6238 249.586C-93.6435 249.586 -98.4773 249.957 -102.753 250.886C-112.793 253.116 -120.229 257.76 -125.063 264.82C-137.705 283.955 -128.409 318.325 -99.7787 359.196L338.42 5.65625L-63.8973 252.558C-73.0071 250.515 -81.1873 249.586 -88.6238 249.586Z" fill="white"/>
</g>
<mask id="mask5_25_1807" style="mask-type:luminance" maskUnits="userSpaceOnUse" x="-115" y="4" width="457" height="499">
<path d="M191.92 502.061C197.684 482.554 188.574 452.272 162.546 415.488C109.932 340.804 8.42326 267.606 -63.8972 252.187C-86.2069 247.356 -103.125 248.657 -114.466 254.973C-100.894 247.542 -82.6745 237.51 -69.1028 229.893C-62.224 226.177 -53.3001 221.161 -46.4213 217.446C-32.8496 210.015 -14.6301 199.982 -1.05834 192.365C12.5134 184.748 30.733 174.902 44.3047 167.285C51.1835 163.569 60.1073 158.553 66.9861 154.838C80.5578 147.407 98.7775 137.374 112.349 129.757C125.921 122.326 144.14 112.294 157.712 104.677C164.591 100.962 173.515 95.9454 180.394 92.2298C193.965 84.7986 212.185 74.7665 225.757 67.1495C239.328 59.7183 257.548 49.6861 271.12 42.0691C277.998 38.3535 286.922 33.3375 293.801 29.6219C307.373 22.1906 325.592 12.1585 339.164 4.5415C339.164 4.5415 339.35 4.5415 339.536 4.5415C340.094 4.72728 340.837 5.28463 341.209 5.84197C341.395 6.02775 341.395 6.39931 341.395 6.39931C291.198 171.93 241.559 336.903 191.92 502.061Z" fill="white"/>
</mask>
<g mask="url(#mask5_25_1807)">
<path d="M192.106 502.061L191.734 501.875C197.869 481.625 187.458 450.971 162.36 415.673C109.746 341.175 8.23698 267.978 -63.8976 252.372C-85.2777 247.728 -102.754 248.657 -114.094 254.973L-114.28 254.602L-46.4217 217.074C-32.85 209.643 -14.6304 199.611 -1.05872 191.994L338.42 4.72705C338.606 4.72705 338.792 4.72705 338.978 4.72705C339.536 4.91283 340.465 5.47017 340.837 6.02751C341.023 6.39908 341.209 6.58486 341.023 6.95642L192.106 502.061ZM-88.6241 249.214C-81.1876 249.214 -72.8215 250.143 -63.8976 252.001C8.42289 267.421 110.118 340.804 162.731 415.487C185.599 447.813 196.196 476.238 193.407 496.302L340.651 6.77063C340.651 6.77063 340.651 6.58485 340.465 6.39907C340.093 5.84173 339.35 5.47017 338.978 5.28439C338.792 5.28439 338.792 5.28439 338.792 5.28439L-1.05872 192.737C-14.6304 200.168 -32.85 210.2 -46.4217 217.817L-109.261 252.372C-103.311 250.143 -96.4325 249.214 -88.6241 249.214Z" fill="white"/>
</g>
<mask id="mask6_25_1807" style="mask-type:luminance" maskUnits="userSpaceOnUse" x="-100" y="5" width="441" height="521">
<path d="M340.837 6.7707C291.198 171.929 241.559 336.902 191.92 502.061C185.785 522.125 163.661 530.671 126.85 522.869C54.5299 507.449 -46.9791 434.251 -99.5928 359.568L338.606 5.8418C338.978 6.39914 339.722 6.95648 340.28 7.14226C340.651 6.95648 340.837 6.95648 340.837 6.7707Z" fill="white"/>
</mask>
<g mask="url(#mask6_25_1807)">
<path d="M126.851 523.054H126.665C54.3441 507.635 -47.3508 434.251 -99.9645 359.568L-100.15 359.382L-99.9645 359.196L338.792 5.47021L338.978 5.656C339.35 6.21334 340.094 6.5849 340.466 6.77068H340.651L340.466 6.95646L126.851 523.054ZM-99.4067 359.568C-46.7931 434.066 54.3441 507.077 126.665 522.497L340.094 7.14224C339.536 6.95646 338.978 6.5849 338.606 6.02756L-99.4067 359.568Z" fill="white"/>
<path d="M-33.4075 431.836L-33.7793 431.465L338.978 6.21338L339.35 6.39916L-33.4075 431.836Z" fill="white"/>
<path d="M339.329 6.56355L47.584 490.291L47.9025 490.483L339.647 6.75535L339.329 6.56355Z" fill="white"/>
<path d="M151.577 526.026C144.141 526.026 135.775 525.098 126.851 523.054H126.665L126.851 522.868L167.938 423.662C166.265 421.061 164.406 418.46 162.546 415.859V415.673V415.487L340.838 5.65576L341.024 6.02732C341.396 6.58466 341.396 6.77045 341.21 6.95623C341.21 6.95623 341.024 7.142 340.652 7.142L168.31 423.29C192.85 460.818 200.287 492.214 188.388 510.421C183.741 517.666 176.118 522.311 165.893 524.54C161.431 525.469 156.597 526.026 151.577 526.026ZM127.037 522.682C142.096 525.841 155.11 526.398 165.521 524.169C175.56 521.939 182.997 517.295 187.831 510.235C199.543 492.4 192.293 461.189 167.938 424.033L127.037 522.682ZM162.732 415.487C164.591 418.088 166.265 420.503 167.752 422.918L331.542 27.0205L162.732 415.487Z" fill="white"/>
<path d="M180.208 518.595L179.65 518.409L340.466 6.95605H341.024L180.208 518.595Z" fill="white"/>
</g>
<mask id="mask7_25_1807" style="mask-type:luminance" maskUnits="userSpaceOnUse" x="-100" y="5" width="441" height="521">
<path d="M340.837 6.7707C291.198 171.929 241.559 336.902 191.92 502.061C185.785 522.125 163.661 530.671 126.85 522.869C54.5299 507.449 -46.9791 434.251 -99.5928 359.568L338.606 5.8418C338.978 6.39914 339.722 6.95648 340.28 7.14226C340.651 6.95648 340.837 6.95648 340.837 6.7707Z" fill="white"/>
</mask>
<g mask="url(#mask7_25_1807)">
<path d="M151.577 526.027C144.14 526.027 135.96 525.098 126.85 523.054C54.5296 507.635 -47.1653 434.251 -99.7789 359.568L-99.9648 359.382L-99.7789 359.196L338.792 5.47021L338.978 5.656C339.35 6.21334 340.093 6.5849 340.465 6.77068C340.651 6.77068 340.651 6.77068 340.651 6.77068L341.023 6.95646L192.106 502.247C188.945 512.465 181.881 519.524 170.912 523.24C165.334 525.098 158.827 526.027 151.577 526.027ZM-99.4071 359.568C-46.7935 434.066 54.5296 507.263 126.85 522.683C144.884 526.584 159.571 526.584 170.726 522.869C181.509 519.153 188.573 512.279 191.548 502.061L340.279 7.32802H340.093C339.536 7.14224 338.792 6.77068 338.42 6.21334L-99.4071 359.568Z" fill="white"/>
</g>
<mask id="mask8_25_1807" style="mask-type:luminance" maskUnits="userSpaceOnUse" x="-131" y="4" width="471" height="356">
<path d="M-114.466 254.973C-100.894 247.542 -82.6745 237.51 -69.1028 229.893C-62.224 226.177 -53.3002 221.161 -46.4213 217.446C-32.8496 210.015 -14.6301 199.982 -1.05836 192.365C12.5134 184.748 30.7329 174.902 44.3047 167.285C51.1835 163.569 60.1073 158.553 66.9861 154.838C80.5578 147.407 98.7775 137.374 112.349 129.757C125.921 122.326 144.14 112.294 157.712 104.677C164.591 100.962 173.515 95.9454 180.394 92.2298C193.965 84.7986 212.185 74.7665 225.757 67.1495C239.328 59.7183 257.548 49.6861 271.12 42.0691C277.998 38.3535 286.922 33.3375 293.801 29.6219C307.373 22.1906 325.592 12.1585 339.164 4.5415C338.978 4.72728 338.978 4.91307 339.35 5.28463L-99.5927 359.568C-136.032 307.921 -139.75 268.907 -114.466 254.973Z" fill="white"/>
</mask>
<g mask="url(#mask8_25_1807)">
<path d="M-99.7787 359.939L-99.9646 359.754C-128.781 318.51 -138.077 283.955 -125.249 264.634C-120.601 257.389 -112.979 252.744 -102.753 250.515C-92.1562 248.285 -79.1422 248.843 -63.8973 252.001L338.235 5.09891V4.91312C338.235 4.72734 338.42 4.54156 338.978 4.72734L339.536 4.91312L338.606 5.47046C338.606 5.47046 338.606 5.65625 338.792 5.65625L338.978 5.84202L338.792 6.02781L-99.7787 359.939ZM-88.6238 249.586C-93.6435 249.586 -98.4773 249.957 -102.753 250.886C-112.793 253.116 -120.229 257.76 -125.063 264.82C-137.705 283.955 -128.409 318.325 -99.7787 359.196L338.42 5.65625L-63.8973 252.558C-73.0071 250.515 -81.1873 249.586 -88.6238 249.586Z" fill="white"/>
<path d="M338.255 4.61446L-117.182 256.54L-116.912 257.028L338.525 5.10207L338.255 4.61446Z" fill="white"/>
<path d="M338.351 5.12924L-129.992 294.95L-129.699 295.424L338.645 5.60308L338.351 5.12924Z" fill="white"/>
</g>
<mask id="mask9_25_1807" style="mask-type:luminance" maskUnits="userSpaceOnUse" x="-131" y="4" width="471" height="356">
<path d="M-114.466 254.973C-100.894 247.542 -82.6745 237.51 -69.1028 229.893C-62.224 226.177 -53.3002 221.161 -46.4213 217.446C-32.8496 210.015 -14.6301 199.982 -1.05836 192.365C12.5134 184.748 30.7329 174.902 44.3047 167.285C51.1835 163.569 60.1073 158.553 66.9861 154.838C80.5578 147.407 98.7775 137.374 112.349 129.757C125.921 122.326 144.14 112.294 157.712 104.677C164.591 100.962 173.515 95.9454 180.394 92.2298C193.965 84.7986 212.185 74.7665 225.757 67.1495C239.328 59.7183 257.548 49.6861 271.12 42.0691C277.998 38.3535 286.922 33.3375 293.801 29.6219C307.373 22.1906 325.592 12.1585 339.164 4.5415C338.978 4.72728 338.978 4.91307 339.35 5.28463L-99.5927 359.568C-136.032 307.921 -139.75 268.907 -114.466 254.973Z" fill="white"/>
</mask>
<g mask="url(#mask9_25_1807)">
<path d="M-99.7783 359.939L-99.9642 359.753C-123.947 325.756 -134.544 295.659 -129.896 275.409C-127.851 266.12 -122.646 259.246 -114.651 254.787L-46.7928 217.26C-33.2211 209.829 -15.0016 199.796 -1.42984 192.179L338.421 4.72705L338.607 5.09861C338.607 5.09861 338.607 5.28439 338.793 5.47017L338.979 5.65595L338.793 5.84173L-99.7783 359.939ZM-114.28 255.159C-122.274 259.618 -127.294 266.306 -129.339 275.409C-133.986 295.473 -123.389 325.384 -99.5924 359.196L338.421 5.65595C338.421 5.47017 338.235 5.47017 338.235 5.28439L-1.05803 192.737C-14.6297 200.168 -32.8493 210.2 -46.421 217.817L-114.28 255.159Z" fill="white"/>
</g>
<mask id="mask10_25_1807" style="mask-type:luminance" maskUnits="userSpaceOnUse" x="-278" y="5" width="619" height="766">
<path d="M340.837 6.95649L-275.653 770.142C-275.467 769.956 -275.653 769.771 -275.839 769.399C-276.211 768.842 -276.955 768.284 -277.512 768.099C-277.698 768.099 -277.884 768.099 -277.884 768.099L338.42 5.09868C338.42 5.09868 338.606 4.9129 338.792 5.09868C339.35 5.28446 340.094 5.8418 340.465 6.39914C340.837 6.58492 340.837 6.77071 340.837 6.95649Z" fill="white"/>
</mask>
<g mask="url(#mask10_25_1807)">
<path d="M-275.839 770.328H-276.025H-276.397L-275.839 769.585C-275.839 769.585 -275.839 769.585 -275.839 769.399L-276.025 769.213L-275.839 769.028L340.651 5.8418L340.837 6.02758C341.209 6.58492 341.209 6.7707 341.023 6.95648C341.023 7.14226 340.837 7.14226 340.465 7.14226L-275.281 769.585C-275.281 769.771 -275.281 769.956 -275.281 770.142C-275.467 770.328 -275.653 770.328 -275.839 770.328ZM340.465 6.7707C340.651 6.7707 340.651 6.7707 340.465 6.7707V6.7707Z" fill="white"/>
<path d="M-275.468 769.956L-275.839 769.771L340.651 6.58496L341.023 6.77074L-275.468 769.956Z" fill="white"/>
<path d="M-275.839 769.771L-276.025 769.585C-276.397 769.028 -277.141 768.656 -277.512 768.471H-277.884L-277.698 768.099L338.792 4.72754H338.978C339.536 4.91332 340.465 5.47066 340.837 6.028L341.023 6.21378L340.837 6.39956L-275.839 769.771ZM-277.141 768.099C-276.769 768.285 -276.211 768.656 -275.839 769.028L340.279 6.21378C339.908 5.84222 339.35 5.47066 338.978 5.28488L-277.141 768.099Z" fill="white"/>
<path d="M-276.025 769.028L-276.397 768.656L339.908 5.4707L340.279 5.84227L-276.025 769.028Z" fill="white"/>
<path d="M-276.769 768.471L-277.141 768.285L339.35 5.09912L339.722 5.2849L-276.769 768.471Z" fill="white"/>
<path d="M-277.698 769.399L-277.884 769.214C-278.256 768.656 -278.256 768.47 -278.07 768.285C-278.07 768.099 -277.884 768.099 -277.513 768.099L338.234 5.47046C338.234 5.28468 338.234 5.0989 338.234 4.91312C338.234 4.72734 338.42 4.54156 338.978 4.72734H339.35L338.792 5.47046C338.792 5.47046 338.792 5.47047 338.792 5.65625L338.978 5.84202L338.792 6.02781L-277.698 769.399Z" fill="white"/>
<path d="M-277.698 768.285L-278.07 768.099L338.42 4.91309L338.792 5.09887L-277.698 768.285Z" fill="white"/>
</g>
<mask id="mask11_25_1807" style="mask-type:luminance" maskUnits="userSpaceOnUse" x="-278" y="5" width="619" height="766">
<path d="M340.837 6.95649L-275.653 770.142C-275.467 769.956 -275.653 769.771 -275.839 769.399C-276.211 768.842 -276.955 768.284 -277.512 768.099C-277.698 768.099 -277.884 768.099 -277.884 768.099L338.42 5.09868C338.42 5.09868 338.606 4.9129 338.792 5.09868C339.35 5.28446 340.094 5.8418 340.465 6.39914C340.837 6.58492 340.837 6.77071 340.837 6.95649Z" fill="white"/>
</mask>
<g mask="url(#mask11_25_1807)">
<path d="M-275.468 770.142L-275.839 769.771C-275.839 769.771 -275.839 769.585 -276.025 769.399C-276.397 768.842 -277.141 768.47 -277.513 768.284C-277.698 768.284 -277.698 768.284 -277.698 768.284L-278.07 767.913L338.234 4.91283C338.42 4.72705 338.606 4.72705 338.978 4.72705C339.536 4.91283 340.465 5.47017 340.837 6.02751C341.209 6.58486 341.023 6.95642 341.023 6.95642L-275.468 770.142ZM-277.327 767.913C-276.769 768.099 -276.025 768.656 -275.468 769.213C-275.468 769.399 -275.282 769.399 -275.282 769.399L340.651 6.77063C340.651 6.77063 340.651 6.58485 340.465 6.39907C340.093 5.84173 339.35 5.47017 338.978 5.28439C338.792 5.28439 338.792 5.28439 338.792 5.28439L-277.327 767.913Z" fill="white"/>
</g>
<mask id="mask12_25_1807" style="mask-type:luminance" maskUnits="userSpaceOnUse" x="-278" y="5" width="619" height="766">
<path d="M-275.654 770.142C-275.654 770.142 -275.84 770.328 -276.026 770.142C-276.583 769.956 -277.327 769.399 -277.699 768.842L338.606 5.8418C338.978 6.39914 339.721 6.95648 340.279 7.14226C340.465 7.14226 340.651 7.14226 340.651 7.14226C155.853 235.838 -90.6693 541.075 -275.654 770.142Z" fill="white"/>
</mask>
<g mask="url(#mask12_25_1807)">
<path d="M-276.025 770.328C-276.769 770.142 -277.513 769.585 -278.07 769.028L-278.256 768.842L-278.07 768.656L338.606 5.47021L338.792 5.656C339.164 6.21334 339.907 6.5849 340.279 6.77068H340.651L340.465 7.14224L-276.025 770.328ZM-277.513 769.028C-277.141 769.399 -276.583 769.771 -276.211 769.956L339.907 7.14224C339.536 6.95646 338.978 6.5849 338.606 6.21334L-277.513 769.028Z" fill="white"/>
<path d="M-277.141 769.585L-277.513 769.399L338.978 6.21338L339.35 6.39916L-277.141 769.585Z" fill="white"/>
<path d="M-276.397 770.142L-276.769 769.771L339.536 6.58496L339.907 6.95652L-276.397 770.142Z" fill="white"/>
<path d="M-275.839 770.328H-276.025H-276.397L-275.839 769.585C-275.839 769.585 -275.839 769.585 -275.839 769.399L-276.025 769.213L-275.839 769.028L340.651 5.8418L340.837 6.02758C341.209 6.58492 341.209 6.7707 341.023 6.95648C341.023 7.14226 340.837 7.14226 340.465 7.14226L-275.281 769.585C-275.281 769.771 -275.281 769.956 -275.281 770.142C-275.467 770.328 -275.653 770.328 -275.839 770.328ZM340.465 6.7707C340.651 6.7707 340.651 6.7707 340.465 6.7707V6.7707Z" fill="white"/>
<path d="M-275.468 770.328L-275.839 769.956L340.651 6.77051L340.837 7.14207L-275.468 770.328Z" fill="white"/>
</g>
<mask id="mask13_25_1807" style="mask-type:luminance" maskUnits="userSpaceOnUse" x="-278" y="5" width="619" height="766">
<path d="M-275.654 770.142C-275.654 770.142 -275.84 770.328 -276.026 770.142C-276.583 769.956 -277.327 769.399 -277.699 768.842L338.606 5.8418C338.978 6.39914 339.721 6.95648 340.279 7.14226C340.465 7.14226 340.651 7.14226 340.651 7.14226C155.853 235.838 -90.6693 541.075 -275.654 770.142Z" fill="white"/>
</mask>
<g mask="url(#mask13_25_1807)">
<path d="M-275.84 770.328H-276.026C-276.583 770.142 -277.513 769.585 -277.885 769.028L-278.071 768.842L-277.885 768.656L338.606 5.47021L338.792 5.656C339.163 6.21334 339.907 6.5849 340.279 6.77068C340.465 6.77068 340.465 6.77068 340.465 6.77068L340.837 7.14224L-275.468 770.142C-275.468 770.328 -275.654 770.328 -275.84 770.328ZM-277.513 769.028C-277.141 769.399 -276.583 769.956 -276.026 769.956C-275.84 769.956 -275.84 769.956 -275.84 769.956L340.279 7.14224C339.721 6.95646 339.163 6.5849 338.606 6.02756L-277.513 769.028Z" fill="white"/>
</g>
<mask id="mask14_25_1807" style="mask-type:luminance" maskUnits="userSpaceOnUse" x="-278" y="5" width="617" height="765">
<path d="M338.42 5.09863C338.234 5.28441 338.42 5.47019 338.606 5.84175L-277.699 769.028C-277.884 768.656 -278.07 768.47 -277.884 768.284C-93.086 539.217 153.622 233.98 338.42 5.09863Z" fill="white"/>
</mask>
<g mask="url(#mask14_25_1807)">
<path d="M-277.698 769.399L-277.884 769.213C-278.256 768.656 -278.256 768.47 -278.07 768.284C-278.07 768.098 -277.884 768.098 -277.513 768.098L338.234 5.46997C338.234 5.28419 338.234 5.09841 338.234 4.91263C338.234 4.72685 338.42 4.54108 338.978 4.72686H339.35L338.792 5.46997C338.792 5.46997 338.792 5.46998 338.792 5.65576L338.978 5.84153L338.792 6.02732L-277.698 769.399Z" fill="white"/>
<path d="M-277.698 768.656L-278.07 768.284L338.234 5.09863L338.606 5.47019L-277.698 768.656Z" fill="white"/>
</g>
<mask id="mask15_25_1807" style="mask-type:luminance" maskUnits="userSpaceOnUse" x="-278" y="5" width="617" height="765">
<path d="M338.42 5.09863C338.234 5.28441 338.42 5.47019 338.606 5.84175L-277.699 769.028C-277.884 768.656 -278.07 768.47 -277.884 768.284C-93.086 539.217 153.622 233.98 338.42 5.09863Z" fill="white"/>
</mask>
<g mask="url(#mask15_25_1807)">
<path d="M-277.698 769.399L-277.884 769.214C-278.256 768.656 -278.07 768.285 -278.07 768.285L338.234 4.91309L338.606 5.28465C338.606 5.28465 338.606 5.47043 338.792 5.65621L338.978 5.84199L338.792 6.02777L-277.698 769.399ZM338.234 5.65621L-277.698 768.285C-277.698 768.285 -277.698 768.285 -277.698 768.47L338.234 5.65621C338.42 5.65621 338.42 5.65621 338.234 5.65621Z" fill="white"/>
</g>
<mask id="mask16_25_1807" style="mask-type:luminance" maskUnits="userSpaceOnUse" x="338" y="0" width="7" height="7">
<path d="M344.741 4.35529C343.44 5.28419 341.953 6.2131 340.651 6.95622C340.837 6.77044 340.837 6.58466 340.465 6.2131C340.093 5.65575 339.35 5.09841 338.792 4.91263C338.606 4.91263 338.42 4.91264 338.234 5.09842C338.792 3.61217 339.35 2.12593 340.094 0.639684C340.279 0.453904 340.465 0.268126 341.023 0.453906C342.139 0.639687 343.626 1.75437 344.37 2.86905C345.113 3.42639 345.113 3.98373 344.741 4.35529Z" fill="white"/>
</mask>
<g mask="url(#mask16_25_1807)">
<path d="M340.465 7.32785H340.279L339.722 7.14207L340.465 6.58473C340.465 6.58473 340.465 6.39894 340.279 6.39894L340.094 6.21317L344.37 2.49756L344.555 2.68334C345.113 3.42646 345.113 3.9838 344.927 4.35536C344.741 4.54114 344.555 4.72692 343.812 4.72692L340.837 6.95629C340.837 7.14207 340.837 7.14207 340.837 7.14207C341.023 7.14207 340.837 7.32785 340.465 7.32785ZM340.837 6.21317L343.812 3.9838H343.998C344.37 3.9838 344.555 3.9838 344.741 3.9838C344.741 3.79802 344.741 3.61224 344.555 3.0549L340.837 6.21317Z" fill="white"/>
<path d="M340.837 7.14215L340.651 6.77059L344.741 3.98389L344.927 4.54123L340.837 7.14215Z" fill="white"/>
<path d="M344.663 3.60989L340.582 6.53076L340.799 6.8328L344.879 3.91193L344.663 3.60989Z" fill="white"/>
<path d="M340.652 6.5846L340.466 6.39882C340.094 5.84148 339.35 5.46992 338.978 5.28414H338.606L341.023 0.268066H341.209C342.325 0.453847 343.812 1.56853 344.742 2.86899L344.928 3.05477L340.652 6.5846ZM339.35 4.91258C339.908 5.09836 340.28 5.46992 340.652 5.84148L344.184 2.68321C343.44 1.75431 342.139 0.825409 341.209 0.639629L339.35 4.91258Z" fill="white"/>
<path d="M340.28 5.84131L339.908 5.46974L343.441 1.56836L343.812 1.75414L340.28 5.84131Z" fill="white"/>
<path d="M339.721 5.28416L339.35 5.09838L342.138 0.639648L342.51 0.825426L339.721 5.28416Z" fill="white"/>
<path d="M338.606 6.21327L338.42 5.84171C338.048 5.28437 338.049 5.09859 338.234 4.91281C338.234 4.72703 338.42 4.72703 338.792 4.72703L340.279 1.75454C339.908 1.1972 339.908 0.639862 340.094 0.454082C340.279 0.268301 340.465 0.0825195 341.209 0.0825195H341.581L340.837 1.56876V1.75454L338.606 6.21327ZM338.792 5.09859C338.606 5.09859 338.606 5.28437 338.792 5.09859C338.606 5.28437 338.606 5.28437 338.792 5.09859ZM340.837 0.454082C340.651 0.454082 340.465 0.454079 340.465 0.639859C340.465 0.639859 340.465 0.825638 340.465 1.1972L340.837 0.454082Z" fill="white"/>
<path d="M338.792 5.09836L338.234 4.91258L340.094 0.268066L340.651 0.453851L338.792 5.09836Z" fill="white"/>
</g>
<mask id="mask17_25_1807" style="mask-type:luminance" maskUnits="userSpaceOnUse" x="338" y="0" width="7" height="7">
<path d="M344.741 4.35529C343.44 5.28419 341.953 6.2131 340.651 6.95622C340.837 6.77044 340.837 6.58466 340.465 6.2131C340.093 5.65575 339.35 5.09841 338.792 4.91263C338.606 4.91263 338.42 4.91264 338.234 5.09842C338.792 3.61217 339.35 2.12593 340.094 0.639684C340.279 0.453904 340.465 0.268126 341.023 0.453906C342.139 0.639687 343.626 1.75437 344.37 2.86905C345.113 3.42639 345.113 3.98373 344.741 4.35529Z" fill="white"/>
</mask>
<g mask="url(#mask17_25_1807)">
<path d="M340.837 7.14179L340.651 6.77023C340.651 6.77023 340.651 6.58445 340.465 6.39867C340.093 5.84133 339.35 5.46977 338.978 5.28399C338.792 5.28399 338.792 5.28399 338.792 5.28399L338.42 5.09821C338.792 3.98353 339.164 3.05462 339.535 2.12572C339.721 1.56838 339.907 1.19682 340.093 0.63948C340.093 0.4537 340.465 0.0821377 341.395 0.267918C342.51 0.453698 343.997 1.56838 344.927 2.86885C345.299 3.42619 345.485 3.98353 345.485 4.35509C345.485 4.54087 345.299 4.72665 345.113 4.72665L340.837 7.14179ZM338.792 4.72665C339.535 4.91243 340.279 5.46977 340.837 6.02711C341.023 6.21289 341.023 6.39867 341.023 6.39867L344.741 3.98353C344.741 3.98353 344.741 3.98353 344.927 3.79775C344.927 3.61197 344.927 3.42618 344.555 2.68306C343.811 1.56838 342.324 0.639479 341.395 0.267918C341.209 0.267918 340.837 0.082142 340.651 0.453703C340.465 1.01104 340.279 1.3826 340.093 1.93994C339.535 3.05463 339.164 3.79775 338.792 4.72665Z" fill="white"/>
</g>
<mask id="mask18_25_1807" style="mask-type:luminance" maskUnits="userSpaceOnUse" x="338" y="1" width="7" height="6">
<path d="M340.652 6.95625C340.652 6.95625 340.466 6.95625 340.28 6.95625C339.722 6.77047 338.978 6.21313 338.606 5.65579L340.652 1.75439C341.395 2.86908 342.882 3.98376 343.998 4.16954C344.37 4.16954 344.556 4.16954 344.742 4.16954C343.44 5.09845 342.139 6.02735 340.652 6.95625Z" fill="white"/>
</mask>
<g mask="url(#mask18_25_1807)">
<path d="M340.466 7.142C339.722 6.95622 338.978 6.39888 338.606 5.84154V5.65576L340.837 1.38281L341.023 1.75437C341.767 2.86905 343.254 3.79796 344.184 4.16952L344.742 4.3553L340.466 7.142ZM338.978 5.65576C339.35 6.02732 339.908 6.58466 340.28 6.58466L343.44 4.3553C342.511 3.98373 341.395 3.24062 340.652 2.31171L338.978 5.65576Z" fill="white"/>
<path d="M339.35 6.39896L338.979 6.21319L341.395 2.86914L341.767 3.05492L339.35 6.39896Z" fill="white"/>
<path d="M339.908 6.95636L339.536 6.58479L342.697 3.6123L343.068 3.98387L339.908 6.95636Z" fill="white"/>
<path d="M340.465 7.32785H340.279L339.722 7.14207L340.465 6.58473C340.465 6.58473 340.465 6.39894 340.279 6.39894L340.094 6.21317L344.37 2.49756L344.555 2.68334C345.113 3.42646 345.113 3.9838 344.927 4.35536C344.741 4.54114 344.555 4.72692 343.812 4.72692L340.837 6.95629C340.837 7.14207 340.837 7.14207 340.837 7.14207C341.023 7.14207 340.837 7.32785 340.465 7.32785ZM340.837 6.21317L343.812 3.9838H343.998C344.37 3.9838 344.555 3.9838 344.741 3.9838C344.741 3.79802 344.741 3.61224 344.555 3.0549L340.837 6.21317Z" fill="white"/>
</g>
<mask id="mask19_25_1807" style="mask-type:luminance" maskUnits="userSpaceOnUse" x="338" y="1" width="7" height="6">
<path d="M340.652 6.95625C340.652 6.95625 340.466 6.95625 340.28 6.95625C339.722 6.77047 338.978 6.21313 338.606 5.65579L340.652 1.75439C341.395 2.86908 342.882 3.98376 343.998 4.16954C344.37 4.16954 344.556 4.16954 344.742 4.16954C343.44 5.09845 342.139 6.02735 340.652 6.95625Z" fill="white"/>
</mask>
<g mask="url(#mask19_25_1807)">
<path d="M340.466 7.32804H340.28C339.722 7.14226 338.793 6.58492 338.421 6.02758V5.84179L340.652 1.56885L340.838 1.94041C341.581 3.05509 343.069 3.98399 343.998 4.35555C344.37 4.35555 344.556 4.35555 344.556 4.35555L344.742 4.72712L340.652 7.32804C340.838 7.14226 340.652 7.32804 340.466 7.32804ZM338.979 5.65602C339.351 6.21336 339.908 6.58492 340.466 6.58492C340.652 6.58492 340.652 6.58492 340.652 6.58492L343.998 4.35555C342.883 4.16977 341.581 3.24087 340.652 2.12619L338.979 5.65602Z" fill="white"/>
</g>
<mask id="mask20_25_1807" style="mask-type:luminance" maskUnits="userSpaceOnUse" x="338" y="0" width="3" height="6">
<path d="M340.279 0.640137C340.093 1.0117 340.279 1.38326 340.651 1.9406L338.606 5.84199C338.42 5.47042 338.42 5.28465 338.42 5.09887C338.978 3.61263 339.721 2.12638 340.279 0.640137Z" fill="white"/>
</mask>
<g mask="url(#mask20_25_1807)">
<path d="M338.606 6.21376L338.42 5.8422C338.048 5.28485 338.049 5.09907 338.234 4.91329C338.234 4.72751 338.42 4.72752 338.792 4.72752L340.279 1.75503C339.908 1.19769 339.908 0.64035 340.094 0.45457C340.279 0.26879 340.465 0.0830078 341.209 0.0830078H341.581L340.837 1.56925V1.75503L338.606 6.21376ZM338.792 5.09908C338.606 5.09908 338.606 5.28486 338.792 5.09908C338.606 5.28486 338.606 5.28486 338.792 5.09908ZM340.837 0.45457C340.651 0.45457 340.465 0.454567 340.465 0.640347C340.465 0.640347 340.465 0.826126 340.465 1.19769L340.837 0.45457Z" fill="white"/>
<path d="M338.606 5.47068L338.234 5.2849L339.908 0.826172L340.465 1.01196L338.606 5.47068Z" fill="white"/>
</g>
<mask id="mask21_25_1807" style="mask-type:luminance" maskUnits="userSpaceOnUse" x="338" y="0" width="3" height="6">
<path d="M340.279 0.640137C340.093 1.0117 340.279 1.38326 340.651 1.9406L338.606 5.84199C338.42 5.47042 338.42 5.28465 338.42 5.09887C338.978 3.61263 339.721 2.12638 340.279 0.640137Z" fill="white"/>
</mask>
<g mask="url(#mask21_25_1807)">
<path d="M338.606 6.21378L338.42 5.84222C338.234 5.47066 338.048 5.09909 338.234 4.91331L340.093 0.45459L340.465 0.640367C340.465 0.826148 340.465 1.19771 340.837 1.75505V1.94083L338.606 6.21378ZM340.093 1.38349L338.606 5.0991L340.279 1.75505C340.279 1.75505 340.279 1.56927 340.093 1.38349Z" fill="white"/>
</g>
<mask id="mask22_25_1807" style="mask-type:luminance" maskUnits="userSpaceOnUse" x="-115" y="4" width="457" height="499">
<path d="M340.837 6.77087C291.198 171.93 241.559 336.903 191.92 502.061C197.684 482.554 188.574 452.272 162.546 415.488C109.932 340.804 8.42326 267.606 -63.8972 252.187C-86.2069 247.356 -103.125 248.657 -114.466 254.973C-100.894 247.542 -82.6745 237.51 -69.1028 229.893C-62.224 226.177 -53.3001 221.161 -46.4213 217.446C-32.8496 210.015 -14.6301 199.982 -1.05834 192.365C12.5134 184.934 30.733 174.902 44.3047 167.285C51.1835 163.569 60.1073 158.553 66.9861 154.838C80.5578 147.407 98.7775 137.374 112.349 129.757C125.921 122.326 144.14 112.294 157.712 104.677C164.591 100.962 173.515 95.9454 180.394 92.2298C193.965 84.7986 212.185 74.7665 225.757 67.1495C239.328 59.7183 257.548 49.6861 271.12 42.0691C277.998 38.3535 286.922 33.3375 293.801 29.6219C307.373 22.1906 325.592 12.1585 339.164 4.5415C339.164 4.5415 339.35 4.5415 339.536 4.5415C340.094 4.72728 340.837 5.28463 341.209 5.84197C340.837 6.39931 340.837 6.77087 340.837 6.77087Z" fill="white"/>
</mask>
<g mask="url(#mask22_25_1807)">
<path d="M151.577 526.027C144.14 526.027 135.774 525.098 126.85 523.055H126.664L126.85 522.869L167.937 423.662C166.264 421.061 164.405 418.46 162.545 415.859V415.673V415.488L340.837 5.65625L341.023 6.02781C341.395 6.58515 341.395 6.77093 341.209 6.95671C341.209 6.95671 341.023 7.14249 340.651 7.14249L168.309 423.29C192.849 460.818 200.286 492.215 188.388 510.421C183.74 517.667 176.117 522.311 165.892 524.541C161.43 525.47 156.596 526.027 151.577 526.027ZM127.036 522.683C142.095 525.841 155.109 526.399 165.52 524.169C175.559 521.94 182.996 517.295 187.83 510.236C199.542 492.401 192.292 461.19 167.937 424.034L127.036 522.683ZM162.731 415.488C164.59 418.089 166.264 420.504 167.751 422.919L331.541 27.021L162.731 415.488Z" fill="white"/>
<path d="M193.035 480.139L192.478 479.953L340.651 6.58496L341.023 6.77074L193.035 480.139Z" fill="white"/>
<path d="M162.546 416.045L162.36 415.674C109.746 341.176 8.23724 267.978 -63.8974 252.373L-64.4551 252.187L-63.8974 251.815L338.978 4.72754C339.536 4.91332 340.465 5.47066 340.837 6.028V6.21378V6.39956L162.546 416.045ZM-63.3396 252.187C8.79498 267.793 109.932 340.804 162.36 415.116L340.279 6.21378C339.908 5.84222 339.35 5.28488 338.978 5.28488L-63.3396 252.187Z" fill="white"/>
<path d="M339.927 5.64955L96.2383 343.338L96.6907 343.664L340.379 5.97554L339.927 5.64955Z" fill="white"/>
<path d="M15.4881 285.07L15.1162 284.699L339.35 5.09912L339.722 5.47068L15.4881 285.07Z" fill="white"/>
<path d="M-99.7787 359.939L-99.9646 359.754C-128.781 318.51 -138.077 283.955 -125.249 264.634C-120.601 257.389 -112.979 252.744 -102.753 250.515C-92.1562 248.285 -79.1422 248.843 -63.8973 252.001L338.235 5.09891V4.91312C338.235 4.72734 338.42 4.54156 338.978 4.72734L339.536 4.91312L338.606 5.47046C338.606 5.47046 338.606 5.65625 338.792 5.65625L338.978 5.84202L338.792 6.02781L-99.7787 359.939ZM-88.6238 249.586C-93.6435 249.586 -98.4773 249.957 -102.753 250.886C-112.793 253.116 -120.229 257.76 -125.063 264.82C-137.705 283.955 -128.409 318.325 -99.7787 359.196L338.42 5.65625L-63.8973 252.558C-73.0071 250.515 -81.1873 249.586 -88.6238 249.586Z" fill="white"/>
</g>
<mask id="mask23_25_1807" style="mask-type:luminance" maskUnits="userSpaceOnUse" x="-115" y="4" width="457" height="499">
<path d="M340.837 6.77087C291.198 171.93 241.559 336.903 191.92 502.061C197.684 482.554 188.574 452.272 162.546 415.488C109.932 340.804 8.42326 267.606 -63.8972 252.187C-86.2069 247.356 -103.125 248.657 -114.466 254.973C-100.894 247.542 -82.6745 237.51 -69.1028 229.893C-62.224 226.177 -53.3001 221.161 -46.4213 217.446C-32.8496 210.015 -14.6301 199.982 -1.05834 192.365C12.5134 184.934 30.733 174.902 44.3047 167.285C51.1835 163.569 60.1073 158.553 66.9861 154.838C80.5578 147.407 98.7775 137.374 112.349 129.757C125.921 122.326 144.14 112.294 157.712 104.677C164.591 100.962 173.515 95.9454 180.394 92.2298C193.965 84.7986 212.185 74.7665 225.757 67.1495C239.328 59.7183 257.548 49.6861 271.12 42.0691C277.998 38.3535 286.922 33.3375 293.801 29.6219C307.373 22.1906 325.592 12.1585 339.164 4.5415C339.164 4.5415 339.35 4.5415 339.536 4.5415C340.094 4.72728 340.837 5.28463 341.209 5.84197C340.837 6.39931 340.837 6.77087 340.837 6.77087Z" fill="white"/>
</mask>
<g mask="url(#mask23_25_1807)">
<path d="M192.106 502.061L191.734 501.875C197.869 481.625 187.458 450.971 162.36 415.673C109.746 341.175 8.23698 267.978 -63.8976 252.372C-85.2777 247.728 -102.754 248.657 -114.094 254.973L-114.28 254.602L338.42 4.72705C338.606 4.72705 338.792 4.72705 338.978 4.72705C339.536 4.91283 340.465 5.47017 340.837 6.02751C341.023 6.39908 341.209 6.58486 341.023 6.95642L192.106 502.061ZM-88.6241 249.214C-81.1876 249.214 -72.8215 250.143 -63.8976 252.001C8.42289 267.421 110.118 340.804 162.731 415.487C185.599 447.813 196.196 476.238 193.407 496.302L340.651 6.77063C340.651 6.77063 340.651 6.58485 340.465 6.39907C340.093 5.84173 339.35 5.47017 338.978 5.28439C338.792 5.28439 338.792 5.28439 338.792 5.28439L-109.261 252.372C-103.311 250.143 -96.4325 249.214 -88.6241 249.214Z" fill="white"/>
</g>
<mask id="mask24_25_1807" style="mask-type:luminance" maskUnits="userSpaceOnUse" x="-100" y="5" width="441" height="521">
<path d="M191.92 502.061C185.785 522.125 163.661 530.671 126.85 522.869C54.5299 507.449 -46.9791 434.251 -99.5928 359.568L338.606 5.8418C338.978 6.39914 339.722 6.95648 340.28 7.14226C340.465 7.14226 340.651 7.14226 340.837 6.95648C291.198 171.929 241.559 336.902 191.92 502.061Z" fill="white"/>
</mask>
<g mask="url(#mask24_25_1807)">
<path d="M126.851 523.054H126.665C54.3441 507.635 -47.3508 434.251 -99.9645 359.568L-100.15 359.382L-99.9645 359.196L338.792 5.47021L338.978 5.656C339.35 6.21334 340.094 6.5849 340.466 6.77068H340.651L340.466 6.95646L126.851 523.054ZM-99.4067 359.568C-46.7931 434.066 54.3441 507.077 126.665 522.497L340.094 7.14224C339.536 6.95646 338.978 6.5849 338.606 6.02756L-99.4067 359.568Z" fill="white"/>
<path d="M-33.4075 431.836L-33.7793 431.465L338.978 6.21338L339.35 6.39916L-33.4075 431.836Z" fill="white"/>
<path d="M339.329 6.56355L47.584 490.291L47.9025 490.483L339.647 6.75535L339.329 6.56355Z" fill="white"/>
<path d="M151.577 526.026C144.141 526.026 135.775 525.098 126.851 523.054H126.665L126.851 522.868L167.938 423.662C166.265 421.061 164.406 418.46 162.546 415.859V415.673V415.487L340.838 5.65576L341.024 6.02732C341.396 6.58466 341.396 6.77045 341.21 6.95623C341.21 6.95623 341.024 7.142 340.652 7.142L168.31 423.29C192.85 460.818 200.287 492.214 188.388 510.421C183.741 517.666 176.118 522.311 165.893 524.54C161.431 525.469 156.597 526.026 151.577 526.026ZM127.037 522.682C142.096 525.841 155.11 526.398 165.521 524.169C175.56 521.939 182.997 517.295 187.831 510.235C199.543 492.4 192.293 461.189 167.938 424.033L127.037 522.682ZM162.732 415.487C164.591 418.088 166.265 420.503 167.752 422.918L331.542 27.0205L162.732 415.487Z" fill="white"/>
<path d="M180.208 518.595L179.65 518.409L340.466 6.95605H341.024L180.208 518.595Z" fill="white"/>
</g>
<mask id="mask25_25_1807" style="mask-type:luminance" maskUnits="userSpaceOnUse" x="-100" y="5" width="441" height="521">
<path d="M191.92 502.061C185.785 522.125 163.661 530.671 126.85 522.869C54.5299 507.449 -46.9791 434.251 -99.5928 359.568L338.606 5.8418C338.978 6.39914 339.722 6.95648 340.28 7.14226C340.465 7.14226 340.651 7.14226 340.837 6.95648C291.198 171.929 241.559 336.902 191.92 502.061Z" fill="white"/>
</mask>
<g mask="url(#mask25_25_1807)">
<path d="M151.577 526.027C144.14 526.027 135.96 525.098 126.85 523.054C54.5296 507.635 -47.1653 434.251 -99.7789 359.568L-99.9648 359.382L-99.7789 359.196L338.792 5.47021L338.978 5.656C339.35 6.21334 340.093 6.5849 340.465 6.77068C340.651 6.77068 340.651 6.77068 340.651 6.77068L341.023 6.95646L192.106 502.247C188.945 512.465 181.881 519.524 170.912 523.24C165.334 525.098 158.827 526.027 151.577 526.027ZM-99.4071 359.568C-46.7935 434.066 54.5296 507.263 126.85 522.683C144.884 526.584 159.571 526.584 170.726 522.869C181.509 519.153 188.573 512.279 191.548 502.061L340.279 7.32802H340.093C339.536 7.14224 338.792 6.77068 338.42 6.21334L-99.4071 359.568Z" fill="white"/>
</g>
<mask id="mask26_25_1807" style="mask-type:luminance" maskUnits="userSpaceOnUse" x="-131" y="4" width="470" height="356">
<path d="M338.606 4.91309C338.42 5.09887 338.42 5.28465 338.792 5.65621L-99.5931 359.568C-136.032 307.921 -139.565 268.907 -114.28 254.973C-100.709 247.542 -82.4891 237.51 -68.9174 229.893C-62.0385 226.177 -53.1147 221.161 -46.2359 217.446C-32.6641 210.015 -14.4446 199.982 -0.872864 192.365C12.6989 184.934 30.9184 174.902 44.4901 167.285C51.369 163.57 60.2928 158.553 67.1716 154.838C80.7433 147.407 98.9629 137.374 112.535 129.757C126.106 122.326 144.326 112.294 157.898 104.677C164.776 100.962 173.7 95.9455 180.579 92.2299C194.151 84.7986 212.37 74.7665 225.942 67.1495C239.514 59.7183 257.733 49.6862 271.305 42.0692C278.184 38.3536 287.108 33.3375 293.987 29.6219C306.815 22.5622 325.034 12.5301 338.606 4.91309Z" fill="white"/>
</mask>
<g mask="url(#mask26_25_1807)">
<path d="M-99.7787 359.939L-99.9646 359.754C-128.781 318.51 -138.077 283.955 -125.249 264.634C-120.601 257.389 -112.979 252.744 -102.753 250.515C-92.1562 248.285 -79.1422 248.843 -63.8973 252.001L338.235 5.09891V4.91312C338.235 4.72734 338.42 4.54156 338.978 4.72734L339.536 4.91312L338.606 5.47046C338.606 5.47046 338.606 5.65625 338.792 5.65625L338.978 5.84202L338.792 6.02781L-99.7787 359.939ZM-88.6238 249.586C-93.6435 249.586 -98.4773 249.957 -102.753 250.886C-112.793 253.116 -120.229 257.76 -125.063 264.82C-137.705 283.955 -128.409 318.325 -99.7787 359.196L338.42 5.65625L-63.8973 252.558C-73.0071 250.515 -81.1873 249.586 -88.6238 249.586Z" fill="white"/>
<path d="M338.255 4.61446L-117.182 256.54L-116.912 257.028L338.525 5.10207L338.255 4.61446Z" fill="white"/>
<path d="M338.35 5.12973L-129.993 294.951L-129.7 295.425L338.644 5.60357L338.35 5.12973Z" fill="white"/>
</g>
<mask id="mask27_25_1807" style="mask-type:luminance" maskUnits="userSpaceOnUse" x="-131" y="4" width="470" height="356">
<path d="M338.606 4.91309C338.42 5.09887 338.42 5.28465 338.792 5.65621L-99.5931 359.568C-136.032 307.921 -139.565 268.907 -114.28 254.973C-100.709 247.542 -82.4891 237.51 -68.9174 229.893C-62.0385 226.177 -53.1147 221.161 -46.2359 217.446C-32.6641 210.015 -14.4446 199.982 -0.872864 192.365C12.6989 184.934 30.9184 174.902 44.4901 167.285C51.369 163.57 60.2928 158.553 67.1716 154.838C80.7433 147.407 98.9629 137.374 112.535 129.757C126.106 122.326 144.326 112.294 157.898 104.677C164.776 100.962 173.7 95.9455 180.579 92.2299C194.151 84.7986 212.37 74.7665 225.942 67.1495C239.514 59.7183 257.733 49.6862 271.305 42.0692C278.184 38.3536 287.108 33.3375 293.987 29.6219C306.815 22.5622 325.034 12.5301 338.606 4.91309Z" fill="white"/>
</mask>
<g mask="url(#mask27_25_1807)">
<path d="M-99.7793 359.94L-99.9652 359.754C-123.948 325.756 -134.545 295.66 -129.897 275.41C-127.852 266.121 -122.647 259.247 -114.652 254.788L338.42 4.72754L338.606 5.0991C338.606 5.0991 338.606 5.28488 338.792 5.47066L338.978 5.65644L338.792 5.84222L-99.7793 359.94ZM338.234 5.47066L-114.281 255.159C-122.275 259.618 -127.295 266.306 -129.34 275.41C-133.987 295.474 -123.39 325.384 -99.5934 359.197L338.42 5.65644C338.234 5.65644 338.234 5.47066 338.234 5.47066Z" fill="white"/>
</g>
<mask id="mask28_25_1807" style="mask-type:luminance" maskUnits="userSpaceOnUse" x="-279" y="249" width="473" height="522">
<path d="M177.233 520.082C26.2708 603.497 -124.691 686.727 -275.653 770.142C-275.468 769.957 -275.468 769.771 -275.839 769.399C-276.211 768.842 -276.955 768.284 -277.513 768.099C-277.698 768.099 -277.884 768.099 -278.07 768.285C-228.431 603.126 -178.792 438.153 -129.153 272.994C-123.018 252.93 -100.894 244.384 -64.0834 252.187C8.23712 267.606 109.746 340.804 162.36 415.488C198.985 467.32 202.517 506.148 177.233 520.082Z" fill="white"/>
</mask>
<g mask="url(#mask28_25_1807)">
<path d="M-275.839 770.328H-276.025L-276.583 770.142L-275.653 769.585C-275.653 769.585 -275.653 769.399 -275.839 769.399L-276.025 769.214L-275.839 769.028L162.732 415.116L162.917 415.302C191.92 456.359 201.216 491.1 188.388 510.422C183.74 517.667 176.117 522.311 165.892 524.541C155.295 526.77 142.281 526.213 127.036 523.055L-275.282 769.957V770.142C-275.468 770.328 -275.653 770.328 -275.839 770.328ZM-275.468 769.399L126.85 522.683C142.095 526.027 155.109 526.399 165.52 524.169C175.56 521.94 182.996 517.295 187.83 510.236C200.472 491.1 191.176 456.731 162.546 415.859L-275.468 769.399Z" fill="white"/>
<path d="M179.65 518.108L-275.787 770.034L-275.517 770.521L179.92 518.596L179.65 518.108Z" fill="white"/>
<path d="M192.728 479.762L-275.615 769.583L-275.322 770.057L193.022 480.236L192.728 479.762Z" fill="white"/>
<path d="M-275.839 769.771L-276.025 769.585C-276.397 769.028 -277.141 768.656 -277.512 768.471H-277.698L-277.512 768.285L-63.8973 252.187H-63.7113C8.60919 267.607 110.304 340.99 162.918 415.674L163.104 415.86L162.918 416.045L-275.839 769.771ZM-277.141 767.913C-276.583 768.099 -276.025 768.471 -275.653 769.028L162.36 415.488C109.746 340.99 8.60919 267.978 -63.7113 252.559L-277.141 767.913Z" fill="white"/>
<path d="M-276.025 769.028L-276.397 768.656L96.3604 343.219L96.7322 343.591L-276.025 769.028Z" fill="white"/>
<path d="M14.8788 284.635L-276.866 768.363L-276.548 768.555L15.1973 284.827L14.8788 284.635Z" fill="white"/>
</g>
<mask id="mask29_25_1807" style="mask-type:luminance" maskUnits="userSpaceOnUse" x="-279" y="249" width="473" height="522">
<path d="M177.233 520.082C26.2708 603.497 -124.691 686.727 -275.653 770.142C-275.468 769.957 -275.468 769.771 -275.839 769.399C-276.211 768.842 -276.955 768.284 -277.513 768.099C-277.698 768.099 -277.884 768.099 -278.07 768.285C-228.431 603.126 -178.792 438.153 -129.153 272.994C-123.018 252.93 -100.894 244.384 -64.0834 252.187C8.23712 267.606 109.746 340.804 162.36 415.488C198.985 467.32 202.517 506.148 177.233 520.082Z" fill="white"/>
</mask>
<g mask="url(#mask29_25_1807)">
<path d="M-275.653 770.328L-275.839 769.957C-275.839 769.957 -275.839 769.771 -276.025 769.585C-276.397 769.028 -277.141 768.656 -277.513 768.47C-277.698 768.47 -277.698 768.47 -277.698 768.47L-278.07 768.285L-129.153 272.994C-125.993 262.776 -118.928 255.717 -107.959 252.001C-96.6183 248.285 -81.7452 248.285 -63.7116 252.001C8.60895 267.421 110.304 340.804 162.917 415.488C186.9 449.486 197.497 479.582 192.85 499.832C190.805 509.121 185.599 515.995 177.605 520.454L-275.653 770.328ZM-277.513 767.913C-276.769 768.099 -276.025 768.656 -275.468 769.214C-275.282 769.399 -275.282 769.585 -275.282 769.771L177.233 519.896C185.227 515.438 190.247 508.75 192.292 499.646C196.94 479.396 186.343 449.671 162.36 415.674C109.746 341.176 8.23709 267.978 -63.8975 252.373C-81.9311 248.471 -96.6183 248.471 -107.773 252.187C-118.556 255.902 -125.621 262.776 -128.596 272.994L-277.513 767.913Z" fill="white"/>
</g>
<mask id="mask30_25_1807" style="mask-type:luminance" maskUnits="userSpaceOnUse" x="-278" y="359" width="456" height="412">
<path d="M-275.654 770.142C-275.654 770.142 -275.84 770.142 -276.026 770.142C-276.583 769.956 -277.327 769.399 -277.699 768.842L-99.5932 359.382C-46.9796 434.066 54.5294 507.263 126.85 522.683C149.16 527.513 166.078 526.213 177.419 519.896C26.2706 603.497 -124.692 686.727 -275.654 770.142Z" fill="white"/>
</mask>
<g mask="url(#mask30_25_1807)">
<path d="M-276.026 770.328C-276.769 770.142 -277.513 769.585 -277.885 769.028V768.842V768.656L-99.5933 358.825L-99.4074 359.196C-46.7938 433.694 54.7152 506.892 126.85 522.497L127.408 522.683L126.85 523.055L-276.026 770.328ZM-277.513 768.842C-277.141 769.214 -276.583 769.771 -276.212 769.771L126.106 522.869C53.9716 507.263 -47.1656 434.252 -99.5933 359.939L-277.513 768.842Z" fill="white"/>
<path d="M-276.583 770.143L-276.769 769.771L47.4648 489.986L47.8367 490.357L-276.583 770.143Z" fill="white"/>
<path d="M-275.84 770.328H-276.026L-276.583 770.142L-275.654 769.585C-275.654 769.585 -275.654 769.399 -275.84 769.399L-276.026 769.214L-275.84 769.028L162.731 415.116L162.917 415.302C191.92 456.359 201.215 491.1 188.387 510.422C183.739 517.667 176.117 522.311 165.892 524.541C155.295 526.77 142.281 526.213 127.036 523.055L-275.282 769.957V770.142C-275.468 770.328 -275.654 770.328 -275.84 770.328ZM-275.468 769.399L126.85 522.683C142.095 526.027 155.109 526.399 165.52 524.169C175.559 521.94 182.996 517.295 187.829 510.236C200.472 491.1 191.176 456.731 162.545 415.859L-275.468 769.399Z" fill="white"/>
</g>
<mask id="mask31_25_1807" style="mask-type:luminance" maskUnits="userSpaceOnUse" x="-278" y="359" width="456" height="412">
<path d="M-275.654 770.142C-275.654 770.142 -275.84 770.142 -276.026 770.142C-276.583 769.956 -277.327 769.399 -277.699 768.842L-99.5932 359.382C-46.9796 434.066 54.5294 507.263 126.85 522.683C149.16 527.513 166.078 526.213 177.419 519.896C26.2706 603.497 -124.692 686.727 -275.654 770.142Z" fill="white"/>
</mask>
<g mask="url(#mask31_25_1807)">
<path d="M-275.84 770.328H-276.026C-276.583 770.142 -277.513 769.585 -277.885 769.028V768.842V768.656L-99.5934 358.825L-99.4074 359.196C-46.7938 433.694 54.7152 506.892 126.85 522.497C148.23 527.142 165.706 526.213 177.232 519.896L177.418 520.268L-275.654 770.328H-275.84ZM-277.513 768.842C-277.141 769.399 -276.583 769.771 -276.026 769.771C-275.84 769.771 -275.84 769.771 -275.84 769.771L172.027 522.683C160.686 526.77 145.255 526.956 126.664 523.055C54.3434 507.635 -46.9797 434.437 -99.7793 359.939L-277.513 768.842Z" fill="white"/>
</g>
<mask id="mask32_25_1807" style="mask-type:luminance" maskUnits="userSpaceOnUse" x="-279" y="247" width="476" height="525">
<path d="M-279 772L-131.756 271.322C-125.621 250.7 -103.125 241.968 -65.5708 249.957C8.05106 265.748 111.233 340.06 164.776 416.045C201.959 468.806 205.492 508.377 179.65 522.497C41.8874 597.366 -141.424 697.13 -279 772Z" fill="white"/>
</mask>
<g mask="url(#mask32_25_1807)">
<path d="M-279 772.186L-279.186 771.814L164.776 415.673L164.962 415.859C194.337 457.66 203.818 492.958 190.804 512.465C185.971 519.71 178.348 524.541 167.937 526.77C157.154 528.999 143.954 528.628 128.337 525.284L-279 772.186ZM164.776 416.416L-276.211 769.957L128.337 524.912C143.768 528.256 157.154 528.814 167.751 526.398C177.976 524.169 185.599 519.525 190.433 512.279C203.261 492.958 193.965 457.845 164.776 416.416Z" fill="white"/>
<path d="M-279 772.186L-279.186 771.814L182.252 520.454L182.624 521.011L-279 772.186Z" fill="white"/>
<path d="M-279 772.186L-279.186 771.814L195.452 481.439L195.638 481.811L-279 772.186Z" fill="white"/>
<path d="M-279.558 772.743L-279.186 772L-65.5707 249.771H-65.3848C8.23715 265.563 111.605 340.061 164.963 415.859L165.148 416.045L164.963 416.231L-279.558 772.743ZM-65.3848 250.329L-278.442 771.257L164.591 416.045C111.048 340.247 8.05124 265.934 -65.3848 250.329Z" fill="white"/>
<path d="M-278.814 772.186L-279.186 771.814L97.4756 342.476L97.8474 342.848L-278.814 772.186Z" fill="white"/>
<path d="M-278.814 772.186L-279.186 771.815L14.7439 283.026L15.1157 283.212L-278.814 772.186Z" fill="white"/>
</g>
<mask id="mask33_25_1807" style="mask-type:luminance" maskUnits="userSpaceOnUse" x="-279" y="247" width="476" height="525">
<path d="M-279 772L-131.756 271.322C-125.621 250.7 -103.125 241.968 -65.5708 249.957C8.05106 265.748 111.233 340.06 164.776 416.045C201.959 468.806 205.492 508.377 179.65 522.497C41.8874 597.366 -141.424 697.13 -279 772Z" fill="white"/>
</mask>
<g mask="url(#mask33_25_1807)">
<path d="M-279.372 772.557L-279.186 772L-131.942 271.322C-128.781 260.732 -121.531 253.487 -110.562 249.771C-99.0351 245.87 -83.9761 245.87 -65.5706 249.771C8.05133 265.563 111.419 340.06 164.777 415.859C189.317 450.6 200.1 481.068 195.267 501.689C193.036 510.978 187.83 518.038 179.464 522.497L-279.372 772.557ZM-90.669 247.17C-98.1055 247.17 -104.613 248.099 -110.376 250.143C-121.345 253.858 -128.409 261.104 -131.57 271.322L-278.628 771.443L179.464 522.125C187.644 517.667 192.85 510.793 194.895 501.504C199.729 480.882 188.946 450.6 164.591 416.045C111.234 340.246 7.86542 265.748 -65.5706 250.143C-74.8663 248.285 -83.2324 247.17 -90.669 247.17Z" fill="white"/>
</g>
<mask id="mask34_25_1807" style="mask-type:luminance" maskUnits="userSpaceOnUse" x="-279" y="359" width="459" height="413">
<path d="M179.464 522.497L-279 772L-101.824 359.01C-48.2808 434.994 54.9014 509.307 128.523 525.098C151.019 529.928 168.123 528.628 179.464 522.497Z" fill="white"/>
</mask>
<g mask="url(#mask34_25_1807)">
<path d="M-279.558 772.558L-279.186 771.814L-101.824 358.453L-101.638 358.825C-48.2807 434.623 55.0874 509.121 128.523 524.727L129.081 524.912L128.523 525.284L-279.558 772.558ZM-101.824 359.568L-278.628 771.443L127.78 525.284C54.3438 509.307 -48.4666 435.18 -101.824 359.568Z" fill="white"/>
<path d="M-279 772.186L-279.186 771.814L47.6506 491.843L48.0225 492.215L-279 772.186Z" fill="white"/>
<path d="M-279 772.186L-279.186 771.814L164.776 415.673L164.962 415.859C194.337 457.66 203.818 492.958 190.804 512.465C185.971 519.71 178.348 524.541 167.937 526.77C157.154 528.999 143.954 528.628 128.337 525.284L-279 772.186ZM164.776 416.416L-276.211 769.957L128.337 524.912C143.768 528.256 157.154 528.814 167.751 526.398C177.976 524.169 185.599 519.525 190.433 512.279C203.261 492.958 193.965 457.845 164.776 416.416Z" fill="white"/>
</g>
<mask id="mask35_25_1807" style="mask-type:luminance" maskUnits="userSpaceOnUse" x="-279" y="359" width="459" height="413">
<path d="M179.464 522.497L-279 772L-101.824 359.01C-48.2808 434.994 54.9014 509.307 128.523 525.098C151.019 529.928 168.123 528.628 179.464 522.497Z" fill="white"/>
</mask>
<g mask="url(#mask35_25_1807)">
<path d="M-279.558 772.557L-279.372 772L-102.01 358.639L-101.824 359.01C-48.4666 434.809 54.9015 509.307 128.338 524.912C150.089 529.557 167.565 528.628 179.278 522.311L179.464 522.683L-279.558 772.557ZM-101.824 359.568L-278.628 771.443L174.258 525.098C162.732 529.185 147.115 529.371 128.338 525.284C54.9015 509.678 -48.2807 435.366 -101.824 359.568Z" fill="white"/>
</g>
<mask id="mask36_25_1807" style="mask-type:luminance" maskUnits="userSpaceOnUse" x="-117" y="0" width="462" height="504">
<path d="M194.523 503.919C200.472 484.04 190.991 453.387 164.777 416.045C111.234 340.061 8.05135 265.748 -65.5706 249.957C-88.2521 245.127 -105.542 246.427 -116.883 252.744C-94.0154 240.111 -71.148 227.478 -48.2806 214.845C-34.5229 207.228 -16.3034 197.196 -2.54575 189.579C11.2119 181.962 29.4315 171.929 43.1891 164.312C50.0679 160.597 59.1777 155.395 66.0565 151.679C79.8141 144.062 98.0337 134.03 111.791 126.413C125.549 118.796 143.769 108.764 157.526 101.147C164.405 97.4315 173.515 92.2296 180.394 88.514C194.151 80.897 212.371 70.8649 226.128 63.2479C239.886 55.6309 258.106 45.5988 271.863 37.9818C278.742 34.2662 287.852 29.0643 294.731 25.3487C308.488 17.7317 326.708 7.69956 340.465 0.082569C340.651 0.082569 340.837 -0.103211 341.209 0.082569C342.325 0.268349 343.812 1.38303 344.556 2.49771C344.927 3.05505 345.113 3.42662 344.927 3.79818C294.917 170.629 244.72 337.274 194.523 503.919Z" fill="white"/>
</mask>
<g mask="url(#mask36_25_1807)">
<path d="M153.622 528.256C145.999 528.256 137.633 527.327 128.337 525.283H128.151L128.337 525.098L170.168 424.219C168.495 421.618 166.636 419.017 164.776 416.23V416.045V415.859L344.741 2.12598L344.927 2.49754C345.485 3.24066 345.485 3.798 345.299 4.16956C345.113 4.35535 344.927 4.54112 344.369 4.54112L170.54 424.033C195.638 462.304 203.075 494.258 190.99 512.465C186.156 519.71 178.534 524.54 168.123 526.77C163.661 527.884 158.827 528.256 153.622 528.256ZM128.709 524.912C144.14 528.256 157.34 528.628 167.937 526.398C178.162 524.169 185.785 519.524 190.618 512.279C202.703 494.072 195.266 462.49 170.354 424.591L128.709 524.912ZM164.962 416.045C166.821 418.646 168.495 421.061 170.168 423.662L336.933 20.704L164.962 416.045ZM344.183 4.16956C344.369 4.16956 344.741 4.16956 344.741 3.98378C344.741 3.798 344.741 3.61222 344.555 3.24066L344.183 4.16956Z" fill="white"/>
<path d="M195.638 481.625L195.267 481.439L344.741 3.6123L345.299 3.79809L195.638 481.625Z" fill="white"/>
<path d="M164.776 416.602L164.59 416.231C111.233 340.432 7.86484 265.934 -65.5712 250.329L-66.1289 250.143L-65.5712 249.771L341.208 0.0825195C342.324 0.2683 343.811 1.38298 344.741 2.68344V2.86923V3.055L164.776 416.602ZM-64.8275 249.957C8.60848 265.934 111.419 340.061 164.776 415.673L344.369 2.86923C343.625 1.94032 342.324 0.82564 341.394 0.639859L-64.8275 249.957Z" fill="white"/>
<path d="M343.438 1.47703L97.3574 342.48L97.8098 342.806L343.891 1.80302L343.438 1.47703Z" fill="white"/>
<path d="M15.1156 283.397L14.9297 283.026L342.138 0.639648L342.51 1.01121L15.1156 283.397Z" fill="white"/>
<path d="M-102.01 359.382L-102.196 359.196C-131.57 317.395 -141.052 282.097 -128.038 262.59C-123.204 255.345 -115.582 250.514 -105.17 248.285C-94.3874 246.056 -81.1875 246.427 -65.5708 249.771L339.907 0.825637C339.907 0.639856 339.908 0.454082 340.093 0.454082C340.279 0.268301 340.465 0.0825195 341.209 0.0825195L341.767 0.268297L340.465 1.01142C340.465 1.1972 340.651 1.38298 340.837 1.75454L341.023 1.94032L340.837 2.1261L-102.01 359.382ZM-90.6691 247.356C-95.8747 247.356 -100.708 247.914 -104.984 248.842C-115.21 251.072 -122.832 255.716 -127.666 262.962C-140.494 282.469 -131.198 317.395 -101.824 358.824L340.279 1.94032C340.093 1.75454 340.093 1.56876 339.907 1.38298L-65.5708 250.143C-74.6805 248.285 -83.2326 247.356 -90.6691 247.356Z" fill="white"/>
</g>
<mask id="mask37_25_1807" style="mask-type:luminance" maskUnits="userSpaceOnUse" x="-117" y="0" width="462" height="504">
<path d="M194.523 503.919C200.472 484.04 190.991 453.387 164.777 416.045C111.234 340.061 8.05135 265.748 -65.5706 249.957C-88.2521 245.127 -105.542 246.427 -116.883 252.744C-94.0154 240.111 -71.148 227.478 -48.2806 214.845C-34.5229 207.228 -16.3034 197.196 -2.54575 189.579C11.2119 181.962 29.4315 171.929 43.1891 164.312C50.0679 160.597 59.1777 155.395 66.0565 151.679C79.8141 144.062 98.0337 134.03 111.791 126.413C125.549 118.796 143.769 108.764 157.526 101.147C164.405 97.4315 173.515 92.2296 180.394 88.514C194.151 80.897 212.371 70.8649 226.128 63.2479C239.886 55.6309 258.106 45.5988 271.863 37.9818C278.742 34.2662 287.852 29.0643 294.731 25.3487C308.488 17.7317 326.708 7.69956 340.465 0.082569C340.651 0.082569 340.837 -0.103211 341.209 0.082569C342.325 0.268349 343.812 1.38303 344.556 2.49771C344.927 3.05505 345.113 3.42662 344.927 3.79818C294.917 170.629 244.72 337.274 194.523 503.919Z" fill="white"/>
</mask>
<g mask="url(#mask37_25_1807)">
<path d="M194.709 504.105L194.337 503.919C200.472 483.297 189.875 452.272 164.591 416.231C111.234 340.432 7.86543 265.934 -65.5706 250.329C-87.3225 245.684 -105.17 246.613 -116.697 253.116L-116.883 252.744L340.465 0.454277C340.651 0.268496 341.023 0.268496 341.395 0.454277C342.51 0.640057 343.998 1.75474 344.927 3.0552C345.299 3.61254 345.485 4.16988 345.485 4.54144L194.709 504.105ZM-90.6689 246.799C-83.0465 246.799 -74.6803 247.728 -65.5706 249.772C8.05135 265.563 111.419 340.061 164.777 415.859C188.016 448.742 198.799 477.724 195.824 498.16L344.556 3.9841C344.556 3.79832 344.556 3.42676 344.184 2.86942C343.44 1.75474 341.953 0.825837 341.023 0.454277C340.837 0.454277 340.465 0.454277 340.465 0.454277L-111.677 250.143C-105.728 247.914 -98.6632 246.799 -90.6689 246.799Z" fill="white"/>
</g>
<mask id="mask38_25_1807" style="mask-type:luminance" maskUnits="userSpaceOnUse" x="-103" y="1" width="448" height="528">
<path d="M344.927 3.98376C294.731 170.629 244.72 337.274 194.523 503.919C188.388 524.354 165.706 533.086 128.338 525.098C54.7157 509.306 -48.4666 434.994 -102.01 359.01L340.465 1.75439C341.209 2.86908 342.696 3.98376 343.812 4.16954C344.556 4.54111 344.927 4.35532 344.927 3.98376Z" fill="white"/>
</mask>
<g mask="url(#mask38_25_1807)">
<path d="M128.524 525.469H128.338C54.716 509.678 -48.6521 435.18 -102.009 359.382L-102.195 359.196L-102.009 359.01L340.652 1.56885L340.838 1.75463C341.581 2.86931 343.068 3.79821 343.998 4.16978H344.184L343.998 4.35555L128.524 525.469ZM-101.638 359.196C-48.2803 434.809 54.716 509.121 128.152 524.912L343.626 4.54133C342.511 4.16977 341.395 3.24087 340.466 2.31197L-101.638 359.196Z" fill="white"/>
<path d="M-34.5227 432.579L-34.8945 432.208L341.395 2.86914L341.767 3.05492L-34.5227 432.579Z" fill="white"/>
<path d="M342.463 3.60821L47.9346 491.95L48.253 492.142L342.781 3.80001L342.463 3.60821Z" fill="white"/>
<path d="M153.623 528.256C146 528.256 137.634 527.327 128.338 525.283H128.152L128.338 525.098L170.169 424.219C168.496 421.618 166.636 419.017 164.777 416.23V416.045V415.859L344.742 2.12598L344.928 2.49754C345.486 3.24066 345.486 3.798 345.3 4.16956C345.114 4.35535 344.928 4.54112 344.37 4.54112L170.541 424.033C195.639 462.304 203.076 494.258 190.991 512.465C186.157 519.71 178.535 524.54 168.124 526.77C163.662 527.884 158.828 528.256 153.623 528.256ZM128.71 524.912C144.141 528.256 157.341 528.628 167.938 526.398C178.163 524.169 185.786 519.524 190.619 512.279C202.704 494.072 195.267 462.49 170.355 424.591L128.71 524.912ZM164.963 416.045C166.822 418.646 168.496 421.061 170.169 423.662L336.934 20.704L164.963 416.045ZM344.184 4.16956C344.37 4.16956 344.742 4.16956 344.742 3.98378C344.742 3.798 344.742 3.61222 344.556 3.24066L344.184 4.16956Z" fill="white"/>
<path d="M182.625 520.825L182.253 520.639L344.556 4.16943L345.114 4.35521L182.625 520.825Z" fill="white"/>
</g>
<mask id="mask39_25_1807" style="mask-type:luminance" maskUnits="userSpaceOnUse" x="-103" y="1" width="448" height="528">
<path d="M344.927 3.98376C294.731 170.629 244.72 337.274 194.523 503.919C188.388 524.354 165.706 533.086 128.338 525.098C54.7157 509.306 -48.4666 434.994 -102.01 359.01L340.465 1.75439C341.209 2.86908 342.696 3.98376 343.812 4.16954C344.556 4.54111 344.927 4.35532 344.927 3.98376Z" fill="white"/>
</mask>
<g mask="url(#mask39_25_1807)">
<path d="M153.622 528.256C146 528.256 137.634 527.327 128.338 525.284C54.716 509.492 -48.6521 434.994 -102.009 359.196L-102.195 359.01L-102.009 358.824L340.652 1.56885L340.838 1.75463C341.581 2.86931 343.069 3.79821 343.998 4.16978C344.184 4.16978 344.556 4.35555 344.742 3.98399L345.114 4.16978L194.709 504.105C191.549 514.508 184.298 521.754 173.143 525.469C167.566 527.327 161.059 528.256 153.622 528.256ZM-101.638 359.196C-48.0944 434.994 54.9019 509.307 128.338 524.912C146.557 528.814 161.617 528.813 172.957 525.098C183.926 521.382 190.991 514.323 194.151 503.919L344.37 4.54133C344.184 4.54133 343.998 4.54133 343.812 4.54133C342.697 4.35555 341.209 3.24087 340.466 2.12619L-101.638 359.196Z" fill="white"/>
</g>
<mask id="mask40_25_1807" style="mask-type:luminance" maskUnits="userSpaceOnUse" x="-134" y="0" width="475" height="359">
<path d="M-116.883 252.744C-94.0156 240.111 -71.1482 227.478 -48.2807 214.845C-34.5231 207.228 -16.3036 197.195 -2.54593 189.578C11.2117 181.961 29.4313 171.929 43.1889 164.312C50.0677 160.597 59.1775 155.395 66.0563 151.679C79.8139 144.062 98.0335 134.03 111.791 126.413C125.549 118.796 143.768 108.764 157.526 101.147C164.405 97.4314 173.515 92.2296 180.393 88.514C194.151 80.897 212.371 70.8648 226.128 63.2478C239.886 55.6308 258.105 45.5987 271.863 37.9817C278.742 34.2661 287.852 29.0643 294.73 25.3486C308.488 17.7317 326.708 7.69951 340.465 0.0825195C340.093 0.2683 340.093 0.82564 340.651 1.56876L-101.824 358.824C-139.007 306.434 -142.539 266.863 -116.883 252.744Z" fill="white"/>
</mask>
<g mask="url(#mask40_25_1807)">
<path d="M-102.01 359.382L-102.196 359.196C-131.57 317.395 -141.052 282.097 -128.038 262.59C-123.204 255.345 -115.582 250.514 -105.17 248.285C-94.3874 246.056 -81.1875 246.427 -65.5708 249.771L339.907 0.825637C339.907 0.639856 339.908 0.454082 340.093 0.454082C340.279 0.268301 340.465 0.0825195 341.209 0.0825195L341.767 0.268297L340.465 1.01142C340.465 1.1972 340.651 1.38298 340.837 1.75454L341.023 1.94032L340.837 2.1261L-102.01 359.382ZM-90.6691 247.356C-95.8747 247.356 -100.708 247.914 -104.984 248.842C-115.21 251.072 -122.832 255.716 -127.666 262.962C-140.494 282.469 -131.198 317.395 -101.824 358.824L340.279 1.94032C340.093 1.75454 340.093 1.56876 339.907 1.38298L-65.5708 250.143C-74.6805 248.285 -83.2326 247.356 -90.6691 247.356Z" fill="white"/>
<path d="M340.204 0.0215865L-119.625 254.376L-119.355 254.864L340.474 0.509209L340.204 0.0215865Z" fill="white"/>
<path d="M340.007 0.828432L-132.763 293.388L-132.469 293.862L340.3 1.30228L340.007 0.828432Z" fill="white"/>
</g>
<mask id="mask41_25_1807" style="mask-type:luminance" maskUnits="userSpaceOnUse" x="-134" y="0" width="475" height="359">
<path d="M-116.883 252.744C-94.0156 240.111 -71.1482 227.478 -48.2807 214.845C-34.5231 207.228 -16.3036 197.195 -2.54593 189.578C11.2117 181.961 29.4313 171.929 43.1889 164.312C50.0677 160.597 59.1775 155.395 66.0563 151.679C79.8139 144.062 98.0335 134.03 111.791 126.413C125.549 118.796 143.768 108.764 157.526 101.147C164.405 97.4314 173.515 92.2296 180.393 88.514C194.151 80.897 212.371 70.8648 226.128 63.2478C239.886 55.6308 258.105 45.5987 271.863 37.9817C278.742 34.2661 287.852 29.0643 294.73 25.3486C308.488 17.7317 326.708 7.69951 340.465 0.0825195C340.093 0.2683 340.093 0.82564 340.651 1.56876L-101.824 358.824C-139.007 306.434 -142.539 266.863 -116.883 252.744Z" fill="white"/>
</mask>
<g mask="url(#mask41_25_1807)">
<path d="M-102.01 359.382L-102.196 359.196C-126.551 324.455 -137.52 293.987 -132.686 273.365C-130.455 264.076 -125.249 257.017 -117.069 252.372L340.279 0.0825195L340.465 0.454082C340.465 0.454082 340.279 0.454079 340.279 0.639859C340.279 0.82564 340.465 1.1972 340.651 1.75454L340.837 1.94032L340.651 2.1261L-102.01 359.382ZM339.907 0.825637L-116.697 252.93C-124.692 257.388 -129.897 264.262 -132.128 273.551C-136.776 293.987 -126.179 324.269 -101.824 358.824L340.279 1.94032C340.093 1.56876 339.907 1.1972 339.907 0.825637Z" fill="white"/>
</g>
</g>
</svg>
