<svg width="343" height="332" viewBox="0 0 343 332" fill="none" xmlns="http://www.w3.org/2000/svg">
<g opacity="0.21">
<path d="M261.396 331.994C260.616 331.994 259.818 331.958 259.037 331.884C256.715 331.665 254.428 331.115 252.214 330.273C250.418 329.577 248.64 328.624 246.916 327.69L185.146 294.885C183.513 294.006 181.952 293.181 180.337 292.559C178.45 291.844 176.49 291.368 174.494 291.13C172.516 290.892 170.502 290.892 168.524 291.13C166.528 291.368 164.568 291.844 162.681 292.559C161.048 293.163 159.505 294.006 157.872 294.885L96.1206 327.69C94.3967 328.624 92.6184 329.577 90.8037 330.273C88.5899 331.115 86.2853 331.665 83.9807 331.884C81.7125 332.104 79.4079 332.013 77.1396 331.591C74.8895 331.188 72.6938 330.492 70.607 329.503C68.502 328.514 66.5241 327.232 64.7276 325.73C62.8767 324.173 61.2617 322.378 59.9188 320.4C58.5034 318.312 57.3784 316.059 56.6163 313.678C55.7089 310.784 55.3279 307.743 55.473 304.648C55.5819 302.266 56.0174 299.94 56.4166 297.687C56.5437 296.991 56.6707 296.313 56.7796 295.636L67.5221 232.48C67.631 231.802 67.758 231.143 67.885 230.465C68.1935 228.762 68.5202 227.003 68.6835 225.318C68.9012 223.047 68.8286 220.757 68.4476 218.504C68.0846 216.306 67.4133 214.145 66.5059 212.112C65.5805 210.079 64.401 208.174 62.9856 206.47C61.8786 205.115 60.554 203.851 59.2837 202.605C58.9208 202.239 58.5398 201.891 58.1768 201.525L12.5935 156.576C12.0491 156.044 11.4866 155.495 10.924 154.945C9.69009 153.736 8.40171 152.491 7.29479 151.337C5.69792 149.652 4.33695 147.802 3.23003 145.805C2.1594 143.864 1.34283 141.776 0.798438 139.633C0.254052 137.508 0 135.292 0 133.075C0 130.841 0.290342 128.624 0.852875 126.445C1.41541 124.228 2.26828 122.085 3.3752 120.089C4.51841 118.001 5.93381 116.096 7.56697 114.411C9.30901 112.616 11.2688 111.095 13.4464 109.886C15.7691 108.586 18.3096 107.652 20.9952 107.102C23.699 106.571 26.4754 106.205 29.1429 105.857C30.3768 105.692 31.5926 105.527 32.8084 105.344L88.0092 97.2478C88.9891 97.1013 89.9872 96.9731 90.967 96.8448C93.4168 96.5335 95.9391 96.2038 98.2618 95.636C101.419 94.8667 104.377 93.4929 107.026 91.588C109.621 89.7013 111.835 87.3751 113.559 84.6826C114.847 82.6861 115.9 80.4148 116.934 78.2351C117.315 77.4475 117.678 76.6599 118.059 75.8723L147.402 15.9584C148.926 12.8446 150.251 10.7382 151.829 8.90649C153.499 6.96492 155.459 5.2981 157.618 3.94267C159.687 2.64219 161.955 1.65308 164.332 0.975363C168.996 -0.325121 174.022 -0.325121 178.686 0.975363C181.063 1.63476 183.331 2.64219 185.4 3.94267C187.559 5.2981 189.501 6.96492 191.189 8.90649C192.767 10.7382 194.092 12.8446 195.616 15.9584L224.959 75.8723C225.34 76.6415 225.703 77.4292 226.066 78.2168C227.1 80.4148 228.153 82.6677 229.441 84.6826C231.183 87.3934 233.379 89.7197 235.974 91.588C238.623 93.4929 241.563 94.8667 244.738 95.636C247.061 96.2038 249.583 96.5335 252.033 96.8448C253.013 96.9731 254.011 97.1013 254.991 97.2478L310.192 105.344C311.407 105.527 312.623 105.692 313.857 105.857C316.525 106.223 319.301 106.589 322.005 107.102C324.69 107.652 327.231 108.586 329.554 109.886C331.713 111.095 333.691 112.616 335.433 114.411C337.066 116.096 338.482 118.001 339.625 120.089C340.732 122.085 341.566 124.228 342.147 126.445C342.71 128.606 342.982 130.841 343 133.075C343 135.292 342.746 137.508 342.202 139.633C341.657 141.776 340.841 143.864 339.77 145.805C338.681 147.784 337.302 149.652 335.705 151.337C334.58 152.509 333.292 153.773 332.04 154.982C331.477 155.513 330.933 156.063 330.388 156.594L284.805 201.543C284.442 201.909 284.061 202.257 283.698 202.624C282.428 203.851 281.103 205.133 279.996 206.488C278.581 208.21 277.401 210.115 276.476 212.13C275.55 214.163 274.897 216.306 274.516 218.523C274.135 220.775 274.062 223.065 274.28 225.336C274.444 227.021 274.77 228.78 275.079 230.483C275.206 231.143 275.315 231.82 275.442 232.498L286.184 295.654C286.293 296.332 286.42 297.028 286.565 297.724C286.983 299.977 287.4 302.303 287.509 304.666C287.654 307.761 287.255 310.784 286.366 313.678C285.603 316.059 284.497 318.33 283.063 320.418C281.702 322.396 280.087 324.191 278.236 325.748C276.458 327.269 274.48 328.533 272.357 329.522C270.27 330.511 268.074 331.207 265.824 331.61C264.391 331.848 262.903 331.994 261.396 331.994ZM171.5 290.049C172.534 290.049 173.569 290.104 174.585 290.232C176.654 290.47 178.686 290.983 180.628 291.716C182.315 292.357 183.966 293.236 185.545 294.079L247.315 326.884C249.003 327.8 250.763 328.734 252.505 329.412C254.646 330.236 256.86 330.749 259.092 330.969C261.288 331.17 263.501 331.078 265.679 330.694C267.857 330.309 269.961 329.631 271.976 328.679C274.026 327.708 275.932 326.481 277.655 325.034C279.434 323.532 280.994 321.792 282.301 319.887C283.68 317.872 284.751 315.692 285.476 313.403C286.347 310.619 286.71 307.688 286.583 304.702C286.475 302.395 286.057 300.087 285.64 297.87C285.513 297.174 285.386 296.478 285.259 295.782L274.516 232.626C274.407 231.967 274.28 231.289 274.153 230.63C273.845 228.908 273.518 227.131 273.337 225.41C273.101 223.047 273.191 220.684 273.573 218.339C273.954 216.05 274.643 213.833 275.587 211.727C276.549 209.621 277.764 207.661 279.234 205.884C280.377 204.492 281.72 203.21 283.009 201.946C283.371 201.598 283.753 201.232 284.115 200.865L329.699 155.916C330.243 155.385 330.788 154.835 331.35 154.304C332.602 153.095 333.872 151.85 334.979 150.696C336.522 149.066 337.846 147.271 338.899 145.366C339.933 143.497 340.732 141.483 341.24 139.413C341.766 137.361 342.02 135.237 342.002 133.094C341.984 130.932 341.712 128.789 341.167 126.683C340.623 124.54 339.806 122.47 338.736 120.547C337.629 118.532 336.268 116.682 334.689 115.07C333.02 113.348 331.114 111.883 329.027 110.711C326.777 109.447 324.328 108.549 321.733 108.018C319.047 107.505 316.307 107.139 313.639 106.772C312.405 106.608 311.19 106.443 309.974 106.26L254.773 98.1636C253.793 98.0171 252.813 97.8889 251.833 97.7607C249.365 97.431 246.807 97.1013 244.43 96.5335C241.145 95.7275 238.097 94.3172 235.357 92.339C232.671 90.3974 230.385 87.9796 228.588 85.1771C227.263 83.1257 226.193 80.8178 225.14 78.6014C224.777 77.8138 224.414 77.0445 224.033 76.2752L194.691 16.3614C193.203 13.3208 191.915 11.2693 190.39 9.51094C188.775 7.64264 186.888 6.03077 184.801 4.73029C182.787 3.46644 180.609 2.51397 178.323 1.87289C173.823 0.60904 168.96 0.60904 164.459 1.87289C162.155 2.51397 159.977 3.48475 157.981 4.73029C155.894 6.03077 154.025 7.64264 152.392 9.51094C150.868 11.2877 149.579 13.3208 148.091 16.3614L118.749 76.2752C118.368 77.0445 118.005 77.8321 117.624 78.6198C116.59 80.8361 115.501 83.1257 114.194 85.1771C112.398 87.9796 110.111 90.3974 107.426 92.339C104.686 94.3172 101.619 95.7275 98.3526 96.5335C95.9754 97.1196 93.4349 97.4493 90.967 97.7607C89.9872 97.8889 89.0073 98.0171 88.0274 98.1636L32.8265 106.26C31.6108 106.443 30.3768 106.608 29.1429 106.772C26.4754 107.12 23.7353 107.505 21.0496 108.018C18.4547 108.549 16.005 109.447 13.773 110.711C11.6862 111.883 9.78082 113.348 8.11137 115.07C6.53264 116.7 5.17168 118.55 4.06476 120.547C2.99414 122.47 2.17756 124.54 1.63318 126.683C1.08879 128.789 0.816602 130.932 0.816602 133.094C0.816602 135.237 1.07065 137.361 1.57874 139.413C2.10498 141.483 2.88526 143.497 3.91959 145.366C4.97207 147.289 6.29675 149.066 7.83918 150.696C8.92796 151.85 10.2163 153.095 11.4503 154.286C12.0128 154.835 12.5753 155.385 13.1379 155.934L58.7212 200.884C59.0841 201.25 59.447 201.598 59.8281 201.946C61.1165 203.191 62.4593 204.492 63.6025 205.884C65.0724 207.661 66.2882 209.639 67.2499 211.727C68.2117 213.833 68.8831 216.068 69.2641 218.339C69.6634 220.666 69.736 223.047 69.5001 225.41C69.3367 227.131 69.0101 228.908 68.6835 230.63C68.5565 231.289 68.4476 231.967 68.3206 232.626L57.578 295.782C57.4691 296.46 57.3421 297.156 57.1969 297.852C56.7796 300.068 56.3622 302.376 56.2533 304.702C56.1263 307.688 56.4892 310.619 57.3602 313.403C58.1042 315.692 59.1749 317.89 60.5358 319.887C61.8423 321.792 63.4029 323.532 65.1812 325.034C66.9051 326.499 68.8105 327.727 70.861 328.679C72.8753 329.631 74.9984 330.309 77.1578 330.694C79.3353 331.078 81.5673 331.188 83.7449 330.969C85.9768 330.749 88.1907 330.236 90.3319 329.412C92.0921 328.734 93.8342 327.781 95.5399 326.866L157.292 294.06C158.888 293.218 160.54 292.32 162.209 291.698C164.151 290.965 166.201 290.47 168.252 290.214C169.449 290.104 170.466 290.049 171.5 290.049Z" fill="white"/>
<path d="M81.7669 318.751C80.3515 318.751 78.918 318.641 77.5025 318.422C75.198 318.074 72.9478 317.433 70.7703 316.517C68.5927 315.601 66.5422 314.429 64.655 313C62.7315 311.553 61.0076 309.868 59.5196 308.018C57.9772 306.076 56.7433 303.951 55.8178 301.699L56.6525 301.35C57.5417 303.512 58.7393 305.563 60.2273 307.45C61.6609 309.245 63.3303 310.875 65.1812 312.267C67.014 313.641 68.992 314.777 71.1151 315.674C73.22 316.553 75.3976 317.176 77.6296 317.524C79.8797 317.872 82.1661 317.927 84.4163 317.707C86.7027 317.487 88.9891 316.956 91.1848 316.15C93.199 315.399 95.2133 314.337 97.1549 313.293L97.7719 312.963C99.895 311.846 102.036 310.655 104.177 309.446C106.264 308.256 108.315 307.047 110.329 305.856L147.148 284.096C148.418 283.345 149.688 282.594 150.94 281.862C152.809 280.781 154.678 279.7 156.566 278.656L157.056 278.381C158.743 277.429 160.503 276.458 162.318 275.762C164.278 275.011 166.31 274.498 168.397 274.242C170.466 273.985 172.553 273.985 174.621 274.242C176.708 274.498 178.74 275.011 180.7 275.762C182.497 276.458 184.257 277.429 185.963 278.381L186.452 278.656C188.34 279.7 190.209 280.781 192.078 281.862C193.348 282.594 194.6 283.345 195.87 284.096L232.689 305.856C234.758 307.084 236.772 308.274 238.841 309.446C240.982 310.655 243.141 311.846 245.246 312.963L245.881 313.293C247.823 314.319 249.819 315.399 251.833 316.132C254.029 316.938 256.315 317.469 258.602 317.689C260.852 317.909 263.138 317.854 265.389 317.506C267.621 317.158 269.798 316.535 271.903 315.656C274.008 314.777 276.004 313.623 277.819 312.249C279.688 310.857 281.357 309.227 282.773 307.432C284.261 305.563 285.458 303.512 286.347 301.332L287.182 301.68C286.257 303.933 285.023 306.058 283.48 307.999C282.011 309.868 280.287 311.535 278.345 312.982C276.458 314.392 274.407 315.583 272.23 316.498C270.07 317.414 267.802 318.055 265.497 318.403C263.175 318.77 260.816 318.825 258.493 318.587C256.116 318.348 253.775 317.817 251.507 316.975C249.438 316.205 247.406 315.125 245.446 314.081L244.811 313.751C242.706 312.634 240.546 311.443 238.387 310.234C236.318 309.062 234.286 307.871 232.29 306.681L195.399 284.866C194.128 284.115 192.858 283.364 191.606 282.631C189.737 281.55 187.868 280.469 185.999 279.425L185.509 279.151C183.767 278.18 182.116 277.264 180.374 276.586C178.486 275.854 176.508 275.377 174.512 275.121C172.534 274.883 170.502 274.883 168.524 275.121C166.51 275.359 164.532 275.854 162.663 276.586C160.921 277.264 159.269 278.18 157.527 279.151L157.037 279.425C155.15 280.469 153.281 281.532 151.43 282.631C150.178 283.364 148.908 284.115 147.638 284.866L110.819 306.626C108.787 307.835 106.754 309.025 104.649 310.216C102.508 311.425 100.349 312.615 98.2255 313.733L97.6086 314.062C95.6488 315.106 93.5982 316.205 91.5296 316.956C89.2613 317.799 86.9023 318.33 84.5433 318.568C83.5997 318.696 82.6742 318.751 81.7669 318.751Z" fill="white"/>
<path d="M259.056 305.417C257.368 305.417 255.699 305.27 254.029 304.996C251.489 304.556 249.021 303.805 246.698 302.743C244.412 301.699 242.216 300.471 239.784 299.079C237.607 297.834 235.411 296.497 233.27 295.105C231.8 294.152 230.366 293.181 228.951 292.229L192.078 267.538C190.263 266.329 188.412 265.138 186.398 263.93L185.944 263.655C184.221 262.611 182.424 261.53 180.628 260.761C178.704 259.937 176.672 259.369 174.585 259.094C172.516 258.819 170.429 258.819 168.379 259.094C166.292 259.369 164.26 259.937 162.336 260.761C160.54 261.53 158.761 262.611 157.037 263.637L156.566 263.93C154.551 265.138 152.701 266.311 150.886 267.538L114.067 292.192C112.615 293.163 111.164 294.134 109.694 295.105C107.571 296.497 105.375 297.834 103.179 299.079C100.766 300.453 98.5703 301.68 96.2657 302.743C93.943 303.805 91.4933 304.556 88.9528 304.996C86.5031 305.417 84.0171 305.527 81.531 305.325C79.0813 305.124 76.6497 304.629 74.327 303.823C71.9861 303.036 69.7541 301.955 67.6854 300.618C65.5805 299.262 63.6751 297.651 62.042 295.837C60.3362 293.951 58.9208 291.862 57.8683 289.646L58.6849 289.243C59.7011 291.386 61.0621 293.401 62.7134 295.214C64.3103 296.973 66.143 298.53 68.1754 299.849C70.1715 301.149 72.349 302.193 74.6173 302.962C76.8856 303.732 79.2264 304.226 81.6036 304.409C83.9989 304.593 86.4305 304.501 88.8076 304.098C91.2755 303.677 93.6527 302.944 95.9028 301.9C98.1711 300.856 100.349 299.647 102.744 298.273C104.922 297.028 107.099 295.709 109.204 294.317C110.674 293.346 112.126 292.375 113.577 291.405L150.396 266.75C152.211 265.523 154.08 264.351 156.112 263.124L156.584 262.831C158.326 261.768 160.14 260.688 161.991 259.9C164.006 259.039 166.111 258.453 168.27 258.16C170.411 257.867 172.589 257.867 174.73 258.16C176.889 258.453 179.013 259.039 181.009 259.9C182.878 260.688 184.692 261.787 186.452 262.849L186.906 263.124C188.92 264.351 190.789 265.523 192.622 266.75L229.495 291.441C230.911 292.394 232.344 293.364 233.814 294.317C235.937 295.691 238.115 297.028 240.274 298.273C242.688 299.647 244.847 300.874 247.115 301.9C249.365 302.926 251.761 303.658 254.211 304.098C256.588 304.501 259.001 304.611 261.396 304.409C263.774 304.208 266.133 303.732 268.383 302.962C270.651 302.193 272.81 301.149 274.825 299.849C276.857 298.53 278.708 296.973 280.287 295.214C281.938 293.401 283.299 291.386 284.315 289.243L285.132 289.646C284.061 291.862 282.664 293.951 280.958 295.837C279.307 297.651 277.42 299.262 275.315 300.618C273.246 301.955 271.014 303.036 268.673 303.823C266.332 304.611 263.919 305.124 261.469 305.325C260.652 305.38 259.854 305.417 259.056 305.417Z" fill="white"/>
<path d="M256.896 292.101C254.719 292.101 252.559 291.881 250.436 291.423C247.805 290.873 245.283 289.994 242.942 288.822C240.583 287.631 238.224 286.313 235.974 284.902C233.778 283.528 231.618 282.045 229.568 280.506L193.566 253.288C192.169 252.225 190.735 251.145 189.32 250.137C187.505 248.855 185.6 247.609 183.64 246.401C181.571 245.137 179.648 244.239 177.76 243.69C173.714 242.499 169.359 242.499 165.312 243.69C163.425 244.239 161.501 245.137 159.433 246.401C157.455 247.609 155.549 248.855 153.735 250.137C152.301 251.145 150.868 252.244 149.489 253.288L113.487 280.506C111.436 282.063 109.277 283.528 107.081 284.902C104.794 286.313 102.454 287.631 100.113 288.822C97.7719 289.994 95.2496 290.873 92.6184 291.423C90.1142 291.954 87.5374 292.174 84.9788 292.064C82.4565 291.972 79.9341 291.569 77.5025 290.873C75.071 290.177 72.7301 289.207 70.5525 287.961C68.3387 286.697 66.3245 285.195 64.5461 283.473C62.7134 281.697 61.1891 279.719 59.9915 277.575L60.7899 277.118C61.9512 279.187 63.4211 281.092 65.1812 282.814C66.887 284.481 68.8468 285.946 70.9881 287.155C73.093 288.364 75.3794 289.298 77.7385 289.976C80.0975 290.654 82.5472 291.038 84.9969 291.13C87.483 291.221 89.9872 291.02 92.4188 290.507C94.9774 289.976 97.4271 289.115 99.6954 287.979C102.018 286.807 104.341 285.507 106.591 284.096C108.769 282.741 110.892 281.275 112.924 279.737L148.926 252.518C150.323 251.456 151.775 250.357 153.209 249.331C155.023 248.049 156.965 246.767 158.943 245.558C161.084 244.257 163.08 243.323 165.04 242.755C169.268 241.51 173.786 241.51 177.996 242.755C179.956 243.342 181.952 244.257 184.094 245.558C186.071 246.767 188.013 248.031 189.828 249.331C191.261 250.357 192.713 251.456 194.11 252.518L230.112 279.737C232.145 281.257 234.268 282.722 236.445 284.096C238.677 285.488 241 286.789 243.341 287.979C245.609 289.115 248.059 289.958 250.618 290.507C253.049 291.02 255.553 291.24 258.039 291.13C260.489 291.038 262.939 290.654 265.298 289.976C267.657 289.298 269.925 288.346 272.048 287.155C274.208 285.928 276.149 284.463 277.855 282.814C279.615 281.092 281.103 279.169 282.246 277.118L283.045 277.575C281.847 279.719 280.323 281.697 278.49 283.473C276.73 285.195 274.716 286.697 272.502 287.961C270.324 289.188 267.984 290.177 265.552 290.873C263.12 291.569 260.598 291.972 258.076 292.064C257.676 292.082 257.277 292.101 256.896 292.101Z" fill="white"/>
<path d="M254.773 278.784C254.719 278.784 254.682 278.784 254.628 278.784C251.979 278.766 249.329 278.455 246.752 277.814C244.212 277.191 241.653 276.202 239.113 274.883C236.699 273.619 234.34 272.19 232.108 270.633C230.003 269.168 228.098 267.63 225.884 265.743L191.987 236.931C190.427 235.594 188.539 234.037 186.525 232.59C184.692 231.271 182.751 229.915 180.773 228.926C178.831 227.956 176.781 227.296 174.657 226.967C172.552 226.637 170.429 226.637 168.324 226.967C166.201 227.296 164.133 227.956 162.209 228.908C160.231 229.897 158.29 231.253 156.457 232.571C154.443 234.018 152.555 235.575 150.995 236.912L117.098 265.725C114.884 267.611 112.978 269.15 110.873 270.615C108.641 272.172 106.282 273.601 103.869 274.865C101.329 276.183 98.7699 277.172 96.2294 277.795C93.6527 278.436 91.0033 278.748 88.354 278.766C85.7591 278.784 83.146 278.491 80.6055 277.887C78.0832 277.301 75.6335 276.422 73.3289 275.286C71.0062 274.132 68.865 272.722 66.9596 271.11C65.0542 269.479 63.3303 267.538 62.0057 265.523L62.7678 265.01C64.0562 266.952 65.7075 268.82 67.5584 270.414C69.3912 271.989 71.478 273.344 73.7281 274.462C75.9601 275.561 78.3373 276.422 80.8052 276.989C83.273 277.557 85.8317 277.832 88.354 277.832C90.9307 277.814 93.5075 277.502 96.0117 276.879C98.4796 276.275 100.984 275.304 103.452 274.022C105.829 272.776 108.152 271.366 110.365 269.828C112.434 268.381 114.321 266.86 116.517 264.992L150.414 236.18C152.011 234.824 153.898 233.249 155.949 231.784C157.8 230.447 159.778 229.073 161.81 228.047C163.824 227.04 165.984 226.362 168.197 226.014C170.393 225.666 172.607 225.666 174.803 226.014C177.016 226.362 179.176 227.04 181.19 228.047C183.222 229.055 185.2 230.447 187.051 231.784C189.102 233.267 190.989 234.843 192.586 236.18L226.483 264.992C228.679 266.86 230.566 268.399 232.635 269.828C234.848 271.366 237.171 272.776 239.548 274.022C242.016 275.304 244.52 276.275 246.988 276.879C249.492 277.502 252.069 277.814 254.646 277.832C257.15 277.832 259.709 277.557 262.195 276.989C264.645 276.422 267.04 275.579 269.272 274.462C271.54 273.344 273.609 271.971 275.442 270.414C277.292 268.82 278.944 266.97 280.232 265.01L280.994 265.523C279.67 267.538 277.964 269.479 276.04 271.11C274.153 272.74 272.012 274.132 269.671 275.286C267.367 276.422 264.917 277.301 262.394 277.887C259.89 278.491 257.332 278.784 254.773 278.784Z" fill="white"/>
<path d="M252.723 265.468C251.87 265.468 251.017 265.432 250.164 265.377C247.333 265.175 244.539 264.626 241.835 263.765C239.312 262.959 236.736 261.75 233.923 260.065C231.455 258.581 229.114 256.896 226.937 255.046C225.34 253.691 223.852 252.244 222.4 250.833C221.91 250.357 221.402 249.862 220.894 249.386L192.042 221.856C190.336 220.226 188.721 218.669 186.979 217.277C185.4 215.995 183.295 214.365 181.118 213.156C179.14 212.038 176.998 211.287 174.784 210.903C172.589 210.536 170.375 210.536 168.197 210.903C165.984 211.287 163.842 212.038 161.864 213.156C159.669 214.383 157.582 216.013 156.003 217.277C154.261 218.687 152.646 220.226 150.94 221.856L122.088 249.386C121.598 249.862 121.09 250.339 120.6 250.815C119.148 252.225 117.642 253.672 116.045 255.046C113.886 256.896 111.527 258.581 109.059 260.065C106.246 261.75 103.669 262.959 101.147 263.765C98.4433 264.626 95.6488 265.175 92.818 265.377C90.0416 265.578 87.2471 265.45 84.507 265.01C81.7851 264.571 79.1357 263.82 76.6315 262.794C74.0911 261.75 71.7502 260.431 69.6452 258.892C67.5584 257.354 65.6349 255.486 64.0925 253.489L64.8002 252.921C66.2882 254.844 68.1572 256.658 70.1715 258.142C72.222 259.643 74.5084 260.926 76.9763 261.933C79.426 262.94 82.0028 263.655 84.6522 264.094C87.3197 264.534 90.0416 264.644 92.7454 264.461C95.5036 264.259 98.2255 263.728 100.875 262.904C103.325 262.116 105.847 260.944 108.587 259.295C111 257.848 113.323 256.182 115.446 254.368C117.025 253.031 118.513 251.584 119.947 250.174C120.437 249.698 120.945 249.221 121.435 248.745L150.287 221.215C152.011 219.567 153.644 218.01 155.404 216.581C157.019 215.28 159.142 213.632 161.393 212.368C163.461 211.214 165.693 210.427 168.016 210.024C170.302 209.639 172.625 209.639 174.911 210.024C177.234 210.427 179.466 211.214 181.535 212.368C183.785 213.632 185.926 215.28 187.523 216.581C189.283 218.01 190.916 219.567 192.64 221.215L221.493 248.745C222.001 249.221 222.491 249.716 222.999 250.192C224.433 251.584 225.921 253.031 227.499 254.368C229.622 256.182 231.945 257.848 234.359 259.295C237.099 260.944 239.621 262.135 242.071 262.904C244.702 263.746 247.442 264.278 250.2 264.461C252.904 264.662 255.626 264.534 258.293 264.094C260.943 263.673 263.538 262.94 265.969 261.933C268.437 260.926 270.724 259.643 272.774 258.142C274.806 256.658 276.657 254.844 278.145 252.921L278.853 253.489C277.311 255.486 275.387 257.354 273.3 258.892C271.195 260.449 268.836 261.75 266.296 262.794C263.792 263.82 261.142 264.571 258.42 265.01C256.57 265.322 254.646 265.468 252.723 265.468Z" fill="white"/>
<path d="M250.763 252.17C249.365 252.17 247.95 252.097 246.553 251.95C243.631 251.621 240.746 250.961 237.97 249.991C235.411 249.093 232.725 247.701 229.985 245.851C227.517 244.202 225.231 242.298 223.199 240.209C221.838 238.817 220.513 237.37 219.225 235.978C218.608 235.319 217.991 234.66 217.392 234L189.719 204.4C188.031 202.605 186.235 200.957 184.184 199.382C181.898 197.623 179.956 196.469 178.105 195.755C173.859 194.143 169.159 194.143 164.913 195.755C163.044 196.469 161.12 197.605 158.834 199.382C156.802 200.957 154.987 202.587 153.299 204.4L125.626 234C125.028 234.641 124.429 235.301 123.83 235.942C122.523 237.352 121.181 238.799 119.82 240.209C117.787 242.298 115.501 244.184 113.033 245.851C110.293 247.701 107.607 249.093 105.049 249.991C102.29 250.961 99.405 251.621 96.4654 251.95C93.6164 252.262 90.713 252.262 87.864 251.932C85.0514 251.621 82.275 250.98 79.6257 250.064C76.9763 249.148 74.4721 247.939 72.222 246.51C70.0081 245.1 67.9213 243.36 66.2156 241.455L66.887 240.832C68.5564 242.664 70.5707 244.367 72.7119 245.723C74.9076 247.133 77.3392 248.287 79.9341 249.185C82.529 250.082 85.2328 250.687 87.9911 251.016C90.7856 251.328 93.6164 251.346 96.3928 251.035C99.2417 250.723 102.073 250.082 104.758 249.13C107.244 248.25 109.857 246.895 112.543 245.1C114.956 243.47 117.188 241.62 119.184 239.587C120.545 238.195 121.888 236.748 123.195 235.337C123.794 234.678 124.392 234.037 125.009 233.396L152.682 203.796C154.406 201.964 156.239 200.279 158.326 198.686C160.685 196.872 162.699 195.682 164.641 194.931C169.087 193.245 174.022 193.245 178.468 194.931C180.41 195.663 182.424 196.854 184.783 198.686C186.852 200.279 188.703 201.964 190.427 203.796L218.1 233.396C218.717 234.055 219.333 234.714 219.95 235.392C221.239 236.784 222.563 238.213 223.906 239.605C225.902 241.638 228.134 243.506 230.548 245.118C233.233 246.913 235.847 248.269 238.333 249.148C241.036 250.1 243.849 250.742 246.698 251.053C249.474 251.364 252.305 251.346 255.1 251.035C257.858 250.723 260.562 250.1 263.157 249.203C265.752 248.305 268.165 247.133 270.379 245.741C272.52 244.367 274.534 242.682 276.204 240.851L276.875 241.473C275.151 243.36 273.064 245.118 270.851 246.529C268.582 247.976 266.096 249.166 263.447 250.082C260.798 250.998 258.021 251.621 255.209 251.95C253.702 252.079 252.233 252.17 250.763 252.17Z" fill="white"/>
<path d="M248.894 238.891C246.879 238.891 244.865 238.744 242.869 238.451C239.784 238.011 236.826 237.224 234.032 236.143C231.437 235.136 228.733 233.542 226.011 231.454C223.816 229.769 221.765 227.736 219.551 225.08L192.259 192.366C191.86 191.89 191.479 191.414 191.08 190.938C189.701 189.271 188.412 187.696 187.015 186.285C185.11 184.344 183.168 182.713 181.263 181.45C179.285 180.131 177.143 179.252 174.857 178.794C172.625 178.354 170.339 178.354 168.107 178.794C165.82 179.252 163.679 180.131 161.701 181.45C159.778 182.732 157.836 184.362 155.949 186.285C154.551 187.696 153.263 189.271 151.884 190.938C151.503 191.414 151.104 191.89 150.704 192.366L123.413 225.08C121.199 227.736 119.148 229.751 116.952 231.454C114.231 233.542 111.545 235.117 108.932 236.143C106.155 237.224 103.179 238.011 100.095 238.451C97.1549 238.872 94.1426 239.001 91.1667 238.781C88.2451 238.579 85.3417 238.066 82.5472 237.26C79.7708 236.473 77.1215 235.392 74.708 234.055C72.4034 232.791 70.1533 231.179 68.2117 229.384L68.8287 228.707C70.7159 230.465 72.8934 232.022 75.1435 233.249C77.5025 234.55 80.0793 235.594 82.8012 236.363C85.5413 237.151 88.3721 237.645 91.2392 237.847C94.1426 238.048 97.0823 237.938 99.9676 237.517C102.98 237.077 105.883 236.326 108.605 235.264C111.128 234.275 113.741 232.755 116.39 230.703C118.531 229.055 120.545 227.076 122.705 224.475L149.997 191.762C150.396 191.286 150.777 190.809 151.176 190.351C152.501 188.74 153.862 187.073 155.295 185.626C157.237 183.648 159.233 181.981 161.193 180.662C163.262 179.288 165.53 178.354 167.925 177.878C170.284 177.42 172.68 177.42 175.02 177.878C177.416 178.354 179.684 179.288 181.753 180.662C183.731 181.981 185.708 183.648 187.65 185.626C189.066 187.073 190.445 188.74 191.769 190.351C192.15 190.828 192.55 191.304 192.949 191.762L220.241 224.475C222.418 227.076 224.414 229.055 226.556 230.703C229.205 232.736 231.818 234.275 234.34 235.264C237.062 236.326 239.966 237.077 242.978 237.517C245.863 237.938 248.803 238.048 251.706 237.847C254.573 237.645 257.404 237.151 260.144 236.363C262.866 235.594 265.443 234.531 267.802 233.249C270.034 232.022 272.23 230.447 274.117 228.707L274.734 229.384C272.792 231.179 270.542 232.81 268.238 234.055C265.824 235.374 263.175 236.455 260.398 237.26C257.604 238.066 254.7 238.561 251.779 238.781C250.817 238.854 249.855 238.891 248.894 238.891Z" fill="white"/>
<path d="M248.585 225.886C245.845 225.886 243.123 225.648 240.456 225.172C236.718 224.512 233.796 223.651 231.237 222.461C228.334 221.105 225.612 219.31 223.162 217.13C220.803 215.024 218.898 212.515 217.065 210.097L189.918 174.453C188.43 172.511 186.634 170.258 184.547 168.371C182.333 166.357 180.301 164.965 178.359 164.122C173.986 162.199 169.014 162.199 164.641 164.122C162.699 164.983 160.667 166.375 158.453 168.371C156.366 170.276 154.57 172.511 153.082 174.453L125.935 210.115C124.102 212.533 122.197 215.024 119.838 217.13C117.388 219.31 114.666 221.105 111.763 222.461C109.204 223.651 106.282 224.512 102.544 225.172C99.4776 225.721 96.3202 225.941 93.1628 225.868C90.0779 225.794 86.993 225.41 84.017 224.732C81.0592 224.054 78.2103 223.12 75.5791 221.911C73.1475 220.812 70.6796 219.328 68.4294 217.625L68.9738 216.892C71.1695 218.541 73.583 219.988 75.9601 221.069C78.5369 222.241 81.3314 223.175 84.2348 223.834C87.1563 224.494 90.1868 224.878 93.2172 224.952C96.3202 225.043 99.405 224.805 102.417 224.274C106.065 223.633 108.932 222.79 111.4 221.636C114.23 220.318 116.862 218.577 119.257 216.453C121.543 214.401 123.431 211.947 125.245 209.566L152.392 173.903C153.898 171.925 155.713 169.654 157.872 167.694C160.159 165.606 162.264 164.177 164.314 163.279C168.923 161.265 174.149 161.265 178.758 163.279C180.791 164.177 182.896 165.624 185.2 167.694C187.342 169.635 189.174 171.925 190.681 173.903L217.827 209.547C219.642 211.929 221.529 214.401 223.816 216.453C226.193 218.577 228.842 220.318 231.673 221.636C234.159 222.79 237.008 223.633 240.655 224.274C243.668 224.805 246.771 225.043 249.855 224.952C252.886 224.878 255.898 224.494 258.838 223.834C261.741 223.175 264.518 222.241 267.094 221.069C269.472 219.988 271.885 218.541 274.081 216.892L274.625 217.625C272.375 219.328 269.907 220.812 267.475 221.911C264.844 223.12 261.995 224.054 259.037 224.732C256.061 225.41 252.977 225.794 249.892 225.868C249.438 225.886 249.003 225.886 248.585 225.886Z" fill="white"/>
<path d="M252.323 214.181C249.529 214.181 246.734 213.98 244.012 213.577C240.71 213.082 237.534 212.331 234.558 211.306C231.691 210.317 228.824 208.705 226.048 206.507C223.779 204.712 221.638 202.44 219.497 199.528L192.64 163.151C192.241 162.602 191.842 162.052 191.443 161.521C190.118 159.689 188.848 157.949 187.487 156.429C185.654 154.378 183.694 152.656 181.644 151.282C179.611 149.908 177.379 148.974 175.002 148.516C172.68 148.058 170.321 148.058 167.98 148.516C165.602 148.992 163.37 149.927 161.338 151.282C159.288 152.656 157.328 154.396 155.495 156.429C154.134 157.949 152.864 159.689 151.539 161.521C151.14 162.071 150.741 162.62 150.342 163.151L123.485 199.528C121.308 202.477 119.221 204.712 116.934 206.507C114.158 208.705 111.291 210.317 108.424 211.306C105.466 212.331 102.272 213.082 98.9695 213.577C95.8302 214.035 92.6002 214.236 89.3883 214.163C86.249 214.09 83.0916 213.76 80.0067 213.192C76.9763 212.625 74.0185 211.819 71.2421 210.793C68.8105 209.895 66.2337 208.668 63.5662 207.148L64.0199 206.342C66.6511 207.844 69.1734 209.053 71.5687 209.932C74.3088 210.939 77.2122 211.745 80.1882 212.295C83.2186 212.863 86.3216 213.192 89.4246 213.247C92.6002 213.321 95.7577 213.119 98.8607 212.661C102.109 212.185 105.23 211.434 108.152 210.427C110.928 209.474 113.704 207.899 116.39 205.774C118.622 204.016 120.654 201.854 122.777 198.96L149.634 162.583C150.033 162.034 150.432 161.503 150.831 160.953C152.12 159.176 153.445 157.345 154.842 155.788C156.729 153.682 158.743 151.905 160.848 150.494C162.989 149.066 165.33 148.077 167.816 147.582C170.266 147.087 172.734 147.087 175.184 147.582C177.67 148.077 180.011 149.066 182.152 150.494C184.257 151.905 186.271 153.7 188.158 155.788C189.555 157.345 190.88 159.176 192.169 160.953C192.568 161.503 192.967 162.034 193.366 162.583L220.223 198.96C222.346 201.854 224.378 204.016 226.61 205.774C229.314 207.899 232.072 209.474 234.848 210.427C237.77 211.434 240.891 212.185 244.139 212.661C247.224 213.119 250.4 213.321 253.575 213.247C256.66 213.174 259.781 212.863 262.812 212.295C265.806 211.727 268.709 210.939 271.431 209.932C273.808 209.053 276.349 207.844 278.98 206.342L279.434 207.148C276.766 208.668 274.171 209.914 271.758 210.793C268.982 211.819 266.024 212.625 262.993 213.192C259.908 213.779 256.751 214.09 253.612 214.163C253.176 214.181 252.741 214.181 252.323 214.181Z" fill="white"/>
<path d="M259.146 204.364C256.533 204.364 253.938 204.236 251.398 203.961C248.132 203.613 244.902 203.045 241.78 202.239C238.242 201.342 235.266 200.169 232.689 198.649C229.895 197 227.39 194.967 225.231 192.586C223.652 190.846 222.255 188.923 220.912 187.054C220.459 186.413 219.987 185.791 219.533 185.168L192.386 148.736C190.862 146.666 189.41 144.725 187.759 143.076C185.799 141.098 183.785 139.486 181.789 138.314C179.702 137.068 177.434 136.226 175.057 135.804C172.716 135.383 170.339 135.383 167.998 135.804C165.621 136.226 163.352 137.068 161.266 138.314C159.251 139.504 157.237 141.116 155.295 143.076C153.644 144.743 152.192 146.685 150.668 148.754L123.521 185.168C123.05 185.791 122.596 186.432 122.124 187.073C120.781 188.923 119.384 190.846 117.805 192.586C115.646 194.967 113.142 197 110.347 198.649C107.77 200.169 104.794 201.342 101.256 202.239C98.1348 203.027 94.9048 203.613 91.6385 203.961C88.4629 204.309 85.1966 204.419 81.9302 204.345C78.7546 204.254 75.5428 203.979 72.4035 203.485C69.3186 203.008 66.2882 202.331 63.3666 201.488C60.3906 200.627 57.578 199.492 55.2008 198.502L55.5456 197.66C57.8865 198.631 60.681 199.748 63.6207 200.609C66.506 201.451 69.5001 202.111 72.5305 202.587C75.6335 203.063 78.7909 203.356 81.9302 203.43C85.1421 203.521 88.3721 203.393 91.5114 203.045C94.7415 202.697 97.9352 202.129 101.002 201.36C104.45 200.481 107.353 199.345 109.839 197.861C112.543 196.268 114.993 194.271 117.079 191.963C118.622 190.26 120.001 188.355 121.344 186.523C121.816 185.882 122.269 185.241 122.741 184.618L149.888 148.205C151.448 146.117 152.918 144.139 154.606 142.417C156.62 140.384 158.689 138.735 160.757 137.508C162.935 136.207 165.312 135.328 167.798 134.889C170.248 134.449 172.716 134.449 175.166 134.889C177.652 135.328 180.011 136.207 182.206 137.508C184.275 138.735 186.362 140.384 188.358 142.417C190.045 144.12 191.515 146.098 193.058 148.186L220.223 184.618C220.694 185.241 221.148 185.882 221.62 186.523C222.945 188.355 224.324 190.26 225.884 191.963C227.989 194.271 230.421 196.249 233.125 197.861C235.629 199.345 238.514 200.481 241.98 201.36C245.047 202.129 248.24 202.715 251.47 203.045C254.61 203.375 257.84 203.503 261.052 203.43C264.191 203.356 267.367 203.063 270.451 202.587C273.5 202.111 276.494 201.451 279.379 200.609C282.301 199.748 285.095 198.649 287.454 197.66L287.799 198.502C285.422 199.492 282.609 200.609 279.633 201.488C276.712 202.331 273.681 203.008 270.597 203.485C267.457 203.979 264.264 204.254 261.07 204.345C260.435 204.364 259.781 204.364 259.146 204.364Z" fill="white"/>
<path d="M266.641 194.674C264.082 194.674 261.505 194.564 259.001 194.363C255.68 194.088 252.396 193.648 249.22 193.026C246.262 192.458 242.869 191.725 239.748 190.388C236.772 189.124 233.996 187.421 231.51 185.333C229.187 183.391 227.318 181.138 225.231 178.354L193.239 135.969C191.406 133.551 189.828 131.592 187.995 129.906C185.963 128.038 183.894 126.554 181.88 125.492C179.738 124.375 177.452 123.606 175.057 123.221C172.698 122.836 170.302 122.836 167.943 123.221C165.548 123.606 163.262 124.375 161.12 125.492C159.106 126.554 157.037 128.038 155.005 129.906C153.172 131.573 151.594 133.533 149.761 135.969L117.769 178.391C115.954 180.79 113.94 183.3 111.49 185.369C109.004 187.457 106.228 189.161 103.252 190.425C100.131 191.762 96.7194 192.476 93.7616 193.062C90.586 193.685 87.3015 194.125 83.9807 194.399C80.7507 194.656 77.43 194.747 74.1455 194.674C70.9336 194.601 67.6673 194.363 64.4554 193.978C61.3161 193.594 58.1768 193.062 55.1464 192.385C52.37 191.762 49.7025 190.956 47.1258 190.187L46.5088 190.003L46.7628 189.124L47.3798 189.307C49.9384 190.077 52.5696 190.864 55.3279 191.487C58.322 192.165 61.425 192.696 64.5461 193.081C67.7217 193.465 70.9518 193.703 74.1455 193.777C77.4118 193.85 80.6781 193.758 83.89 193.502C87.1745 193.227 90.4227 192.788 93.562 192.183C96.4654 191.615 99.8224 190.901 102.871 189.6C105.756 188.373 108.46 186.725 110.873 184.692C113.142 182.787 114.956 180.589 117.025 177.878L149.017 135.456C150.868 133.002 152.501 131.005 154.37 129.284C156.457 127.36 158.58 125.84 160.667 124.723C162.881 123.551 165.276 122.763 167.762 122.36C170.212 121.975 172.698 121.975 175.147 122.36C177.633 122.763 180.029 123.551 182.243 124.723C184.329 125.822 186.452 127.36 188.539 129.284C190.408 131.005 192.042 133.002 193.892 135.456L225.884 177.878C227.935 180.607 229.768 182.805 232.036 184.692C234.449 186.725 237.153 188.373 240.038 189.6C243.087 190.901 246.444 191.615 249.347 192.183C252.487 192.788 255.735 193.246 259.019 193.502C262.231 193.758 265.516 193.868 268.764 193.777C271.958 193.703 275.188 193.465 278.363 193.081C281.484 192.696 284.587 192.165 287.581 191.487C290.322 190.864 292.953 190.077 295.511 189.307L296.146 189.124L296.401 190.003L295.765 190.187C293.207 190.956 290.539 191.762 287.763 192.385C284.732 193.062 281.611 193.594 278.454 193.978C275.242 194.363 271.976 194.601 268.764 194.674C268.092 194.674 267.367 194.674 266.641 194.674Z" fill="white"/>
<path d="M68.1573 185.021C67.5766 185.021 66.9777 185.021 66.3971 185.003C63.1307 184.966 59.8281 184.783 56.5437 184.49C53.3499 184.197 50.138 183.794 46.9806 183.263C44.6942 182.878 42.444 182.402 40.2665 181.926C39.468 181.761 38.7059 181.578 37.9438 181.431L38.1252 180.534C38.8874 180.699 39.6677 180.863 40.4661 181.028C42.6255 181.505 44.8756 181.981 47.1258 182.365C50.2469 182.878 53.4588 183.3 56.6163 183.593C59.8644 183.886 63.167 184.069 66.3971 184.105C69.7178 184.142 73.0386 184.069 76.2868 183.849C79.6075 183.629 82.9283 183.263 86.122 182.768C89.842 182.182 92.9994 181.541 95.7577 180.809C98.6973 180.021 101.601 178.72 104.377 176.925C107.008 175.24 109.349 173.225 111.327 170.917C112.743 169.287 114.049 167.511 115.319 165.789C115.846 165.074 116.372 164.36 116.916 163.664L148.726 121.902C150.487 119.594 152.229 117.744 154.207 116.096C156.348 114.301 158.507 112.89 160.63 111.883C162.899 110.82 165.294 110.088 167.78 109.721C170.248 109.355 172.734 109.355 175.184 109.721C177.67 110.088 180.083 110.82 182.333 111.883C184.456 112.89 186.616 114.301 188.757 116.096C190.735 117.763 192.477 119.612 194.237 121.902L226.048 163.664C226.574 164.36 227.1 165.074 227.644 165.789C228.915 167.511 230.239 169.269 231.637 170.917C233.633 173.225 235.974 175.24 238.587 176.925C241.381 178.72 244.285 180.021 247.206 180.809C249.964 181.541 253.104 182.182 256.842 182.768C260.035 183.263 263.338 183.629 266.677 183.849C269.925 184.069 273.264 184.142 276.567 184.105C279.797 184.069 283.099 183.886 286.347 183.593C289.523 183.3 292.717 182.897 295.838 182.365C298.106 181.981 300.338 181.505 302.498 181.028C303.296 180.863 304.076 180.68 304.839 180.534L305.02 181.431C304.258 181.596 303.478 181.761 302.679 181.926C300.502 182.402 298.251 182.878 295.965 183.263C292.808 183.794 289.596 184.197 286.402 184.49C283.117 184.783 279.797 184.966 276.549 185.003C273.21 185.058 269.853 184.966 266.586 184.747C263.229 184.527 259.89 184.16 256.678 183.648C252.922 183.061 249.728 182.42 246.952 181.669C243.922 180.863 240.946 179.508 238.079 177.676C235.375 175.955 232.961 173.866 230.929 171.504C229.495 169.837 228.171 168.06 226.882 166.338C226.356 165.624 225.83 164.928 225.304 164.232L193.493 122.47C191.787 120.217 190.082 118.422 188.158 116.81C186.071 115.07 183.985 113.696 181.916 112.725C179.738 111.7 177.416 111.004 175.02 110.637C172.643 110.289 170.248 110.289 167.871 110.637C165.475 110.985 163.153 111.681 160.975 112.725C158.925 113.696 156.82 115.07 154.733 116.81C152.809 118.422 151.104 120.235 149.398 122.47L117.588 164.232C117.061 164.928 116.535 165.642 116.009 166.338C114.72 168.06 113.396 169.855 111.962 171.504C109.912 173.866 107.498 175.955 104.813 177.676C101.946 179.508 98.9514 180.863 95.9391 181.669C93.1446 182.42 89.969 183.061 86.2127 183.648C82.9827 184.142 79.6619 184.508 76.3049 184.747C73.6555 184.93 70.9155 185.021 68.1573 185.021Z" fill="white"/>
<path d="M284.061 175.423C280.795 175.423 277.547 175.332 274.371 175.13C270.978 174.929 267.602 174.617 264.336 174.196C260.979 173.757 257.658 173.207 254.446 172.566C250.618 171.778 247.623 170.844 245.065 169.617C242.161 168.225 239.494 166.448 237.117 164.324C234.83 162.272 232.961 159.854 231.165 157.528L199.01 115.711C198.465 115.015 197.939 114.301 197.395 113.586C196.233 112.048 195.018 110.454 193.892 109.062C192.296 107.121 190.445 105.325 188.394 103.769C186.289 102.157 184.148 100.875 182.043 99.977C179.829 99.0245 177.488 98.3834 175.075 98.0721C172.698 97.7607 170.284 97.7607 167.889 98.0721C165.475 98.4018 163.135 99.0429 160.921 99.977C158.816 100.875 156.675 102.157 154.57 103.769C152.519 105.344 150.686 107.121 149.071 109.062C147.928 110.454 146.73 112.048 145.569 113.586C145.025 114.301 144.498 115.015 143.954 115.711L111.781 157.546C109.984 159.873 108.133 162.29 105.847 164.342C103.47 166.467 100.802 168.243 97.8989 169.635C95.3222 170.863 92.3462 171.815 88.5173 172.584C85.3054 173.244 81.9847 173.793 78.6458 174.214C75.3794 174.636 71.9861 174.947 68.6109 175.149C65.3083 175.35 61.8968 175.442 58.5216 175.442C55.219 175.442 51.8438 175.332 48.5049 175.13C45.2567 174.929 41.9541 174.636 38.6878 174.251C36.728 174.013 34.75 173.72 32.8628 173.427C31.647 173.244 30.4494 173.061 29.2699 172.896L29.3969 171.98C30.5764 172.145 31.774 172.328 33.008 172.511C34.8952 172.804 36.855 173.097 38.8148 173.335C42.063 173.72 45.3474 174.013 48.5775 174.214C51.8982 174.416 55.2553 174.526 58.5397 174.526C61.9331 174.544 65.2901 174.434 68.5746 174.233C71.9317 174.031 75.2887 173.72 78.555 173.299C81.8758 172.877 85.1784 172.328 88.3722 171.668C92.1284 170.899 95.05 169.983 97.5541 168.793C100.367 167.437 102.98 165.716 105.284 163.646C107.516 161.668 109.331 159.286 111.109 156.979L143.283 115.143C143.809 114.447 144.353 113.733 144.898 113.037C146.077 111.498 147.275 109.886 148.436 108.494C150.087 106.498 151.975 104.666 154.08 103.054C156.239 101.387 158.453 100.069 160.63 99.1528C162.917 98.1637 165.33 97.5043 167.834 97.1746C170.302 96.8449 172.788 96.8449 175.256 97.1746C177.742 97.5043 180.174 98.182 182.46 99.1528C184.638 100.087 186.834 101.406 189.011 103.054C191.116 104.666 193.003 106.498 194.655 108.494C195.816 109.905 197.014 111.498 198.193 113.037C198.719 113.751 199.264 114.447 199.808 115.143L231.963 156.96C233.742 159.268 235.574 161.649 237.788 163.627C240.093 165.697 242.706 167.419 245.518 168.774C248.023 169.965 250.926 170.899 254.7 171.65C257.876 172.291 261.179 172.841 264.518 173.28C267.766 173.702 271.123 174.013 274.498 174.214C277.782 174.416 281.212 174.489 284.533 174.508C287.817 174.508 291.174 174.398 294.513 174.196C297.761 173.995 301.046 173.702 304.276 173.317C306.236 173.079 308.177 172.786 310.083 172.493C311.299 172.31 312.514 172.126 313.694 171.962L313.821 172.877C312.641 173.042 311.444 173.225 310.228 173.409C308.323 173.702 306.363 173.995 304.403 174.233C301.155 174.617 297.834 174.911 294.586 175.112C291.247 175.314 287.872 175.423 284.569 175.423C284.333 175.423 284.206 175.423 284.061 175.423Z" fill="white"/>
<path d="M294.858 165.917C294.023 165.917 293.189 165.917 292.354 165.899C288.906 165.862 285.476 165.734 282.138 165.532C278.726 165.331 275.315 165.038 271.976 164.671C268.582 164.287 265.225 163.829 261.959 163.261L261.65 163.206C258.493 162.675 255.227 162.125 252.233 161.081C249.166 160.037 246.281 158.572 243.631 156.722C241.036 154.927 238.732 152.802 236.772 150.421C235.465 148.828 234.195 147.161 232.961 145.531C232.381 144.761 231.8 144.01 231.201 143.241L199.336 102.138C198.883 101.552 198.447 100.966 197.993 100.398C196.778 98.7864 195.507 97.1196 194.237 95.7275C192.568 93.8775 190.662 92.1924 188.576 90.7271C186.452 89.2434 184.293 88.0528 182.116 87.192C179.884 86.3128 177.506 85.7266 175.093 85.4335C172.698 85.1405 170.266 85.1405 167.871 85.4335C165.457 85.7266 163.098 86.3311 160.848 87.192C158.689 88.0345 156.511 89.2251 154.388 90.7271C152.301 92.1924 150.396 93.8775 148.726 95.7275C147.456 97.1379 146.186 98.8047 144.97 100.398C144.535 100.984 144.081 101.571 143.627 102.138L111.763 143.241C111.182 143.992 110.601 144.743 110.021 145.494C108.787 147.124 107.498 148.791 106.192 150.403C104.25 152.784 101.946 154.89 99.3325 156.704C96.6831 158.535 93.7797 160.001 90.7311 161.063C87.7189 162.089 84.4525 162.638 81.2951 163.188L80.9866 163.243C77.7384 163.792 74.3632 164.269 70.9699 164.653C67.6491 165.02 64.2377 165.313 60.808 165.514C57.4691 165.716 54.0395 165.825 50.5917 165.88C47.2528 165.917 43.8232 165.88 40.3935 165.77C37.0728 165.661 33.6975 165.477 30.3405 165.221C28.5985 165.093 26.8564 164.91 25.1325 164.745C23.5901 164.58 22.0477 164.433 20.5597 164.323L20.6323 163.408C22.1384 163.518 23.6808 163.682 25.2414 163.829C26.9472 163.994 28.6892 164.177 30.4312 164.305C33.7701 164.562 37.1453 164.745 40.448 164.855C43.8594 164.965 47.2709 165.001 50.5917 164.965C54.0213 164.928 57.4328 164.8 60.7717 164.617C64.1651 164.415 67.5766 164.122 70.8792 163.756C74.2544 163.371 77.6114 162.913 80.8414 162.364L81.1499 162.309C84.2711 161.777 87.5011 161.228 90.4408 160.221C93.4168 159.195 96.2295 157.766 98.8244 155.989C101.365 154.231 103.597 152.18 105.484 149.872C106.791 148.278 108.061 146.611 109.295 144.981C109.875 144.23 110.456 143.461 111.037 142.71L142.902 101.607C143.355 101.039 143.791 100.453 144.226 99.8671C145.46 98.2369 146.73 96.5701 148.037 95.1231C149.743 93.2182 151.702 91.4964 153.844 89.9944C156.021 88.4558 158.253 87.2469 160.503 86.3677C162.808 85.4702 165.24 84.8474 167.744 84.536C170.212 84.2246 172.716 84.2246 175.184 84.536C177.67 84.8474 180.101 85.4519 182.424 86.3677C184.656 87.2469 186.906 88.4558 189.084 89.9944C191.225 91.4964 193.167 93.2182 194.891 95.1231C196.179 96.5518 197.467 98.2369 198.701 99.8671C199.137 100.453 199.59 101.039 200.026 101.607L231.891 142.71C232.471 143.461 233.052 144.23 233.651 144.999C234.885 146.611 236.155 148.278 237.443 149.853C239.331 152.161 241.581 154.231 244.103 155.971C246.68 157.766 249.511 159.195 252.487 160.202C255.426 161.21 258.656 161.759 261.777 162.29L262.086 162.345C265.316 162.895 268.673 163.371 272.048 163.737C275.351 164.104 278.762 164.397 282.156 164.598C285.476 164.8 288.906 164.91 292.336 164.946C295.656 164.983 299.086 164.946 302.479 164.836C305.782 164.726 309.157 164.543 312.496 164.287C314.238 164.159 315.962 163.975 317.668 163.811C319.228 163.646 320.771 163.499 322.277 163.371L322.35 164.287C320.843 164.397 319.319 164.562 317.759 164.708C316.035 164.873 314.293 165.056 312.569 165.184C309.212 165.441 305.818 165.624 302.516 165.734C299.975 165.862 297.399 165.917 294.858 165.917Z" fill="white"/>
<path d="M308.323 156.521C305.837 156.521 303.387 156.484 300.973 156.429C297.58 156.356 294.168 156.209 290.866 156.008C287.473 155.806 284.097 155.55 280.831 155.22C277.474 154.89 274.135 154.506 270.905 154.048C267.602 153.59 264.336 153.059 261.16 152.473C257.876 151.868 254.791 150.879 251.997 149.56C249.166 148.223 246.553 146.538 244.194 144.541C241.998 142.692 240.183 140.567 238.151 137.947L201.641 91.2216C201.097 90.5256 200.57 89.8296 200.026 89.1335C198.901 87.6682 197.721 86.1479 196.633 84.8291C195.09 82.9425 193.312 81.2024 191.352 79.6638C189.392 78.1252 187.342 76.8247 185.237 75.799C183.114 74.7733 180.863 73.9673 178.523 73.4545C173.913 72.4104 169.05 72.4104 164.441 73.4545C162.1 73.9857 159.85 74.7733 157.727 75.799C155.64 76.8247 153.59 78.1252 151.612 79.6638C149.652 81.2024 147.892 82.9425 146.331 84.8291C145.261 86.1479 144.099 87.6316 142.992 89.0786C142.43 89.7929 141.885 90.5256 141.323 91.2216L104.813 137.947C102.762 140.567 100.966 142.692 98.7699 144.541C96.4291 146.538 93.7979 148.223 90.967 149.56C88.1725 150.879 85.0877 151.85 81.8032 152.473C78.6276 153.059 75.3431 153.59 72.0587 154.048C68.8287 154.487 65.5079 154.89 62.1327 155.22C58.8482 155.531 55.473 155.806 52.0978 156.008C48.7952 156.209 45.3837 156.337 41.9904 156.429C38.6878 156.502 35.2944 156.539 31.8648 156.502C28.544 156.466 25.1688 156.392 21.8118 156.264C20.2875 156.209 18.7451 156.118 17.2389 156.026C15.4787 155.916 13.6823 155.825 11.9402 155.77L11.9584 154.854C13.7004 154.909 15.5332 155.019 17.2934 155.11C18.7995 155.202 20.3419 155.293 21.8481 155.348C25.187 155.477 28.5622 155.55 31.8648 155.586C35.2763 155.623 38.6696 155.586 41.9541 155.513C45.3474 155.44 48.7408 155.293 52.0434 155.092C55.4186 154.89 58.7757 154.634 62.0601 154.323C65.399 153.993 68.7379 153.608 71.9498 153.15C75.2343 152.692 78.5006 152.161 81.658 151.575C84.8699 150.989 87.8822 150.036 90.6041 148.736C93.3624 147.436 95.921 145.787 98.2074 143.845C100.349 142.032 102.109 139.962 104.123 137.38L140.633 90.6538C141.178 89.9395 141.74 89.2251 142.303 88.5108C143.428 87.0638 144.571 85.5618 145.66 84.243C147.238 82.3014 149.071 80.5247 151.067 78.9495C153.082 77.3559 155.205 76.0371 157.346 74.9748C159.523 73.9124 161.846 73.1064 164.242 72.5569C168.978 71.4946 173.986 71.4946 178.722 72.5569C181.118 73.1064 183.44 73.9124 185.618 74.9748C187.777 76.0188 189.882 77.3559 191.896 78.9495C193.911 80.5247 195.725 82.3014 197.304 84.243C198.411 85.5801 199.572 87.1004 200.715 88.5657C201.26 89.2618 201.804 89.9761 202.33 90.6538L238.841 137.38C240.855 139.944 242.633 142.032 244.756 143.845C247.043 145.787 249.601 147.436 252.36 148.736C255.082 150.018 258.094 150.971 261.288 151.575C264.445 152.161 267.711 152.692 270.996 153.15C274.208 153.59 277.528 153.993 280.885 154.323C284.152 154.634 287.509 154.909 290.884 155.092C294.187 155.293 297.58 155.422 300.973 155.513C304.258 155.586 307.651 155.623 311.063 155.586C314.365 155.55 317.74 155.477 321.079 155.348C322.604 155.293 324.128 155.202 325.652 155.11C327.412 155 329.227 154.909 330.987 154.854L331.005 155.77C329.263 155.825 327.449 155.934 325.707 156.026C324.182 156.118 322.658 156.209 321.134 156.264C317.777 156.392 314.402 156.466 311.081 156.502C310.173 156.521 309.248 156.521 308.323 156.521Z" fill="white"/>
<path d="M325.87 147.417C323.293 147.417 320.735 147.399 318.249 147.362C314.801 147.307 311.353 147.216 308.014 147.087C304.566 146.959 301.137 146.776 297.816 146.556C294.404 146.336 291.011 146.062 287.708 145.75C284.333 145.439 280.976 145.054 277.728 144.651C274.425 144.23 271.123 143.772 267.893 143.259C264.427 142.71 261.324 142.16 258.402 141.135C255.444 140.091 252.632 138.68 250.037 136.94C247.496 135.237 245.228 133.222 243.268 130.987C241.907 129.412 240.619 127.745 239.385 126.115C238.877 125.437 238.351 124.759 237.843 124.1L201.768 77.8688C201.314 77.2826 200.861 76.6965 200.425 76.1287C199.246 74.5901 198.03 72.9965 196.832 71.6594C195.235 69.8644 193.421 68.2159 191.443 66.7689C189.447 65.3218 187.378 64.0946 185.273 63.1422C183.15 62.1897 180.882 61.4387 178.541 60.9442C173.932 59.9734 169.087 59.9734 164.477 60.9442C162.137 61.4387 159.868 62.1714 157.745 63.1422C155.64 64.0946 153.553 65.3218 151.575 66.7689C149.598 68.2159 147.783 69.8644 146.186 71.6594C144.988 73.0148 143.773 74.5901 142.593 76.1287C142.139 76.7148 141.704 77.3009 141.25 77.8688L105.176 124.1C104.649 124.759 104.141 125.437 103.615 126.115C102.381 127.745 101.093 129.412 99.7317 130.987C97.7719 133.222 95.5036 135.237 92.9631 136.94C90.3864 138.68 87.5556 140.091 84.5977 141.135C81.6762 142.16 78.5732 142.691 75.1072 143.259C71.8954 143.772 68.5927 144.248 65.272 144.651C62.0238 145.054 58.6668 145.421 55.2916 145.75C51.9889 146.062 48.5956 146.336 45.1841 146.556C41.8634 146.776 38.4337 146.959 34.9859 147.087C31.647 147.216 28.1992 147.307 24.7515 147.362C21.4307 147.417 18.0011 147.436 14.517 147.417C13.1197 147.417 11.7043 147.381 10.3071 147.344C8.34728 147.307 6.33303 147.271 4.39138 147.289L4.37325 146.373C6.33304 146.355 8.36542 146.391 10.3252 146.428C11.7225 146.465 13.1197 146.483 14.517 146.501C17.9829 146.52 21.4126 146.501 24.7333 146.446C28.1811 146.391 31.6107 146.3 34.9497 146.172C38.3793 146.043 41.8089 145.86 45.1297 145.64C48.523 145.421 51.9164 145.146 55.219 144.835C58.5942 144.523 61.9331 144.157 65.1812 143.736C68.4839 143.314 71.7683 142.856 74.9802 142.343C78.3917 141.794 81.4584 141.263 84.3074 140.274C87.1926 139.266 89.9509 137.893 92.4732 136.189C94.9411 134.522 97.1549 132.581 99.0603 130.401C100.403 128.862 101.673 127.196 102.907 125.565C103.434 124.888 103.942 124.21 104.468 123.532L140.543 77.3009C140.996 76.7331 141.432 76.147 141.885 75.5609C143.065 74.004 144.299 72.4104 145.515 71.0367C147.166 69.1867 149.017 67.5015 151.049 66.0179C153.082 64.5159 155.223 63.2704 157.382 62.2996C159.578 61.3105 161.901 60.5595 164.296 60.0466C169.032 59.0575 174.004 59.0575 178.74 60.0466C181.136 60.5595 183.477 61.3105 185.654 62.2996C187.832 63.2704 189.955 64.5342 191.987 66.0179C194.019 67.5015 195.889 69.1867 197.522 71.0367C198.738 72.4104 199.971 74.0223 201.151 75.5609C201.605 76.147 202.04 76.7331 202.494 77.3009L238.568 123.532C239.095 124.21 239.603 124.888 240.129 125.565C241.363 127.177 242.633 128.844 243.976 130.401C245.881 132.581 248.095 134.522 250.563 136.189C253.085 137.893 255.826 139.266 258.729 140.274C261.578 141.281 264.645 141.812 268.056 142.343C271.268 142.856 274.571 143.314 277.855 143.736C281.103 144.139 284.442 144.505 287.817 144.835C291.102 145.146 294.495 145.421 297.907 145.64C301.209 145.86 304.639 146.043 308.087 146.172C311.426 146.3 314.855 146.391 318.303 146.446C321.624 146.501 325.053 146.52 328.519 146.501C329.917 146.501 331.314 146.465 332.711 146.428C334.671 146.391 336.703 146.337 338.663 146.373L338.645 147.289C336.703 147.271 334.671 147.307 332.729 147.344C331.332 147.381 329.917 147.399 328.519 147.417C327.612 147.417 326.741 147.417 325.87 147.417Z" fill="white"/>
<path d="M342.183 137.838C340.078 137.728 337.901 137.709 335.778 137.691C334.453 137.673 333.11 137.654 331.786 137.636C328.265 137.544 324.763 137.435 321.37 137.306C317.867 137.16 314.383 136.995 310.99 136.794C307.524 136.592 304.058 136.354 300.683 136.097C297.253 135.823 293.824 135.53 290.485 135.2C287.073 134.87 283.68 134.486 280.432 134.083C277.075 133.68 273.736 133.222 270.524 132.746L269.326 132.562C266.514 132.159 263.592 131.72 260.888 130.932C257.858 130.035 254.954 128.771 252.269 127.141C249.638 125.547 247.26 123.624 245.174 121.462C243.559 119.759 242.143 117.854 240.782 116.022C240.419 115.528 240.056 115.033 239.675 114.539L199.209 60.9808C197.431 58.6179 195.889 56.8962 194.237 55.4125C192.477 53.8373 190.517 52.4269 188.412 51.1997C186.362 50.0274 184.184 49.0566 181.934 48.3423C179.702 47.6279 177.379 47.1517 175.02 46.9136C172.68 46.6755 170.302 46.6755 167.962 46.9136C165.602 47.1517 163.28 47.6279 161.048 48.3423C158.798 49.0566 156.602 50.0274 154.57 51.1997C152.465 52.4086 150.505 53.8373 148.745 55.4125C147.075 56.8962 145.551 58.6179 143.773 60.9808L103.306 114.539C102.925 115.033 102.562 115.528 102.2 116.022C100.839 117.854 99.4413 119.759 97.8082 121.444C95.7395 123.624 93.3442 125.529 90.713 127.122C88.0274 128.752 85.124 130.035 82.0935 130.914C79.3898 131.701 76.4682 132.123 73.6556 132.544L72.4579 132.727C69.246 133.203 65.9071 133.643 62.55 134.064C59.2837 134.467 55.9085 134.834 52.4971 135.182C49.1763 135.511 45.7467 135.804 42.2989 136.079C38.9237 136.336 35.4577 136.574 31.9918 136.775C28.5985 136.977 25.1144 137.142 21.6122 137.288C18.2188 137.416 14.7166 137.545 11.1962 137.618C9.87154 137.654 8.52873 137.673 7.20405 137.673C5.09909 137.691 2.92156 137.728 0.816602 137.819L0.780302 136.903C2.90341 136.794 5.09909 136.775 7.20405 136.757C8.52873 136.739 9.85341 136.72 11.1781 136.702C14.6985 136.61 18.2007 136.5 21.5759 136.372C25.0599 136.226 28.544 136.061 31.9374 135.859C35.4033 135.658 38.8692 135.42 42.2263 135.163C45.6559 134.907 49.0856 134.596 52.4063 134.266C55.8178 133.936 59.193 133.551 62.4412 133.167C65.7801 132.764 69.119 132.306 72.3127 131.83L73.5104 131.647C76.3049 131.244 79.1902 130.822 81.8214 130.053C84.7792 129.192 87.61 127.947 90.2412 126.353C92.7998 124.796 95.1225 122.946 97.1368 120.821C98.7155 119.173 100.113 117.286 101.456 115.473C101.818 114.978 102.2 114.465 102.581 113.971L143.047 60.413C144.861 57.9952 146.44 56.2551 148.146 54.7165C149.96 53.1046 151.975 51.6393 154.116 50.3937C156.221 49.1848 158.453 48.1958 160.776 47.4631C163.062 46.7304 165.439 46.2542 167.871 45.9977C170.284 45.7596 172.716 45.7596 175.111 45.9977C177.525 46.2359 179.92 46.7304 182.206 47.4631C184.529 48.1958 186.761 49.1848 188.866 50.3937C191.025 51.6393 193.021 53.0863 194.836 54.7165C196.542 56.2368 198.102 57.9952 199.935 60.413L240.401 113.971C240.782 114.465 241.145 114.96 241.508 115.455C242.851 117.268 244.248 119.155 245.827 120.803C247.841 122.909 250.164 124.778 252.741 126.335C255.354 127.928 258.185 129.174 261.142 130.035C263.792 130.804 266.659 131.225 269.453 131.628L270.669 131.811C273.863 132.288 277.202 132.727 280.559 133.148C283.807 133.551 287.182 133.918 290.594 134.247C293.914 134.577 297.344 134.87 300.774 135.145C304.131 135.401 307.597 135.64 311.063 135.841C314.456 136.043 317.94 136.207 321.424 136.354C324.818 136.482 328.302 136.61 331.822 136.684C333.147 136.72 334.471 136.739 335.796 136.739C337.919 136.757 340.097 136.794 342.22 136.885L342.183 137.838Z" fill="white"/>
<path d="M341.929 128.093C339.679 127.91 337.357 127.818 335.088 127.708C333.8 127.654 332.53 127.599 331.241 127.525C327.685 127.342 324.146 127.122 320.608 126.884C317.069 126.646 313.549 126.408 310.065 126.133C306.562 125.858 303.078 125.565 299.631 125.254C296.165 124.943 292.699 124.595 289.323 124.228C285.876 123.862 282.464 123.459 279.162 123.038C275.75 122.616 272.393 122.159 269.163 121.701L267.693 121.499C264.935 121.114 262.068 120.711 259.437 119.942C256.37 119.063 253.467 117.762 250.763 116.077C248.132 114.429 245.754 112.469 243.722 110.234C242.125 108.476 240.764 106.516 239.439 104.611C239.077 104.098 238.714 103.585 238.369 103.073L198.973 47.5913C197.231 45.1369 195.725 43.3602 194.11 41.8582C192.368 40.228 190.445 38.781 188.358 37.5538C186.325 36.3449 184.166 35.3741 181.916 34.6414C179.702 33.9271 177.379 33.4325 175.02 33.1944C172.68 32.9563 170.321 32.9563 167.98 33.1944C165.621 33.4325 163.298 33.9271 161.084 34.6414C158.834 35.3741 156.656 36.3449 154.642 37.5538C152.555 38.781 150.632 40.228 148.89 41.8582C147.275 43.3785 145.769 45.1369 144.027 47.5913L104.631 103.073C104.268 103.585 103.905 104.098 103.542 104.611C102.218 106.516 100.857 108.476 99.2599 110.234C97.2275 112.487 94.8503 114.447 92.2191 116.077C89.5335 117.744 86.612 119.045 83.5452 119.942C80.8959 120.711 78.0469 121.114 75.2887 121.499L73.8189 121.701C70.607 122.159 67.2318 122.616 63.8203 123.038C60.5177 123.459 57.1062 123.844 53.6584 124.228C50.2832 124.595 46.8173 124.943 43.3513 125.254C39.8854 125.565 36.4195 125.858 32.9173 126.133C29.415 126.408 25.8947 126.664 22.3743 126.884C18.8358 127.122 15.2973 127.324 11.7406 127.525C10.4704 127.599 9.18199 127.654 7.91176 127.708C5.66162 127.8 3.33893 127.892 1.07065 128.093L0.998048 127.177C3.26633 126.994 5.60721 126.884 7.87548 126.793C9.14572 126.738 10.4341 126.683 11.7043 126.628C15.261 126.445 18.7995 126.225 22.3199 125.987C25.8402 125.749 29.3606 125.51 32.8628 125.236C36.365 124.961 39.831 124.668 43.2969 124.357C46.7628 124.045 50.2288 123.697 53.5858 123.331C57.0154 122.964 60.427 122.561 63.7296 122.14C67.1411 121.719 70.4981 121.261 73.71 120.803L75.1798 120.602C78.0469 120.199 80.7326 119.814 83.3275 119.081C86.3035 118.22 89.1524 116.957 91.7655 115.326C94.3241 113.733 96.6287 111.81 98.6248 109.63C100.185 107.926 101.528 105.985 102.835 104.098C103.198 103.585 103.561 103.054 103.923 102.541L143.319 47.0601C145.097 44.5508 146.64 42.7374 148.291 41.1805C150.069 39.5137 152.065 38.03 154.207 36.7478C156.293 35.5206 158.525 34.5132 160.83 33.7622C163.098 33.0296 165.494 32.5167 167.907 32.2786C170.302 32.0221 172.734 32.0221 175.129 32.2786C177.543 32.535 179.92 33.0296 182.206 33.7622C184.529 34.5132 186.743 35.5206 188.83 36.7478C190.971 38.0117 192.949 39.4953 194.745 41.1805C196.415 42.7374 197.939 44.5508 199.736 47.0601L239.131 102.541C239.494 103.054 239.857 103.567 240.22 104.08C241.526 105.967 242.869 107.908 244.43 109.612C246.408 111.791 248.712 113.715 251.289 115.308C253.902 116.938 256.751 118.202 259.727 119.063C262.304 119.814 265.008 120.18 267.875 120.583L269.344 120.785C272.556 121.243 275.913 121.701 279.325 122.122C282.628 122.543 286.039 122.928 289.469 123.312C292.844 123.679 296.31 124.027 299.758 124.338C303.205 124.65 306.689 124.943 310.192 125.217C313.694 125.492 317.196 125.73 320.735 125.968C324.273 126.206 327.812 126.408 331.368 126.609C332.638 126.683 333.909 126.738 335.197 126.774C337.465 126.866 339.806 126.957 342.075 127.159L341.929 128.093Z" fill="white"/>
<path d="M338.228 119.118C335.832 118.843 333.364 118.66 330.969 118.495C329.717 118.404 328.465 118.312 327.231 118.22C323.565 117.909 319.936 117.598 316.325 117.268C312.714 116.938 309.121 116.609 305.546 116.242C301.971 115.894 298.433 115.528 294.913 115.143C291.392 114.759 287.908 114.356 284.442 113.953C280.976 113.531 277.547 113.11 274.153 112.652C270.742 112.194 267.385 111.736 264.028 111.242L263.665 111.187C260.507 110.729 257.241 110.253 254.283 109.227C251.253 108.165 248.404 106.681 245.827 104.794C243.286 102.926 241.073 100.728 239.24 98.2552C237.952 96.5152 236.772 94.6469 235.629 92.8335C235.157 92.0825 234.685 91.3315 234.213 90.5989L200.897 39.2023C200.48 38.5429 200.044 37.8835 199.627 37.2241C198.556 35.5206 197.431 33.7805 196.342 32.2969C194.872 30.3187 193.148 28.5237 191.243 26.9667C189.374 25.4465 187.342 24.146 185.2 23.1202C183.095 22.1128 180.845 21.3252 178.523 20.8123C173.95 19.7866 169.087 19.7866 164.514 20.8123C162.191 21.3252 159.941 22.1128 157.836 23.1202C155.695 24.146 153.662 25.4465 151.793 26.9667C149.888 28.5237 148.164 30.3187 146.694 32.2969C145.587 33.7805 144.48 35.5206 143.41 37.2241C142.992 37.8835 142.575 38.5429 142.139 39.2023L108.823 90.5989C108.333 91.3499 107.861 92.1008 107.389 92.8518C106.246 94.6652 105.067 96.5335 103.796 98.2552C101.964 100.728 99.7498 102.926 97.2094 104.794C94.6326 106.681 91.7836 108.183 88.7532 109.227C85.7954 110.253 82.5291 110.729 79.3716 111.187L79.0087 111.242C75.6698 111.718 72.2946 112.194 68.8831 112.652C65.4716 113.092 62.042 113.531 58.5942 113.953C55.1283 114.374 51.6442 114.759 48.1238 115.143C44.6034 115.528 41.0649 115.894 37.4901 116.242C33.9153 116.59 30.3223 116.938 26.7112 117.268C23.1001 117.598 19.4528 117.909 15.8054 118.22C14.5533 118.33 13.3012 118.422 12.0491 118.495C9.65379 118.66 7.1859 118.843 4.7906 119.118L4.68173 118.202C7.09518 117.909 9.58122 117.744 11.9765 117.579C13.2286 117.488 14.4807 117.396 15.7146 117.305C19.362 116.993 23.0094 116.682 26.6205 116.352C30.2316 116.022 33.8246 115.693 37.3994 115.326C40.956 114.978 44.5127 114.612 48.0149 114.227C51.5353 113.843 55.0194 113.44 58.4671 113.037C61.9149 112.634 65.3627 112.194 68.7561 111.736C72.1494 111.297 75.5246 110.82 78.8635 110.344L79.2264 110.289C82.4928 109.813 85.5595 109.373 88.4447 108.366C91.4026 107.34 94.1608 105.893 96.665 104.062C99.1329 102.248 101.274 100.124 103.052 97.7241C104.305 96.0206 105.484 94.1706 106.609 92.3756C107.081 91.6246 107.571 90.8553 108.043 90.1226L141.359 38.726C141.776 38.0666 142.194 37.4072 142.611 36.7478C143.7 35.0444 144.807 33.2677 145.932 31.7657C147.456 29.7325 149.216 27.8826 151.194 26.2707C153.118 24.6955 155.205 23.3767 157.419 22.3143C159.596 21.2702 161.901 20.4643 164.296 19.9331C168.978 18.8891 173.986 18.8891 178.686 19.9331C181.081 20.4643 183.386 21.2702 185.563 22.3143C187.759 23.3767 189.864 24.7138 191.787 26.2707C193.765 27.8826 195.526 29.7325 197.05 31.7657C198.175 33.2677 199.3 35.0444 200.371 36.7478C200.788 37.4072 201.205 38.0666 201.623 38.726L234.939 90.1226C235.411 90.8553 235.901 91.6063 236.373 92.3756C237.516 94.1706 238.677 96.0389 239.948 97.7424C241.726 100.142 243.867 102.285 246.335 104.08C248.839 105.912 251.616 107.359 254.555 108.384C257.441 109.392 260.507 109.831 263.774 110.308L264.137 110.363C267.475 110.839 270.851 111.315 274.244 111.755C277.637 112.194 281.067 112.634 284.533 113.055C287.999 113.476 291.483 113.861 294.985 114.246C298.487 114.63 302.044 114.997 305.601 115.345C309.157 115.693 312.75 116.041 316.361 116.37C319.972 116.7 323.62 117.012 327.267 117.323C328.501 117.433 329.753 117.506 331.005 117.598C333.401 117.762 335.887 117.946 338.318 118.239L338.228 119.118Z" fill="white"/>
<path d="M331.405 112.048C328.846 111.663 326.233 111.388 323.692 111.132C322.44 111.004 321.188 110.875 319.954 110.729C316.162 110.289 312.405 109.868 308.667 109.428C304.947 108.989 301.246 108.549 297.58 108.091C293.914 107.652 290.285 107.194 286.692 106.736C283.099 106.278 279.525 105.82 275.986 105.344C272.447 104.868 268.945 104.391 265.479 103.915C262.013 103.439 258.584 102.944 255.172 102.431C251.525 101.9 248.367 100.948 245.573 99.5557C242.651 98.1087 240.002 96.1854 237.734 93.8592C235.393 91.4597 233.651 88.5657 232.199 86.038L200.207 30.2637C199.736 29.4212 199.246 28.5603 198.756 27.6994C197.758 25.941 196.76 24.1826 195.834 22.6257C194.509 20.4094 192.913 18.3945 191.062 16.6361C189.301 14.951 187.324 13.5223 185.182 12.35C183.095 11.2144 180.863 10.3535 178.541 9.78569C173.968 8.65006 169.068 8.65006 164.496 9.78569C162.173 10.3535 159.941 11.2327 157.854 12.35C155.713 13.504 153.735 14.951 151.975 16.6361C150.124 18.3945 148.527 20.4094 147.202 22.6257C146.277 24.1826 145.279 25.941 144.281 27.6994C143.791 28.5603 143.301 29.4212 142.829 30.2637L110.837 86.0197C109.385 88.5474 107.643 91.4414 105.303 93.8409C103.034 96.1671 100.385 98.0721 97.4634 99.5374C94.6507 100.929 91.5114 101.882 87.864 102.413C84.4525 102.908 81.0229 103.402 77.557 103.897C74.0911 104.391 70.5888 104.868 67.0503 105.325C63.5118 105.802 59.9551 106.26 56.344 106.718C52.7511 107.175 49.1218 107.633 45.4563 108.073C41.7908 108.513 38.0889 108.97 34.369 109.41C30.649 109.85 26.8746 110.289 23.082 110.711C21.8481 110.857 20.596 110.985 19.362 111.095C16.8216 111.352 14.1904 111.626 11.6317 112.011L11.4866 111.114C14.0633 110.711 16.6945 110.454 19.2531 110.198C20.5052 110.069 21.7392 109.941 22.9731 109.813C26.7657 109.373 30.522 108.952 34.2601 108.513C37.9801 108.073 41.6819 107.633 45.3474 107.194C49.013 106.754 52.6422 106.296 56.2352 105.838C59.8281 105.38 63.4029 104.923 66.9233 104.446C70.4618 103.97 73.9459 103.494 77.4118 103.018C80.8777 102.541 84.3074 102.047 87.7189 101.534C91.2755 101.003 94.3241 100.105 97.046 98.7498C99.8769 97.3394 102.435 95.4894 104.631 93.2364C106.899 90.9102 108.605 88.0895 110.021 85.6167L142.012 29.8424C142.502 28.9999 142.992 28.139 143.464 27.2781C144.462 25.5014 145.478 23.743 146.404 22.1861C147.765 19.8965 149.416 17.8267 151.321 16.0133C153.136 14.2733 155.187 12.7896 157.4 11.599C159.542 10.4268 161.846 9.54756 164.26 8.94311C168.978 7.77084 174.022 7.77084 178.74 8.94311C181.136 9.52924 183.44 10.4268 185.6 11.599C187.813 12.7896 189.864 14.2916 191.679 16.0133C193.584 17.8267 195.235 19.8965 196.596 22.1861C197.522 23.743 198.538 25.5197 199.536 27.2781C200.026 28.139 200.516 28.9999 200.988 29.8424L232.979 85.6167C234.395 88.0895 236.101 90.9285 238.369 93.2364C240.565 95.4894 243.123 97.3394 245.954 98.7498C248.676 100.105 251.724 101.021 255.281 101.534C258.693 102.028 262.122 102.523 265.588 103.018C269.054 103.512 272.556 103.988 276.077 104.446C279.615 104.923 283.172 105.38 286.765 105.838C290.358 106.296 293.987 106.754 297.653 107.194C301.318 107.633 305.002 108.091 308.74 108.513C312.46 108.952 316.234 109.392 320.027 109.813C321.261 109.96 322.495 110.088 323.747 110.198C326.306 110.454 328.937 110.729 331.513 111.114L331.405 112.048Z" fill="white"/>
<path d="M280.577 323.44L279.688 323.239C280.323 320.363 280.541 317.378 280.341 314.337C280.178 311.901 279.688 309.483 279.234 307.139C279.107 306.498 278.98 305.856 278.871 305.234L265.443 233.213C264.953 230.612 264.753 228.23 264.79 225.959C264.844 223.596 265.153 221.27 265.715 219.017C266.26 216.782 267.058 214.658 268.074 212.661C268.963 210.921 270.088 209.218 271.74 207.184L313.385 155.238C313.712 154.835 314.057 154.414 314.383 154.011C315.545 152.582 316.652 151.245 317.559 149.853C318.72 148.095 319.664 146.172 320.39 144.157C321.098 142.16 321.606 140.072 321.878 137.893C322.15 135.731 322.186 133.533 322.005 131.317C321.823 129.082 321.406 126.848 320.771 124.705C320.118 122.488 319.228 120.363 318.14 118.367C317.015 116.297 315.654 114.374 314.129 112.689C312.514 110.894 310.7 109.355 308.74 108.091C306.635 106.736 304.349 105.728 301.953 105.069L302.189 104.19C304.675 104.868 307.034 105.912 309.212 107.322C311.244 108.622 313.131 110.234 314.801 112.084C316.379 113.843 317.759 115.803 318.938 117.946C320.063 119.997 320.97 122.195 321.642 124.466C322.295 126.683 322.731 128.972 322.912 131.262C323.094 133.533 323.057 135.823 322.785 138.039C322.513 140.274 321.987 142.435 321.243 144.487C320.499 146.575 319.501 148.553 318.321 150.385C317.378 151.813 316.216 153.242 315.091 154.616C314.764 155.019 314.42 155.422 314.093 155.843L272.447 207.789C270.851 209.785 269.744 211.434 268.891 213.119C267.911 215.042 267.149 217.112 266.604 219.274C266.06 221.472 265.77 223.743 265.715 226.014C265.661 228.23 265.879 230.538 266.35 233.084L279.779 305.105C279.887 305.728 280.014 306.369 280.142 307.01C280.613 309.373 281.085 311.828 281.267 314.319C281.466 317.396 281.23 320.491 280.577 323.44Z" fill="white"/>
<path d="M271.286 329.76L270.397 329.613C270.869 326.609 270.978 323.514 270.705 320.363C270.488 317.854 269.98 315.344 269.49 312.927C269.363 312.249 269.217 311.59 269.09 310.93L254.827 236.4C254.319 233.707 254.047 231.253 254.011 228.908C253.975 226.472 254.174 224.054 254.61 221.728C255.027 219.42 255.662 217.204 256.497 215.134C257.223 213.302 258.166 211.544 259.546 209.401L295.366 153.718C296.364 152.198 297.29 150.769 298.052 149.304C299.014 147.454 299.776 145.439 300.356 143.333C300.919 141.244 301.282 139.046 301.445 136.794C301.608 134.541 301.554 132.233 301.318 129.925C301.064 127.58 300.61 125.254 299.957 123.001C299.286 120.675 298.397 118.44 297.344 116.352C296.237 114.172 294.931 112.158 293.479 110.363C291.936 108.458 290.213 106.809 288.38 105.454C286.402 104.007 284.261 102.871 282.029 102.12L282.319 101.259C284.642 102.047 286.856 103.201 288.906 104.721C290.811 106.131 292.59 107.835 294.187 109.795C295.675 111.645 297.017 113.715 298.161 115.949C299.249 118.092 300.139 120.382 300.846 122.763C301.518 125.071 301.99 127.452 302.244 129.852C302.498 132.214 302.552 134.596 302.389 136.885C302.225 139.193 301.844 141.464 301.264 143.607C300.683 145.787 299.885 147.857 298.887 149.762C298.106 151.282 297.108 152.802 296.146 154.268L260.326 209.932C258.983 212.02 258.076 213.742 257.368 215.5C256.569 217.497 255.952 219.658 255.535 221.911C255.118 224.182 254.936 226.545 254.954 228.926C254.973 231.234 255.245 233.634 255.753 236.253L270.016 310.784C270.143 311.443 270.27 312.102 270.415 312.762C270.905 315.198 271.413 317.726 271.631 320.29C271.885 323.495 271.776 326.683 271.286 329.76Z" fill="white"/>
<path d="M260.017 331.518L259.11 331.426C259.455 328.368 259.455 325.199 259.128 322.012C258.856 319.429 258.348 316.865 257.858 314.374C257.731 313.714 257.604 313.055 257.477 312.414L242.924 236.619C242.397 233.872 242.089 231.381 242.016 229C241.925 226.545 242.034 224.091 242.343 221.691C242.651 219.365 243.123 217.112 243.795 214.987C244.375 213.137 245.156 211.324 246.281 209.144L275.859 152.18C276.676 150.623 277.456 149.157 278.073 147.637C278.853 145.732 279.47 143.681 279.887 141.519C280.323 139.376 280.559 137.123 280.631 134.815C280.704 132.526 280.595 130.163 280.287 127.782C279.996 125.401 279.506 123.019 278.853 120.711C278.182 118.33 277.329 116.041 276.313 113.898C275.26 111.663 274.026 109.593 272.665 107.743C271.213 105.783 269.617 104.08 267.911 102.67C266.078 101.168 264.118 99.9953 262.068 99.1894L262.394 98.3285C264.536 99.1711 266.568 100.398 268.473 101.955C270.234 103.402 271.885 105.161 273.373 107.194C274.77 109.099 276.022 111.205 277.111 113.495C278.145 115.674 279.016 118.019 279.706 120.437C280.377 122.8 280.867 125.217 281.176 127.653C281.484 130.071 281.593 132.489 281.521 134.815C281.448 137.178 281.194 139.468 280.758 141.666C280.305 143.882 279.688 146.007 278.889 147.948C278.254 149.505 277.438 151.062 276.639 152.564L247.061 209.511C245.954 211.654 245.192 213.412 244.629 215.207C243.976 217.277 243.504 219.475 243.214 221.746C242.905 224.072 242.815 226.49 242.905 228.89C242.996 231.234 243.286 233.67 243.795 236.363L258.348 312.157C258.475 312.798 258.602 313.458 258.729 314.117C259.237 316.627 259.745 319.209 260.017 321.829C260.362 325.162 260.362 328.386 260.017 331.518Z" fill="white"/>
<path d="M248.259 327.672L247.351 327.617C247.551 324.558 247.478 321.371 247.097 318.202C246.789 315.619 246.281 313.055 245.791 310.564C245.664 309.904 245.537 309.263 245.41 308.622L230.747 232.974C230.221 230.245 229.895 227.754 229.749 225.391C229.604 222.937 229.622 220.482 229.822 218.12C230.003 215.793 230.366 213.54 230.874 211.434C231.328 209.584 231.927 207.789 232.834 205.609L256.37 148.828C257.023 147.271 257.658 145.787 258.13 144.267C258.729 142.362 259.201 140.31 259.491 138.149C259.781 136.006 259.927 133.753 259.908 131.463C259.89 129.155 259.709 126.793 259.382 124.448C259.037 122.067 258.547 119.686 257.894 117.378C257.223 114.997 256.406 112.707 255.444 110.582C254.446 108.348 253.303 106.278 252.033 104.446C250.69 102.486 249.22 100.783 247.66 99.3909C245.99 97.8889 244.212 96.7349 242.361 95.929L242.724 95.0864C244.666 95.929 246.535 97.1379 248.277 98.7132C249.892 100.16 251.398 101.919 252.795 103.933C254.083 105.82 255.263 107.926 256.279 110.216C257.259 112.396 258.094 114.722 258.765 117.14C259.418 119.484 259.927 121.902 260.271 124.338C260.616 126.738 260.779 129.137 260.798 131.482C260.816 133.826 260.671 136.116 260.362 138.314C260.054 140.512 259.582 142.618 258.965 144.578C258.475 146.135 257.803 147.71 257.168 149.212L233.633 205.994C232.744 208.137 232.163 209.895 231.727 211.69C231.237 213.76 230.874 215.958 230.693 218.229C230.493 220.556 230.475 222.955 230.62 225.373C230.766 227.717 231.074 230.154 231.6 232.846L246.262 308.494C246.389 309.135 246.516 309.776 246.643 310.436C247.152 312.945 247.66 315.528 247.968 318.147C248.386 321.316 248.458 324.539 248.259 327.672Z" fill="white"/>
<path d="M236.591 321.462L235.683 321.426C235.81 318.275 235.701 315.033 235.357 311.791C235.066 309.153 234.594 306.516 234.141 303.97L220.422 224.732C219.932 221.929 219.624 219.402 219.479 216.984C219.315 214.475 219.315 211.983 219.442 209.547C219.569 207.166 219.842 204.877 220.241 202.715C220.586 200.829 221.076 198.979 221.801 196.744L240.71 138.369C241.236 136.739 241.744 135.2 242.143 133.606C242.615 131.647 242.978 129.522 243.196 127.305C243.414 125.107 243.504 122.781 243.45 120.418C243.395 118.037 243.214 115.601 242.905 113.202C242.579 110.747 242.125 108.311 241.544 105.93C240.946 103.475 240.202 101.131 239.349 98.9329C238.46 96.625 237.443 94.482 236.337 92.577C235.157 90.5622 233.887 88.7855 232.526 87.3202C231.074 85.7633 229.532 84.5177 227.917 83.6568L228.334 82.8509C230.022 83.7667 231.655 85.0489 233.179 86.6974C234.594 88.2177 235.919 90.031 237.117 92.1191C238.242 94.0607 239.276 96.2404 240.184 98.6032C241.036 100.838 241.78 103.219 242.397 105.71C242.996 108.11 243.45 110.601 243.776 113.073C244.103 115.51 244.285 117.964 244.339 120.382C244.393 122.781 244.303 125.126 244.085 127.379C243.867 129.632 243.504 131.793 243.014 133.808C242.615 135.438 242.089 137.068 241.563 138.644L222.654 197.019C221.947 199.217 221.475 201.03 221.13 202.88C220.731 205.005 220.477 207.258 220.35 209.602C220.223 212.002 220.223 214.456 220.386 216.929C220.531 219.31 220.84 221.801 221.311 224.567L235.03 303.805C235.484 306.369 235.955 309.007 236.246 311.681C236.609 314.978 236.736 318.275 236.591 321.462Z" fill="white"/>
<path d="M224.941 315.271L224.033 315.235C224.16 312.047 224.088 308.769 223.834 305.453C223.616 302.688 223.253 299.922 222.89 297.266L212.256 216.489C211.93 213.962 211.603 211.562 211.422 209.126C211.222 206.562 211.15 203.979 211.186 201.47C211.222 198.997 211.349 196.579 211.603 194.271C211.839 191.982 212.184 189.802 212.619 187.805C212.946 186.322 213.327 184.875 213.69 183.483L229.169 123.148C229.749 120.913 230.203 119.045 230.548 117.03C230.893 114.942 231.147 112.725 231.292 110.418C231.437 108.128 231.473 105.728 231.419 103.292C231.346 100.838 231.183 98.3468 230.911 95.8924C230.639 93.383 230.258 90.8919 229.786 88.4741C229.296 85.9831 228.697 83.5836 228.026 81.3306C227.318 78.9861 226.519 76.8064 225.63 74.8282C224.705 72.7584 223.689 70.9268 222.6 69.3882C221.457 67.7397 220.241 66.4392 218.971 65.4684L219.515 64.7357C220.84 65.7614 222.128 67.1352 223.326 68.857C224.433 70.4505 225.485 72.3188 226.429 74.4619C227.336 76.4584 228.153 78.693 228.878 81.0742C229.568 83.3454 230.167 85.7633 230.675 88.291C231.165 90.7271 231.546 93.2548 231.818 95.7825C232.09 98.2735 232.272 100.783 232.326 103.256C232.399 105.71 232.344 108.146 232.199 110.454C232.054 112.799 231.8 115.052 231.455 117.158C231.11 119.21 230.639 121.096 230.076 123.349L214.597 183.684C214.234 185.076 213.853 186.505 213.545 187.97C213.109 189.949 212.783 192.092 212.547 194.345C212.311 196.616 212.166 199.015 212.129 201.451C212.093 203.942 212.184 206.507 212.365 209.034C212.547 211.434 212.873 213.815 213.2 216.343L223.834 297.119C224.197 299.794 224.578 302.578 224.777 305.362C224.995 308.732 225.05 312.047 224.941 315.271Z" fill="white"/>
<path d="M213.273 309.08L212.365 309.044C212.474 305.801 212.438 302.468 212.275 299.134C212.129 296.277 211.857 293.401 211.585 290.617L203.8 207.203C203.601 205.225 203.419 203.265 203.274 201.341C203.074 198.741 202.966 196.103 202.947 193.502C202.929 190.956 202.984 188.428 203.111 186.01C203.238 183.611 203.456 181.285 203.746 179.105C204.036 176.925 204.399 174.965 204.798 172.969L217.791 106.644C218.208 104.483 218.517 102.468 218.771 100.325C219.007 98.127 219.188 95.8008 219.279 93.4196C219.37 91.0385 219.388 88.5657 219.333 86.0747C219.279 83.5653 219.134 81.0192 218.934 78.4915C218.717 75.9089 218.426 73.3629 218.063 70.9268C217.682 68.3991 217.247 65.9629 216.72 63.655C216.194 61.2555 215.577 59.0209 214.924 57.0061C214.234 54.8813 213.472 52.9764 212.656 51.3645C211.803 49.6611 210.895 48.2507 209.952 47.1883L210.623 46.5839C211.621 47.7195 212.565 49.1849 213.454 50.9616C214.289 52.6101 215.051 54.5516 215.777 56.7313C216.448 58.7828 217.065 61.0357 217.61 63.4719C218.136 65.7981 218.59 68.2708 218.952 70.8169C219.315 73.2713 219.606 75.8356 219.823 78.4366C220.041 80.9826 220.168 83.547 220.241 86.0747C220.295 88.584 220.277 91.0751 220.186 93.4746C220.096 95.8741 219.914 98.2186 219.678 100.435C219.442 102.615 219.134 104.648 218.698 106.827L205.706 173.152C205.325 175.112 204.944 177.054 204.671 179.215C204.381 181.376 204.181 183.666 204.054 186.047C203.909 188.447 203.855 190.938 203.891 193.484C203.909 196.066 204.018 198.704 204.218 201.268C204.363 203.191 204.544 205.151 204.744 207.111L212.529 290.525C212.801 293.31 213.073 296.185 213.218 299.079C213.363 302.45 213.382 305.82 213.273 309.08Z" fill="white"/>
<path d="M201.623 302.889L200.715 302.853C200.806 299.684 200.806 296.405 200.734 293.108C200.661 290.104 200.48 287.064 200.316 284.133L195.217 195.975C195.072 193.355 194.927 190.883 194.854 188.392C194.782 185.864 194.745 183.3 194.782 180.754C194.818 178.299 194.891 175.845 195.018 173.482C195.145 171.156 195.326 168.903 195.544 166.796C195.743 164.836 196.016 162.986 196.27 161.21L205.851 93.4929C206.087 91.881 206.304 90.2692 206.504 88.639C206.74 86.6058 206.921 84.3895 207.067 82.0999C207.212 79.847 207.303 77.4658 207.339 75.048C207.375 72.6302 207.375 70.1391 207.321 67.6664C207.266 65.1753 207.157 62.6293 207.012 60.1199C206.849 57.5556 206.649 55.0462 206.413 52.6467C206.159 50.1557 205.851 47.7562 205.506 45.4849C205.143 43.1404 204.744 40.924 204.308 38.9275C203.837 36.8028 203.328 34.9162 202.802 33.286C202.24 31.5642 201.641 30.1172 201.024 28.9816L201.822 28.542C202.476 29.7326 203.093 31.2345 203.673 33.0112C204.218 34.6597 204.726 36.583 205.198 38.726C205.651 40.7592 206.05 42.9938 206.413 45.3567C206.758 47.6279 207.067 50.0641 207.321 52.5734C207.575 54.9729 207.774 57.5006 207.938 60.0833C208.083 62.611 208.192 65.157 208.246 67.6664C208.301 70.1575 208.301 72.6485 208.264 75.0846C208.228 77.5208 208.119 79.9019 207.992 82.1732C207.847 84.4994 207.647 86.7157 207.43 88.7672C207.248 90.3974 207.012 92.0092 206.776 93.6394L197.195 161.356C196.941 163.133 196.687 164.965 196.487 166.906C196.27 169.013 196.088 171.229 195.961 173.537C195.834 175.881 195.743 178.317 195.725 180.754C195.689 183.281 195.725 185.846 195.798 188.355C195.87 190.846 196.016 193.3 196.161 195.92L201.26 284.078C201.423 287.027 201.605 290.067 201.695 293.09C201.714 296.405 201.713 299.702 201.623 302.889Z" fill="white"/>
<path d="M189.973 296.698L189.066 296.68C189.156 293.456 189.174 290.141 189.156 286.825C189.138 283.657 189.066 280.451 188.975 277.356L186.688 186.542C186.634 184.618 186.58 182.713 186.561 180.827C186.525 178.262 186.507 175.643 186.525 173.024C186.543 170.515 186.58 167.987 186.67 165.532C186.743 163.151 186.852 160.788 186.979 158.517C187.106 156.246 187.269 154.103 187.451 152.161L194.183 78.8762C194.382 76.6965 194.564 74.6451 194.709 72.4837C194.854 70.304 194.981 68.0144 195.072 65.6882C195.163 63.4352 195.235 60.9808 195.272 58.4348C195.308 55.9986 195.326 53.4526 195.308 50.8883C195.29 48.2873 195.253 45.7047 195.181 43.2136C195.108 40.6126 194.999 38.0666 194.872 35.6305C194.745 33.0845 194.582 30.6484 194.401 28.3588C194.219 25.9593 194.001 23.7064 193.765 21.6732C193.511 19.5302 193.239 17.5703 192.967 15.8668C192.659 14.0718 192.332 12.5332 191.987 11.306L192.858 11.0679C193.203 12.3317 193.53 13.8886 193.838 15.7203C194.128 17.4421 194.401 19.4019 194.655 21.5816C194.89 23.6331 195.108 25.886 195.29 28.3038C195.471 30.5934 195.634 33.0479 195.762 35.5939C195.889 38.03 195.979 40.5943 196.07 43.1953C196.143 45.6864 196.179 48.269 196.197 50.8883C196.215 53.471 196.197 56.017 196.161 58.4531C196.124 61.0174 196.052 63.4536 195.961 65.7248C195.87 68.0694 195.743 70.3589 195.598 72.5569C195.453 74.7183 195.272 76.7698 195.072 78.9128L188.34 152.253C188.158 154.194 188.013 156.319 187.886 158.572C187.759 160.843 187.65 163.206 187.578 165.569C187.505 168.023 187.451 170.533 187.432 173.042C187.414 175.643 187.432 178.262 187.469 180.809C187.505 182.677 187.559 184.582 187.596 186.505L189.882 277.337C189.955 280.433 190.045 283.638 190.064 286.825C190.082 290.122 190.045 293.456 189.973 296.698Z" fill="white"/>
<path d="M178.196 291.276L177.289 291.258C177.325 288.034 177.343 284.682 177.343 281.275C177.343 278.162 177.325 275.011 177.307 271.989L176.708 179.911C176.69 177.914 176.672 175.918 176.672 173.958C176.654 171.302 176.654 168.665 176.672 166.064C176.69 163.481 176.708 160.935 176.726 158.48C176.762 156.026 176.799 153.645 176.835 151.374C176.871 149.102 176.944 146.941 176.998 144.926L179.412 70.4688C179.484 68.2892 179.557 66.1827 179.611 63.9664C179.666 61.7501 179.72 59.4422 179.757 57.061C179.793 54.6798 179.829 52.2071 179.847 49.6977C179.865 47.1883 179.865 44.624 179.865 42.0413C179.865 39.4587 179.865 36.8577 179.847 34.2568C179.829 31.6558 179.793 29.0732 179.757 26.5455C179.72 24.0178 179.666 21.5267 179.611 19.1455C179.557 16.7643 179.484 14.4748 179.412 12.3317C179.339 10.1887 179.248 8.19214 179.158 6.37879C179.067 4.58376 178.958 2.99021 178.849 1.67141L179.757 1.59814C179.865 2.93526 179.974 4.5288 180.065 6.34215C180.156 8.13719 180.246 10.152 180.319 12.2951C180.392 14.4381 180.464 16.746 180.519 19.1272C180.573 21.5084 180.628 23.9994 180.664 26.5271C180.7 29.0548 180.736 31.6375 180.755 34.2385C180.773 36.8394 180.791 39.4404 180.773 42.023C180.773 44.6057 180.773 47.17 180.755 49.6977C180.736 52.2071 180.7 54.6799 180.664 57.0793C180.628 59.4788 180.573 61.7867 180.519 64.0031C180.464 66.2194 180.392 68.3258 180.319 70.5055L177.906 144.963C177.833 146.978 177.779 149.121 177.742 151.392C177.706 153.663 177.652 156.026 177.633 158.499C177.597 160.953 177.579 163.499 177.579 166.082C177.561 168.665 177.561 171.302 177.579 173.958C177.579 175.918 177.597 177.914 177.615 179.911L178.214 271.989C178.232 275.011 178.25 278.18 178.25 281.294C178.232 284.682 178.232 288.034 178.196 291.276Z" fill="white"/>
<path d="M164.822 291.276C164.786 288.034 164.768 284.701 164.768 281.275C164.768 278.162 164.786 275.011 164.804 271.971L165.403 179.893C165.421 177.896 165.439 175.9 165.439 173.94C165.457 171.284 165.457 168.646 165.439 166.064C165.421 163.481 165.403 160.935 165.385 158.48C165.348 156.026 165.312 153.645 165.276 151.374C165.24 149.102 165.167 146.959 165.113 144.944L162.699 70.4871C162.626 68.3075 162.554 66.2011 162.499 63.9847C162.445 61.7684 162.391 59.4605 162.354 57.061C162.318 54.6615 162.282 52.2071 162.264 49.6794C162.245 47.17 162.245 44.5874 162.245 42.0047C162.245 39.4221 162.245 36.8028 162.264 34.2201C162.282 31.6375 162.318 29.0365 162.354 26.5088C162.391 23.9811 162.445 21.49 162.499 19.1089C162.554 16.7277 162.626 14.4198 162.699 12.2768C162.772 10.1337 162.862 8.11887 162.953 6.32383C163.044 4.51048 163.153 2.91694 163.262 1.57982L164.169 1.65309C164.06 2.97189 163.951 4.56544 163.86 6.36047C163.77 8.15551 163.679 10.152 163.606 12.3134C163.534 14.4748 163.461 16.746 163.407 19.1272C163.352 21.5084 163.298 23.9994 163.262 26.5271C163.225 29.0548 163.189 31.6375 163.171 34.2385C163.153 36.8394 163.153 39.4404 163.153 42.023C163.153 44.6057 163.153 47.17 163.171 49.6794C163.189 52.1888 163.225 54.6615 163.262 57.0427C163.298 59.4239 163.352 61.7501 163.407 63.9481C163.461 66.1644 163.534 68.2708 163.606 70.4505L166.02 144.908C166.092 146.923 166.147 149.084 166.183 151.355C166.219 153.627 166.274 156.008 166.292 158.462C166.328 160.917 166.346 163.463 166.346 166.045C166.365 168.628 166.365 171.284 166.346 173.94C166.346 175.9 166.328 177.896 166.31 179.893L165.711 271.971C165.693 274.993 165.675 278.162 165.675 281.257C165.675 284.664 165.693 288.016 165.73 291.24L164.822 291.276Z" fill="white"/>
<path d="M153.045 296.698C152.955 293.456 152.936 290.141 152.955 286.825C152.973 283.565 153.063 280.286 153.136 277.099L155.422 186.523C155.477 184.6 155.513 182.695 155.549 180.827C155.586 178.262 155.604 175.643 155.586 173.061C155.568 170.551 155.531 168.042 155.441 165.587C155.368 163.224 155.259 160.862 155.132 158.59C155.005 156.319 154.842 154.194 154.678 152.271L147.946 78.9861C147.747 76.7881 147.565 74.7366 147.42 72.5752C147.275 70.3956 147.148 68.0877 147.057 65.7431C146.966 63.4719 146.894 61.0357 146.857 58.4714C146.821 56.017 146.803 53.4709 146.821 50.9066C146.839 48.3789 146.876 45.7963 146.948 43.2136C147.021 40.6126 147.13 38.0483 147.257 35.6122C147.384 33.0662 147.547 30.6118 147.728 28.3222C147.91 25.9044 148.128 23.6514 148.364 21.5999C148.618 19.4386 148.89 17.4604 149.18 15.7386C149.489 13.9069 149.833 12.3317 150.178 11.0862L151.049 11.3243C150.704 12.5515 150.378 14.0718 150.069 15.8851C149.779 17.5886 149.507 19.5485 149.271 21.6915C149.035 23.7247 148.817 25.9776 148.636 28.3771C148.454 30.6667 148.291 33.1028 148.164 35.6488C148.037 38.085 147.946 40.631 147.855 43.2319C147.783 45.7963 147.747 48.3789 147.728 50.8883C147.71 53.4526 147.728 55.9986 147.765 58.4348C147.801 60.9808 147.874 63.4352 147.964 65.6882C148.055 68.0327 148.182 70.304 148.327 72.4837C148.472 74.6451 148.654 76.6965 148.854 78.8212L155.586 152.161C155.767 154.103 155.912 156.246 156.058 158.517C156.185 160.807 156.293 163.151 156.366 165.532C156.439 167.987 156.493 170.515 156.511 173.042C156.529 175.643 156.511 178.262 156.475 180.827C156.439 182.713 156.384 184.618 156.348 186.542L154.061 277.118C153.989 280.286 153.898 283.565 153.88 286.807C153.862 290.122 153.898 293.438 153.971 296.661L153.045 296.698Z" fill="white"/>
<path d="M141.395 302.889C141.305 299.702 141.305 296.405 141.377 293.09C141.45 290.067 141.631 287.027 141.813 284.078L146.912 195.92C147.057 193.319 147.202 190.846 147.275 188.373C147.347 185.846 147.366 183.281 147.347 180.772C147.311 178.336 147.238 175.9 147.111 173.555C146.984 171.247 146.803 169.013 146.585 166.924C146.386 164.983 146.113 163.151 145.878 161.375L136.314 93.786C136.079 92.1191 135.843 90.4523 135.643 88.7855C135.407 86.7157 135.226 84.4994 135.081 82.1915C134.935 79.9202 134.845 77.5391 134.808 75.103C134.772 72.6668 134.772 70.1758 134.826 67.6847C134.881 65.157 134.99 62.611 135.135 60.1016C135.298 57.5189 135.498 54.9913 135.752 52.5918C136.006 50.0824 136.314 47.6646 136.659 45.3933C137.022 43.0305 137.421 40.7958 137.875 38.7627C138.347 36.6196 138.855 34.678 139.399 33.0295C139.98 31.2528 140.597 29.7509 141.25 28.5603L142.049 28.9999C141.432 30.1355 140.833 31.5825 140.27 33.3043C139.744 34.9162 139.236 36.8211 138.764 38.9458C138.329 40.9607 137.911 43.1587 137.567 45.5032C137.222 47.7745 136.913 50.174 136.659 52.665C136.405 55.0645 136.206 57.5739 136.06 60.1382C135.915 62.6293 135.806 65.157 135.752 67.6847C135.697 70.1758 135.697 72.6485 135.734 75.0846C135.77 77.5024 135.879 79.8836 136.006 82.1366C136.151 84.4261 136.333 86.6425 136.569 88.6756C136.768 90.3424 137.004 91.9909 137.24 93.6578L146.803 161.246C147.057 163.023 147.311 164.873 147.529 166.833C147.747 168.939 147.928 171.192 148.055 173.518C148.182 175.881 148.273 178.317 148.291 180.79C148.327 183.318 148.291 185.901 148.218 188.428C148.146 190.919 148.001 193.392 147.837 196.011L142.738 284.169C142.575 287.1 142.393 290.141 142.321 293.145C142.23 296.442 142.248 299.72 142.339 302.889H141.395Z" fill="white"/>
<path d="M129.727 309.08C129.618 305.801 129.655 302.45 129.818 299.098C129.963 296.222 130.235 293.364 130.508 290.58L138.311 207.038C138.492 205.096 138.673 203.191 138.819 201.287C139.018 198.704 139.127 196.085 139.145 193.502C139.163 190.974 139.109 188.465 138.982 186.065C138.855 183.684 138.637 181.395 138.365 179.233C138.075 177.072 137.712 175.13 137.331 173.17L124.338 106.846C123.902 104.666 123.594 102.633 123.358 100.453C123.104 98.2552 122.941 95.9107 122.85 93.4929C122.759 91.0934 122.741 88.6023 122.796 86.093C122.85 83.5653 122.995 81.0009 123.213 78.4549C123.431 75.8723 123.721 73.3079 124.084 70.8352C124.465 68.2891 124.919 65.8164 125.427 63.5085C125.971 61.0724 126.588 58.8194 127.259 56.768C127.967 54.6066 128.747 52.665 129.582 50.9982C130.471 49.2215 131.415 47.7378 132.413 46.6205L133.084 47.225C132.141 48.2873 131.234 49.6977 130.381 51.4012C129.582 53.013 128.82 54.918 128.112 57.0427C127.459 59.0575 126.842 61.2922 126.316 63.6917C125.808 65.9996 125.354 68.4357 124.973 70.9634C124.61 73.4178 124.32 75.9638 124.102 78.5282C123.884 81.0559 123.757 83.6019 123.703 86.1113C123.648 88.6023 123.667 91.0751 123.757 93.4563C123.848 95.8558 124.029 98.1636 124.265 100.362C124.501 102.523 124.81 104.52 125.227 106.681L138.22 173.006C138.601 174.984 138.982 176.944 139.272 179.142C139.563 181.321 139.762 183.648 139.907 186.047C140.053 188.465 140.107 190.993 140.071 193.539C140.053 196.158 139.944 198.795 139.744 201.378C139.599 203.283 139.417 205.206 139.236 207.148L131.433 290.69C131.179 293.456 130.907 296.313 130.762 299.171C130.598 302.486 130.562 305.82 130.671 309.08H129.727Z" fill="white"/>
<path d="M118.077 315.271C117.95 312.047 118.023 308.714 118.295 305.398C118.513 302.633 118.876 299.867 119.239 297.211L129.891 216.325C130.217 213.833 130.526 211.471 130.707 209.089C130.907 206.562 130.979 204.016 130.943 201.506C130.907 199.07 130.78 196.671 130.526 194.399C130.29 192.147 129.945 190.003 129.528 188.025C129.219 186.56 128.838 185.131 128.475 183.757L112.997 123.386C112.416 121.133 111.944 119.246 111.617 117.195C111.273 115.088 111.019 112.817 110.873 110.491C110.728 108.165 110.692 105.728 110.746 103.292C110.819 100.82 110.982 98.2919 111.255 95.8191C111.527 93.2731 111.926 90.7637 112.398 88.3276C112.888 85.8182 113.487 83.3821 114.194 81.1108C114.92 78.7297 115.737 76.495 116.644 74.4985C117.588 72.3738 118.64 70.4872 119.747 68.8936C120.945 67.1718 122.233 65.7981 123.558 64.7723L124.102 65.505C122.85 66.4575 121.634 67.7763 120.473 69.4248C119.402 70.9634 118.368 72.795 117.442 74.8648C116.553 76.8247 115.755 79.0044 115.047 81.3673C114.358 83.6202 113.777 86.0197 113.287 88.5108C112.815 90.9286 112.434 93.4196 112.162 95.929C111.89 98.3834 111.726 100.875 111.654 103.329C111.581 105.747 111.636 108.146 111.781 110.454C111.926 112.762 112.18 114.978 112.525 117.066C112.851 119.081 113.323 120.95 113.904 123.184L129.383 183.519C129.746 184.911 130.127 186.34 130.453 187.824C130.889 189.82 131.234 192 131.469 194.29C131.705 196.597 131.85 199.015 131.887 201.488C131.923 204.016 131.832 206.598 131.633 209.144C131.451 211.544 131.143 213.925 130.798 216.434L120.146 297.321C119.783 299.977 119.42 302.724 119.203 305.472C118.949 308.769 118.876 312.047 119.003 315.253L118.077 315.271Z" fill="white"/>
<path d="M106.409 321.462C106.282 318.275 106.391 314.978 106.754 311.681C107.045 309.007 107.516 306.369 107.97 303.805L121.689 224.567C122.16 221.82 122.469 219.31 122.614 216.929C122.759 214.475 122.777 212.002 122.65 209.602C122.523 207.258 122.269 205.005 121.87 202.88C121.525 201.03 121.054 199.217 120.346 197.019L101.437 138.625C100.929 137.05 100.385 135.438 99.9857 133.826C99.4958 131.811 99.1329 129.65 98.9151 127.397C98.6974 125.144 98.6066 122.8 98.6611 120.4C98.7155 118.001 98.897 115.528 99.2236 113.092C99.5502 110.601 100.022 108.128 100.603 105.728C101.22 103.256 101.964 100.856 102.817 98.6216C103.724 96.277 104.758 94.0974 105.883 92.1375C107.099 90.0677 108.424 88.236 109.821 86.7157C111.345 85.0672 112.978 83.7851 114.666 82.8692L115.102 83.6752C113.505 84.5361 111.962 85.7633 110.492 87.3385C109.131 88.8038 107.843 90.5806 106.682 92.5954C105.575 94.5003 104.559 96.6434 103.669 98.9329C102.817 101.131 102.091 103.494 101.492 105.93C100.911 108.293 100.439 110.747 100.131 113.202C99.8224 115.619 99.6228 118.037 99.5865 120.418C99.5321 122.781 99.6228 125.089 99.8406 127.305C100.058 129.522 100.421 131.647 100.893 133.606C101.274 135.182 101.782 136.72 102.308 138.332L121.217 196.744C121.943 198.979 122.414 200.829 122.759 202.715C123.158 204.877 123.431 207.166 123.558 209.547C123.685 211.983 123.685 214.475 123.521 216.984C123.376 219.402 123.068 221.948 122.578 224.732L108.859 303.97C108.406 306.516 107.934 309.135 107.662 311.791C107.317 315.051 107.19 318.293 107.317 321.426L106.409 321.462Z" fill="white"/>
<path d="M94.7596 327.672C94.56 324.558 94.6326 321.334 95.0136 318.092C95.3221 315.473 95.8302 312.872 96.3383 310.362L111.382 232.791C111.908 230.099 112.216 227.644 112.361 225.318C112.507 222.9 112.488 220.501 112.289 218.174C112.107 215.885 111.744 213.687 111.255 211.635C110.819 209.822 110.238 208.064 109.349 205.939L85.8135 149.157C85.1784 147.637 84.5251 146.08 84.017 144.523C83.4001 142.563 82.9282 140.457 82.6198 138.259C82.3113 136.079 82.1661 133.771 82.1843 131.427C82.2024 129.082 82.3839 126.683 82.7105 124.283C83.0553 121.847 83.5634 119.429 84.2166 117.085C84.888 114.667 85.7409 112.341 86.7027 110.161C87.737 107.871 88.8984 105.765 90.1868 103.878C91.5659 101.864 93.0901 100.105 94.7052 98.6582C96.4472 97.1013 98.3162 95.8741 100.258 95.0315L100.621 95.8741C98.7699 96.68 96.9916 97.8339 95.3221 99.3359C93.7615 100.728 92.2917 102.431 90.9489 104.391C89.6968 106.223 88.5354 108.293 87.5374 110.527C86.5756 112.67 85.7591 114.942 85.0876 117.323C84.4344 119.631 83.9445 122.012 83.5997 124.393C83.273 126.738 83.0916 129.101 83.0734 131.408C83.0553 133.698 83.2005 135.951 83.4908 138.094C83.7811 140.237 84.2529 142.307 84.8518 144.212C85.3417 145.732 85.9587 147.216 86.612 148.773L110.148 205.554C111.055 207.734 111.654 209.529 112.107 211.379C112.615 213.485 112.978 215.738 113.16 218.065C113.359 220.446 113.378 222.882 113.232 225.336C113.087 227.717 112.761 230.19 112.234 232.938L97.1912 310.509C96.7013 313 96.175 315.583 95.8847 318.165C95.5218 321.352 95.431 324.521 95.6306 327.58L94.7596 327.672Z" fill="white"/>
<path d="M83.0009 331.518C82.6561 328.404 82.6561 325.162 82.9827 321.902C83.2549 319.283 83.763 316.7 84.2711 314.209C84.3981 313.549 84.5433 312.89 84.6522 312.231L99.2054 236.436C99.7317 233.744 100.022 231.289 100.095 228.963C100.185 226.545 100.076 224.146 99.7861 221.82C99.4958 219.53 99.024 217.332 98.3707 215.28C97.8082 213.485 97.046 211.709 95.9391 209.584L66.3608 152.619C65.5623 151.117 64.7457 149.56 64.1106 148.003C63.3122 146.043 62.6771 143.937 62.2416 141.721C61.8061 139.523 61.552 137.233 61.4794 134.87C61.4068 132.507 61.5339 130.108 61.8242 127.708C62.1327 125.272 62.6226 122.836 63.2941 120.492C63.9836 118.074 64.8546 115.729 65.889 113.55C66.9778 111.26 68.2298 109.135 69.6271 107.249C71.1151 105.234 72.7664 103.475 74.5266 102.01C76.4319 100.435 78.4824 99.226 80.6055 98.3835L80.9322 99.2443C78.8817 100.05 76.9219 101.223 75.0891 102.725C73.3834 104.135 71.7865 105.838 70.3348 107.798C68.9738 109.648 67.7399 111.718 66.6874 113.953C65.6712 116.096 64.8183 118.385 64.1469 120.766C63.4937 123.074 63.0037 125.455 62.7134 127.837C62.423 130.199 62.296 132.562 62.3686 134.87C62.4412 137.178 62.6952 139.431 63.1126 141.574C63.5481 143.736 64.1651 145.787 64.9272 147.692C65.5442 149.212 66.3245 150.678 67.141 152.234L96.7194 209.199C97.8626 211.397 98.6247 213.192 99.2054 215.042C99.8768 217.149 100.367 219.402 100.657 221.746C100.966 224.127 101.075 226.582 100.984 229.055C100.893 231.436 100.603 233.927 100.076 236.674L85.5232 312.469C85.3962 313.128 85.2691 313.788 85.1421 314.447C84.6521 316.92 84.1441 319.484 83.8719 322.048C83.5452 325.235 83.5452 328.404 83.89 331.463L83.0009 331.518Z" fill="white"/>
<path d="M71.732 329.76C71.2421 326.701 71.1332 323.495 71.4236 320.29C71.6595 317.726 72.1676 315.18 72.6575 312.725C72.7845 312.066 72.9115 311.425 73.0386 310.765L87.3015 236.235C87.8096 233.597 88.0636 231.198 88.0999 228.908C88.1362 226.545 87.9366 224.182 87.5193 221.893C87.1201 219.658 86.5031 217.497 85.6865 215.482C84.9788 213.724 84.0715 212.002 82.7287 209.914L46.908 154.231C45.9463 152.766 44.9664 151.245 44.1861 149.743C43.188 147.82 42.4078 145.75 41.8089 143.589C41.2282 141.446 40.8472 139.175 40.6838 136.867C40.5205 134.559 40.575 132.196 40.829 129.833C41.0831 127.452 41.5549 125.071 42.2263 122.745C42.9158 120.363 43.8231 118.074 44.9119 115.931C46.0551 113.696 47.3798 111.626 48.8859 109.776C50.4828 107.817 52.2612 106.113 54.1665 104.703C56.217 103.201 58.4309 102.028 60.7536 101.241L61.0439 102.102C58.8119 102.853 56.6707 103.97 54.6927 105.435C52.8418 106.791 51.1361 108.439 49.5936 110.344C48.1419 112.139 46.8354 114.154 45.7285 116.334C44.676 118.422 43.7869 120.657 43.1155 122.983C42.4622 125.236 41.9904 127.58 41.7545 129.906C41.5004 132.214 41.4641 134.522 41.6275 136.775C41.7908 139.028 42.1537 141.226 42.7162 143.314C43.2788 145.421 44.0591 147.436 45.0208 149.285C45.783 150.751 46.7084 152.18 47.7065 153.7L83.5271 209.382C84.9062 211.526 85.8498 213.284 86.5757 215.116C87.4104 217.185 88.0274 219.402 88.4447 221.71C88.8621 224.054 89.0617 226.472 89.0435 228.89C89.0073 231.253 88.7532 233.707 88.2451 236.381L73.9822 310.912C73.8552 311.553 73.7281 312.212 73.6011 312.872C73.1112 315.308 72.6212 317.817 72.3853 320.345C72.1131 323.477 72.2038 326.591 72.6756 329.595L71.732 329.76Z" fill="white"/>
<path d="M62.4412 323.44C61.7698 320.473 61.552 317.396 61.7698 314.282C61.9331 311.791 62.423 309.355 62.8948 306.974C63.0219 306.333 63.1489 305.692 63.2578 305.069L76.686 233.048C77.1578 230.502 77.3574 228.194 77.3211 225.977C77.2667 223.688 76.9763 221.417 76.4319 219.237C75.8876 217.076 75.1254 215.006 74.1455 213.082C73.2926 211.397 72.1857 209.749 70.5889 207.752L28.9433 155.806C28.6166 155.403 28.29 155 27.9634 154.597C26.8383 153.205 25.6769 151.777 24.7333 150.348C23.5357 148.516 22.5558 146.538 21.8118 144.45C21.0678 142.398 20.5597 140.219 20.2693 138.002C19.9971 135.786 19.9427 133.515 20.1423 131.225C20.3238 128.936 20.7593 126.646 21.4126 124.43C22.084 122.159 22.9913 119.96 24.1164 117.909C25.2777 115.766 26.675 113.788 28.2537 112.048C29.9232 110.198 31.8104 108.586 33.8427 107.285C36.0203 105.893 38.3974 104.831 40.8653 104.153L41.1012 105.032C38.7059 105.692 36.4195 106.699 34.3145 108.055C32.3547 109.319 30.5401 110.857 28.9251 112.652C27.4008 114.356 26.0399 116.261 24.9148 118.33C23.826 120.327 22.955 122.452 22.2836 124.668C21.6485 126.829 21.2311 129.064 21.0496 131.28C20.8682 133.497 20.9045 135.713 21.1767 137.856C21.4488 140.017 21.957 142.124 22.6647 144.12C23.3905 146.135 24.3523 148.058 25.4955 149.817C26.4028 151.209 27.5097 152.564 28.6711 153.975C28.9977 154.378 29.3243 154.78 29.6691 155.202L71.3147 207.148C72.9479 209.199 74.0911 210.884 74.9802 212.625C75.9964 214.603 76.7767 216.746 77.3393 218.98C77.9018 221.233 78.2103 223.578 78.2647 225.922C78.3191 228.212 78.1014 230.575 77.6114 233.176L64.1832 305.197C64.0744 305.838 63.9473 306.479 63.8203 307.12C63.3666 309.465 62.8767 311.883 62.7134 314.3C62.4956 317.341 62.7134 320.327 63.3666 323.202L62.4412 323.44Z" fill="white"/>
</g>
</svg>
