<svg width="1180" height="1180" viewBox="0 0 1180 1180" fill="none" xmlns="http://www.w3.org/2000/svg">
<g opacity="0.12">
<path d="M709.928 21.8094C712.644 22.1048 715.387 22.454 718.075 22.8031C715.387 22.4271 712.671 22.1048 709.928 21.8094Z" fill="white"/>
<path d="M880.717 76.8431L865.794 68.8123C865.821 68.8123 865.848 68.8392 865.848 68.8392C865.418 68.6243 864.988 68.3826 864.585 68.1677C863.025 67.3619 861.439 66.6099 859.879 65.831C860.901 66.3413 861.977 66.8248 862.998 67.3351C860.605 66.0727 858.293 64.8641 855.873 63.6286L845.414 58.8745C846.355 59.3042 847.242 59.7877 848.183 60.1906C835.385 54.2816 822.291 48.9098 808.874 44.2095C751.523 30.7264 692.344 25.0593 590.495 23.3672C779.217 32.6604 844.043 59.5729 865.768 68.8123C870.769 71.3907 875.797 74.0497 880.717 76.8431Z" fill="white"/>
<path d="M730.47 17.1895C723.103 15.39 715.682 13.6711 709.337 12.2476L705.385 11.4418C683.633 8.03077 640.452 14.7992 590.468 23.3403C594.77 22.7494 599.072 22.239 603.374 21.7824C686.241 12.355 710.17 13.8859 730.47 17.1895Z" fill="white"/>
<path d="M669.355 5.42537C662.795 4.59275 654.702 3.65271 648.383 2.92752C648.276 2.92752 648.195 2.90064 648.088 2.90064C646.878 3.19608 646.716 3.24992 590.441 23.3403C655.831 6.01638 662.284 5.8283 670.996 5.64029C670.485 5.55971 669.893 5.50595 669.355 5.42537Z" fill="white"/>
<path d="M390.265 1145.39C391.69 1145.91 393.142 1146.42 394.647 1146.93C405.133 1150.44 418.093 1154.5 428.149 1157.59C438.474 1160.57 452.428 1163.82 462.888 1166.32C326.676 1133.07 210.496 1058.53 117.519 944.759L143.681 976.99C146.934 980.642 149.865 983.919 152.554 986.874C162.233 996.919 173.714 1008.6 185.356 1019.78C192.616 1026.36 201.569 1034.31 213.964 1045.29C220.391 1050.42 227.865 1056.14 235.555 1061.84C301.59 1110.48 346.734 1128.39 390.265 1145.39Z" fill="white"/>
<path d="M620.071 1.63835C619.211 1.3429 618.054 0.940006 617.194 0.617701C617.14 0.617701 617.06 0.617674 617.006 0.590815C610.902 0.295368 607.138 0.214753 606.735 0.214753C603.293 0.161035 598.911 0.0268588 595.254 0C602.164 0.268588 602.379 0.483492 605.498 4.56603C603.508 11.6836 603.508 11.6836 590.441 23.3403C618.189 7.92336 619.076 5.02256 620.071 1.63835Z" fill="white"/>
<path d="M39.7344 806.033C148.01 1061.38 419.115 1159.12 514.834 1175.26C515.291 1175.32 515.748 1175.37 516.205 1175.42C521.287 1176.04 527.605 1176.71 532.472 1177.22L542.528 1178.11C542.716 1178.14 542.877 1178.14 543.039 1178.16C486.521 1172.92 97.9724 1058.43 10.5347 706.065C11.4758 711.275 12.4437 716.379 13.3848 721.133C19.8915 745.708 29.8398 777.832 38.2556 802.327C38.7933 803.616 39.2504 804.771 39.7344 806.033Z" fill="white"/>
<path d="M573.932 4.56603C587.376 9.61549 588.021 12.543 590.468 23.3403C600.282 1.36976 579.928 0.966839 561.967 0.590815C555.676 0.913121 547.287 1.50402 541.022 1.93376L535.053 2.44408C544.222 1.88005 563.366 0.590927 573.932 4.56603Z" fill="white"/>
<path d="M577.159 1179.85C579.417 1179.91 581.649 1179.96 583.907 1179.99H584.849C585.198 1179.99 585.601 1179.99 585.951 1179.99C588.505 1180.02 591.006 1179.99 593.533 1179.96C595.711 1179.94 597.862 1179.91 599.771 1179.91C599.879 1179.91 599.986 1179.91 600.121 1179.91C555.326 1179.13 -86.2866 936.218 17.391 442.741C17.391 442.794 17.3641 442.821 17.3641 442.875C13.815 456.788 10.3465 475.536 7.36202 489.529C4.48507 507.471 2.11898 531.617 0.156208 549.693C-10.4105 992.38 518.437 1174.13 577.159 1179.85Z" fill="white"/>
<path d="M480.391 10.3137C479.181 10.5554 477.944 10.7972 476.708 11.0389C548.9 -1.31616 579.041 16.4913 590.468 23.3403C570.007 0.859448 534.435 1.2891 480.391 10.3137Z" fill="white"/>
<path d="M75.0106 300.094C-185.635 802.031 544.437 1156.43 631.767 1178.46C632.358 1178.4 632.977 1178.38 633.595 1178.32L637.413 1178.03C638.005 1177.97 638.65 1177.92 639.269 1177.87C643.732 1177.49 649.056 1176.93 653.546 1176.47C654.11 1176.42 654.702 1176.34 655.266 1176.28C551.858 1097.75 426.025 1054.96 326.327 970.517C277.526 929.181 163.282 832.409 96.4936 702.949C-37.1365 443.976 81.8131 278.795 140.159 207.753C138.115 210.117 136.099 212.453 134.136 214.79L124.268 226.527C108.835 247.746 89.3953 276.807 75.4946 299.207C75.3332 299.53 75.1988 299.798 75.0106 300.094Z" fill="white"/>
<path d="M453.719 15.9273C454.068 15.8467 454.418 15.7392 454.794 15.6586C453.88 15.8466 452.858 16.0884 451.998 16.2765C445.518 17.7268 436.941 20.0367 430.542 21.8363C417.313 25.5159 399.81 30.8877 386.985 35.7491C379.133 38.7304 368.647 42.6518 360.904 45.9554C351.628 49.9037 339.448 55.5708 330.333 59.8414C321.003 64.2194 308.796 70.6118 299.896 75.8224C289.437 81.9462 276.531 89.8964 265.023 97.2826C147.015 178.369 53.8502 308.474 66.7293 455.23C97.1658 801.306 489.506 1038.68 637.225 1128.04C688.365 1158.98 688.365 1158.99 691.349 1171.07C691.672 1171.02 691.995 1170.96 692.317 1170.88C700.41 1169.38 710.628 1167.23 718.667 1165.57C718.963 1165.51 719.232 1165.43 719.527 1165.38C722.431 1164.38 724.501 1160.27 726.464 1157.94C719.769 1145.05 706.594 1135.73 635.558 1089.26C452.805 969.684 268.922 832.14 161.615 637.253C-80.6134 197.305 389.216 -30.2968 590.468 23.3135C551.427 8.29937 503.944 6.60726 453.719 15.9273Z" fill="white"/>
<path d="M658.009 1040.05C769.215 1118.54 795.699 1137.26 760.531 1154.58C760.907 1154.47 761.31 1154.37 761.66 1154.26C767.037 1152.57 773.221 1150.55 779.244 1148.51C783.358 1147.11 787.418 1145.66 791.505 1144.19C841.3 1121.06 797.904 1089.13 694.253 1012.93C579.552 928.59 436.834 823.626 315.706 670.074C-41.8418 216.804 339.77 -7.4936 590.441 23.3403C305.596 -38.3007 -307.301 358.7 658.009 1040.05Z" fill="white"/>
<path d="M723.399 951.823C853.05 1051.15 901.662 1088.4 837.294 1125.41C837.805 1125.17 838.289 1124.95 838.8 1124.71C849.581 1119.56 863.025 1112.52 873.35 1107.23C923.575 1077.9 903.491 1043.9 874.345 1011.5C752.384 876.028 590.36 786.238 465.442 654.12C63.3415 228.864 333.102 17.4313 590.468 23.3403C328.182 -0.564069 -140.169 290.317 723.399 951.823Z" fill="white"/>
<path d="M823.608 869.689C947.182 968.583 991.17 1021.74 925.269 1075.16C936.562 1067.24 950.839 1056.06 962.078 1047.47C967.751 1042.79 973.64 1037.77 979.313 1032.8C1030.59 985.907 1001.82 960.579 656.933 657.155C156.99 217.315 382.306 61.9901 545.217 29.5178C397.417 57.0213 -14.578 198.809 823.608 869.689Z" fill="white"/>
<path d="M583.881 23.8774C571.701 24.9786 558.687 26.8319 545.217 29.5178C562.559 26.2948 576.271 24.6294 583.881 23.8774Z" fill="white"/>
<path d="M590.468 23.3403C590.065 23.3403 587.725 23.5013 583.881 23.8774C586.085 23.6894 588.29 23.5014 590.468 23.3403Z" fill="white"/>
<path d="M800.593 676.037C1005.53 840.789 1082.48 916.155 1015.77 998.02C1016.23 997.537 1016.63 997.134 1017.09 996.65C1027.58 985.397 1040.19 970.517 1050.03 959.102C1050.24 958.86 1050.43 958.591 1050.65 958.323C1108.96 881.909 1053.25 801.521 812.611 614.772C184.899 127.579 517.442 36.6085 590.468 23.3403C537.231 30.0819 90.9279 105.502 800.593 676.037Z" fill="white"/>
<path d="M842.994 544.24C1074.9 717.265 1138.73 805.765 1095.33 894.238C1097.08 891.337 1098.8 888.436 1100.49 885.562L1102.13 882.769C1103.32 880.728 1104.39 878.821 1105.47 876.914L1118.72 851.425C1120.34 848.148 1121.9 844.898 1123.43 841.755C1175.24 723.147 979.044 580.5 848.829 485.849C424.654 177.59 474.234 64.1926 590.495 23.3403C491.173 49.2322 317.024 151.779 842.994 544.24Z" fill="white"/>
<path d="M854.314 409.892C1056.78 552.352 1178.09 647.674 1152.84 766.605C1154.08 762.549 1155.26 758.547 1156.45 754.572C1160.48 739.746 1164.51 723.066 1167.82 709.771C1185.16 591.27 1062.74 500.944 861.519 363.427C728.588 272.563 481.171 103.46 590.468 23.3403C419.007 103.568 746.63 334.124 854.314 409.892Z" fill="white"/>
<path d="M869.128 305.089C1097.29 452.947 1174.84 520.04 1178.9 621.835C1179.03 619.821 1179.17 617.807 1179.27 615.819L1180 590.948L1179.44 566.829C1179.33 564.062 1179.19 561.349 1179.06 558.61C1170.29 451.765 1027.71 363.695 847.457 252.392C720.683 174.126 576.971 85.4111 590.441 23.3403C531.101 86.0557 734.53 217.879 869.128 305.089Z" fill="white"/>
<path d="M854.394 210.708C1064.55 329.907 1143.65 387.761 1168.81 475.106C1165.64 459.984 1160.53 440.861 1156.23 424.665C1155.26 421.307 1154.3 418.004 1153.27 414.647C1119.1 325.878 1004.61 262.169 805.863 157.688C665.322 83.7994 619.022 54.9263 590.441 23.3403C606.842 70.2896 710.681 129.191 854.394 210.708Z" fill="white"/>
<path d="M1123.27 337.696C1122.43 335.923 1121.57 334.151 1120.69 332.351L1108.72 308.742L1100.68 294.641C1099.18 292.09 1097.7 289.511 1096.14 286.933C1069.04 244.899 1020.05 213.608 949.952 176.919C834.148 116.352 709.821 75.6076 590.468 23.3135C627.707 46.9761 696.135 78.374 782.739 118.125C1012.52 223.6 1083.42 269.206 1123.27 337.696Z" fill="white"/>
<path d="M1051.61 222.874C1050.51 221.532 1049.52 220.269 1048.36 218.873C1047.63 218.013 1046.96 217.18 1046.21 216.294C1045.32 215.247 1044.41 214.145 1043.49 213.098C1034.81 202.999 1024.99 192.121 1017.17 183.311C965.789 130.749 822.237 76.9237 590.441 23.3672C942.047 128.573 1010.07 177.967 1051.61 222.874Z" fill="white"/>
<path d="M955.195 127.123C946.591 120.542 937.207 113.64 929.168 107.65C927.501 106.522 925.861 105.367 924.14 104.239C868.376 69.0809 756.202 41.846 590.468 23.3403C693.527 38.623 877.948 73.1365 962.508 133.059C960.008 131.017 957.588 129.057 955.195 127.123Z" fill="white"/>
<path d="M721.275 23.2329C735.041 25.113 748.619 27.5303 761.902 30.619C785.536 34.5136 788.466 35.4537 806.427 41.2821C805.916 41.0672 805.352 40.8255 804.841 40.6375C795.807 37.119 783.6 32.9021 774.431 29.6522C774.351 29.6253 774.27 29.5985 774.189 29.5717C752.572 22.6152 727.163 21.6482 697.749 20.5201C699.093 20.6275 700.437 20.8156 701.782 20.923C686.725 19.4995 671.453 18.7475 655.966 18.8012C632.116 19.9562 628.971 20.2247 590.468 23.3135C651.664 20.8156 679.358 21.2453 721.275 23.2329ZM709.928 21.8094C712.644 22.1048 715.387 22.454 718.075 22.8031C715.387 22.4271 712.671 22.1048 709.928 21.8094Z" fill="white"/>
</g>
</svg>
