<svg width="401" height="369" viewBox="0 0 401 369" fill="none" xmlns="http://www.w3.org/2000/svg">
<path d="M200.996 82.7591L200.767 82.5023L284.71 0.231171L284.939 0.488029L200.996 82.7591Z" fill="white"/>
<path d="M247.49 0.191472L200.69 82.636L200.999 82.8148L247.799 0.370336L247.49 0.191472Z" fill="white"/>
<path d="M200.284 82.7335L153.163 0.436656L153.468 0.282541L200.589 82.5537L200.284 82.7335Z" fill="white"/>
<path d="M200.208 82.7591L117.943 0.488029L118.197 0.231171L200.436 82.5023L200.208 82.7591Z" fill="white"/>
<path d="M200.996 82.8105H200.208L200.157 82.7849L103.549 0.179799H152.68V0.539399H104.516L200.335 82.4509H200.869L296.688 0.539399H247.685V0.179799H297.654L297.298 0.488029L200.996 82.8105Z" fill="white"/>
<path d="M375.011 85.1479L284.71 0.488029L284.939 0.231171L375.24 84.8911L375.011 85.1479Z" fill="white"/>
<path d="M304.444 85.1222L250.787 0.719197L204.251 85.0965L203.946 84.9167L250.787 0L250.94 0.256857L304.749 84.9167L304.444 85.1222Z" fill="white"/>
<path d="M204.098 85.1993H0L0.406806 84.8654L103.931 0.231171L104.16 0.488029L1.01709 84.8397H204.098V85.1993Z" fill="white"/>
<path d="M197.029 85.1222L196.927 84.9681L153.315 0.719197L102.787 85.0965L102.481 84.9167L153.341 0L153.468 0.282541L197.156 84.6342L200.945 82.4252L201.021 82.5023L204.2 84.7369L203.996 85.0195L200.919 82.8619L197.029 85.1222Z" fill="white"/>
<path d="M118.013 0.255544L29.5003 84.8947L29.7451 85.1558L118.258 0.516688L118.013 0.255544Z" fill="white"/>
<path d="M26.1925 85.1479L25.9381 84.8911L116.264 0.231171L116.493 0.488029L26.1925 85.1479Z" fill="white"/>
<path d="M96.7343 85.1222L96.4546 84.9167L150.416 0L197.258 84.9167L196.952 85.0965L150.391 0.719197L96.7343 85.1222Z" fill="white"/>
<path d="M298.417 85.0965L247.888 0.719197L204.251 85.0965L203.92 84.9424L247.863 0L248.041 0.256857L298.722 84.9167L298.417 85.0965Z" fill="white"/>
<path d="M283.31 0.293817L283.065 0.554913L371.553 85.2186L371.798 84.9575L283.31 0.293817Z" fill="white"/>
<path d="M347.776 199.86H53.453L53.3768 199.757L37.4578 165.364C33.9231 157.71 30.3884 150.081 26.8537 142.427L0.203325 84.8397H401L400.873 85.0965L347.776 199.86ZM53.6565 199.5H347.547L400.44 85.1993H0.762858L27.1843 142.273C30.719 149.927 34.2537 157.556 37.7884 165.21L53.6565 199.5Z" fill="white"/>
<path d="M347.648 199.86H202.979V199.68L203.895 84.8397H400.695V85.0452L400.822 85.0965L347.776 199.757L347.648 199.68V199.86ZM203.335 199.5H347.496L400.39 85.1993H204.251L203.335 199.5Z" fill="white"/>
<path d="M329.009 199.732L328.678 199.603L374.96 84.9424L375.291 85.0709L329.009 199.732Z" fill="white"/>
<path d="M277.208 199.706L276.852 199.629L304.418 84.9681L304.774 85.0452L277.208 199.706Z" fill="white"/>
<path d="M128.42 199.706L102.456 85.0452L102.812 84.9681L128.776 199.629L128.42 199.706Z" fill="white"/>
<path d="M29.6668 84.8711L29.3361 85.0045L74.6873 199.66L75.0179 199.526L29.6668 84.8711Z" fill="white"/>
<path d="M347.776 199.86H347.343L347.47 199.603L400.568 84.8397H400.975L400.873 85.0965L347.776 199.86Z" fill="white"/>
<path d="M72.1693 199.732L25.9128 85.0709L26.2433 84.9424L72.4998 199.603L72.1693 199.732Z" fill="white"/>
<path d="M123.995 199.706L96.4292 85.0452L96.7598 84.9681L124.351 199.629L123.995 199.706Z" fill="white"/>
<path d="M272.758 199.706L272.428 199.629L298.391 84.9681L298.747 85.0452L272.758 199.706Z" fill="white"/>
<path d="M326.44 199.732L326.084 199.603L371.451 84.9424L371.781 85.0709L326.44 199.732Z" fill="white"/>
<path d="M201.021 368.666H200.08V368.486C200.08 366.303 197.792 364.454 195.579 362.656C194.511 361.808 193.52 360.986 192.782 360.164L126.767 284.186C102.303 256.06 77.8656 227.909 53.4022 199.783L53.1479 199.475H348.055L347.801 199.783L201.021 368.666ZM200.436 368.306H200.869L347.267 199.86H53.9362C78.2978 227.909 102.659 255.932 127.021 283.955L193.036 359.933C193.723 360.729 194.74 361.551 195.783 362.399C198.021 364.171 200.309 366.02 200.436 368.306Z" fill="white"/>
<path d="M201.021 368.666H200.411V368.486L202.979 199.5H347.648V199.706L347.75 199.809L201.021 368.666ZM200.792 368.306H200.869L347.242 199.86H203.361L200.792 368.306Z" fill="white"/>
<path d="M328.746 199.655L200.795 368.459L201.077 368.678L329.029 199.873L328.746 199.655Z" fill="white"/>
<path d="M276.596 199.369L201.02 368.501L201.345 368.649L276.92 199.517L276.596 199.369Z" fill="white"/>
<path d="M200.258 368.563L128.445 199.732L128.776 199.603L200.589 368.409L200.258 368.563Z" fill="white"/>
<path d="M200.157 368.589L74.7885 199.783L75.0682 199.552L200.462 368.384L200.157 368.589Z" fill="white"/>
<path d="M72.452 199.532L72.1693 199.751L200.121 368.555L200.404 368.337L72.452 199.532Z" fill="white"/>
<path d="M200.258 368.563L124.02 199.757L124.325 199.603L200.589 368.409L200.258 368.563Z" fill="white"/>
<path d="M200.919 368.563L200.614 368.409L272.428 199.603L272.758 199.732L200.919 368.563Z" fill="white"/>
<path d="M201.047 368.589L200.742 368.384L326.11 199.552L326.415 199.783L201.047 368.589Z" fill="white"/>
<path d="M201.047 368.589L200.767 368.384L329.034 199.834L329.314 200.066L201.047 368.589Z" fill="white"/>
<path d="M276.639 199.59L201.136 368.558L201.461 368.706L276.963 199.738L276.639 199.59Z" fill="white"/>
<path d="M200.258 368.563L128.267 200.014L128.598 199.886L200.589 368.409L200.258 368.563Z" fill="white"/>
<path d="M200.157 368.589L74.4834 200.066L74.763 199.834L200.462 368.384L200.157 368.589Z" fill="white"/>
<path d="M200.157 368.589L71.8895 200.066L72.1693 199.834L200.436 368.384L200.157 368.589Z" fill="white"/>
<path d="M200.258 368.563L123.817 200.04L124.147 199.886L200.589 368.409L200.258 368.563Z" fill="white"/>
<path d="M200.919 368.563L200.614 368.409L272.606 199.886L272.936 200.014L200.919 368.563Z" fill="white"/>
<path d="M200.716 369V368.486L196.927 84.8911H197.283L201.072 367.947L326.415 199.834L326.72 200.066L200.716 369Z" fill="white"/>
<path d="M329.339 200.014L329.009 199.886L375.443 84.814L375.774 84.9424L329.339 200.014Z" fill="white"/>
<path d="M277.386 199.988L277.031 199.911L304.723 84.8397L305.079 84.9167L277.386 199.988Z" fill="white"/>
<path d="M102.55 84.8788L102.203 84.959L128.278 200.035L128.625 199.955L102.55 84.8788Z" fill="white"/>
<path d="M29.2295 84.8216L28.8989 84.955L74.4104 200.016L74.7411 199.882L29.2295 84.8216Z" fill="white"/>
<path d="M71.864 200.014L25.4042 84.9424L25.7348 84.814L72.1946 199.886L71.864 200.014Z" fill="white"/>
<path d="M123.817 199.988L96.124 84.9167L96.4801 84.8397L124.147 199.911L123.817 199.988Z" fill="white"/>
<path d="M272.936 199.988L272.606 199.911L298.671 84.8397L299.027 84.9167L272.936 199.988Z" fill="white"/>
<path d="M326.745 200.014L326.389 199.886L371.908 84.814L372.239 84.9424L326.745 200.014Z" fill="white"/>
<path d="M400.568 85.1479L297.069 0.488029L297.272 0.231171L400.797 84.8654L400.568 85.1479Z" fill="white"/>
</svg>
