<svg width="438" height="446" viewBox="0 0 438 446" fill="none" xmlns="http://www.w3.org/2000/svg">
<path d="M219 445C339.398 445 437 345.607 437 223C437 100.393 339.398 1 219 1C98.6019 1 1 100.393 1 223C1 345.607 98.6019 445 219 445Z" stroke="white" stroke-width="0.5" stroke-miterlimit="10"/>
<path d="M432.012 218.208C432.185 229.357 431.782 240.214 430.503 250.894C427.332 277.351 419 302.731 406.362 325.334C398.059 340.162 388.295 353.767 377.676 366.433C366.931 379.245 354.918 390.698 341.195 400.625C325.175 412.215 307.28 421.419 288.069 427.542C275.009 431.718 261.449 434.515 247.6 435.894C238.778 436.765 229.831 437.039 220.72 436.833C208.371 436.569 196.204 435.366 184.326 433.322C177.455 432.139 170.689 430.681 164.058 428.921C132.229 420.431 102.869 405.154 79.1029 382.981C71.6165 375.988 64.6106 368.486 58.0179 360.545C50.1759 351.097 42.949 341.12 36.5677 330.645C30.2345 320.229 24.7567 309.294 20.1629 297.841C16.338 288.315 13.2243 278.436 10.9467 268.235C7.55422 253.105 5.98775 237.299 6.29527 221.093C6.51631 208.329 7.82331 195.829 9.9568 183.613C15.8671 149.733 27.9473 118.582 46.9468 91.7248C60.1226 73.1416 76.4697 56.9645 94.9022 43.8488C113.191 30.8406 133.555 20.7763 155.37 13.9788C175.84 7.60183 197.636 4.0123 220.048 3.6602C257.038 3.08315 291.856 12.4335 322.397 29.2268C353.285 46.2451 379.559 71.0193 398.492 101.055C419.817 134.896 431.359 175.163 432.012 218.208Z" stroke="white" stroke-width="0.5" stroke-miterlimit="10"/>
<path d="M427.015 213.425C427.351 224.399 427.39 234.971 426.448 245.456C424.084 271.404 416.174 296.804 403.508 319.143C395.138 333.863 385.489 347.204 375.542 359.997C365.547 372.849 354.438 384.36 341.118 394.454C325.569 406.23 307.866 415.482 288.732 421.253C275.749 425.185 262.342 427.591 248.773 428.549C240.114 429.146 231.378 429.087 222.44 428.696C210.428 428.168 198.52 426.857 186.844 424.882C180.098 423.737 173.457 422.387 166.951 420.764C135.813 412.871 106.579 398.894 83.6005 376.663C76.412 369.699 69.6848 362.256 63.2363 354.451C55.5673 345.16 48.3307 335.516 41.911 325.471C35.5298 315.485 30.0039 305.04 25.2468 294.056C21.2681 284.862 18.0391 275.297 15.7614 265.37C12.3402 250.611 11.0043 235.089 11.5905 219.205C12.0518 206.735 13.5414 194.519 15.6845 182.508C21.6333 149.196 32.1278 118.592 50.5795 91.94C63.3516 73.5623 79.6315 57.7472 97.8718 45.14C115.978 32.6306 136.082 23.1531 157.571 16.6881C177.733 10.6339 199.222 7.0444 221.114 6.34998C256.922 5.20565 290.693 13.9007 320.562 29.9311C350.709 46.1767 376.436 70.149 394.744 99.4223C415.386 132.432 425.718 171.662 427.015 213.425Z" stroke="white" stroke-width="0.5" stroke-miterlimit="10"/>
<path d="M422.027 208.642C422.537 219.44 423.007 229.729 422.402 240.018C420.845 265.467 413.359 290.868 400.663 312.952C392.226 327.564 382.702 340.631 373.418 353.551C364.173 366.423 353.977 378.013 341.051 388.273C325.963 400.244 308.462 409.545 289.405 414.944C276.508 418.632 263.255 420.646 249.945 421.194C241.45 421.507 232.935 421.135 224.17 420.539C212.494 419.746 200.846 418.338 189.381 416.431C182.769 415.326 176.244 414.103 169.853 412.587C139.388 405.359 110.298 392.625 88.1174 370.335C81.2268 363.401 74.7783 356.016 68.4835 348.348C60.9875 339.213 53.7413 329.902 47.2832 320.288C40.8635 310.732 35.2799 300.775 30.3691 290.261C26.2366 281.4 22.8923 272.148 20.605 262.494C17.1549 248.097 16.0305 232.869 16.9147 217.298C17.6066 205.111 19.2788 193.189 21.4411 181.393C27.4283 148.638 36.3275 118.602 54.2411 92.1355C66.6095 73.9632 82.8125 58.5098 100.87 46.4112C118.803 34.4006 138.648 25.5102 159.791 19.3875C179.655 13.6463 200.817 10.0763 222.2 9.02979C256.817 7.32797 289.54 15.3579 318.745 30.6352C348.143 46.1081 373.322 69.2881 391.015 97.7887C410.956 129.967 420.105 168.17 422.027 208.642Z" stroke="white" stroke-width="0.5" stroke-miterlimit="10"/>
<path d="M417.03 203.859C417.722 214.481 418.606 224.477 418.337 234.58C417.597 259.531 410.524 284.941 397.8 306.761C389.295 321.266 379.896 334.049 371.275 347.106C362.77 359.997 353.487 371.655 340.964 382.081C326.337 394.249 309.049 403.589 290.068 408.636C277.258 412.088 264.149 413.741 251.108 413.829C242.776 413.888 234.473 413.174 225.881 412.382C214.541 411.335 203.153 409.809 191.889 407.981C185.402 406.924 179.002 405.809 172.736 404.42C142.963 397.809 113.988 386.365 92.6054 364.017C86.0031 357.121 79.8429 349.786 73.6923 342.245C66.3693 333.267 59.1135 324.288 52.6169 315.094C46.1492 305.959 40.5079 296.501 35.4433 286.457C31.1475 277.928 27.6974 268.988 25.4102 259.609C21.9312 245.583 21.0279 230.639 22.2003 215.381C23.1133 203.488 24.9873 191.849 27.1592 180.259C33.1945 148.071 40.4983 118.592 57.8545 92.3215C69.829 74.3545 85.9454 59.2727 103.821 47.6631C121.58 36.1513 141.157 27.8477 161.972 22.0576C181.539 16.6293 202.384 13.0789 223.238 11.6802C256.663 9.43071 288.338 16.7858 316.881 31.31C345.539 46.0102 370.16 68.398 387.238 96.126C406.535 127.502 414.493 164.688 417.03 203.859Z" stroke="white" stroke-width="0.5" stroke-miterlimit="10"/>
<path d="M412.042 199.067C412.907 209.513 414.224 219.225 414.291 229.133C414.358 253.574 407.708 279.004 394.955 300.56C386.383 314.957 377.099 327.447 369.151 340.661C361.386 353.561 353.025 365.308 340.897 375.9C326.741 388.253 309.644 397.652 290.741 402.337C278.017 405.545 265.053 406.807 252.29 406.474C244.112 406.259 236.039 405.232 227.62 404.225C216.617 402.914 205.478 401.281 194.436 399.52C188.084 398.503 181.808 397.506 175.658 396.234C146.567 390.248 117.727 380.096 97.1318 357.669C90.8275 350.803 84.946 343.536 78.9395 336.123C71.7895 327.301 64.5241 318.645 57.9891 309.891C51.4829 301.186 45.7648 292.227 40.556 282.642C36.0968 274.446 32.541 265.82 30.2441 256.714C26.746 243.05 26.0444 228.399 27.5148 213.464C28.6584 201.864 30.7247 190.509 32.9062 179.134C38.9799 147.504 44.6308 118.553 61.5064 92.5075C73.0292 74.7165 89.1168 60.026 106.809 48.9251C124.387 37.9121 143.713 30.1952 164.183 24.7377C183.452 19.6224 203.97 16.1015 224.315 14.3312C256.547 11.5339 287.204 18.1552 315.055 31.985C342.992 45.8539 367.047 67.4985 383.509 94.4636C402.105 125.038 408.9 161.197 412.042 199.067Z" stroke="white" stroke-width="0.5" stroke-miterlimit="10"/>
<path d="M407.045 194.284C408.092 204.554 409.851 213.982 410.226 223.694C411.158 247.637 404.873 273.067 392.101 294.369C383.461 308.658 374.293 320.845 367.008 334.215C359.983 347.116 352.535 358.96 340.801 369.719C327.106 382.267 310.202 391.667 291.385 396.038C278.738 398.973 265.927 399.882 253.443 399.119C245.428 398.63 237.577 397.28 229.321 396.077C218.654 394.522 207.775 392.772 196.935 391.08C190.707 390.102 184.557 389.211 178.531 388.077C150.133 382.707 121.417 373.866 101.61 351.361C95.6038 344.534 90.0106 337.316 84.1483 330.039C77.1712 321.373 69.8962 313.05 63.3228 304.727C56.7686 296.452 50.9832 287.973 45.6302 278.867C41.0077 270.993 37.3654 262.69 35.0397 253.858C31.5319 240.556 31.0226 226.198 32.7909 211.576C34.1555 200.26 36.4236 189.198 38.6147 178.029C44.7269 146.966 48.7728 118.573 65.1199 92.7224C76.239 75.1369 92.2498 60.8084 109.76 50.216C127.164 39.7018 146.221 32.562 166.364 27.4467C185.326 22.6542 205.526 19.1529 225.362 17.0207C256.403 13.6855 286.022 19.6221 313.2 32.6988C340.397 45.7852 363.895 66.6475 379.742 92.8399C397.675 122.573 403.326 157.724 407.045 194.284Z" stroke="white" stroke-width="0.5" stroke-miterlimit="10"/>
<path d="M402.057 189.501C403.287 199.605 405.469 208.74 406.18 218.257C407.929 241.691 402.057 267.14 389.256 288.178C380.549 302.36 371.496 314.234 364.884 327.77C358.59 340.67 352.074 352.603 340.734 363.537C327.51 376.281 310.798 385.72 292.057 389.73C279.497 392.419 266.83 392.948 254.616 391.754C246.764 390.992 239.124 389.329 231.042 387.911C220.711 386.101 210.091 384.233 199.462 382.619C193.369 381.68 187.334 380.908 181.433 379.901C153.727 375.137 125.127 367.606 106.127 345.033C100.409 338.235 95.104 331.076 89.3859 323.936C82.5818 315.427 75.2972 307.436 68.6757 299.543C62.0831 291.699 56.2208 283.708 50.7333 275.072C45.9378 267.531 42.209 259.54 39.8737 250.982C36.3467 238.043 36.0392 223.978 38.1054 209.679C39.7007 198.656 42.1609 187.878 44.3617 176.924C50.5123 146.428 52.9629 118.582 68.7622 92.9278C79.4681 75.5477 95.4212 61.5811 112.739 51.4875C129.961 41.4722 148.758 34.9191 168.565 30.1364C187.228 25.6569 207.093 22.1849 226.419 19.6908C256.259 15.8372 284.85 21.0601 311.355 33.3836C337.812 45.6876 360.752 65.7671 375.984 91.1966C393.254 120.108 397.761 154.242 402.057 189.501Z" stroke="white" stroke-width="0.5" stroke-miterlimit="10"/>
<path d="M397.06 184.719C398.472 194.646 401.077 203.497 402.124 212.818C404.69 235.744 399.232 261.213 386.402 281.987C377.637 296.061 368.68 307.622 362.751 321.334C357.177 334.215 351.593 346.265 340.657 357.366C327.894 370.296 311.393 379.783 292.73 383.441C280.256 385.886 267.734 386.033 255.798 384.409C248.11 383.372 240.69 381.397 232.781 379.773C222.796 377.719 212.427 375.734 201.999 374.179C196.031 373.289 190.121 372.624 184.345 371.734C157.331 367.587 128.846 361.376 110.644 338.714C105.214 331.956 100.198 324.845 94.6235 317.842C87.9924 309.499 80.6982 301.831 74.0383 294.369C67.4072 286.945 61.4584 279.454 55.8364 271.297C50.8678 264.079 47.0429 256.41 44.698 248.126C41.1422 235.558 41.0365 221.777 43.4102 207.791C45.2266 197.062 47.879 186.557 50.099 175.818C56.288 145.88 57.1338 118.592 72.4045 93.1331C82.7068 75.9584 98.583 62.3535 115.718 52.7685C132.767 43.252 151.305 37.286 170.766 32.8456C189.131 28.679 208.669 25.2559 227.486 22.3804C256.125 18.0085 283.677 22.5173 309.519 34.0975C335.237 45.6289 357.629 64.9162 372.246 89.5731C388.824 117.634 392.216 150.77 397.06 184.719Z" stroke="white" stroke-width="0.5" stroke-miterlimit="10"/>
<path d="M392.072 179.926C393.677 189.687 396.694 198.236 398.069 207.371C401.452 229.788 396.454 255.305 383.548 275.786C374.745 289.772 365.865 300.981 360.617 314.879C355.764 327.74 351.122 339.907 340.58 351.175C328.288 364.3 311.98 373.836 293.393 377.132C280.996 379.333 268.628 379.089 256.961 377.054C249.426 375.734 242.238 373.455 234.492 371.616C224.843 369.327 214.733 367.205 204.517 365.728C198.684 364.877 192.898 364.32 187.238 363.567C160.915 360.026 132.546 355.146 115.142 332.386C110.01 325.667 105.272 318.615 99.8515 311.739C93.3934 303.553 86.0896 296.218 79.3912 289.185C72.712 282.192 66.6864 275.199 60.9298 267.502C55.7787 260.616 51.8673 253.261 49.5224 245.241C45.9474 233.035 46.0435 219.557 48.7151 205.884C50.7525 195.448 53.6068 185.227 55.8268 174.703C62.0542 145.332 61.3046 118.602 76.0372 93.3385C85.9262 76.3692 101.735 63.1263 118.688 54.0499C135.554 45.0322 153.833 39.6529 172.967 35.5451C191.034 31.7013 210.235 28.3075 228.553 25.0603C255.98 20.1896 282.514 23.9649 307.674 34.8018C332.651 45.5506 354.486 64.0458 368.488 87.9398C384.393 115.169 386.69 147.298 392.072 179.926Z" stroke="white" stroke-width="0.5" stroke-miterlimit="10"/>
<path d="M387.075 175.144C388.881 184.738 392.303 192.993 394.013 201.933C398.203 223.851 393.629 249.369 380.693 269.605C371.823 283.483 363.03 294.359 358.474 308.443C354.323 321.276 350.642 333.56 340.493 345.003C328.663 358.315 312.556 367.9 294.047 370.834C281.736 372.79 269.512 372.164 258.114 369.699C250.743 368.105 243.775 365.523 236.202 363.469C226.9 360.946 217.04 358.696 207.026 357.288C201.317 356.476 195.657 356.036 190.121 355.4C164.5 352.466 136.227 348.916 119.639 326.068C114.796 319.398 110.356 312.385 105.07 305.636C98.7752 297.606 91.4713 290.594 84.7345 283.992C78.0169 277.429 71.8952 270.925 66.0233 263.697C60.6992 257.144 56.6917 250.102 54.3372 242.356C50.7333 230.512 51.0312 217.327 54.0104 203.967C56.2688 193.815 59.3249 183.887 61.5545 173.569C67.8204 144.755 65.4755 118.592 79.6603 93.5148C89.1457 76.7508 104.878 63.8697 121.648 55.2921C138.341 46.783 156.36 41.9807 175.148 38.2054C192.918 34.6746 211.783 31.3395 229.591 27.7011C255.817 22.3413 281.313 25.383 305.81 35.4668C330.037 45.4332 351.324 63.1459 364.711 86.2672C379.963 112.704 381.183 143.826 387.075 175.144Z" stroke="white" stroke-width="0.5" stroke-miterlimit="10"/>
<path d="M382.087 170.361C384.095 179.779 387.92 187.751 389.958 196.495C394.965 217.904 390.803 243.441 377.839 263.413C368.901 277.175 360.195 287.728 356.341 302.008C352.891 314.801 350.161 327.222 340.417 338.832C329.048 352.339 313.152 361.972 294.71 364.545C282.486 366.256 270.406 365.239 259.286 362.354C252.079 360.486 245.332 357.601 237.923 355.322C228.956 352.564 219.356 350.177 209.553 348.837C203.979 348.074 198.434 347.742 193.023 347.233C168.094 344.905 139.917 342.695 124.146 319.75C119.591 313.119 115.439 306.155 110.298 299.543C104.176 291.67 96.8627 284.989 90.0875 278.818C83.3218 272.676 77.1136 266.67 71.1167 259.912C65.6004 253.691 61.5161 246.963 59.1519 239.49C55.5192 228.018 56.0286 215.117 59.3057 202.079C61.7851 192.221 65.043 182.577 67.2822 172.473C73.5866 144.227 69.6464 118.621 83.293 93.7397C92.3747 77.1811 108.03 64.662 124.617 56.593C141.128 48.5826 158.888 44.3672 177.349 40.9244C194.811 37.7066 213.349 34.4301 230.657 30.4005C255.683 24.5712 280.141 26.8598 303.974 36.1807C327.462 45.3745 348.201 62.295 360.963 84.6436C375.542 110.239 375.696 140.354 382.087 170.361Z" stroke="white" stroke-width="0.5" stroke-miterlimit="10"/>
<path d="M377.089 165.568C379.3 174.821 383.519 182.499 385.902 191.047C391.716 211.948 387.978 237.505 374.985 257.213C365.98 270.866 357.34 281.077 354.207 295.552C351.449 308.306 349.69 320.865 340.34 332.631C329.442 346.333 313.738 356.006 295.383 358.227C283.245 359.694 271.309 358.285 260.459 354.979C253.415 352.828 246.889 349.649 239.653 347.155C231.032 344.172 221.672 341.639 212.081 340.377C206.632 339.653 201.221 339.428 195.926 339.047C171.689 337.326 143.607 336.465 128.654 313.402C124.377 306.82 120.523 299.895 115.536 293.42C109.587 285.703 102.264 279.356 95.4404 273.615C88.6363 267.903 82.3223 262.396 76.2102 256.098C70.5017 250.21 66.3404 243.794 63.9763 236.595C60.3148 225.484 61.0259 212.877 64.6106 200.153C67.3015 190.587 70.7708 181.227 73.0196 171.339C79.3624 143.65 73.8268 118.612 86.9353 93.9157C95.6134 77.5625 111.201 65.4054 127.596 57.845C143.934 50.3335 161.425 46.695 179.55 43.6044C196.714 40.6995 214.916 37.4914 231.724 33.0511C255.538 26.7621 278.968 28.278 302.139 36.8556C324.877 45.2669 345.068 61.3953 357.225 82.9811C371.112 107.775 370.228 136.882 377.089 165.568Z" stroke="white" stroke-width="0.5" stroke-miterlimit="10"/>
<path d="M372.102 160.786C374.523 169.872 379.136 177.246 381.856 185.609C388.478 206.001 385.162 231.578 372.14 251.022C363.068 264.568 354.486 274.436 352.083 289.107C349.998 301.822 349.22 314.517 340.272 326.449C329.836 340.338 314.334 350.07 296.055 351.928C284.004 353.15 272.212 351.351 261.641 347.624C254.75 345.199 248.456 341.727 241.382 338.998C233.098 335.8 223.997 333.12 214.618 331.927C209.303 331.242 204.008 331.125 198.838 330.88C175.302 329.755 147.307 330.254 133.17 307.084C129.182 300.541 125.617 293.675 120.773 287.327C114.997 279.767 107.665 273.751 100.803 268.441C93.9508 263.159 87.5311 258.161 81.3133 252.312C75.4125 246.767 71.1744 240.654 68.8007 233.729C65.1103 222.99 66.0137 210.676 69.9154 198.265C72.8274 188.993 76.4889 179.916 78.7569 170.234C85.1382 143.112 78.0169 118.631 90.568 94.1308C98.8424 77.983 114.353 66.1876 130.576 59.126C146.731 52.1133 163.971 49.0619 181.76 46.3037C198.626 43.7217 216.492 40.5918 232.8 35.7308C255.413 29.0018 277.805 29.7355 300.313 37.5599C322.311 45.1986 341.945 60.5346 353.487 81.3477C366.691 105.31 364.788 133.4 372.102 160.786Z" stroke="white" stroke-width="0.5" stroke-miterlimit="10"/>
<path d="M367.104 156.003C369.747 164.913 374.745 172.004 377.791 180.171C385.22 200.065 382.327 225.641 369.276 244.83C360.137 258.269 351.603 267.786 349.94 282.672C348.518 295.347 348.739 308.17 340.186 320.278C330.22 334.362 314.92 344.143 296.709 345.629C284.744 346.607 273.096 344.417 262.794 340.27C256.067 337.56 249.993 333.814 243.093 330.841C235.145 327.428 226.304 324.591 217.126 323.466C211.936 322.821 206.766 322.821 201.711 322.704C178.867 322.175 150.949 324.043 137.658 300.756C133.949 294.262 130.681 287.435 125.982 281.224C120.379 273.82 113.037 268.138 106.137 263.257C99.2461 258.396 92.7111 253.907 86.3971 248.518C80.2946 243.315 75.9892 237.505 73.6154 230.854C69.8962 220.477 71.0014 208.456 75.2107 196.358C78.3341 187.369 82.207 178.587 84.4847 169.119C90.9043 142.565 82.1878 118.641 94.2007 94.3265C102.072 78.3841 117.506 66.9507 133.545 60.3977C149.527 53.8838 166.499 51.4192 183.951 48.9936C200.519 46.7245 218.049 43.6826 233.848 38.4011C255.26 31.2417 276.614 31.1929 298.458 38.2545C319.706 45.1205 338.802 59.6641 349.719 79.7046C362.261 102.845 359.368 129.918 367.104 156.003Z" stroke="white" stroke-width="0.5" stroke-miterlimit="10"/>
<path d="M362.117 151.22C364.99 159.954 370.353 166.762 373.745 174.733C381.981 194.118 379.511 219.714 366.432 238.639C357.225 251.97 348.72 261.145 347.807 276.226C347.048 288.863 348.259 301.822 340.099 314.097C330.595 328.376 315.497 338.196 297.372 339.33C285.494 340.074 273.99 337.482 263.967 332.924C257.403 329.931 251.54 325.902 244.813 322.703C237.202 319.075 228.62 316.092 219.654 315.036C214.598 314.439 209.553 314.537 204.613 314.547C182.471 314.605 154.621 317.852 142.166 294.438C138.735 287.992 135.775 281.204 131.22 275.131C125.79 267.883 118.447 262.533 111.499 258.083C104.57 253.653 97.9199 249.682 91.5002 244.733C85.1958 239.872 80.8231 234.365 78.4398 227.988C74.6918 217.973 75.9892 206.246 80.506 194.47C83.8408 185.775 87.9251 177.276 90.2124 168.014C96.6705 142.017 86.3683 118.661 97.8238 94.532C105.291 78.8048 120.648 67.7233 136.505 61.6789C152.305 55.6639 169.026 53.786 186.142 51.693C202.403 49.7369 219.615 46.8026 234.905 41.0809C255.125 33.5107 275.432 32.6501 296.613 38.9488C317.112 45.0519 335.659 58.7839 345.962 78.0614C357.83 100.381 353.967 126.427 362.117 151.22Z" stroke="white" stroke-width="0.5" stroke-miterlimit="10"/>
<path d="M357.119 146.428C360.223 154.986 365.961 161.509 369.68 169.285C378.723 188.171 376.638 213.748 363.568 232.438C354.265 245.642 345.808 254.494 345.664 269.771C345.548 282.368 347.778 295.465 340.013 307.905C330.979 322.371 316.083 332.259 298.026 333.022C286.234 333.521 274.874 330.538 265.12 325.56C258.719 322.293 253.069 317.989 246.514 314.537C239.23 310.713 230.917 307.553 222.152 306.575C217.222 306.018 212.302 306.223 207.487 306.37C186.037 307.015 158.244 311.642 146.644 288.11C143.492 281.723 140.83 274.964 136.419 269.018C131.162 261.927 123.81 256.9 116.823 252.88C109.846 248.88 103.081 245.427 96.5648 240.918C90.049 236.419 85.6187 231.196 83.2257 225.093C79.4489 215.45 80.9385 204.006 85.7821 192.543C89.3283 184.142 93.6241 175.916 95.9209 166.879C102.417 141.45 90.5295 118.661 101.437 94.7178C108.51 79.196 123.791 68.4765 139.456 62.9309C155.082 57.4146 171.535 56.1236 188.314 54.3728C204.277 52.7297 221.162 49.9128 235.943 43.7412C254.971 35.7896 274.23 34.0976 294.748 39.6334C314.498 44.9638 332.498 57.9037 342.194 76.4183C353.4 97.9063 348.585 122.935 357.119 146.428Z" stroke="white" stroke-width="0.5" stroke-miterlimit="10"/>
<path d="M352.131 141.645C355.485 150.027 361.569 156.267 365.634 163.847C375.485 182.225 373.822 207.821 360.723 226.247C351.353 239.343 342.906 247.862 343.54 263.335C344.059 275.903 347.307 289.117 339.946 301.734C331.373 316.395 316.679 326.332 298.698 326.723C286.993 326.987 275.778 323.594 266.302 318.204C260.065 314.654 254.625 310.077 248.254 306.389C241.296 302.36 233.252 299.044 224.699 298.125C219.903 297.606 215.108 297.919 210.408 298.193C189.66 299.426 161.905 305.441 151.171 281.782C148.297 275.444 145.933 268.734 141.666 262.915C136.582 255.98 129.221 251.285 122.186 247.696C115.17 244.116 108.28 241.202 101.668 237.123C94.9503 232.986 90.4527 228.057 88.0597 222.218C84.254 212.936 85.9358 201.776 91.0869 190.646C94.8446 182.528 99.3422 174.596 101.658 165.764C108.193 140.892 94.7196 118.67 105.08 94.9133C111.749 79.6067 126.953 69.2393 142.435 64.2023C157.879 59.1849 174.072 58.4806 190.525 57.0624C206.189 55.7421 222.758 53.0523 237.01 46.4112C254.856 38.0879 273.058 35.5548 292.913 40.3277C311.912 44.8953 329.374 57.033 338.446 74.775C348.979 95.4414 343.232 119.424 352.131 141.645Z" stroke="white" stroke-width="0.5" stroke-miterlimit="10"/>
<path d="M347.134 136.862C350.748 145.049 357.177 151.025 361.578 158.409C372.227 176.288 370.996 201.884 357.878 220.056C348.441 233.045 339.984 241.241 341.416 256.89C342.56 269.439 346.846 282.769 339.878 295.552C331.767 310.409 317.275 320.395 299.371 320.425C287.742 320.444 276.681 316.659 267.474 310.85C261.401 307.016 256.163 302.174 249.974 298.233C243.343 294.007 235.568 290.516 227.217 289.675C222.546 289.195 217.876 289.616 213.301 290.027C193.244 291.836 165.538 299.25 155.678 275.463C153.073 269.174 151.017 262.504 146.904 256.821C141.993 250.044 134.622 245.681 127.548 242.522C120.485 239.373 113.479 236.986 106.781 233.348C99.8515 229.583 95.2963 224.927 92.8937 219.362C89.0496 210.452 90.9332 199.576 96.4014 188.758C100.361 180.924 105.08 173.285 107.405 164.669C113.979 140.364 98.9289 118.71 108.722 95.1384C114.997 80.0371 130.114 70.0315 145.414 65.5031C160.685 60.9845 176.619 60.8575 192.725 59.7816C208.092 58.7742 224.353 56.2408 238.076 49.101C254.76 40.4256 271.885 37.0318 291.077 41.0418C309.327 44.8465 326.241 56.1822 334.698 73.1516C344.549 92.9769 337.899 115.893 347.134 136.862Z" stroke="white" stroke-width="0.5" stroke-miterlimit="10"/>
<path d="M342.146 132.08C346.019 140.07 352.775 145.792 357.523 152.971C368.95 170.371 368.171 195.957 355.024 213.865C345.52 226.746 337.043 234.619 339.282 250.444C341.051 262.973 346.365 276.422 339.801 289.361C332.161 304.404 317.871 314.478 300.044 314.116C288.502 313.921 277.594 309.715 268.656 303.485C262.746 299.367 257.71 294.271 251.713 290.075C245.399 285.655 237.894 281.987 229.764 281.224C225.218 280.794 220.672 281.312 216.223 281.86C196.858 284.236 169.171 293.068 160.204 269.135C157.869 262.895 156.12 256.264 152.151 250.718C147.413 244.097 140.032 240.067 132.921 237.338C125.819 234.619 118.688 232.771 111.893 229.553C104.753 226.159 100.13 221.777 97.7373 216.486C93.8643 207.948 95.9305 197.345 101.726 186.851C105.896 179.3 110.826 171.955 113.162 163.544C119.774 139.796 103.148 118.709 112.383 95.324C118.265 80.4379 133.295 70.7943 148.412 66.7549C163.501 62.735 179.175 63.1948 194.955 62.4515C210.014 61.7571 225.996 59.3902 239.172 51.7516C254.712 42.7437 270.732 38.4793 289.271 41.7167C306.771 44.7682 323.137 55.2823 330.979 71.4888C340.119 90.512 332.584 112.352 342.146 132.08Z" stroke="white" stroke-width="0.5" stroke-miterlimit="10"/>
<path d="M337.149 127.287C341.301 135.072 348.383 140.54 353.467 147.523C365.701 164.424 365.346 190.02 352.17 207.664C342.598 220.437 334.093 227.998 337.139 243.999C339.523 256.518 345.885 270.074 339.715 283.18C332.536 298.418 318.447 308.541 300.697 307.817C289.242 307.377 278.497 302.751 269.81 296.129C264.072 291.718 259.219 286.378 253.414 281.918C247.418 277.312 240.191 273.468 232.262 272.764C227.851 272.373 223.421 272.989 219.096 273.673C200.423 276.617 172.755 286.857 164.683 262.797C162.607 256.616 161.184 250.014 157.35 244.605C152.785 238.14 145.395 234.443 138.245 232.145C131.095 229.856 123.858 228.555 116.958 225.748C109.606 222.746 104.926 218.618 102.523 213.601C98.6118 205.424 100.87 195.106 106.992 184.944C111.365 177.677 116.516 170.625 118.861 162.429C125.511 139.249 107.348 118.749 115.987 95.5295C121.504 80.8586 136.419 71.567 151.353 68.0362C166.268 64.5152 181.683 65.5617 197.117 65.1607C211.879 64.7891 227.592 62.5983 240.191 54.4412C254.597 45.1105 269.512 39.9659 287.387 42.4208C304.138 44.7193 319.966 54.4217 327.193 69.8555C335.698 88.0474 327.289 108.782 337.149 127.287Z" stroke="white" stroke-width="0.5" stroke-miterlimit="10"/>
<path d="M332.161 122.504C336.601 130.075 343.992 135.288 349.412 142.085C362.453 158.477 362.52 184.093 349.316 201.473C339.677 214.139 331.143 221.406 335.006 237.554C337.995 250.073 345.414 263.717 339.638 276.999C332.93 292.432 319.034 302.594 301.36 301.509C289.991 300.824 279.391 295.817 270.982 288.774C265.408 284.09 260.747 278.485 255.144 273.771C249.455 268.979 242.516 264.949 234.799 264.323C230.513 263.971 226.217 264.695 222.008 265.516C204.027 269.027 176.35 280.686 169.199 256.489C167.383 250.356 166.278 243.794 162.597 238.512C158.205 232.204 150.805 228.839 143.617 226.971C136.428 225.103 129.067 224.369 122.071 221.963C114.507 219.362 109.76 215.488 107.357 210.735C103.398 202.94 105.858 192.886 112.306 183.046C116.881 176.063 122.253 169.304 124.608 161.314C131.296 138.701 111.538 118.749 119.63 95.7251C124.742 81.2694 139.59 72.3299 154.332 69.3077C169.065 66.2855 184.22 67.9189 199.328 67.8504C213.791 67.7918 229.254 65.8161 241.267 57.1114C254.577 47.4775 268.339 41.4819 285.561 43.1153C301.562 44.6997 316.842 53.5511 323.454 68.2122C331.268 85.5825 322.003 105.193 332.161 122.504Z" stroke="white" stroke-width="0.5" stroke-miterlimit="10"/>
<path d="M112.172 207.85C114.575 212.329 119.389 215.958 127.154 218.159C134.256 220.173 141.724 220.34 148.951 221.777C156.187 223.215 163.587 226.257 167.816 232.409C171.352 237.554 172.14 244.077 173.697 250.161C179.915 274.485 207.593 261.409 224.891 257.35C228.975 256.391 233.156 255.569 237.308 255.882C244.823 256.44 251.464 260.646 256.855 265.624C262.246 270.612 266.734 276.461 272.145 281.429C280.285 288.892 290.731 294.291 302.023 295.22C319.62 296.668 333.315 286.447 339.552 270.827C344.924 257.379 336.467 243.637 332.863 231.118C328.173 214.823 336.755 207.84 346.452 195.292C359.685 178.166 359.205 152.55 345.347 136.657C339.59 130.055 331.892 125.067 327.154 117.732C316.718 101.584 326.828 83.1277 319.687 66.5789C313.69 52.6807 298.958 44.6313 283.706 43.8195C267.157 42.9392 254.549 49.8542 242.315 59.7913C230.926 69.0437 215.675 70.8042 201.509 70.5499C186.748 70.2858 171.852 68.0755 157.292 70.5891C142.733 73.1027 127.962 81.6802 123.253 95.9403C115.709 118.778 137.053 138.163 130.326 160.218C127.952 167.994 122.378 174.459 117.592 181.159C110.826 190.646 108.193 200.417 112.172 207.85Z" stroke="white" stroke-width="0.5" stroke-miterlimit="10"/>
</svg>
