<svg width="1920" height="1215" viewBox="0 0 1920 1215" fill="none" xmlns="http://www.w3.org/2000/svg">
<g opacity="0.07">
<path d="M1034.01 1215C913.351 1215 758.479 1166.65 573.689 1071.29C349.933 955.821 90.2396 894.777 -177.307 894.777H-467.829V887.645H-177.307C-43.8181 887.645 88.7889 902.935 216.814 933.072C344.47 963.123 465.638 1007.49 576.947 1064.94C760.713 1159.78 914.489 1207.87 1034.01 1207.87C1153.51 1207.87 1307.29 1159.78 1491.07 1064.94C1602.39 1007.49 1723.56 963.123 1851.2 933.072C1979.24 902.921 2111.83 887.645 2245.32 887.645H2535.84V894.777H2245.32C1977.77 894.777 1718.08 955.806 1494.32 1071.29C1309.53 1166.65 1154.66 1215 1034.01 1215Z" fill="white"/>
<path d="M1034.01 1100.37C917.263 1100.37 767.414 1054.33 588.585 963.551C371.97 853.572 120.557 795.438 -138.454 795.438H-419.658V789.02H-138.454C-9.27573 789.02 119.048 803.568 242.948 832.278C366.478 860.889 483.749 903.135 591.473 957.832C769.391 1048.16 918.273 1093.97 1033.99 1093.97C1149.71 1093.97 1298.61 1048.17 1476.51 957.832C1584.24 903.135 1701.49 860.903 1825.04 832.278C1948.94 803.582 2077.26 789.02 2206.44 789.02H2487.64V795.438H2206.44C1947.43 795.438 1696.02 853.572 1479.4 963.551C1300.6 1054.33 1150.74 1100.37 1034.01 1100.37Z" fill="white"/>
<path d="M1034.01 985.743C921.19 985.743 776.334 942.029 603.481 855.811C394.007 751.324 150.888 696.099 -99.5868 696.099H-371.472V690.394H-99.5868C151.755 690.394 395.757 745.833 606.013 850.705C778.07 936.523 922.072 980.038 1033.99 980.038C1145.93 980.038 1289.92 936.523 1461.97 850.705C1672.23 745.833 1916.23 690.394 2167.57 690.394H2439.46V696.099H2167.57C1917.1 696.099 1673.98 751.324 1464.51 855.811C1291.68 942.029 1146.82 985.743 1034.01 985.743Z" fill="white"/>
<path d="M1034.01 871.101C925.102 871.101 785.268 829.711 618.375 748.058C416.03 649.075 181.205 596.746 -60.7191 596.746H-323.286V591.754H-60.7191C181.959 591.754 417.552 644.255 620.567 743.565C786.762 824.876 925.87 866.095 1034.01 866.095C1142.14 866.095 1281.25 824.862 1447.45 743.565C1650.46 644.24 1886.04 591.754 2128.73 591.754H2391.29V596.746H2128.73C1886.8 596.746 1651.97 649.061 1449.64 748.058C1282.75 829.711 1142.91 871.101 1034.01 871.101Z" fill="white"/>
<path d="M1034.01 756.473C929.014 756.473 794.189 717.393 633.271 640.318C438.082 546.827 211.536 497.407 -21.8521 497.407H-275.087V493.128H-21.8521C212.176 493.128 439.348 542.691 635.106 636.453C795.441 713.243 929.654 752.194 1034.01 752.194C1138.36 752.194 1272.57 713.257 1432.91 636.453C1628.68 542.691 1855.85 493.128 2089.87 493.128H2343.1V497.407H2089.87C1856.48 497.407 1629.93 546.827 1434.74 640.318C1273.83 717.393 1139 756.473 1034.01 756.473Z" fill="white"/>
<path d="M1034.01 641.844C932.927 641.844 803.109 605.075 648.152 532.579C460.104 444.593 241.853 398.083 17.0148 398.083H-226.915V394.517H17.0009C242.365 394.517 461.128 441.141 649.646 529.355C804.133 601.638 933.439 638.293 1034.01 638.293C1134.56 638.293 1263.88 601.638 1418.35 529.355C1606.87 441.141 1825.63 394.517 2051 394.517H2294.92V398.083H2051C1826.15 398.083 1607.91 444.593 1419.85 532.579C1264.91 605.075 1135.09 641.844 1034.01 641.844Z" fill="white"/>
<path d="M1034.01 527.216C936.839 527.216 812.015 492.772 663.033 424.825C482.127 342.33 272.17 298.73 55.8679 298.73H-178.729V295.877H55.8679C272.568 295.877 482.924 339.563 664.199 422.229C812.825 489.991 937.238 524.363 1033.99 524.363C1130.75 524.363 1255.17 490.005 1403.79 422.229C1585.06 339.578 1795.42 295.877 2012.12 295.877H2246.71V298.73H2012.12C1795.82 298.73 1585.86 342.33 1404.95 424.825C1255.99 492.758 1131.17 527.216 1034.01 527.216Z" fill="white"/>
<path d="M1034.01 412.573C940.737 412.573 820.934 380.44 677.9 317.071C504.135 240.082 302.487 199.391 94.7355 199.391H-130.544V197.251H94.7355C302.786 197.251 504.733 238.014 678.768 315.117C821.518 378.372 941.05 410.434 1034.01 410.434C1126.96 410.434 1246.5 378.358 1389.25 315.117C1563.28 238.014 1765.23 197.251 1973.28 197.251H2198.56V199.391H1973.28C1765.53 199.391 1563.86 240.082 1390.1 317.071C1247.08 380.44 1127.26 412.573 1034.01 412.573Z" fill="white"/>
<path d="M1034.01 297.945C944.649 297.945 829.84 268.122 692.767 209.318C526.158 137.833 332.79 100.052 133.589 100.052H-82.3724V98.6257H133.589C332.975 98.6257 526.529 136.45 693.322 208.005C830.211 266.739 944.835 296.519 1033.99 296.519C1123.15 296.519 1237.78 266.739 1374.66 208.005C1541.46 136.45 1735.01 98.6257 1934.4 98.6257H2150.36V100.052H1934.4C1735.2 100.052 1541.84 137.833 1375.22 209.318C1238.17 268.122 1123.36 297.945 1034.01 297.945Z" fill="white"/>
<path d="M1034.01 183.317C948.547 183.317 838.747 155.819 707.634 101.564C548.167 35.5851 363.107 0.713129 172.456 0.713129H-34.1727V0H172.456C363.192 0 548.352 34.8862 707.904 100.908C838.932 155.12 948.647 182.604 1034.01 182.604C1119.37 182.604 1229.08 155.12 1360.11 100.908C1519.66 34.9005 1704.81 0 1895.56 0H2102.19V0.713129H1895.56C1704.91 0.713129 1519.85 35.5851 1360.38 101.564C1229.27 155.804 1119.47 183.317 1034.01 183.317Z" fill="white"/>
<path d="M1034.01 182.96L1037.56 1211.43H1030.45L1034.01 182.96Z" fill="white"/>
<path d="M979.291 179.594L959.958 1205.5L953.569 1205.37L979.291 179.594Z" fill="white"/>
<path d="M924.576 170.78L882.394 1189.87L876.717 1189.61L924.576 170.78Z" fill="white"/>
<path d="M869.86 158.001L805.357 1167.02L800.377 1166.68L869.86 158.001Z" fill="white"/>
<path d="M788.811 132.785L690.732 1122.48L686.479 1122.05L788.811 132.785Z" fill="white"/>
<path d="M707.762 101.236L577.076 1068.37L573.562 1067.88L707.762 101.236Z" fill="white"/>
<path d="M578.626 56.2231L396.668 990.022L393.879 989.466L578.626 56.2231Z" fill="white"/>
<path d="M446.76 25.202L211.564 935.553L209.487 935.011L446.76 25.202Z" fill="white"/>
<path d="M311.592 6.66062L20.7854 902.692L19.4336 902.25L311.592 6.66062Z" fill="white"/>
<path d="M172.456 0.356564L-176.98 891.339L-177.648 891.083L172.456 0.356564Z" fill="white"/>
<path d="M-468 891.14L-34.1727 0.356564L-467.673 891.297L-468 891.14Z" fill="white"/>
<path d="M1034.01 182.96L1037.56 1211.43H1030.45L1034.01 182.96Z" fill="white"/>
<path d="M1088.72 179.594L1114.44 1205.37L1108.04 1205.5L1088.72 179.594Z" fill="white"/>
<path d="M1143.44 170.78L1191.3 1189.61L1185.61 1189.87L1143.44 170.78Z" fill="white"/>
<path d="M1198.15 158.001L1267.62 1166.68L1262.66 1167.02L1198.15 158.001Z" fill="white"/>
<path d="M1279.2 132.785L1381.52 1122.05L1377.28 1122.48L1279.2 132.785Z" fill="white"/>
<path d="M1360.24 101.236L1494.45 1067.88L1490.92 1068.37L1360.24 101.236Z" fill="white"/>
<path d="M1489.37 56.2231L1674.14 989.466L1671.35 990.022L1489.37 56.2231Z" fill="white"/>
<path d="M1621.25 25.202L1858.51 935.011L1856.45 935.553L1621.25 25.202Z" fill="white"/>
<path d="M1756.41 6.66062L2048.57 902.25L2047.21 902.692L1756.41 6.66062Z" fill="white"/>
<path d="M1895.56 0.356564L2245.65 891.083L2244.99 891.339L1895.56 0.356564Z" fill="white"/>
<path d="M2535.69 891.297L2102.19 0.356564L2536 891.14L2535.69 891.297Z" fill="white"/>
</g>
</svg>
