<?xml version="1.0" encoding="UTF-8" standalone="no" ?>
<!DOCTYPE svg PUBLIC "-//W3C//DTD SVG 1.1//EN" "http://www.w3.org/Graphics/SVG/1.1/DTD/svg11.dtd">
<svg xmlns="http://www.w3.org/2000/svg" xmlns:xlink="http://www.w3.org/1999/xlink" version="1.1" width="866" height="650" viewBox="0 0 866 650" xml:space="preserve">
<desc>Created with Fabric.js 5.2.4</desc>
<defs>
</defs>
<rect x="0" y="0" width="100%" height="100%" fill="transparent"></rect>
<g transform="matrix(1 0 0 1 433 325)" id="366a1e83-e79f-4530-837a-143d25bf5af8"  >
<rect style="stroke: none; stroke-width: 1; stroke-dasharray: none; stroke-linecap: butt; stroke-dashoffset: 0; stroke-linejoin: miter; stroke-miterlimit: 4; fill: rgb(255,255,255); fill-rule: nonzero; opacity: 1; visibility: hidden;" vector-effect="non-scaling-stroke"  x="-433" y="-325" rx="0" ry="0" width="866" height="650" />
</g>
<g transform="matrix(Infinity NaN NaN Infinity 0 0)" id="b71d6572-4c10-416f-9435-8f6a6a2f00d2"  >
</g>
<g transform="matrix(0.6 0 0 0.6 469.59 325)"  >
<g style="" vector-effect="non-scaling-stroke"   >
		<g transform="matrix(1 0 0 1 0 0)"  >
<rect style="stroke: none; stroke-width: 1; stroke-dasharray: none; stroke-linecap: butt; stroke-dashoffset: 0; stroke-linejoin: miter; stroke-miterlimit: 4; fill: rgb(239,245,251); fill-rule: nonzero; opacity: 1;" vector-effect="non-scaling-stroke"  x="-354" y="-400" rx="0" ry="0" width="708" height="800" />
</g>
		<g transform="matrix(1 0 0 1 1.64 21.43)"  >
<path style="stroke: none; stroke-width: 1; stroke-dasharray: none; stroke-linecap: butt; stroke-dashoffset: 0; stroke-linejoin: miter; stroke-miterlimit: 4; fill: rgb(0,0,0); fill-rule: evenodd; opacity: 1;" vector-effect="non-scaling-stroke"  transform=" translate(-356.14, -422.33)" d="M 295.466 456.885 C 272.049 456.885 248.83 448.588 228.977 432.673 L 225.478 429.86 L 261.288 389.427 C 262.041 388.577 263.101 388.061 264.234 387.992 C 265.367 387.923 266.482 388.307 267.332 389.06 C 268.182 389.813 268.698 390.872 268.767 392.006 C 268.836 393.139 268.452 394.254 267.699 395.104 L 237.904 428.736 C 262.925 447.187 293.138 452.948 321.465 444.525 L 356.133 434.201 L 390.8 444.525 C 419.113 452.948 449.321 447.187 474.347 428.75 L 444.176 394.897 C 443.422 394.048 443.035 392.935 443.101 391.802 C 443.167 390.668 443.681 389.608 444.529 388.853 C 445.377 388.098 446.49 387.712 447.624 387.778 C 448.757 387.844 449.818 388.358 450.572 389.206 L 486.796 429.855 L 483.283 432.677 C 455.365 455.064 420.768 462.373 388.359 452.727 L 356.133 443.137 L 323.906 452.732 C 314.677 455.486 305.098 456.887 295.466 456.889" stroke-linecap="round" />
</g>
		<g transform="matrix(1 0 0 1 1.64 21.43)"  >
<path style="stroke: rgb(0,0,0); stroke-width: 1.23245; stroke-dasharray: none; stroke-linecap: butt; stroke-dashoffset: 0; stroke-linejoin: round; stroke-miterlimit: 4; fill: none; fill-rule: nonzero; opacity: 1;" vector-effect="non-scaling-stroke"  transform=" translate(-356.14, -422.33)" d="M 295.466 456.885 C 272.049 456.885 248.83 448.588 228.977 432.673 L 225.478 429.86 L 261.288 389.427 C 262.041 388.577 263.101 388.061 264.234 387.992 C 265.367 387.923 266.482 388.307 267.332 389.06 C 268.182 389.813 268.698 390.872 268.767 392.006 C 268.836 393.139 268.452 394.254 267.699 395.104 L 237.904 428.736 C 262.925 447.187 293.138 452.948 321.465 444.525 L 356.133 434.201 L 390.8 444.525 C 419.113 452.948 449.321 447.187 474.347 428.75 L 444.176 394.897 C 443.422 394.048 443.035 392.935 443.101 391.802 C 443.167 390.668 443.681 389.608 444.529 388.853 C 445.377 388.098 446.49 387.712 447.624 387.778 C 448.757 387.844 449.818 388.358 450.572 389.206 L 486.796 429.855 L 483.283 432.677 C 455.365 455.064 420.768 462.373 388.359 452.727 L 356.133 443.137 L 323.906 452.732 C 314.677 455.486 305.098 456.887 295.466 456.889" stroke-linecap="round" />
</g>
		<g transform="matrix(1 0 0 1 2.09 -28.01)"  >
<path style="stroke: rgb(0,0,0); stroke-width: 1.23245; stroke-dasharray: none; stroke-linecap: round; stroke-dashoffset: 0; stroke-linejoin: round; stroke-miterlimit: 4; fill: rgb(0,0,0); fill-rule: evenodd; opacity: 1;" vector-effect="non-scaling-stroke"  transform=" translate(-356.59, -372.89)" d="M 356.124 438.89 L 285.59 398.189 C 277.766 392.516 271.42 385.046 267.088 376.407 C 262.755 367.768 260.563 358.215 260.696 348.551 L 261.293 306.891 L 289.498 316.156 C 290.041 316.323 290.545 316.597 290.981 316.961 C 291.417 317.325 291.776 317.773 292.037 318.277 C 292.298 318.782 292.455 319.333 292.501 319.9 C 292.546 320.466 292.478 321.035 292.301 321.575 C 292.124 322.115 291.841 322.614 291.469 323.043 C 291.097 323.472 290.643 323.822 290.134 324.074 C 289.624 324.326 289.07 324.473 288.503 324.509 C 287.936 324.544 287.368 324.465 286.832 324.278 L 269.684 318.653 L 269.251 348.674 C 269.138 356.927 271.003 365.088 274.688 372.474 C 278.373 379.859 283.772 386.256 290.434 391.129 L 356.152 429.028 L 422.655 391.12 C 429.349 386.254 434.776 379.85 438.479 372.449 C 442.182 365.047 444.052 356.864 443.932 348.589 L 443.509 318.597 L 423.967 324.829 C 422.886 325.173 421.711 325.075 420.703 324.554 C 419.694 324.033 418.934 323.133 418.589 322.051 C 418.244 320.97 418.343 319.796 418.864 318.787 C 419.385 317.779 420.285 317.018 421.366 316.673 L 451.904 306.942 L 452.487 348.471 C 452.624 358.158 450.422 367.736 446.068 376.39 C 441.714 385.044 435.336 392.521 427.476 398.184 L 427.095 398.429 L 356.119 438.885 L 356.124 438.89 Z" stroke-linecap="round" />
</g>
		<g transform="matrix(1 0 0 1 1.16 -21.93)"  >
<path style="stroke: none; stroke-width: 1; stroke-dasharray: none; stroke-linecap: butt; stroke-dashoffset: 0; stroke-linejoin: miter; stroke-miterlimit: 4; fill: rgb(0,0,0); fill-rule: evenodd; opacity: 1;" vector-effect="non-scaling-stroke"  transform=" translate(-355.66, -378.97)" d="M 356.316 370.924 L 296.831 336.92 L 356.316 421.013 L 414.495 336.92 L 356.316 370.924 Z" stroke-linecap="round" />
</g>
		<g transform="matrix(1 0 0 1 2.09 -109.9)"  >
<path style="stroke: none; stroke-width: 1; stroke-dasharray: none; stroke-linecap: butt; stroke-dashoffset: 0; stroke-linejoin: miter; stroke-miterlimit: 4; fill: rgb(0,0,0); fill-rule: evenodd; opacity: 1;" vector-effect="non-scaling-stroke"  transform=" translate(-356.59, -291)" d="M 356.317 225.483 L 298.688 321.621 L 356.199 356.519 L 414.5 322.091 L 356.317 225.483 Z" stroke-linecap="round" />
</g>
		<g transform="matrix(1 0 0 1 -125.01 -26.97)"  >
<path style="stroke: none; stroke-width: 1; stroke-dasharray: none; stroke-linecap: butt; stroke-dashoffset: 0; stroke-linejoin: miter; stroke-miterlimit: 4; fill: rgb(0,0,0); fill-rule: evenodd; opacity: 1;" vector-effect="non-scaling-stroke"  transform=" translate(-229.49, -373.93)" d="M 237.392 400.39 C 236.423 400.388 235.483 400.058 234.726 399.453 C 233.969 398.848 233.44 398.005 233.225 397.06 C 230.384 384.573 222.36 371.258 210.029 358.55 L 205.203 353.593 L 211.802 351.495 C 226.358 346.868 239.08 346.237 250.692 349.591 C 251.782 349.905 252.703 350.64 253.252 351.633 C 253.8 352.626 253.932 353.796 253.618 354.886 C 253.303 355.977 252.569 356.897 251.576 357.446 C 250.582 357.995 249.412 358.126 248.322 357.812 C 239.997 355.413 231.183 355.394 220.978 357.812 C 231.701 370.087 238.779 382.894 241.573 395.165 C 241.712 395.792 241.709 396.442 241.564 397.068 C 241.418 397.694 241.134 398.279 240.732 398.78 C 240.331 399.282 239.822 399.687 239.243 399.965 C 238.664 400.244 238.029 400.389 237.387 400.39" stroke-linecap="round" />
</g>
		<g transform="matrix(1 0 0 1 -125.01 -26.97)"  >
<path style="stroke: rgb(0,0,0); stroke-width: 1.23245; stroke-dasharray: none; stroke-linecap: round; stroke-dashoffset: 0; stroke-linejoin: round; stroke-miterlimit: 4; fill: none; fill-rule: nonzero; opacity: 1;" vector-effect="non-scaling-stroke"  transform=" translate(-229.49, -373.93)" d="M 237.392 400.39 C 236.423 400.388 235.483 400.058 234.726 399.453 C 233.969 398.848 233.44 398.005 233.225 397.06 C 230.384 384.573 222.36 371.258 210.029 358.55 L 205.203 353.593 L 211.802 351.495 C 226.358 346.868 239.08 346.237 250.692 349.591 C 251.782 349.905 252.703 350.64 253.252 351.633 C 253.8 352.626 253.932 353.796 253.618 354.886 C 253.303 355.977 252.569 356.897 251.576 357.446 C 250.582 357.995 249.412 358.126 248.322 357.812 C 239.997 355.413 231.183 355.394 220.978 357.812 C 231.701 370.087 238.779 382.894 241.573 395.165 C 241.712 395.792 241.709 396.442 241.564 397.068 C 241.418 397.694 241.134 398.279 240.732 398.78 C 240.331 399.282 239.822 399.687 239.243 399.965 C 238.664 400.244 238.029 400.389 237.387 400.39" stroke-linecap="round" />
</g>
		<g transform="matrix(1 0 0 1 128.71 -26.97)"  >
<path style="stroke: none; stroke-width: 1; stroke-dasharray: none; stroke-linecap: butt; stroke-dashoffset: 0; stroke-linejoin: miter; stroke-miterlimit: 4; fill: rgb(0,0,0); fill-rule: evenodd; opacity: 1;" vector-effect="non-scaling-stroke"  transform=" translate(-483.21, -373.93)" d="M 475.307 400.39 C 474.664 400.389 474.03 400.244 473.45 399.965 C 472.871 399.687 472.362 399.281 471.961 398.779 C 471.56 398.277 471.277 397.69 471.133 397.064 C 470.99 396.438 470.988 395.787 471.13 395.16 C 473.929 382.889 481.007 370.087 491.726 357.812 C 481.52 355.394 472.711 355.413 464.381 357.812 C 463.842 357.968 463.277 358.017 462.718 357.955 C 462.16 357.892 461.62 357.72 461.128 357.448 C 460.636 357.177 460.203 356.81 459.854 356.371 C 459.504 355.931 459.244 355.427 459.09 354.886 C 458.933 354.347 458.884 353.782 458.946 353.224 C 459.008 352.666 459.179 352.126 459.45 351.634 C 459.721 351.142 460.086 350.708 460.524 350.358 C 460.963 350.007 461.467 349.746 462.006 349.591 C 473.623 346.237 486.35 346.868 500.901 351.495 L 507.5 353.593 L 502.679 358.55 C 490.343 371.254 482.324 384.568 479.478 397.06 C 479.263 398.005 478.734 398.848 477.977 399.453 C 477.22 400.058 476.28 400.388 475.311 400.39" stroke-linecap="round" />
</g>
		<g transform="matrix(1 0 0 1 128.71 -26.97)"  >
<path style="stroke: rgb(0,0,0); stroke-width: 1.23245; stroke-dasharray: none; stroke-linecap: butt; stroke-dashoffset: 0; stroke-linejoin: miter; stroke-miterlimit: 4; fill: none; fill-rule: nonzero; opacity: 1;" vector-effect="non-scaling-stroke"  transform=" translate(-483.21, -373.93)" d="M 475.307 400.39 C 474.664 400.389 474.03 400.244 473.45 399.966 C 472.871 399.687 472.362 399.281 471.961 398.779 C 471.56 398.277 471.277 397.69 471.133 397.064 C 470.99 396.438 470.988 395.787 471.13 395.16 C 473.929 382.889 481.007 370.087 491.726 357.812 C 481.52 355.394 472.711 355.413 464.381 357.812 C 463.842 357.968 463.277 358.017 462.718 357.955 C 462.16 357.892 461.62 357.72 461.128 357.448 C 460.636 357.177 460.203 356.81 459.854 356.371 C 459.504 355.931 459.244 355.427 459.09 354.886 C 458.933 354.347 458.884 353.782 458.946 353.224 C 459.008 352.666 459.179 352.126 459.45 351.634 C 459.721 351.142 460.086 350.708 460.524 350.358 C 460.963 350.007 461.467 349.746 462.006 349.591 C 473.623 346.237 486.35 346.868 500.901 351.495 L 507.5 353.593 L 502.679 358.55 C 490.343 371.254 482.324 384.568 479.478 397.06 C 479.263 398.005 478.734 398.848 477.977 399.453 C 477.22 400.058 476.28 400.388 475.311 400.39" stroke-linecap="round" />
</g>
		<g transform="matrix(1 0 0 1 -57.43 -111.01)"  >
<path style="stroke: none; stroke-width: 1; stroke-dasharray: none; stroke-linecap: butt; stroke-dashoffset: 0; stroke-linejoin: miter; stroke-miterlimit: 4; fill: rgb(0,0,0); fill-rule: evenodd; opacity: 1;" vector-effect="non-scaling-stroke"  transform=" translate(-297.07, -289.89)" d="M 288.078 307.493 C 287.475 307.494 286.879 307.367 286.329 307.122 C 285.778 306.877 285.286 306.518 284.884 306.069 C 284.482 305.62 284.18 305.091 283.997 304.517 C 283.814 303.943 283.754 303.336 283.821 302.738 L 287.227 272.294 L 308.555 286.836 C 309.464 287.487 310.083 288.467 310.279 289.568 C 310.474 290.668 310.232 291.801 309.603 292.725 C 308.973 293.649 308.008 294.291 306.912 294.512 C 305.817 294.733 304.678 294.517 303.739 293.91 L 294.15 287.372 L 292.325 303.688 C 292.208 304.733 291.711 305.699 290.927 306.4 C 290.144 307.102 289.13 307.491 288.078 307.493 Z" stroke-linecap="round" />
</g>
		<g transform="matrix(1 0 0 1 -57.43 -111.01)"  >
<path style="stroke: rgb(0,0,0); stroke-width: 1.23245; stroke-dasharray: none; stroke-linecap: butt; stroke-dashoffset: 0; stroke-linejoin: round; stroke-miterlimit: 4; fill: none; fill-rule: nonzero; opacity: 1;" vector-effect="non-scaling-stroke"  transform=" translate(-297.07, -289.89)" d="M 288.078 307.493 C 287.475 307.494 286.879 307.367 286.329 307.122 C 285.778 306.877 285.286 306.518 284.884 306.069 C 284.482 305.62 284.18 305.091 283.997 304.517 C 283.814 303.943 283.754 303.336 283.821 302.738 L 287.227 272.294 L 308.555 286.836 C 309.464 287.487 310.083 288.467 310.279 289.568 C 310.474 290.668 310.232 291.801 309.603 292.725 C 308.973 293.649 308.008 294.291 306.912 294.512 C 305.817 294.733 304.678 294.517 303.739 293.91 L 294.15 287.372 L 292.325 303.688 C 292.208 304.733 291.711 305.699 290.927 306.4 C 290.144 307.102 289.13 307.491 288.078 307.493" stroke-linecap="round" />
</g>
		<g transform="matrix(1 0 0 1 59.49 -110.97)"  >
<path style="stroke: none; stroke-width: 1; stroke-dasharray: none; stroke-linecap: butt; stroke-dashoffset: 0; stroke-linejoin: miter; stroke-miterlimit: 4; fill: rgb(0,0,0); fill-rule: evenodd; opacity: 1;" vector-effect="non-scaling-stroke"  transform=" translate(-413.99, -289.93)" d="M 423.196 307.493 C 422.156 307.492 421.152 307.112 420.373 306.423 C 419.594 305.735 419.092 304.786 418.963 303.754 L 416.865 287.307 L 407.186 293.91 C 406.248 294.55 405.094 294.79 403.979 294.579 C 402.864 294.368 401.878 293.722 401.239 292.784 C 400.6 291.846 400.359 290.692 400.57 289.577 C 400.782 288.462 401.427 287.476 402.365 286.837 L 423.595 272.36 L 427.447 302.677 C 427.523 303.28 427.47 303.892 427.291 304.473 C 427.112 305.054 426.812 305.59 426.41 306.046 C 426.007 306.501 425.513 306.866 424.959 307.116 C 424.404 307.365 423.803 307.494 423.196 307.493 Z" stroke-linecap="round" />
</g>
		<g transform="matrix(1 0 0 1 59.49 -110.97)"  >
<path style="stroke: rgb(0,0,0); stroke-width: 1.23245; stroke-dasharray: none; stroke-linecap: round; stroke-dashoffset: 0; stroke-linejoin: round; stroke-miterlimit: 4; fill: none; fill-rule: nonzero; opacity: 1;" vector-effect="non-scaling-stroke"  transform=" translate(-413.99, -289.93)" d="M 423.196 307.493 C 422.156 307.492 421.152 307.112 420.373 306.423 C 419.594 305.735 419.092 304.786 418.963 303.754 L 416.865 287.307 L 407.186 293.91 C 406.248 294.55 405.094 294.79 403.979 294.579 C 402.864 294.368 401.878 293.722 401.239 292.784 C 400.6 291.846 400.359 290.692 400.57 289.577 C 400.782 288.462 401.427 287.476 402.365 286.837 L 423.595 272.36 L 427.447 302.677 C 427.523 303.28 427.47 303.892 427.291 304.473 C 427.112 305.054 426.812 305.59 426.41 306.046 C 426.007 306.501 425.513 306.866 424.959 307.116 C 424.404 307.365 423.803 307.494 423.196 307.493" stroke-linecap="round" />
</g>
		<g transform="matrix(1 0 0 1 -78.5 128.91)"  >
<path style="stroke: none; stroke-width: 1; stroke-dasharray: none; stroke-linecap: butt; stroke-dashoffset: 0; stroke-linejoin: miter; stroke-miterlimit: 4; fill: rgb(0,0,0); fill-rule: evenodd; opacity: 1;" vector-effect="non-scaling-stroke"  transform=" translate(-276, -529.81)" d="M 331.639 501.742 L 331.639 525.397 L 303.48 525.397 L 303.48 501.746 L 208.844 501.746 L 208.844 557.875 L 252.08 557.875 L 252.08 549.056 L 220.364 549.056 L 220.364 534.218 L 252.082 534.218 L 252.082 525.399 L 220.364 525.399 L 220.364 510.566 L 266.319 510.566 L 266.319 557.875 L 277.834 557.875 L 277.834 510.566 L 291.96 510.566 L 291.96 557.875 L 303.478 557.875 L 303.478 534.218 L 331.639 534.218 L 331.639 557.873 L 343.154 557.873 L 343.154 501.746 L 331.639 501.742 Z" stroke-linecap="round" />
</g>
		<g transform="matrix(1 0 0 1 0.83 128.82)"  >
<path style="stroke: none; stroke-width: 1; stroke-dasharray: none; stroke-linecap: butt; stroke-dashoffset: 0; stroke-linejoin: miter; stroke-miterlimit: 4; fill: rgb(0,0,0); fill-rule: evenodd; opacity: 1;" vector-effect="non-scaling-stroke"  transform=" translate(-355.33, -529.72)" d="M 350.768 557.874 L 359.89 557.874 L 359.89 501.561 L 350.768 501.561 L 350.768 557.874 Z" stroke-linecap="round" />
</g>
		<g transform="matrix(1 0 0 1 29.85 137.38)"  >
<path style="stroke: none; stroke-width: 1; stroke-dasharray: none; stroke-linecap: butt; stroke-dashoffset: 0; stroke-linejoin: miter; stroke-miterlimit: 4; fill: rgb(0,0,0); fill-rule: evenodd; opacity: 1;" vector-effect="non-scaling-stroke"  transform=" translate(-384.35, -538.28)" d="M 367.922 519.743 L 376.771 519.743 L 376.771 523.266 C 379.851 520.213 383.322 518.687 387.184 518.687 C 391.621 518.687 395.079 520.083 397.557 522.876 C 399.699 525.249 400.77 529.125 400.77 534.503 L 400.77 557.874 L 391.923 557.874 L 391.923 536.579 C 391.923 532.821 391.398 530.225 390.357 528.789 C 389.334 527.327 387.482 526.597 384.794 526.597 C 381.871 526.597 379.796 527.563 378.568 529.494 C 377.367 531.399 376.768 534.727 376.768 539.477 L 376.768 557.878 L 367.92 557.878 L 367.92 519.743 L 367.922 519.743 Z" stroke-linecap="round" />
</g>
		<g transform="matrix(1 0 0 1 69.35 129.37)"  >
<path style="stroke: none; stroke-width: 1; stroke-dasharray: none; stroke-linecap: butt; stroke-dashoffset: 0; stroke-linejoin: miter; stroke-miterlimit: 4; fill: rgb(0,0,0); fill-rule: nonzero; opacity: 1;" vector-effect="non-scaling-stroke"  transform=" translate(-423.85, -530.27)" d="M 413.478 538.69 C 413.478 542.346 414.459 545.322 416.416 547.617 C 418.423 549.941 420.956 551.102 424.011 551.102 C 427.272 551.102 429.907 549.981 431.919 547.736 C 433.928 545.412 434.934 542.466 434.934 538.888 C 434.934 535.312 433.926 532.361 431.919 530.039 C 429.907 527.771 427.299 526.633 424.091 526.633 C 421.058 526.633 418.526 527.781 416.496 530.077 C 414.484 532.401 413.478 535.274 413.478 538.69 Z M 434.384 501.561 L 443.233 501.561 L 443.233 557.876 L 434.384 557.876 L 434.384 553.883 C 430.915 557.278 426.986 558.975 422.602 558.975 C 417.38 558.975 413.048 557.068 409.602 553.257 C 406.179 549.368 404.474 544.513 404.474 538.692 C 404.474 533.004 406.181 528.256 409.602 524.443 C 412.995 520.606 417.262 518.689 422.404 518.689 C 426.869 518.689 430.861 520.516 434.384 524.17 L 434.384 501.559 L 434.384 501.561 Z" stroke-linecap="round" />
</g>
		<g transform="matrix(1 0 0 1 99.44 128.82)"  >
<path style="stroke: none; stroke-width: 1; stroke-dasharray: none; stroke-linecap: butt; stroke-dashoffset: 0; stroke-linejoin: miter; stroke-miterlimit: 4; fill: rgb(0,0,0); fill-rule: nonzero; opacity: 1;" vector-effect="non-scaling-stroke"  transform=" translate(-453.94, -529.72)" d="M 449.541 557.874 L 458.35 557.874 L 458.35 519.74 L 449.541 519.74 L 449.541 557.874 Z M 448.209 507.24 C 448.209 505.699 448.77 504.367 449.894 503.246 C 450.415 502.705 451.042 502.276 451.736 501.986 C 452.43 501.697 453.176 501.552 453.927 501.562 C 455.517 501.562 456.873 502.125 457.997 503.246 C 459.118 504.342 459.681 505.686 459.681 507.278 C 459.681 508.869 459.118 510.228 457.997 511.349 C 457.478 511.894 456.852 512.326 456.158 512.616 C 455.464 512.905 454.717 513.048 453.965 513.033 C 453.207 513.046 452.455 512.903 451.755 512.613 C 451.055 512.323 450.421 511.893 449.894 511.349 C 448.77 510.228 448.209 508.859 448.209 507.24 Z" stroke-linecap="round" />
</g>
		<g transform="matrix(1 0 0 1 127.78 137.93)"  >
<path style="stroke: none; stroke-width: 1; stroke-dasharray: none; stroke-linecap: butt; stroke-dashoffset: 0; stroke-linejoin: miter; stroke-miterlimit: 4; fill: rgb(0,0,0); fill-rule: nonzero; opacity: 1;" vector-effect="non-scaling-stroke"  transform=" translate(-482.28, -538.83)" d="M 471.9 538.69 C 471.9 542.345 472.879 545.321 474.836 547.616 C 476.845 549.94 479.38 551.102 482.433 551.102 C 485.694 551.102 488.333 549.98 490.339 547.736 C 492.348 545.411 493.356 542.465 493.356 538.887 C 493.356 535.311 492.348 532.361 490.339 530.038 C 488.331 527.77 485.721 526.632 482.511 526.632 C 479.483 526.632 476.95 527.781 474.915 530.076 C 472.906 532.4 471.9 535.273 471.9 538.69 Z M 492.806 519.743 L 501.655 519.743 L 501.655 557.876 L 492.806 557.876 L 492.806 553.88 C 489.18 557.275 485.276 558.972 481.102 558.972 C 475.827 558.972 471.47 557.065 468.022 553.254 C 464.605 549.365 462.898 544.51 462.898 538.69 C 462.898 532.974 464.605 528.211 468.022 524.4 C 471.444 520.589 475.722 518.688 480.866 518.688 C 485.303 518.688 489.283 520.511 492.806 524.165 L 492.806 519.743 Z" stroke-linecap="round" />
</g>
</g>
</g>
</svg>