<svg width="168" height="190" viewBox="0 0 168 190" fill="none" xmlns="http://www.w3.org/2000/svg">
<path fill-rule="evenodd" clip-rule="evenodd" d="M39.2687 50.4512C31.6315 54.7769 26.9044 64.2406 26.8977 77.817C26.8843 104.97 45.7574 138.291 69.052 152.242C80.6992 159.218 91.2466 160.03 98.8838 155.705L119.773 143.873C127.41 139.547 132.137 130.084 132.144 116.507C132.157 89.3544 113.284 56.0331 89.9898 42.0818C78.3425 35.1062 67.7952 34.2939 60.158 38.6196L39.2687 50.4512Z" fill="url(#paint0_radial_613_1627)"/>
<path d="M116.907 107.505C117.181 124.757 105.523 131.36 90.8676 122.253C76.2126 113.147 64.1102 91.7797 63.8362 74.528C63.5621 57.2764 75.2202 50.6733 89.8752 59.7796C104.53 68.8859 116.633 90.2533 116.907 107.505Z" fill="#38DC4C" stroke="url(#paint1_linear_613_1627)"/>
<path d="M116.907 107.505C117.181 124.757 105.523 131.36 90.8676 122.253C76.2126 113.147 64.1102 91.7797 63.8362 74.528C63.5621 57.2764 75.2202 50.6733 89.8752 59.7796C104.53 68.8859 116.633 90.2533 116.907 107.505Z" stroke="url(#paint2_linear_613_1627)"/>
<path d="M128.636 114.081C129.025 138.568 112.478 147.941 91.676 135.015C70.8743 122.089 53.6958 91.7597 53.3069 67.2723C52.9179 42.7849 69.4656 33.4123 90.2673 46.338C111.069 59.2637 128.247 89.5931 128.636 114.081Z" stroke="url(#paint3_radial_613_1627)" stroke-width="2"/>
<path d="M102.41 111.931C102.035 112.054 101.585 111.985 101.157 111.739C100.728 111.492 100.355 111.088 100.117 110.611L81.2425 72.0092C81.0079 71.5293 80.9312 71.0174 81.0295 70.5861C81.1276 70.1549 81.3927 69.8396 81.7662 69.7096C82.1396 69.5796 82.5912 69.6456 83.0211 69.8931C83.4512 70.1405 83.8246 70.5491 84.0592 71.029L102.933 109.631C103.162 110.111 103.236 110.62 103.138 111.049C103.04 111.479 102.779 111.795 102.41 111.931Z" fill="#65CA78"/>
<path d="M102.867 106.125L90.6615 110.373C90.2879 110.503 89.8365 110.437 89.4064 110.189C88.9765 109.942 88.603 109.533 88.3684 109.053C88.1337 108.573 88.057 108.062 88.1553 107.63C88.2534 107.199 88.5185 106.884 88.892 106.754L101.098 102.506C102.409 102.216 103.407 101.297 103.876 99.9469C104.345 98.5963 104.249 96.9212 103.608 95.2808C102.692 93.7361 101.36 92.4909 99.8986 91.812C98.4373 91.1331 96.962 91.0748 95.7895 91.6494L90.156 93.6098C89.2092 94.035 88.1366 94.2098 87 94.1246C85.8633 94.0393 84.685 93.6956 83.5325 93.113C82.3801 92.5305 81.2762 91.7207 80.284 90.7298C79.292 89.7391 78.4314 88.587 77.7516 87.3396C77.1913 86.0506 76.8388 84.7217 76.7144 83.429C76.5899 82.1364 76.696 80.9054 77.0265 79.8068C77.357 78.7082 77.9054 77.7635 78.6402 77.027C79.3751 76.2905 80.2819 75.7767 81.3087 75.515L91.6367 71.921C92.0102 71.791 92.4617 71.857 92.8916 72.1044C93.3218 72.3519 93.6952 72.7605 93.9298 73.2404C94.1645 73.7203 94.2411 74.2321 94.1428 74.6634C94.0447 75.0947 93.7797 75.41 93.4062 75.5399L83.0781 79.134C81.7664 79.424 80.769 80.3428 80.2999 81.6934C79.8307 83.044 79.9271 84.719 80.5683 86.3594C81.4845 87.9042 82.8159 89.1494 84.2774 89.8283C85.7387 90.5069 87.2138 90.5653 88.3865 89.9909L94.02 88.0305C94.9668 87.6053 96.0392 87.4303 97.1758 87.5155C98.3126 87.6007 99.4908 87.9445 100.643 88.527C101.796 89.1098 102.9 89.9196 103.892 90.9102C104.884 91.9012 105.745 93.0531 106.424 94.3006C106.985 95.5895 107.337 96.9185 107.462 98.2111C107.586 99.504 107.48 100.735 107.149 101.833C106.819 102.932 106.271 103.877 105.536 104.613C104.801 105.35 103.894 105.864 102.867 106.125Z" fill="#65CA78"/>
<defs>
<radialGradient id="paint0_radial_613_1627" cx="0" cy="0" r="1" gradientUnits="userSpaceOnUse" gradientTransform="translate(89.5854 91.7217) rotate(150.473) scale(61.733 80.6425)">
<stop stop-color="#81FF71"/>
<stop offset="1" stop-color="#35B200"/>
</radialGradient>
<linearGradient id="paint1_linear_613_1627" x1="101.725" y1="77.2" x2="69.9694" y2="92.4117" gradientUnits="userSpaceOnUse">
<stop stop-color="#4BFF23"/>
<stop offset="1" stop-color="#1FAB1F"/>
</linearGradient>
<linearGradient id="paint2_linear_613_1627" x1="101.725" y1="77.2" x2="69.9694" y2="92.4117" gradientUnits="userSpaceOnUse">
<stop stop-color="#4BFF23"/>
<stop offset="1" stop-color="#1FAB1F"/>
</linearGradient>
<radialGradient id="paint3_radial_613_1627" cx="0" cy="0" r="1" gradientUnits="userSpaceOnUse" gradientTransform="translate(90.9717 90.6764) rotate(87.6763) scale(43.777 36.7241)">
<stop stop-color="#58F822"/>
<stop offset="1" stop-color="#77DF7E"/>
</radialGradient>
</defs>
</svg>
