<svg width="1077" height="1314" viewBox="0 0 1077 1314" fill="none" xmlns="http://www.w3.org/2000/svg">
<path d="M3 3L206.772 226.541C225.744 247.354 236.261 274.502 236.261 302.666V984.821C236.261 1010.97 227.194 1036.31 210.605 1056.52L3 1309.44" stroke="#FFFDF5" stroke-opacity="0.55" stroke-width="6"/>
<path d="M231.91 5.61182L347.745 225.933C356.271 242.15 360.726 260.197 360.726 278.518V1007.14C360.726 1023.66 357.105 1039.98 350.117 1054.95L231.91 1308.13" stroke="#FFFDF5" stroke-opacity="0.55" stroke-width="6"/>
<path d="M411.208 3L475.683 243.652C478.238 253.19 479.533 263.022 479.533 272.896V1015.08C479.533 1024.15 478.44 1033.19 476.279 1042L411.208 1307.26" stroke="#FFFDF5" stroke-opacity="0.55" stroke-width="6"/>
<path d="M1074 5.61182L870.228 229.152C851.256 249.966 840.739 277.114 840.739 305.277V987.433C840.739 1013.58 849.806 1038.92 866.395 1059.13L1074 1312.05" stroke="#FFFDF5" stroke-opacity="0.55" stroke-width="6"/>
<path d="M845.09 8.22314L729.255 228.544C720.729 244.761 716.274 262.808 716.274 281.129V1009.75C716.274 1026.27 719.895 1042.59 726.883 1057.56L845.09 1310.74" stroke="#FFFDF5" stroke-opacity="0.55" stroke-width="6"/>
<path d="M665.792 5.61182L601.317 246.264C598.762 255.802 597.468 265.634 597.468 275.508V1017.69C597.468 1026.77 598.56 1035.81 600.721 1044.62L665.792 1309.87" stroke="#FFFDF5" stroke-opacity="0.55" stroke-width="6"/>
</svg>
