<svg width="308" height="307" viewBox="0 0 308 307" fill="none" xmlns="http://www.w3.org/2000/svg">
<g filter="url(#filter0_f_613_1626)">
<path fill-rule="evenodd" clip-rule="evenodd" d="M63.9976 107.698C53.186 118.757 49.089 136.38 54.2695 157.947C64.6303 201.08 108.177 243.653 151.534 253.035C173.212 257.726 190.739 253.232 201.55 242.173L231.122 211.924C241.934 200.865 246.031 183.241 240.85 161.675C230.489 118.541 186.943 75.9688 143.586 66.5864C121.907 61.8952 104.381 66.3898 93.5696 77.4488L63.9976 107.698Z" fill="url(#paint0_radial_613_1626)"/>
<circle cx="51.7781" cy="51.7781" r="51.2781" transform="matrix(0.973591 0.228301 0.250269 0.968176 99.5513 82.1475)" fill="white" stroke="url(#paint1_linear_613_1626)"/>
<circle cx="51.7781" cy="51.7781" r="51.2781" transform="matrix(0.973591 0.228301 0.250269 0.968176 99.5513 82.1475)" stroke="url(#paint2_linear_613_1626)"/>
<path d="M234.812 159.888C244.898 198.905 221.267 223.076 182.032 213.876C142.797 204.676 102.814 165.588 92.7286 126.571C82.6429 87.5536 106.273 63.3824 145.508 72.5829C184.744 81.7833 224.726 120.871 234.812 159.888Z" stroke="url(#paint3_radial_613_1626)" stroke-width="2"/>
<path d="M190.567 170.714C190.002 171.115 189.242 171.252 188.449 171.096C187.655 170.939 186.891 170.501 186.32 169.876L140.752 118.916C140.186 118.283 139.865 117.512 139.86 116.773C139.855 116.034 140.167 115.388 140.727 114.977C141.287 114.566 142.05 114.423 142.846 114.58C143.643 114.737 144.408 115.181 144.975 115.815L190.543 166.774C191.099 167.41 191.414 168.178 191.419 168.914C191.423 169.65 191.118 170.296 190.567 170.714Z" fill="black"/>
<path d="M189.094 161.242L170.795 174.683C170.235 175.094 169.473 175.237 168.677 175.079C167.88 174.922 167.115 174.478 166.548 173.845C165.982 173.211 165.661 172.44 165.656 171.701C165.651 170.962 165.963 170.316 166.523 169.905L184.822 156.465C186.852 155.284 188.129 153.278 188.378 150.876C188.627 148.473 187.83 145.866 186.156 143.612C184.07 141.661 181.42 140.414 178.775 140.137C176.131 139.86 173.7 140.577 172.006 142.132L163.561 148.336C162.178 149.53 160.494 150.396 158.606 150.884C156.718 151.372 154.663 151.472 152.56 151.179C150.456 150.886 148.344 150.205 146.346 149.176C144.348 148.146 142.503 146.788 140.916 145.18C139.509 143.44 138.425 141.523 137.728 139.538C137.03 137.553 136.733 135.54 136.852 133.614C136.972 131.687 137.505 129.886 138.423 128.313C139.341 126.741 140.625 125.427 142.201 124.448L157.684 113.076C158.244 112.664 159.006 112.522 159.803 112.679C160.599 112.836 161.365 113.28 161.931 113.914C162.498 114.547 162.819 115.318 162.823 116.057C162.828 116.796 162.516 117.442 161.956 117.853L146.473 129.226C144.442 130.406 143.166 132.412 142.916 134.815C142.667 137.217 143.465 139.825 145.139 142.078C147.225 144.029 149.874 145.277 152.519 145.554C155.164 145.83 157.594 145.114 159.289 143.558L167.734 137.355C169.117 136.16 170.8 135.294 172.688 134.806C174.576 134.318 176.631 134.218 178.735 134.511C180.839 134.804 182.95 135.485 184.949 136.514C186.947 137.544 188.792 138.902 190.379 140.51C191.786 142.25 192.869 144.168 193.567 146.152C194.264 148.138 194.562 150.151 194.442 152.077C194.323 154.003 193.789 155.804 192.871 157.377C191.953 158.95 190.67 160.263 189.094 161.242Z" fill="black"/>
</g>
<defs>
<filter id="filter0_f_613_1626" x="-3.99907" y="-4" width="315.8" height="314.649" filterUnits="userSpaceOnUse" color-interpolation-filters="sRGB">
<feFlood flood-opacity="0" result="BackgroundImageFix"/>
<feBlend mode="normal" in="SourceGraphic" in2="BackgroundImageFix" result="shape"/>
<feGaussianBlur stdDeviation="2" result="effect1_foregroundBlur_613_1626"/>
</filter>
<radialGradient id="paint0_radial_613_1626" cx="0" cy="0" r="1" gradientUnits="userSpaceOnUse" gradientTransform="translate(161.907 145.65) rotate(134.352) scale(108.778 128.243)">
<stop offset="1" stop-color="white"/>
</radialGradient>
<linearGradient id="paint1_linear_613_1626" x1="74.2263" y1="17.3875" x2="7.60783" y2="69.1003" gradientUnits="userSpaceOnUse">
<stop offset="1" stop-color="#BCBCBC"/>
</linearGradient>
<linearGradient id="paint2_linear_613_1626" x1="74.2263" y1="17.3875" x2="7.60783" y2="69.1003" gradientUnits="userSpaceOnUse">
<stop offset="1" stop-color="#BCBCBC"/>
</linearGradient>
<radialGradient id="paint3_radial_613_1626" cx="0" cy="0" r="1" gradientUnits="userSpaceOnUse" gradientTransform="translate(163.77 143.229) rotate(74.0146) scale(71.2546 63.2232)">
<stop offset="1" stop-color="#979797"/>
</radialGradient>
</defs>
</svg>
