<svg width="255" height="255" viewBox="0 0 255 255" fill="none" xmlns="http://www.w3.org/2000/svg">
<g clip-path="url(#clip0_25_1709)">
<path d="M197.65 72.545C198.712 73.0447 200.089 73.2735 200.789 74.0856C208.833 83.4144 216.805 92.8051 224.696 102.263C225.573 103.314 226.139 104.843 226.322 106.22C228.026 119.052 229.653 131.895 231.176 144.75C231.336 146.1 230.991 147.705 230.362 148.923C224.616 160.037 218.79 171.109 212.875 182.133C212.307 183.192 211.116 184.261 209.988 184.624C163.992 199.434 117.97 214.162 71.9519 228.902C67.7408 230.251 63.5333 231.611 58.9079 233.1C57.4831 226.559 56.1313 220.393 54.7977 214.224C44.9632 168.729 35.1271 123.235 25.3394 77.7302C25.1469 76.8354 25.236 75.6292 25.6994 74.8818C32.4632 63.972 39.2915 53.1018 46.1796 42.27C46.8038 41.2885 47.8136 40.3271 48.8667 39.8776C60.9535 34.7181 73.0695 29.6258 85.2225 24.6245C86.488 24.1036 88.0975 23.9528 89.4517 24.1858C101.575 26.272 113.683 28.4463 125.772 30.7207C126.834 30.9205 127.728 32.0163 128.663 33.0851C127.331 33.5907 125.898 33.386 124.761 33.8741C115.12 38.0163 105.533 42.285 95.93 46.5152C89.4465 49.3711 82.9626 52.226 76.4677 55.0863C76.562 55.7511 76.5549 56.184 76.6879 56.5684C80.7063 68.1806 84.6993 79.802 88.8281 91.3749C89.2476 92.5508 90.3357 93.6561 91.3887 94.4097C96.8229 98.2991 102.33 102.088 107.844 105.864C114.23 110.237 120.32 115.188 127.129 118.763C138.66 124.816 150.63 130.039 162.483 135.462C163.994 136.153 165.98 136.359 167.633 136.092C173.902 135.079 180.126 133.788 186.363 132.583C192.248 131.446 198.13 130.286 203.991 129.141C203.991 127.925 204.07 127.071 203.979 126.236C202.414 111.911 200.86 97.5836 199.223 83.266C198.842 79.9317 198.164 76.6314 197.627 73.1228C197.638 72.8017 197.644 72.6734 197.65 72.545ZM82.1029 152.547C75.7005 176.843 69.2981 201.138 62.8957 225.434C63.188 225.575 63.4803 225.716 63.7726 225.857C82.3125 206.752 100.852 187.648 119.276 168.664C107.974 162.178 95.7438 155.159 83.3095 148.023C82.824 149.802 82.519 150.92 82.1029 152.547ZM51.7493 188.225C52.8014 192.917 53.8534 197.608 54.9055 202.299C55.4611 201.379 55.4874 200.553 55.4572 199.73C54.8932 184.362 54.3359 168.993 53.7491 153.626C53.3037 141.964 52.9043 130.298 52.2725 118.646C52.1603 116.578 51.4195 114.29 50.2658 112.577C45.3471 105.275 40.1727 98.1444 35.0734 90.9642C33.3331 88.5138 31.5394 86.1014 29.7701 83.6716C29.603 83.7611 29.4358 83.8505 29.2687 83.9399C36.7329 118.525 44.197 153.11 51.7493 188.225ZM99.2332 217.475C133.954 206.34 168.674 195.205 203.394 184.071C191.278 182.489 179.265 181.346 167.234 180.42C165.383 180.277 163.249 180.736 161.592 181.589C140.113 192.65 118.693 203.826 97.2669 214.99C93.6305 216.885 90.035 218.858 86.4206 220.795C86.5134 221.007 86.6063 221.218 86.6991 221.43C90.7174 220.171 94.7358 218.912 99.2332 217.475ZM113.841 124.366C116.816 122.473 119.79 120.58 123.089 118.481C111.784 110.681 101.018 103.253 89.9912 95.6461C88.0143 111.62 86.0973 127.109 84.1047 143.209C94.1887 136.821 103.821 130.718 113.841 124.366ZM125.514 145.546C125.137 152.312 124.76 159.078 124.352 166.393C137.264 156.526 149.646 147.063 162.368 137.341C150.282 131.661 138.754 126.244 126.695 120.577C126.297 129.112 125.929 137.025 125.514 145.546ZM82.8976 130.979C84.314 119.512 85.7304 108.045 87.2201 95.9845C76.3776 102.522 66.1599 108.683 55.6324 115.031C64.3235 124.421 72.6952 133.465 81.3821 142.851C81.9332 138.664 82.4014 135.107 82.8976 130.979ZM150.693 174.1C154.567 174.976 158.441 175.852 162.897 176.86C162.897 164.41 162.897 152.541 162.897 140.301C150.688 149.639 138.661 158.838 126.019 168.506C134.712 170.494 142.438 172.261 150.693 174.1ZM174.236 164.353C183.031 153.69 191.827 143.028 200.773 132.183C200.072 131.975 199.963 131.903 199.87 131.92C189.14 133.88 178.405 135.812 167.701 137.9C167.103 138.017 166.402 139.396 166.35 140.225C166.05 144.981 165.842 149.747 165.775 154.512C165.686 160.916 165.753 167.322 165.753 174.549C168.842 170.839 171.396 167.771 174.236 164.353ZM57.8214 107.21C57.4056 108.351 56.9899 109.492 56.2515 111.518C67.1973 104.946 77.305 98.8773 87.4913 92.7612C83.5447 81.4926 79.6871 70.4783 75.628 58.8884C69.5793 75.2831 63.7766 91.0113 57.8214 107.21ZM39.748 57.2749C36.5752 62.3481 33.4023 67.4214 30.2295 72.4947C30.3439 72.6827 30.4584 72.8707 30.5729 73.0587C44.3763 67.0797 58.1798 61.1006 72.8342 54.7529C64.266 50.6347 56.5163 46.9099 48.6228 43.116C45.6232 47.9187 42.8197 52.4073 39.748 57.2749ZM228.149 147.579C224.376 144.75 220.65 141.854 216.816 139.111C213.594 136.806 210.245 134.677 206.446 132.131C208.288 147.77 210.042 162.671 211.797 177.571C211.992 177.608 212.187 177.646 212.382 177.683C217.588 167.794 222.794 157.905 228.149 147.579Z" fill="#4285F4"/>
<path d="M197.649 72.545C198.711 73.0447 200.088 73.2735 200.788 74.0856C208.832 83.4144 216.804 92.8051 224.695 102.263C225.572 103.314 226.138 104.843 226.321 106.22C228.025 119.052 229.652 131.895 231.175 144.75C231.335 146.1 230.99 147.705 230.361 148.923C224.615 160.037 218.789 171.109 212.874 182.133C212.306 183.192 211.115 184.261 209.987 184.624C163.991 199.434 117.969 214.162 71.9509 228.902C67.7398 230.251 63.5323 231.611 58.9069 233.1C57.4821 226.559 56.1304 220.393 54.7967 214.224C44.9623 168.729 35.1261 123.235 25.3384 77.7302C25.146 76.8354 25.235 75.6292 25.6984 74.8818C32.4622 63.972 39.2905 53.1018 46.1786 42.27C46.8029 41.2885 47.8126 40.3271 48.8657 39.8776C60.9525 34.7181 73.0685 29.6258 85.2215 24.6245C86.4871 24.1036 88.0965 23.9528 89.4508 24.1858C101.574 26.272 113.682 28.4463 125.771 30.7207C126.833 30.9205 127.727 32.0163 128.662 33.0851C127.33 33.5907 125.897 33.386 124.76 33.8741C115.119 38.0163 105.532 42.285 95.929 46.5152C89.4455 49.3711 82.9617 52.226 76.4667 55.0863C76.561 55.7511 76.5539 56.184 76.6869 56.5684C80.7053 68.1806 84.6983 79.802 88.8271 91.3749C89.2466 92.5508 90.3347 93.6561 91.3877 94.4097C96.822 98.2991 102.329 102.088 107.843 105.864C114.229 110.237 120.319 115.188 127.128 118.763C138.659 124.816 150.629 130.039 162.482 135.462C163.993 136.153 165.979 136.359 167.633 136.092C173.901 135.079 180.125 133.788 186.362 132.583C192.247 131.446 198.129 130.286 203.99 129.141C203.99 127.925 204.069 127.071 203.978 126.236C202.413 111.911 200.859 97.5836 199.222 83.266C198.841 79.9317 198.163 76.6314 197.626 73.1228C197.637 72.8017 197.643 72.6734 197.649 72.545ZM82.1019 152.547C75.6995 176.843 69.2971 201.138 62.8947 225.434C63.187 225.575 63.4793 225.716 63.7716 225.857C82.3115 206.752 100.851 187.648 119.275 168.664C107.973 162.178 95.7429 155.159 83.3085 148.023C82.823 149.802 82.518 150.92 82.1019 152.547ZM51.7483 188.225C52.8004 192.917 53.8525 197.608 54.9045 202.299C55.4601 201.379 55.4864 200.553 55.4562 199.73C54.8923 184.362 54.3349 168.993 53.7481 153.626C53.3027 141.964 52.9033 130.298 52.2715 118.646C52.1594 116.578 51.4186 114.29 50.2648 112.577C45.3461 105.275 40.1717 98.1444 35.0724 90.9642C33.3322 88.5138 31.5385 86.1014 29.7692 83.6716C29.602 83.7611 29.4349 83.8505 29.2677 83.9399C36.7319 118.525 44.1961 153.11 51.7483 188.225ZM99.2323 217.475C133.953 206.34 168.673 195.205 203.393 184.071C191.277 182.489 179.264 181.346 167.233 180.42C165.382 180.277 163.248 180.736 161.591 181.589C140.112 192.65 118.692 203.826 97.2659 214.99C93.6295 216.885 90.034 218.858 86.4196 220.795C86.5125 221.007 86.6053 221.218 86.6981 221.43C90.7165 220.171 94.7348 218.912 99.2323 217.475ZM113.84 124.366C116.815 122.473 119.789 120.58 123.088 118.481C111.783 110.681 101.017 103.253 89.9902 95.6461C88.0133 111.62 86.0963 127.109 84.1038 143.209C94.1877 136.821 103.82 130.718 113.84 124.366ZM125.513 145.546C125.136 152.312 124.759 159.078 124.351 166.393C137.263 156.526 149.645 147.063 162.367 137.341C150.281 131.661 138.753 126.244 126.694 120.577C126.296 129.112 125.928 137.025 125.513 145.546ZM82.8966 130.979C84.313 119.512 85.7294 108.045 87.2192 95.9845C76.3767 102.522 66.1589 108.683 55.6314 115.031C64.3225 124.421 72.6942 133.465 81.3812 142.851C81.9322 138.664 82.4004 135.107 82.8966 130.979ZM150.692 174.1C154.566 174.976 158.44 175.852 162.896 176.86C162.896 164.41 162.896 152.541 162.896 140.301C150.688 149.639 138.66 158.838 126.018 168.506C134.711 170.494 142.437 172.261 150.692 174.1ZM174.235 164.353C183.03 153.69 191.826 143.028 200.772 132.183C200.071 131.975 199.962 131.903 199.869 131.92C189.139 133.88 178.404 135.812 167.7 137.9C167.102 138.017 166.401 139.396 166.349 140.225C166.049 144.981 165.841 149.747 165.774 154.512C165.685 160.916 165.752 167.322 165.752 174.549C168.841 170.839 171.395 167.771 174.235 164.353ZM57.8204 107.21C57.4046 108.351 56.9889 109.492 56.2506 111.518C67.1963 104.946 77.304 98.8773 87.4903 92.7612C83.5437 81.4926 79.6861 70.4783 75.627 58.8884C69.5783 75.2831 63.7756 91.0113 57.8204 107.21ZM39.747 57.2749C36.5742 62.3481 33.4013 67.4214 30.2285 72.4947C30.343 72.6827 30.4574 72.8707 30.5719 73.0587C44.3754 67.0797 58.1788 61.1006 72.8332 54.7529C64.2651 50.6347 56.5153 46.9099 48.6218 43.116C45.6222 47.9187 42.8188 52.4073 39.747 57.2749ZM228.148 147.579C224.375 144.75 220.649 141.854 216.815 139.111C213.593 136.806 210.244 134.677 206.445 132.131C208.287 147.77 210.041 162.671 211.796 177.571C211.991 177.608 212.186 177.646 212.381 177.683C217.587 167.794 222.793 157.905 228.148 147.579Z" fill="#4285F4"/>
<path d="M197.622 73.3155C198.164 76.6315 198.842 79.9318 199.223 83.266C200.86 97.5836 202.414 111.911 203.979 126.236C204.07 127.071 203.991 127.925 203.991 129.141C198.13 130.286 192.248 131.446 186.363 132.583C180.126 133.788 173.902 135.079 167.634 136.092C165.98 136.359 163.995 136.153 162.483 135.462C150.63 130.039 138.66 124.816 127.129 118.763C120.32 115.188 114.23 110.237 107.844 105.864C102.33 102.088 96.823 98.2991 91.3888 94.4098C90.3358 93.6562 89.2477 92.5508 88.8282 91.375C84.6994 79.8021 80.7064 68.1807 76.688 56.5685C76.555 56.184 76.5621 55.7511 76.4678 55.0864C82.9627 52.2261 89.4466 49.3711 95.9301 46.5152C105.533 42.2851 115.12 38.0164 124.762 33.8742C125.898 33.3861 127.331 33.5908 128.758 33.2991C131.143 34.4787 133.396 35.8337 135.78 37.5779C141.506 41.0667 147.102 44.1662 152.844 47.4449C158.486 50.7704 163.981 53.9168 169.621 57.212C179.051 62.679 188.337 67.9973 197.622 73.3155Z" fill="#0D9D58"/>
<path d="M197.622 73.3158C198.164 76.6317 198.842 79.932 199.223 83.2663C200.86 97.5839 202.414 111.911 203.979 126.237C204.07 127.072 203.991 127.925 203.991 129.141C198.13 130.287 192.248 131.447 186.363 132.584C180.126 133.788 173.902 135.079 167.634 136.092C165.98 136.359 163.995 136.154 162.483 135.462C150.63 130.039 138.66 124.816 127.129 118.763C120.32 115.188 114.23 110.237 107.844 105.865C102.33 102.089 96.823 98.2994 91.3888 94.41C90.3358 93.6564 89.2477 92.5511 88.8282 91.3752C84.6994 79.8023 80.7064 68.1809 76.688 56.5687C76.555 56.1843 76.5621 55.7514 76.4678 55.0866C82.9627 52.2263 89.4466 49.3714 95.9301 46.5155C105.533 42.2853 115.12 38.0166 124.762 33.8744C125.898 33.3863 127.331 33.591 128.758 33.2993C131.143 34.479 133.396 35.8339 135.78 37.5781C141.506 41.0669 147.102 44.1665 152.844 47.4451C158.486 50.7707 163.981 53.9171 169.621 57.2123C179.051 62.6793 188.337 67.9975 197.622 73.3158Z" fill="#0D9D58"/>
<path d="M82.1582 152.292C82.5188 150.92 82.8238 149.802 83.3093 148.023C95.7436 155.159 107.974 162.178 119.276 168.664C100.852 187.648 82.3123 206.752 63.7724 225.857C63.4801 225.716 63.1878 225.575 62.8955 225.434C69.2979 201.138 75.7003 176.842 82.1582 152.292Z" fill="#EA3323"/>
<path d="M82.1582 152.292C82.5188 150.92 82.8238 149.802 83.3093 148.023C95.7436 155.159 107.974 162.178 119.276 168.664C100.852 187.648 82.3123 206.752 63.7724 225.857C63.4801 225.716 63.1878 225.575 62.8955 225.434C69.2979 201.138 75.7003 176.842 82.1582 152.292Z" fill="#EA3323"/>
<path d="M51.7051 187.96C44.1969 153.11 36.7327 118.525 29.2686 83.9399C29.4357 83.8505 29.6029 83.7611 29.77 83.6716C31.5393 86.1014 33.333 88.5138 35.0733 90.9642C40.1726 98.1444 45.347 105.275 50.2657 112.577C51.4194 114.29 52.1602 116.578 52.2723 118.646C52.9041 130.298 53.3036 141.964 53.7489 153.626C54.3357 168.993 54.8931 184.362 55.457 199.73C55.4873 200.553 55.4609 201.379 54.9054 202.299C53.8533 197.608 52.8012 192.916 51.7051 187.96Z" fill="#EA3323"/>
<path d="M51.7041 187.96C44.1959 153.11 36.7318 118.525 29.2676 83.9401C29.4347 83.8507 29.6019 83.7613 29.769 83.6719C31.5383 86.1017 33.332 88.5141 35.0723 90.9645C40.1716 98.1446 45.346 105.275 50.2647 112.577C51.4184 114.29 52.1592 116.578 52.2714 118.646C52.9032 130.299 53.3026 141.964 53.7479 153.626C54.3348 168.993 54.8921 184.362 55.4561 199.73C55.4863 200.554 55.46 201.379 54.9044 202.299C53.8523 197.608 52.8002 192.917 51.7041 187.96Z" fill="#EA3323"/>
<path d="M98.994 217.564C94.7361 218.912 90.7177 220.171 86.6994 221.43C86.6066 221.218 86.5137 221.006 86.4209 220.795C90.0353 218.858 93.6308 216.884 97.2672 214.99C118.693 203.826 140.113 192.65 161.593 181.589C163.249 180.736 165.383 180.277 167.235 180.42C179.265 181.345 191.278 182.488 203.394 184.07C168.674 195.205 133.954 206.34 98.994 217.564Z" fill="#EA3323"/>
<path d="M98.994 217.564C94.7361 218.912 90.7177 220.171 86.6994 221.43C86.6066 221.218 86.5137 221.006 86.4209 220.794C90.0353 218.857 93.6308 216.884 97.2672 214.99C118.693 203.826 140.113 192.649 161.593 181.589C163.249 180.735 165.383 180.277 167.235 180.42C179.265 181.345 191.278 182.488 203.394 184.07C168.674 195.205 133.954 206.34 98.994 217.564Z" fill="#EA3323"/>
<path d="M113.647 124.491C103.821 130.718 94.1884 136.821 84.1045 143.209C86.097 127.109 88.014 111.62 89.9909 95.646C101.017 103.253 111.784 110.681 123.089 118.481C119.79 120.58 116.816 122.473 113.647 124.491Z" fill="#FFC727"/>
<path d="M113.648 124.491C103.822 130.718 94.1894 136.821 84.1055 143.209C86.098 127.109 88.015 111.62 89.9919 95.6462C101.018 103.253 111.785 110.682 123.09 118.481C119.791 120.581 116.816 122.474 113.648 124.491Z" fill="#FFC727"/>
<path d="M125.537 145.241C125.928 137.025 126.297 129.113 126.695 120.577C138.753 126.244 150.281 131.661 162.368 137.341C149.646 147.063 137.264 156.526 124.352 166.393C124.76 159.078 125.137 152.312 125.537 145.241Z" fill="#FFC727"/>
<path d="M125.538 145.242C125.929 137.025 126.298 129.113 126.696 120.577C138.754 126.244 150.282 131.662 162.369 137.342C149.647 147.064 137.265 156.526 124.353 166.394C124.761 159.078 125.138 152.312 125.538 145.242Z" fill="#FFC727"/>
<path d="M82.883 131.264C82.4009 135.107 81.9327 138.664 81.3816 142.851C72.6946 133.465 64.3229 124.421 55.6318 115.031C66.1594 108.683 76.3771 102.522 87.2196 95.9844C85.7299 108.045 84.3134 119.512 82.883 131.264Z" fill="#EA3323"/>
<path d="M82.883 131.264C82.4009 135.107 81.9327 138.664 81.3816 142.851C72.6946 133.466 64.3229 124.421 55.6318 115.032C66.1594 108.684 76.3771 102.523 87.2196 95.9849C85.7299 108.045 84.3134 119.512 82.883 131.264Z" fill="#EA3323"/>
<path d="M150.428 174.064C142.437 172.26 134.711 170.494 126.019 168.506C138.66 158.838 150.688 149.638 162.897 140.301C162.897 152.54 162.897 164.41 162.897 176.86C158.441 175.852 154.567 174.976 150.428 174.064Z" fill="#EA3323"/>
<path d="M150.428 174.064C142.437 172.261 134.711 170.494 126.019 168.507C138.66 158.838 150.688 149.639 162.897 140.301C162.897 152.541 162.897 164.41 162.897 176.86C158.441 175.852 154.567 174.976 150.428 174.064Z" fill="#EA3323"/>
<path d="M174.093 164.528C171.396 167.771 168.842 170.838 165.753 174.548C165.753 167.322 165.685 160.916 165.775 154.512C165.842 149.747 166.05 144.981 166.35 140.225C166.402 139.396 167.103 138.017 167.701 137.9C178.405 135.812 189.14 133.879 199.869 131.92C199.962 131.903 200.072 131.975 200.773 132.183C191.826 143.028 183.031 153.69 174.093 164.528Z" fill="#FFC727"/>
<path d="M174.092 164.528C171.395 167.771 168.841 170.839 165.752 174.549C165.752 167.322 165.684 160.916 165.774 154.512C165.841 149.747 166.049 144.981 166.349 140.225C166.401 139.396 167.102 138.017 167.7 137.9C178.404 135.812 189.139 133.88 199.868 131.92C199.962 131.903 200.071 131.975 200.772 132.184C191.826 143.028 183.03 153.691 174.092 164.528Z" fill="#FFC727"/>
<path d="M57.897 106.975C63.776 91.0113 69.5787 75.2831 75.6274 58.8884C79.6865 70.4783 83.5441 81.4926 87.4907 92.7611C77.3044 98.8773 67.1967 104.946 56.251 111.518C56.9893 109.492 57.405 108.351 57.897 106.975Z" fill="#FFC727"/>
<path d="M57.898 106.974C63.777 91.0108 69.5797 75.2826 75.6284 58.8879C79.6875 70.4778 83.5451 81.4921 87.4917 92.7607C77.3054 98.8768 67.1977 104.946 56.252 111.518C56.9903 109.491 57.406 108.35 57.898 106.974Z" fill="#FFC727"/>
<path d="M39.8822 57.0854C42.8198 52.4073 45.6232 47.9187 48.6228 43.116C56.5163 46.9099 64.2661 50.6347 72.8342 54.7529C58.1798 61.1006 44.3764 67.0796 30.5729 73.0587C30.4584 72.8707 30.344 72.6826 30.2295 72.4946C33.4023 67.4214 36.5752 62.3481 39.8822 57.0854Z" fill="#FFC727"/>
<path d="M39.8812 57.0854C42.8188 52.4073 45.6222 47.9187 48.6219 43.116C56.5153 46.9099 64.2651 50.6347 72.8332 54.7529C58.1788 61.1006 44.3754 67.0796 30.5719 73.0587C30.4575 72.8707 30.343 72.6826 30.2285 72.4946C33.4014 67.4214 36.5742 62.3481 39.8812 57.0854Z" fill="#FFC727"/>
<path d="M228.074 147.797C222.794 157.905 217.588 167.794 212.382 177.682C212.187 177.645 211.992 177.608 211.797 177.571C210.042 162.67 208.288 147.769 206.446 132.131C210.245 134.677 213.594 136.805 216.816 139.111C220.65 141.854 224.376 144.749 228.074 147.797Z" fill="#FFC727"/>
<path d="M228.073 147.797C222.793 157.904 217.587 167.793 212.381 177.682C212.186 177.645 211.991 177.608 211.796 177.571C210.041 162.67 208.287 147.769 206.445 132.131C210.244 134.676 213.593 136.805 216.815 139.111C220.649 141.854 224.375 144.749 228.073 147.797Z" fill="#FFC727"/>
</g>
<defs>
<clipPath id="clip0_25_1709">
<rect width="255" height="255" fill="white"/>
</clipPath>
</defs>
</svg>
