<svg width="72" height="56" viewBox="0 0 72 56" fill="none" xmlns="http://www.w3.org/2000/svg">
<path d="M1 33.8048C1 25.94 7.00555 19.3769 14.8395 18.6806L25.9878 17.6896C32.4592 17.1144 38.9689 17.1144 45.4403 17.6896L56.58 18.6798C64.4188 19.3766 70.4281 25.9438 70.4281 33.8135V33.8135C70.4281 39.4898 67.2639 44.6927 62.2238 47.3039L57.8626 49.5633C51.4107 52.9058 43.4724 50.9598 39.2823 45.0233V45.0233C37.5472 42.565 33.8946 42.5649 32.1682 45.0293V45.0293C28.0087 50.9669 20.1004 52.9152 13.6588 49.5893L9.21795 47.2965C4.17062 44.6905 1 39.4852 1 33.8048V33.8048Z" stroke="#FF4883" stroke-width="1.64778"/>
<circle cx="23.4837" cy="37.3175" r="4.6097" stroke="#FF4883" stroke-width="1.64778"/>
<circle cx="47.9417" cy="37.3175" r="4.6097" stroke="#FF4883" stroke-width="1.64778"/>
<path d="M7.94043 21.057C12.569 7.17138 24.9117 1 35.7117 1C46.5116 1 58.8544 7.17138 63.4829 21.057" stroke="#FF4883" stroke-width="1.64778" stroke-linecap="round"/>
<path d="M35.7128 32.6678C35.2868 32.6678 34.9414 32.3225 34.9414 31.8964C34.9414 31.4704 35.2868 31.125 35.7128 31.125" stroke="#FF4883" stroke-width="1.64778"/>
<path d="M35.71 32.6678C36.136 32.6678 36.4814 32.3225 36.4814 31.8964C36.4814 31.4704 36.136 31.125 35.71 31.125" stroke="#FF4883" stroke-width="1.64778"/>
</svg>
