<svg width="46" height="72" viewBox="0 0 46 72" fill="none" xmlns="http://www.w3.org/2000/svg">
<path fill-rule="evenodd" clip-rule="evenodd" d="M21.6677 2.12021L1.11761 34.8244C0.870706 35.0258 0.702362 35.3007 0.629765 35.6008L0 36.603L23 49.9132L46 36.603L24.3323 2.12022C24.2686 1.96355 24.1781 1.82066 24.0665 1.69723L23 0L21.9335 1.69723C21.8219 1.82066 21.7314 1.96355 21.6677 2.12021ZM21.5625 7.69136L6.003 32.4533L21.5625 25.0465V7.69136ZM21.5625 28.2306L4.94318 36.1419L21.5625 45.7596V28.2306ZM24.4375 45.7596V28.2655L40.7779 36.3033L24.4375 45.7596ZM24.4375 25.0615V7.69136L40.2352 32.8324L24.4375 25.0615ZM22.8349 53.8096L0 40.5949L23 71.8739L46 40.5949L23.1651 53.8096C23.111 53.8034 23.0558 53.8002 23 53.8002C22.9442 53.8002 22.889 53.8034 22.8349 53.8096ZM21.5625 56.3949L10.4638 49.9721L21.5625 65.0658V56.3949ZM24.4375 65.0658L35.5362 49.9721L24.4375 56.3949V65.0658Z" fill="url(#paint0_linear_25_2589)"/>
<defs>
<linearGradient id="paint0_linear_25_2589" x1="23" y1="0" x2="23" y2="71.8739" gradientUnits="userSpaceOnUse">
<stop stop-color="#E00101"/>
<stop offset="1" stop-color="#E5D201"/>
</linearGradient>
</defs>
</svg>
