<svg width="84" height="84" viewBox="0 0 84 84" fill="none" xmlns="http://www.w3.org/2000/svg">
<path d="M62.2923 36.0397C62.2923 44.5594 55.3927 51.466 46.8815 51.466C38.3704 51.466 31.4707 44.5594 31.4707 36.0397C31.4707 27.5199 38.3704 20.6133 46.8815 20.6133C55.3927 20.6133 62.2923 27.5199 62.2923 36.0397Z" fill="#F7F7F7" stroke="black" stroke-width="4"/>
<ellipse cx="37.0749" cy="48.6612" rx="15.4108" ry="15.4264" fill="white" stroke="black" stroke-width="4"/>
<path d="M37.1183 58.478C36.7288 58.478 36.3997 58.3407 36.1311 58.066C35.8625 57.7913 35.7282 57.4479 35.7282 57.0359V55.5114L36.3326 56.0676C35.4327 56.0264 34.6538 55.9097 33.9957 55.7174C33.3376 55.5251 32.8003 55.3328 32.384 55.1405C32.0348 54.9757 31.7863 54.7422 31.6386 54.4401C31.5043 54.1379 31.4506 53.8289 31.4774 53.513C31.5177 53.1971 31.6319 52.9087 31.8199 52.6477C32.0079 52.3868 32.2497 52.2151 32.5452 52.1327C32.8541 52.0365 33.21 52.0777 33.6129 52.2563C33.8815 52.4074 34.2844 52.5653 34.8216 52.7301C35.3723 52.8812 36.0505 52.9567 36.8564 52.9567C37.4205 52.9567 37.8637 52.9018 38.186 52.7919C38.5218 52.6821 38.7568 52.5378 38.8911 52.3593C39.0389 52.167 39.1127 51.961 39.1127 51.7412C39.1127 51.5352 39.059 51.3635 38.9516 51.2262C38.8576 51.0751 38.6964 50.9446 38.4681 50.8348C38.2397 50.7111 37.9241 50.6013 37.5212 50.5051L35.2447 50.0107C33.9957 49.7223 33.0622 49.2415 32.4444 48.5686C31.84 47.8818 31.5379 46.9959 31.5379 45.9109C31.5379 45.0868 31.7326 44.352 32.1221 43.7065C32.525 43.0473 33.0824 42.5116 33.7942 42.0996C34.5195 41.6875 35.3656 41.4266 36.3326 41.3167L35.7282 41.6669V40.2866C35.7282 39.8746 35.8625 39.5312 36.1311 39.2565C36.3997 38.9818 36.7288 38.8445 37.1183 38.8445C37.5212 38.8445 37.857 38.9818 38.1256 39.2565C38.3942 39.5312 38.5285 39.8746 38.5285 40.2866V41.6669L37.9241 41.2755C38.4345 41.2892 38.9851 41.3785 39.5761 41.5433C40.167 41.6944 40.6841 41.9073 41.1273 42.182C41.4362 42.3468 41.6511 42.5734 41.772 42.8618C41.9063 43.1503 41.9533 43.4456 41.913 43.7477C41.8862 44.0361 41.7787 44.2971 41.5907 44.5306C41.4161 44.7641 41.1743 44.922 40.8654 45.0044C40.57 45.0731 40.214 45.0182 39.7977 44.8396C39.4888 44.7023 39.1396 44.5924 38.7501 44.51C38.3741 44.4138 37.8905 44.3658 37.2996 44.3658C36.5878 44.3658 36.0371 44.4963 35.6476 44.7572C35.2716 45.0182 35.0835 45.3547 35.0835 45.7667C35.0835 46.0414 35.191 46.2749 35.4059 46.4672C35.6342 46.6457 36.0438 46.8037 36.6348 46.941L38.9314 47.4561C40.2073 47.7445 41.1475 48.2252 41.7519 48.8982C42.3697 49.5574 42.6786 50.4159 42.6786 51.4734C42.6786 52.2975 42.4838 53.0254 42.0943 53.6572C41.7048 54.289 41.1609 54.804 40.4625 55.2023C39.7776 55.6007 38.9784 55.8616 38.0651 55.9852L38.5285 55.4908V57.0359C38.5285 57.4479 38.3942 57.7913 38.1256 58.066C37.8704 58.3407 37.5346 58.478 37.1183 58.478Z" fill="black"/>
<path d="M26.5795 19.2235C27.3602 18.4421 27.3602 17.1751 26.5795 16.3937C25.7989 15.6122 24.5332 15.6122 23.7525 16.3937L26.5795 19.2235ZM10.5582 30.4302C10.5582 31.5353 11.4532 32.4312 12.5572 32.4312L30.5481 32.4312C31.6521 32.4312 32.5471 31.5353 32.5471 30.4302C32.5471 29.325 31.6521 28.4292 30.5481 28.4292H14.5562V12.4211C14.5562 11.316 13.6612 10.4201 12.5572 10.4201C11.4532 10.4201 10.5582 11.316 10.5582 12.4211L10.5582 30.4302ZM23.7525 16.3937L11.1437 29.0152L13.9707 31.8451L26.5795 19.2235L23.7525 16.3937Z" fill="#693DF8"/>
<path d="M58.0767 64.7765C57.2961 65.5579 57.2961 66.8249 58.0767 67.6063C58.8574 68.3878 60.1231 68.3878 60.9037 67.6063L58.0767 64.7765ZM74.0981 53.5698C74.0981 52.4647 73.2031 51.5688 72.0991 51.5688L54.1082 51.5688C53.0042 51.5688 52.1092 52.4647 52.1092 53.5698C52.1092 54.675 53.0042 55.5708 54.1082 55.5708H70.1001V71.5789C70.1001 72.684 70.9951 73.5799 72.0991 73.5799C73.2031 73.5799 74.0981 72.684 74.0981 71.5789L74.0981 53.5698ZM60.9037 67.6063L73.5126 54.9848L70.6856 52.1549L58.0767 64.7765L60.9037 67.6063Z" fill="#693DF8"/>
</svg>
