<svg width="38" height="63" viewBox="0 0 38 63" fill="none" xmlns="http://www.w3.org/2000/svg">
<path d="M26.4166 57.829L27.0344 59.1959L26.4166 57.829ZM19.6782 60.8747L20.296 62.2415H20.296L19.6782 60.8747ZM18.5284 60.8747L17.9106 62.2415H17.9106L18.5284 60.8747ZM11.79 57.829L11.1722 59.1959L11.79 57.829ZM26.5077 46.0692L25.5385 47.2141L26.5077 46.0692ZM16.4033 48.092C15.5749 48.092 14.9033 48.7636 14.9033 49.592C14.9033 50.4205 15.5749 51.092 16.4033 51.092V48.092ZM14.4118 53.5825C15.2403 53.5825 15.9118 52.9109 15.9118 52.0825C15.9118 51.2541 15.2403 50.5825 14.4118 50.5825V53.5825ZM19.2246 53.0707C18.3961 53.0707 17.7246 53.7423 17.7246 54.5707C17.7246 55.3991 18.3961 56.0707 19.2246 56.0707V53.0707ZM20.0762 16.383C20.9047 16.383 21.5762 15.7114 21.5762 14.883C21.5762 14.0545 20.9047 13.383 20.0762 13.383V16.383ZM18.7519 44.8125C18.7519 45.6409 19.4235 46.3125 20.2519 46.3125C21.0804 46.3125 21.7519 45.6409 21.7519 44.8125H18.7519ZM20.2519 31.5468L20.2445 30.0468L20.2519 31.5468ZM20.2519 28.0744L20.2445 29.5744L20.2519 28.0744ZM20.2519 24.9511L20.2625 26.4511L20.2519 24.9511ZM20.2519 38.1427H21.7519C21.7519 37.3143 21.0804 36.6427 20.2519 36.6427V38.1427ZM3.5 19.1033C3.5 10.4858 10.4858 3.5 19.1033 3.5V0.5C8.82897 0.5 0.5 8.82897 0.5 19.1033H3.5ZM19.1033 3.5C27.7207 3.5 34.7065 10.4858 34.7065 19.1033H37.7065C37.7065 8.82897 29.3776 0.5 19.1033 0.5V3.5ZM9.68892 34.6899C9.68892 31.3202 7.8401 28.6302 6.35363 26.3341C4.78712 23.9143 3.5 21.787 3.5 19.1033H0.5C0.5 22.783 2.30734 25.6042 3.83529 27.9644C5.44328 30.4482 6.68892 32.3699 6.68892 34.6899H9.68892ZM34.7065 19.1033C34.7065 21.7924 33.4136 23.974 31.849 26.4166C30.3729 28.721 28.5176 31.4203 28.5176 34.6899H31.5176C31.5176 32.4737 32.7568 30.5613 34.3751 28.0348C35.905 25.6464 37.7065 22.7776 37.7065 19.1033H34.7065ZM25.7988 56.4622L19.0604 59.5078L20.296 62.2415L27.0344 59.1959L25.7988 56.4622ZM19.1462 59.5078L12.4078 56.4622L11.1722 59.1959L17.9106 62.2415L19.1462 59.5078ZM19.0604 59.5078C19.0669 59.5048 19.0823 59.5 19.1033 59.5C19.1243 59.5 19.1396 59.5048 19.1462 59.5078L17.9106 62.2415C18.673 62.5862 19.5335 62.5862 20.296 62.2415L19.0604 59.5078ZM9.28331 56.1224C9.28331 57.3678 9.94356 58.6406 11.1722 59.1959L12.4078 56.4622C12.4166 56.4662 12.3878 56.4561 12.351 56.3938C12.3144 56.3317 12.2833 56.2376 12.2833 56.1224H9.28331ZM25.9232 56.1224C25.9232 56.2376 25.8922 56.3317 25.8555 56.3938C25.8188 56.4561 25.7899 56.4662 25.7988 56.4622L27.0344 59.1959C28.263 58.6406 28.9232 57.3678 28.9232 56.1224H25.9232ZM24.8388 43.9582H13.3677V46.9582H24.8388V43.9582ZM24.8388 46.9582C25.107 46.9582 25.349 47.0536 25.5385 47.2141L27.4769 44.9244C26.766 44.3225 25.843 43.9582 24.8388 43.9582V46.9582ZM25.5385 47.2141C25.7762 47.4153 25.9232 47.711 25.9232 48.0426H28.9232C28.9232 46.7918 28.3592 45.6713 27.4769 44.9244L25.5385 47.2141ZM28.5176 34.6899C28.5176 40.0231 27.1702 43.2027 25.4227 45.0335L27.5928 47.1049C30.048 44.5327 31.5176 40.4971 31.5176 34.6899H28.5176ZM12.2833 48.0426C12.2833 47.7111 12.4302 47.4154 12.6679 47.2142L10.7291 44.9248C9.84715 45.6717 9.28331 46.792 9.28331 48.0426H12.2833ZM12.6679 47.2142C12.8575 47.0536 13.0995 46.9582 13.3677 46.9582V43.9582C12.3633 43.9582 11.4402 44.3226 10.7291 44.9248L12.6679 47.2142ZM12.7836 45.0338C11.0362 43.203 9.68892 40.0234 9.68892 34.6899H6.68892C6.68892 40.4973 8.15835 44.5329 10.6134 47.1051L12.7836 45.0338ZM25.9232 48.0426V49.592H28.9232V48.0426H25.9232ZM27.4232 48.092H16.4033V51.092H27.4232V48.092ZM12.2833 56.1224V52.0825H9.28331V56.1224H12.2833ZM12.2833 52.0825V48.0426H9.28331V52.0825H12.2833ZM10.7833 53.5825H14.4118V50.5825H10.7833V53.5825ZM25.9232 49.592V54.5707H28.9232V49.592H25.9232ZM25.9232 54.5707V56.1224H28.9232V54.5707H25.9232ZM27.4232 53.0707H19.2246V56.0707H27.4232V53.0707ZM13.6137 19.9173C13.6137 19.2225 14.0624 18.3746 15.2475 17.6253C16.4136 16.888 18.1168 16.383 20.0762 16.383V13.383C17.6381 13.383 15.36 14.0048 13.6443 15.0896C11.9475 16.1625 10.6137 17.8317 10.6137 19.9173H13.6137ZM20.0762 36.6427C18.1168 36.6427 16.4136 36.1377 15.2475 35.4004C14.0624 34.6511 13.6137 33.8032 13.6137 33.1084H10.6137C10.6137 35.194 11.9475 36.8633 13.6443 37.9361C15.36 39.0209 17.6381 39.6427 20.0762 39.6427V36.6427ZM20.0762 22.9785C21.2297 22.9785 22.6133 23.065 23.6675 23.2936C24.2074 23.4108 24.5463 23.5417 24.7141 23.6432C24.8926 23.7512 24.5928 23.6327 24.5928 23.2151H27.5928C27.5928 22.1054 26.8413 21.4238 26.267 21.0764C25.6821 20.7226 24.9674 20.5058 24.3035 20.3618C22.95 20.0682 21.3254 19.9785 20.0762 19.9785V22.9785ZM13.6137 26.5129C13.6137 25.8797 13.9798 25.1293 14.943 24.4274L13.1763 22.0028C11.715 23.0676 10.6137 24.6232 10.6137 26.5129H13.6137ZM14.943 24.4274C16.1007 23.5838 17.9295 22.9785 20.0762 22.9785V19.9785C17.4178 19.9785 14.9385 20.7187 13.1763 22.0028L14.943 24.4274ZM20.0762 23.4517C17.9295 23.4517 16.1007 22.8464 14.943 22.0028L13.1763 24.4274C14.9385 25.7115 17.4178 26.4517 20.0762 26.4517V23.4517ZM14.943 22.0028C13.9798 21.3009 13.6137 20.5505 13.6137 19.9173H10.6137C10.6137 21.807 11.715 23.3626 13.1763 24.4274L14.943 22.0028ZM13.6137 33.1084C13.6137 32.4753 13.9798 31.7248 14.943 31.0229L13.1763 28.5983C11.715 29.6631 10.6137 31.2188 10.6137 33.1084H13.6137ZM14.943 31.0229C16.1007 30.1793 17.9295 29.574 20.0762 29.574V26.574C17.4178 26.574 14.9385 27.3142 13.1763 28.5983L14.943 31.0229ZM20.0762 30.0472C17.9295 30.0472 16.1007 29.4419 14.943 28.5983L13.1763 31.0229C14.9385 32.307 17.4178 33.0472 20.0762 33.0472V30.0472ZM14.943 28.5983C13.9798 27.8964 13.6137 27.146 13.6137 26.5129H10.6137C10.6137 28.4025 11.715 29.9581 13.1763 31.0229L14.943 28.5983ZM24.5928 29.8106C24.5928 29.4748 24.8269 29.3577 24.7094 29.4329C24.5711 29.5213 24.2693 29.6452 23.7561 29.7558C22.7533 29.9718 21.4203 30.041 20.2445 30.0468L20.2593 33.0468C21.4825 33.0408 23.07 32.9724 24.3878 32.6885C25.035 32.5491 25.7437 32.3325 26.3257 31.9603C26.9285 31.5748 27.5928 30.8769 27.5928 29.8106H24.5928ZM20.2445 30.0468C20.1879 30.0471 20.1318 30.0472 20.0762 30.0472V33.0472C20.1365 33.0472 20.1975 33.0471 20.2593 33.0468L20.2445 30.0468ZM20.0762 29.574C20.1318 29.574 20.1879 29.5741 20.2445 29.5744L20.2593 26.5744C20.1975 26.5741 20.1365 26.574 20.0762 26.574V29.574ZM20.2445 29.5744C21.4203 29.5802 22.7533 29.6494 23.7561 29.8654C24.2693 29.976 24.5711 30.0999 24.7094 30.1883C24.8269 30.2635 24.5928 30.1464 24.5928 29.8106H27.5928C27.5928 28.7443 26.9285 28.0464 26.3257 27.6609C25.7437 27.2888 25.035 27.0721 24.3878 26.9327C23.07 26.6488 21.4825 26.5805 20.2593 26.5744L20.2445 29.5744ZM24.5928 23.2151C24.5928 22.8087 24.8791 22.6841 24.7235 22.7813C24.5724 22.8755 24.2568 23.0033 23.7404 23.1204C22.7322 23.3489 21.3946 23.443 20.2413 23.4511L20.2625 26.4511C21.5081 26.4423 23.091 26.3437 24.4036 26.0462C25.0475 25.9002 25.7423 25.6816 26.3116 25.3264C26.8763 24.9741 27.5928 24.2969 27.5928 23.2151H24.5928ZM20.2413 23.4511C20.1856 23.4515 20.1306 23.4517 20.0762 23.4517V26.4517C20.1377 26.4517 20.1998 26.4515 20.2625 26.4511L20.2413 23.4511ZM21.7519 44.8125V38.1427H18.7519V44.8125H21.7519ZM20.0762 39.6427H20.2519V36.6427H20.0762V39.6427Z" fill="#01AFE1"/>
</svg>
