<svg width="450" height="377" viewBox="0 0 450 377" fill="none" xmlns="http://www.w3.org/2000/svg">
<g opacity="0.21">
<path d="M330.118 214.106C330.017 214.106 329.916 214.08 329.824 214.028C329.546 213.874 329.42 213.548 329.529 213.248L340.274 182.456C340.383 182.156 340.686 181.976 340.997 182.044C341.309 182.113 341.519 182.396 341.502 182.722L340.299 200.527C340.291 200.647 340.249 200.767 340.173 200.87L330.631 213.865C330.505 214.011 330.312 214.106 330.118 214.106ZM339.929 187.291L332.112 209.673L339.045 200.227L339.929 187.291Z" fill="white"/>
<path d="M329.664 238.58C329.639 238.58 329.605 238.58 329.58 238.571C329.268 238.529 329.033 238.246 329.033 237.928C329.159 228.704 329.243 223.595 329.496 213.445C329.496 213.308 329.546 213.18 329.622 213.077L339.163 200.081C339.348 199.832 339.668 199.755 339.946 199.892C340.215 200.029 340.358 200.338 340.274 200.638L330.27 238.108C330.194 238.391 329.942 238.58 329.664 238.58ZM330.749 213.685C330.556 221.692 330.463 226.553 330.362 232.854L338.187 203.553L330.749 213.685Z" fill="white"/>
<path d="M330.127 214.106C330.11 214.106 330.093 214.106 330.076 214.106C329.79 214.08 329.554 213.865 329.504 213.583L328.73 209.339C327.224 201.092 326.231 195.64 324.43 186.151C324.397 185.979 324.43 185.808 324.531 185.671C324.632 185.533 324.767 185.431 324.935 185.396C326.551 185.079 328.191 184.788 329.79 184.496C334.216 183.69 338.398 182.936 340.652 182.062C340.88 181.976 341.14 182.027 341.317 182.207C341.494 182.379 341.553 182.644 341.469 182.884L330.724 213.677C330.623 213.934 330.387 214.106 330.127 214.106ZM325.793 186.545C327.518 195.649 328.503 201.041 329.975 209.108L330.32 210.994L339.853 183.69C337.405 184.428 333.795 185.079 330.017 185.765C328.621 186.013 327.199 186.271 325.793 186.545Z" fill="white"/>
<path d="M329.664 238.58C329.344 238.58 329.075 238.331 329.033 238.006C326.921 218.426 326.029 207.873 324.422 186.073C324.397 185.731 324.632 185.431 324.969 185.388C325.297 185.345 325.608 185.568 325.676 185.902C327.476 195.4 328.469 200.844 329.975 209.099L330.749 213.343C330.758 213.385 330.758 213.428 330.758 213.48C330.505 223.63 330.421 228.73 330.295 237.954C330.286 238.297 330.026 238.571 329.698 238.589C329.681 238.58 329.672 238.58 329.664 238.58ZM326.534 197.381C327.401 208.611 328.133 217.054 329.184 227.427C329.26 223.295 329.344 219.189 329.487 213.514L328.73 209.339C327.922 204.899 327.257 201.264 326.534 197.381Z" fill="white"/>
<path d="M329.664 238.58C329.521 238.58 329.386 238.529 329.268 238.443C325.726 235.554 323.715 234.105 319.003 231.07C318.793 230.933 318.684 230.685 318.717 230.436C320.366 218.323 321.376 210.256 322.655 200.055C323.185 195.838 323.757 191.277 324.43 185.953C324.472 185.628 324.75 185.362 325.07 185.396C325.39 185.405 325.659 185.662 325.684 185.988C327.291 207.762 328.183 218.315 330.295 237.877C330.32 238.134 330.194 238.383 329.975 238.511C329.874 238.554 329.765 238.58 329.664 238.58ZM320.021 230.205C324.001 232.776 326.046 234.217 328.873 236.48C327.081 219.798 326.189 209.579 324.893 192.357C324.54 195.152 324.22 197.741 323.909 200.218C322.638 210.308 321.637 218.315 320.021 230.205Z" fill="white"/>
<path d="M314.485 263.492C314.401 263.492 314.308 263.474 314.224 263.432C313.963 263.312 313.812 263.02 313.862 262.729C315.941 251.044 316.841 244.589 318.709 230.428C318.734 230.213 318.869 230.025 319.071 229.93C319.264 229.836 319.491 229.853 319.677 229.973C324.439 233.042 326.475 234.499 330.059 237.431C330.286 237.62 330.362 237.937 330.236 238.203C325.406 248.91 322.268 254.062 314.973 263.252C314.855 263.414 314.67 263.492 314.485 263.492ZM319.828 231.602C318.179 244.083 317.279 250.53 315.537 260.466C321.578 252.682 324.565 247.624 328.873 238.117C325.785 235.614 323.799 234.182 319.828 231.602Z" fill="white"/>
<path d="M319.34 231.165C319.197 231.165 319.062 231.122 318.953 231.028C314.25 227.256 311.658 225.353 305.777 221.341C305.491 221.144 305.406 220.749 305.6 220.449C314.165 207.247 318.044 200.115 324.481 185.756C324.607 185.465 324.927 185.319 325.23 185.405C325.533 185.49 325.726 185.791 325.684 186.108C325.011 191.431 324.439 195.992 323.909 200.209C322.63 210.419 321.62 218.486 319.971 230.608C319.937 230.839 319.794 231.028 319.584 231.113C319.5 231.148 319.416 231.165 319.34 231.165ZM306.997 220.629C312.197 224.178 314.788 226.073 318.869 229.33C320.434 217.826 321.418 209.948 322.655 200.055C323.042 196.978 323.446 193.72 323.9 190.111C318.482 201.924 314.578 208.911 306.997 220.629Z" fill="white"/>
<path d="M314.485 263.492C314.191 263.492 313.93 263.286 313.871 262.986C310.497 247.538 308.814 238.743 305.499 220.921C305.449 220.663 305.558 220.406 305.768 220.261C305.979 220.115 306.256 220.115 306.467 220.261C312.382 224.29 314.99 226.201 319.727 230.007C319.904 230.145 319.988 230.376 319.963 230.599C318.086 244.786 317.186 251.25 315.108 262.952C315.057 263.252 314.796 263.474 314.502 263.483C314.494 263.492 314.485 263.492 314.485 263.492ZM307.022 222.198C309.925 237.791 311.582 246.432 314.418 259.574C316.101 249.87 317.001 243.398 318.667 230.805C314.477 227.453 311.936 225.567 307.022 222.198Z" fill="white"/>
<path d="M287.123 268.987C286.921 268.987 286.736 268.892 286.61 268.721C286.467 268.524 286.45 268.266 286.559 268.044C294.99 251.396 298.86 241.135 305.524 220.603C305.617 220.329 305.878 220.149 306.164 220.166C306.45 220.183 306.685 220.398 306.744 220.689C310.051 238.494 311.734 247.281 315.108 262.711C315.183 263.054 314.973 263.397 314.637 263.474C305.549 265.609 299.735 266.843 287.232 268.969C287.19 268.987 287.157 268.987 287.123 268.987ZM305.953 223.364C300.139 241.169 296.117 251.85 288.259 267.495C299.609 265.549 305.314 264.34 313.736 262.369C310.606 248.01 308.932 239.351 305.953 223.364Z" fill="white"/>
<path d="M291.995 285.223C291.927 285.223 291.868 285.214 291.801 285.189C291.608 285.129 291.456 284.974 291.397 284.786C289.47 279.008 288.511 275.819 286.509 268.515C286.458 268.335 286.492 268.155 286.584 268.001C286.677 267.846 286.837 267.744 287.014 267.709C299.475 265.592 305.28 264.357 314.342 262.223C314.603 262.163 314.872 262.274 315.015 262.506C315.158 262.737 315.141 263.037 314.973 263.252C307.199 273.05 302.344 277.739 292.365 285.094C292.255 285.18 292.129 285.223 291.995 285.223ZM287.914 268.858C289.689 275.305 290.632 278.485 292.314 283.551C301.225 276.933 305.97 272.407 312.828 263.903C304.885 265.746 299.113 266.946 287.914 268.858Z" fill="white"/>
<path d="M325.053 186.674C324.902 186.674 324.759 186.622 324.649 186.519C324.506 186.391 324.422 186.211 324.422 186.013C324.649 173.592 324.817 167.248 325.28 155.161C325.289 154.87 325.491 154.63 325.768 154.561C326.046 154.492 326.332 154.621 326.467 154.878L341.427 182.353C341.519 182.516 341.527 182.713 341.469 182.884C341.41 183.056 341.275 183.202 341.098 183.262C338.743 184.179 334.502 184.942 330.009 185.756C328.419 186.048 326.786 186.339 325.171 186.656C325.129 186.674 325.095 186.674 325.053 186.674ZM326.45 157.51C326.063 167.9 325.894 174.149 325.692 185.25C327.064 184.993 328.435 184.736 329.782 184.496C333.787 183.767 337.598 183.082 339.954 182.31L326.45 157.51Z" fill="white"/>
<path d="M340.871 183.305C340.644 183.305 340.434 183.185 340.316 182.97L325.356 155.495C325.204 155.221 325.272 154.87 325.516 154.672C325.76 154.475 326.113 154.492 326.332 154.707L338.734 166.554C338.835 166.648 338.902 166.777 338.928 166.914L341.485 182.542C341.536 182.85 341.359 183.15 341.073 183.253C341.014 183.296 340.939 183.305 340.871 183.305ZM328.41 158.461L339.643 179.087L337.724 167.36L328.41 158.461Z" fill="white"/>
<path d="M325.053 186.674C324.834 186.674 324.624 186.554 324.506 186.356C318.044 174.981 313.989 169.169 304.759 158.119C304.607 157.939 304.565 157.681 304.658 157.458C304.742 157.236 304.944 157.081 305.179 157.056C315.057 156.053 319.298 155.538 325.819 154.544C326.012 154.518 326.189 154.57 326.332 154.698C326.475 154.827 326.551 155.007 326.542 155.204C326.088 167.291 325.911 173.626 325.684 186.031C325.676 186.322 325.482 186.571 325.213 186.639C325.154 186.665 325.104 186.674 325.053 186.674ZM306.492 158.221C314.704 168.106 318.759 173.849 324.456 183.725C324.658 173.026 324.834 166.777 325.238 155.941C319.374 156.824 315.183 157.33 306.492 158.221Z" fill="white"/>
<path d="M306.122 221.452C306.063 221.452 306.004 221.444 305.945 221.426C305.684 221.349 305.499 221.101 305.491 220.826C304.935 195.417 304.775 181.41 304.607 157.707C304.607 157.433 304.767 157.193 305.019 157.098C305.263 157.004 305.549 157.081 305.718 157.287C315.007 168.406 319.096 174.252 325.6 185.713C325.701 185.893 325.709 186.116 325.625 186.305C319.155 200.741 315.259 207.908 306.643 221.169C306.526 221.349 306.332 221.452 306.122 221.452ZM305.878 159.464C306.038 181.461 306.197 195.237 306.702 218.726C314.451 206.69 318.263 199.584 324.338 186.056C318.246 175.341 314.25 169.571 305.878 159.464Z" fill="white"/>
<path d="M305.238 158.341C305.003 158.341 304.792 158.213 304.683 157.999C304.565 157.767 304.59 157.484 304.759 157.287C313.905 146.237 318.061 140.734 324.977 130.498C325.137 130.266 325.415 130.164 325.684 130.249C325.945 130.327 326.13 130.575 326.13 130.858C326.265 140.271 326.332 145.243 326.542 155.178C326.551 155.504 326.315 155.778 326.004 155.83C319.458 156.824 315.2 157.347 305.305 158.35C305.28 158.341 305.255 158.341 305.238 158.341ZM324.893 132.881C318.844 141.762 314.729 147.197 306.727 156.901C315.251 156.027 319.399 155.521 325.272 154.63C325.078 145.783 325.003 140.879 324.893 132.881Z" fill="white"/>
<path d="M287.123 268.987C287.014 268.987 286.896 268.952 286.803 268.892C281.174 265.48 278.053 263.603 272.474 260.26L271.103 259.437C270.926 259.334 270.817 259.145 270.792 258.94C270.775 258.734 270.85 258.528 271.002 258.4C286.298 244.829 293.745 236.668 305.617 220.432C305.802 220.183 306.138 220.098 306.416 220.243C306.694 220.389 306.82 220.715 306.727 221.015C300.341 240.706 296.286 251.679 287.687 268.644C287.611 268.798 287.468 268.918 287.3 268.969C287.241 268.978 287.182 268.987 287.123 268.987ZM272.483 258.777L273.105 259.154C278.49 262.386 281.587 264.246 286.862 267.444C294.561 252.176 298.431 242.215 304.296 224.341C293.82 238.409 286.416 246.381 272.483 258.777Z" fill="white"/>
<path d="M306.122 221.452C305.894 221.452 305.676 221.324 305.566 221.109C302.807 215.837 301.368 213.137 298.305 207.505C298.238 207.385 298.213 207.248 298.229 207.11C299.189 199.712 299.963 193.626 300.686 187.891C301.923 178.144 302.992 169.726 304.616 157.613C304.658 157.278 304.952 157.038 305.28 157.056C305.608 157.081 305.869 157.356 305.869 157.69C306.038 181.384 306.197 195.392 306.753 220.792C306.761 221.092 306.568 221.349 306.281 221.426C306.231 221.444 306.172 221.452 306.122 221.452ZM299.508 207.068C302.016 211.68 303.438 214.328 305.432 218.135C304.994 197.689 304.817 184.59 304.674 166.751C303.665 174.466 302.849 180.904 301.94 188.054C301.216 193.737 300.451 199.764 299.508 207.068Z" fill="white"/>
<path d="M271.414 259.523C271.263 259.523 271.12 259.471 271.002 259.36C270.766 259.145 270.716 258.785 270.892 258.52C283.16 239.652 289.016 227.856 298.28 206.922C298.381 206.699 298.591 206.553 298.827 206.545C299.071 206.527 299.29 206.665 299.407 206.879C302.478 212.52 303.917 215.228 306.677 220.501C306.795 220.723 306.77 220.989 306.626 221.186C294.687 237.508 287.207 245.712 271.826 259.36C271.709 259.471 271.557 259.523 271.414 259.523ZM298.911 208.628C290.564 227.427 284.902 238.889 274.494 255.262C287.409 243.561 294.578 235.494 305.381 220.749C302.924 216.069 301.502 213.403 298.911 208.628Z" fill="white"/>
<path d="M273.602 296.307C273.417 296.307 273.24 296.23 273.122 296.076C272.937 295.853 272.92 295.527 273.089 295.296C278.692 287.152 281.359 281.365 286.534 268.104C286.635 267.846 286.887 267.684 287.157 267.701C287.426 267.718 287.661 267.906 287.729 268.172C289.723 275.45 290.674 278.631 292.592 284.374C292.685 284.64 292.592 284.94 292.365 285.103C285.415 290.229 281.612 292.518 273.871 296.247C273.787 296.281 273.694 296.307 273.602 296.307ZM287.014 270.341C282.647 281.434 280.013 287.126 275.461 294.044C281.679 290.966 285.196 288.78 291.254 284.34C289.588 279.334 288.637 276.222 287.014 270.341Z" fill="white"/>
<path d="M247.611 299.067C247.359 299.067 247.123 298.913 247.022 298.665C246.921 298.399 246.997 298.099 247.216 297.919L262.378 285.789C262.622 285.592 262.967 285.609 263.194 285.823C267.628 289.989 269.748 291.824 273.989 295.158C274.191 295.321 274.283 295.587 274.208 295.844C274.14 296.093 273.93 296.281 273.669 296.307C263.471 297.482 258.187 298.013 247.662 299.067C247.645 299.067 247.628 299.067 247.611 299.067ZM262.731 287.135L249.698 297.567C258.33 296.701 263.471 296.179 271.995 295.201C268.604 292.51 266.5 290.666 262.731 287.135Z" fill="white"/>
<path d="M273.602 296.307C273.459 296.307 273.324 296.264 273.215 296.17C268.94 292.81 266.803 290.958 262.336 286.766C262.192 286.629 262.117 286.432 262.134 286.226C262.15 286.02 262.268 285.84 262.436 285.737C272.651 279.574 277.64 275.896 286.702 267.855C286.921 267.658 287.241 267.641 287.485 267.812C287.72 267.984 287.813 268.301 287.704 268.575C282.487 281.94 279.786 287.778 274.115 296.024C274.014 296.17 273.863 296.264 273.694 296.29C273.669 296.307 273.635 296.307 273.602 296.307ZM263.816 286.406C267.661 289.998 269.765 291.815 273.467 294.738C278.465 287.392 281.115 281.828 285.575 270.555C277.842 277.319 272.878 280.911 263.816 286.406Z" fill="white"/>
<path d="M262.765 286.937C262.622 286.937 262.47 286.886 262.352 286.783C262.15 286.603 262.075 286.312 262.176 286.063C265.609 277.105 267.342 271.378 270.8 258.708C270.85 258.52 270.993 258.357 271.17 258.288C271.355 258.211 271.557 258.228 271.725 258.331L273.097 259.154C278.675 262.506 281.797 264.375 287.434 267.795C287.611 267.898 287.72 268.086 287.737 268.292C287.754 268.498 287.678 268.695 287.527 268.832C278.398 276.942 273.375 280.645 263.076 286.852C262.983 286.903 262.874 286.937 262.765 286.937ZM271.801 259.857C268.696 271.198 266.98 276.916 264.018 284.786C272.962 279.325 277.876 275.673 286.054 268.438C280.888 265.309 277.8 263.449 272.474 260.26L271.801 259.857Z" fill="white"/>
<path d="M262.765 286.937C262.739 286.937 262.706 286.937 262.672 286.929C245.811 284.486 235.966 283.234 219.66 281.16L216.025 280.697C215.714 280.654 215.478 280.397 215.47 280.079C215.461 279.762 215.68 279.488 215.983 279.428L219.517 278.759C225.272 277.671 229.151 276.942 235.781 275.656C235.899 275.63 236.017 275.647 236.118 275.69C247.258 279.985 252.693 281.965 262.967 285.694C263.269 285.806 263.446 286.132 263.37 286.457C263.311 286.74 263.051 286.937 262.765 286.937ZM220.224 279.934C234.233 281.717 243.488 282.9 256.715 284.777C249.832 282.265 244.599 280.319 235.848 276.95C229.504 278.176 225.676 278.896 220.224 279.934Z" fill="white"/>
<path d="M262.765 286.937C262.697 286.937 262.622 286.929 262.554 286.903C252.272 283.174 246.837 281.185 235.689 276.89C235.445 276.796 235.285 276.565 235.285 276.299C235.276 276.033 235.436 275.793 235.672 275.69C250.396 269.329 257.582 265.926 271.12 258.314C271.338 258.185 271.616 258.211 271.818 258.374C272.02 258.537 272.104 258.802 272.037 259.051C268.562 271.764 266.829 277.516 263.37 286.526C263.253 286.783 263.017 286.937 262.765 286.937ZM237.607 276.256C247.569 280.088 252.954 282.051 262.403 285.48C265.558 277.199 267.283 271.576 270.404 260.183C258.095 267.066 250.943 270.47 237.607 276.256Z" fill="white"/>
<path d="M271.414 259.523C271.355 259.523 271.296 259.514 271.237 259.497C270.968 259.42 270.792 259.171 270.783 258.888C270.665 250.067 270.632 242.952 270.59 235.425C270.548 227.753 270.505 219.823 270.379 209.151C270.379 208.808 270.632 208.525 270.968 208.499L271.507 208.465C283.076 207.685 288.882 207.29 298.81 206.553C299.037 206.536 299.247 206.639 299.374 206.827C299.5 207.016 299.525 207.256 299.433 207.462C290.135 228.464 284.262 240.294 271.944 259.24C271.818 259.42 271.624 259.523 271.414 259.523ZM271.65 209.742C271.776 220.115 271.81 227.89 271.852 235.417C271.885 242.335 271.919 248.91 272.02 256.779C283.337 239.206 289.109 227.599 297.842 207.916C288.562 208.602 282.765 208.996 271.65 209.742Z" fill="white"/>
<path d="M235.907 276.933C235.815 276.933 235.714 276.908 235.63 276.865C235.461 276.779 235.344 276.633 235.301 276.453C232.609 266.038 231.238 259.72 228.486 246.004C228.444 245.781 228.511 245.549 228.68 245.395C228.848 245.241 229.075 245.189 229.286 245.258C236.959 247.632 242.95 249.458 248.629 251.19C255.798 253.376 262.571 255.442 271.599 258.262C271.843 258.34 272.012 258.554 272.045 258.811C272.07 259.068 271.944 259.317 271.725 259.437C258.145 267.083 250.935 270.495 236.16 276.873C236.076 276.916 235.991 276.933 235.907 276.933ZM229.933 246.801C232.474 259.445 233.837 265.703 236.336 275.399C250.144 269.432 257.304 266.038 269.807 259.042C261.486 256.445 255.057 254.482 248.276 252.416C242.84 250.77 237.119 249.03 229.933 246.801Z" fill="white"/>
<path d="M271.414 259.523C271.187 259.523 270.977 259.403 270.867 259.197C261.519 242.326 256.16 231.328 247.283 213.111L243.379 205.113C243.278 204.899 243.295 204.641 243.429 204.444C243.564 204.247 243.8 204.153 244.035 204.187C255.268 205.919 260.863 206.793 271.111 208.508C271.414 208.559 271.633 208.825 271.641 209.133C271.768 219.815 271.81 227.744 271.852 235.417C271.894 242.943 271.927 250.05 272.045 258.871C272.045 259.163 271.86 259.428 271.582 259.497C271.524 259.514 271.465 259.523 271.414 259.523ZM245.045 205.644L248.41 212.537C256.892 229.93 262.159 240.732 270.749 256.368C270.657 248.678 270.623 242.223 270.59 235.425C270.548 227.882 270.514 220.089 270.388 209.691C260.838 208.096 255.301 207.222 245.045 205.644Z" fill="white"/>
<path d="M271.414 259.523C271.355 259.523 271.288 259.514 271.229 259.497C262.209 256.676 255.436 254.611 248.267 252.425C242.58 250.693 236.589 248.867 228.915 246.492C228.747 246.441 228.604 246.321 228.528 246.158C228.452 245.995 228.444 245.807 228.511 245.644C234.233 230.856 237.119 222.644 243.345 204.616C243.429 204.376 243.648 204.204 243.901 204.187C244.161 204.17 244.389 204.316 244.506 204.539L248.41 212.537C257.279 230.736 262.638 241.717 271.969 258.562C272.096 258.794 272.07 259.077 271.911 259.283C271.784 259.437 271.599 259.523 271.414 259.523ZM229.942 245.464C237.304 247.735 243.11 249.51 248.629 251.19C255.394 253.247 261.805 255.202 270.085 257.791C261.208 241.7 255.907 230.813 247.275 213.111L244.035 206.476C238.238 223.269 235.344 231.456 229.942 245.464Z" fill="white"/>
<path d="M216.109 280.697C215.916 280.697 215.731 280.611 215.613 280.448C215.47 280.259 215.436 280.002 215.537 279.788C220.611 268.584 223.227 261.443 228.503 245.669C228.596 245.395 228.865 245.207 229.142 245.232C229.429 245.249 229.664 245.464 229.723 245.747C232.466 259.428 233.837 265.738 236.521 276.119C236.564 276.29 236.538 276.479 236.446 276.625C236.353 276.779 236.202 276.882 236.033 276.916C229.403 278.193 225.524 278.931 219.769 280.019L216.235 280.688C216.185 280.697 216.151 280.697 216.109 280.697ZM228.949 248.318C224.313 262.103 221.721 269.107 217.195 279.196L219.534 278.751C225.095 277.696 228.898 276.976 235.133 275.776C232.693 266.355 231.338 260.183 228.949 248.318Z" fill="white"/>
<path d="M271.01 209.785C270.783 209.785 270.564 209.656 270.455 209.451C270.337 209.228 270.354 208.962 270.505 208.756C285.406 188.602 292.112 178.247 304.7 157.364C304.86 157.107 305.171 156.996 305.449 157.098C305.726 157.201 305.903 157.493 305.861 157.793C304.245 169.906 303.177 178.324 301.94 188.062C301.208 193.797 300.442 199.884 299.483 207.282C299.441 207.582 299.205 207.813 298.902 207.839C288.974 208.576 283.16 208.971 271.591 209.751L271.052 209.785C271.035 209.785 271.027 209.785 271.01 209.785ZM304.212 160.63C292.811 179.473 286.088 189.777 272.348 208.405C283.168 207.676 288.924 207.29 298.297 206.587C299.222 199.421 299.979 193.489 300.686 187.891C301.814 178.975 302.807 171.174 304.212 160.63Z" fill="white"/>
<path d="M305.238 158.341C305.154 158.341 305.07 158.324 304.994 158.29C304.742 158.178 304.582 157.913 304.616 157.63C306.795 136.19 307.905 126.323 310.043 109.641C310.076 109.375 310.261 109.161 310.514 109.101C310.766 109.041 311.027 109.135 311.178 109.35L326.012 130.489C326.164 130.712 326.172 131.004 326.021 131.227C319.079 141.505 314.906 147.026 305.726 158.11C305.592 158.264 305.415 158.341 305.238 158.341ZM311.077 111.424C309.142 126.597 308.04 136.353 306.071 155.684C314.207 145.808 318.288 140.365 324.716 130.867L311.077 111.424Z" fill="white"/>
<path d="M271.01 209.785C270.96 209.785 270.901 209.776 270.85 209.768C270.606 209.699 270.421 209.485 270.388 209.228L269.967 205.919C268.057 190.848 266.913 181.753 264.616 165.585C264.565 165.242 264.801 164.917 265.137 164.857C283.749 161.633 291.692 160.142 305.104 157.073C305.348 157.013 305.608 157.116 305.751 157.33C305.895 157.544 305.911 157.819 305.777 158.041C293.164 178.958 286.45 189.331 271.515 209.528C271.397 209.691 271.204 209.785 271.01 209.785ZM265.953 166.022C268.192 181.813 269.336 190.866 271.221 205.756L271.439 207.496C285.39 188.577 292.087 178.255 303.917 158.667C290.758 161.642 282.319 163.185 265.953 166.022Z" fill="white"/>
<path d="M271.01 209.785C270.977 209.785 270.943 209.785 270.909 209.776C260.67 208.062 255.074 207.188 243.85 205.464C243.64 205.43 243.463 205.302 243.379 205.104C243.286 204.916 243.295 204.693 243.396 204.504C251.633 189.854 255.874 181.839 262.899 168.56L264.683 165.191C264.809 164.951 265.078 164.814 265.348 164.865C265.617 164.917 265.819 165.131 265.861 165.405C268.158 181.581 269.311 190.677 271.212 205.756L271.633 209.065C271.658 209.262 271.591 209.468 271.448 209.614C271.33 209.716 271.17 209.785 271.01 209.785ZM244.944 204.324C255.276 205.919 260.821 206.785 270.278 208.362L269.967 205.91C268.141 191.448 267.005 182.49 264.885 167.505L264.01 169.16C257.11 182.207 252.895 190.18 244.944 204.324Z" fill="white"/>
<path d="M229.1 246.518C229.033 246.518 228.966 246.51 228.898 246.484C209.597 239.883 199.525 236.385 181.494 229.064C181.25 228.97 181.09 228.722 181.099 228.456C181.107 228.19 181.267 227.95 181.511 227.864C189.74 224.735 196.715 222.146 203.455 219.635C215.747 215.066 227.359 210.745 243.707 204.221C243.934 204.127 244.195 204.179 244.372 204.359C244.548 204.53 244.607 204.796 244.532 205.036C238.305 223.081 235.411 231.302 229.681 246.107C229.588 246.364 229.353 246.518 229.1 246.518ZM183.488 228.49C200.375 235.314 210.371 238.794 228.73 245.078C234.166 231.002 237.052 222.832 242.882 205.936C227.19 212.185 215.857 216.394 203.884 220.843C197.573 223.192 191.053 225.618 183.488 228.49Z" fill="white"/>
<path d="M181.991 256.282C181.848 256.282 181.705 256.231 181.595 256.136C181.452 256.016 181.36 255.836 181.36 255.639C181.309 246.741 181.25 241.315 181.141 232.322L181.099 228.473C181.099 228.259 181.2 228.053 181.377 227.933C181.553 227.813 181.772 227.787 181.965 227.864C199.963 235.177 210.026 238.666 229.302 245.258C229.572 245.352 229.748 245.618 229.731 245.909C229.715 246.201 229.504 246.441 229.227 246.501C219.652 248.515 212.357 250.016 205.297 251.456C198.036 252.947 191.179 254.353 182.125 256.256C182.083 256.282 182.041 256.282 181.991 256.282ZM182.369 229.416L182.403 232.305C182.504 241.032 182.571 246.398 182.613 254.851C191.297 253.025 197.977 251.653 205.045 250.204C211.524 248.876 218.213 247.504 226.677 245.729C209.109 239.712 199.164 236.223 182.369 229.416Z" fill="white"/>
<path d="M265.238 166.134C265.095 166.134 264.952 166.082 264.843 165.988C264.7 165.877 264.616 165.697 264.607 165.517C264.195 156.25 263.875 150.275 263.497 143.357C263.362 140.836 263.219 138.17 263.059 135.136C263.051 134.913 263.152 134.698 263.337 134.57C263.522 134.441 263.757 134.424 263.951 134.518C282.024 142.979 291.027 147.669 305.575 157.15C305.785 157.287 305.903 157.544 305.852 157.801C305.81 158.059 305.617 158.264 305.373 158.316C291.195 161.556 282.714 163.108 265.339 166.108C265.306 166.134 265.272 166.134 265.238 166.134ZM264.38 136.139C264.515 138.736 264.641 141.076 264.759 143.297C265.121 150.035 265.432 155.881 265.836 164.736C283.261 161.719 291.246 160.219 303.614 157.416C290.127 148.68 281.242 144.042 264.38 136.139Z" fill="white"/>
<path d="M305.238 158.341C304.986 158.341 304.759 158.187 304.658 157.947C299.929 146.443 297.413 140.802 291.826 130.104C291.7 129.864 291.742 129.564 291.927 129.358C299.584 121.06 303.345 116.928 310.211 109.281C310.396 109.075 310.69 109.015 310.943 109.135C311.195 109.255 311.338 109.521 311.305 109.804C309.168 126.469 308.057 136.327 305.878 157.758C305.844 158.05 305.625 158.281 305.339 158.333C305.297 158.341 305.263 158.341 305.238 158.341ZM293.147 129.906C298.229 139.653 300.77 145.234 304.868 155.135C306.795 136.242 307.897 126.512 309.782 111.664C303.816 118.291 300.089 122.38 293.147 129.906Z" fill="white"/>
<path d="M305.238 158.341C305.12 158.341 305.003 158.307 304.902 158.239C290.421 148.792 281.452 144.12 263.438 135.684C263.185 135.564 263.042 135.299 263.076 135.016C263.11 134.733 263.32 134.51 263.589 134.467L268.006 133.687C277.363 132.032 283.009 131.029 292.264 129.169C292.533 129.109 292.811 129.246 292.945 129.495C298.557 140.236 301.082 145.894 305.827 157.441C305.937 157.698 305.861 157.999 305.65 158.179C305.524 158.29 305.381 158.341 305.238 158.341ZM265.794 135.384C281.965 142.988 290.791 147.609 303.867 156.053C299.685 145.928 297.161 140.356 292.037 130.524C283.034 132.332 277.422 133.327 268.208 134.956L265.794 135.384Z" fill="white"/>
<path d="M243.943 205.464C243.858 205.464 243.774 205.447 243.69 205.413C243.396 205.284 243.244 204.95 243.337 204.633C247.83 189.528 250.993 178.024 254.048 166.905C256.858 156.687 259.508 147.034 263.084 134.921C263.168 134.621 263.463 134.433 263.766 134.467C264.069 134.501 264.304 134.758 264.321 135.067C264.481 138.102 264.624 140.768 264.759 143.288C265.129 150.206 265.449 156.19 265.869 165.457C265.878 165.577 265.853 165.688 265.794 165.791L264.01 169.16C256.976 182.447 252.735 190.471 244.49 205.139C244.372 205.353 244.161 205.464 243.943 205.464ZM263.261 138.83C260.198 149.315 257.792 158.059 255.268 167.257C252.584 177.012 249.824 187.068 246.147 199.592C252.668 187.899 256.698 180.278 262.899 168.56L264.599 165.345C264.187 156.181 263.867 150.24 263.497 143.365C263.421 141.917 263.345 140.416 263.261 138.83Z" fill="white"/>
<path d="M181.73 229.107C181.52 229.107 181.318 228.996 181.2 228.807C181.04 228.55 181.074 228.216 181.284 228.002C196.421 212.64 204.254 204.736 220.123 188.774C220.333 188.559 220.67 188.525 220.914 188.697C226.837 192.666 230.918 195.375 235.394 198.358C238.061 200.132 240.863 202.001 244.288 204.281C244.481 204.41 244.59 204.65 244.574 204.882C244.548 205.122 244.397 205.327 244.178 205.413C227.813 211.945 216.193 216.257 203.901 220.835C197.161 223.338 190.194 225.936 181.965 229.064C181.881 229.099 181.806 229.107 181.73 229.107ZM220.644 190.068C205.752 205.044 197.944 212.931 184.237 226.836C191.305 224.161 197.472 221.864 203.455 219.643C215.461 215.177 226.812 210.959 242.571 204.684C239.609 202.704 237.102 201.041 234.704 199.447C230.329 196.532 226.341 193.874 220.644 190.068Z" fill="white"/>
<path d="M243.943 205.464C243.825 205.464 243.699 205.43 243.598 205.362C240.173 203.081 237.371 201.212 234.704 199.438C230.228 196.455 226.147 193.746 220.224 189.777C220.072 189.674 219.971 189.52 219.946 189.34C219.921 189.16 219.963 188.979 220.081 188.834L226.635 180.493C240.552 162.765 248.949 152.066 263.219 134.69C263.412 134.458 263.741 134.39 264.001 134.536C264.262 134.681 264.388 134.999 264.304 135.29C260.728 147.394 258.078 157.038 255.268 167.248C252.214 178.375 249.05 189.88 244.548 205.002C244.49 205.199 244.346 205.353 244.161 205.422C244.086 205.456 244.01 205.464 243.943 205.464ZM221.494 189.091C227.106 192.846 231.061 195.477 235.394 198.366C237.876 200.012 240.476 201.744 243.581 203.819C247.948 189.117 251.052 177.827 254.048 166.914C256.622 157.553 259.062 148.663 262.201 137.93C249.117 153.909 240.863 164.419 227.603 181.307L221.494 189.091Z" fill="white"/>
<path d="M181.991 256.282C181.721 256.282 181.477 256.102 181.393 255.836C175.462 237.286 172.214 225.61 166.299 201.495C166.223 201.178 166.391 200.852 166.686 200.741C166.989 200.63 167.325 200.758 167.468 201.041C173.173 212.142 176.109 217.62 182.268 228.139C182.327 228.233 182.353 228.344 182.361 228.464L182.403 232.314C182.512 241.306 182.571 246.741 182.622 255.639C182.622 255.956 182.395 256.231 182.092 256.274C182.058 256.282 182.024 256.282 181.991 256.282ZM168.814 206.407C173.535 225.421 176.606 236.48 181.343 251.49C181.301 244.855 181.242 239.832 181.149 232.331L181.107 228.653C175.933 219.815 173.021 214.526 168.814 206.407Z" fill="white"/>
<path d="M181.73 229.107C181.705 229.107 181.679 229.107 181.654 229.099C181.461 229.073 181.292 228.962 181.191 228.79C175.016 218.246 172.071 212.76 166.358 201.633C166.265 201.461 166.265 201.247 166.341 201.067C166.425 200.887 166.576 200.75 166.77 200.707C182.883 196.763 193.509 194.457 209.597 190.96C212.937 190.231 216.522 189.46 220.442 188.602C220.72 188.542 220.998 188.671 221.132 188.928C221.267 189.177 221.217 189.494 221.023 189.691C205.163 205.644 197.321 213.548 182.193 228.91C182.058 229.039 181.898 229.107 181.73 229.107ZM167.847 201.77C173.181 212.142 176.109 217.595 181.856 227.427C196.126 212.94 203.926 205.07 218.583 190.325C215.478 191.003 212.584 191.628 209.849 192.22C194.039 195.666 183.514 197.946 167.847 201.77Z" fill="white"/>
<path d="M220.569 189.888C220.384 189.888 220.207 189.802 220.081 189.657C214.805 183.227 211.953 179.721 207.266 173.995L205.71 172.092C205.592 171.955 205.541 171.766 205.567 171.586C205.592 171.406 205.693 171.243 205.844 171.14C224.666 158.581 236.446 151.278 251.355 142.019C255.083 139.705 259.029 137.262 263.354 134.561C263.614 134.398 263.959 134.45 264.161 134.69C264.363 134.93 264.363 135.281 264.17 135.521C249.916 152.881 241.519 163.579 227.603 181.299L221.048 189.64C220.939 189.794 220.762 189.88 220.569 189.888ZM207.14 171.817L208.242 173.163C212.769 178.71 215.596 182.173 220.56 188.225L226.635 180.493C239.736 163.811 247.948 153.352 260.762 137.69C257.691 139.602 254.805 141.394 252.037 143.108C237.279 152.264 225.6 159.516 207.14 171.817Z" fill="white"/>
<path d="M220.569 189.888C220.501 189.888 220.434 189.88 220.375 189.854L211.928 187.025C202.058 183.725 194.931 181.341 183.867 177.475C183.598 177.381 183.43 177.124 183.438 176.832C183.455 176.549 183.648 176.301 183.926 176.241C192.113 174.278 196.656 173.223 204.902 171.312L206.063 171.046C206.299 170.994 206.534 171.08 206.686 171.26L208.242 173.163C212.92 178.898 215.773 182.396 221.048 188.825C221.225 189.048 221.242 189.365 221.082 189.597C220.964 189.785 220.771 189.888 220.569 189.888ZM186.341 176.987C196.244 180.433 203.076 182.722 212.315 185.808L218.667 187.934C214.258 182.559 211.515 179.19 207.266 173.995L205.962 172.392L205.18 172.572C197.683 174.312 193.24 175.341 186.341 176.987Z" fill="white"/>
<path d="M166.913 201.984C166.711 201.984 166.509 201.881 166.391 201.701C166.24 201.478 166.24 201.195 166.391 200.972C172.954 191.277 176.353 186.373 183.556 176.481C183.724 176.258 184.01 176.164 184.271 176.258C195.327 180.124 202.453 182.507 212.315 185.799L220.762 188.628C221.031 188.722 221.208 188.98 221.191 189.271C221.174 189.562 220.973 189.802 220.695 189.862C216.774 190.72 213.19 191.491 209.849 192.22C193.779 195.709 183.16 198.015 167.056 201.958C167.014 201.975 166.963 201.984 166.913 201.984ZM184.296 177.63C177.641 186.785 174.242 191.654 168.369 200.321C183.598 196.609 194.048 194.346 209.588 190.968C212.273 190.385 215.108 189.768 218.154 189.108L211.919 187.025C202.184 183.767 195.108 181.41 184.296 177.63Z" fill="white"/>
<path d="M263.69 135.753C263.497 135.753 263.311 135.667 263.194 135.504C263.051 135.316 263.017 135.067 263.11 134.853C268.654 121.814 271.406 115.693 276.715 105.166C276.816 104.969 277.009 104.84 277.228 104.823C277.447 104.806 277.657 104.9 277.783 105.089C284.06 113.833 287.165 118.857 292.92 129.504C293.021 129.684 293.021 129.898 292.937 130.087C292.853 130.275 292.685 130.404 292.491 130.447C283.219 132.307 277.565 133.31 268.208 134.973L263.8 135.753C263.766 135.744 263.732 135.753 263.69 135.753ZM277.38 106.675C272.533 116.328 269.807 122.38 264.742 134.27L268.007 133.695C277.068 132.092 282.655 131.098 291.414 129.349C286.13 119.611 283.067 114.656 277.38 106.675Z" fill="white"/>
<path d="M292.373 130.447C292.348 130.447 292.323 130.447 292.298 130.438C292.096 130.412 291.919 130.292 291.826 130.112C286.105 119.517 283.009 114.527 276.774 105.835C276.631 105.629 276.614 105.355 276.74 105.132C276.866 104.909 277.102 104.789 277.354 104.815C291.624 106.332 298.81 107.249 310.766 109.084C310.993 109.118 311.187 109.281 311.271 109.504C311.355 109.727 311.296 109.975 311.145 110.155C304.271 117.802 300.51 121.934 292.853 130.241C292.718 130.378 292.55 130.447 292.373 130.447ZM278.625 106.246C284.203 114.082 287.274 119.062 292.508 128.723C299.475 121.171 303.202 117.082 309.395 110.181C298.541 108.527 291.498 107.627 278.625 106.246Z" fill="white"/>
<path d="M166.913 201.984L166.905 201.984C166.694 201.984 166.501 201.864 166.383 201.684C159.879 191.277 156.85 186.099 151.036 175.829C150.918 175.624 150.926 175.375 151.044 175.169C151.162 174.972 151.381 174.852 151.616 174.861C163.488 175.426 170.135 175.701 184.094 176.215C184.33 176.224 184.54 176.361 184.641 176.575C184.742 176.789 184.717 177.047 184.582 177.235C177.388 187.111 173.997 192.006 167.443 201.693C167.317 201.881 167.115 201.984 166.913 201.984ZM152.702 176.207C157.986 185.533 160.998 190.668 166.93 200.175C172.929 191.32 176.311 186.442 182.841 177.467C170.135 176.995 163.539 176.721 152.702 176.207Z" fill="white"/>
<path d="M184.061 177.51C184.052 177.51 184.044 177.51 184.035 177.51C170.077 176.987 163.421 176.721 151.549 176.146C151.347 176.138 151.162 176.027 151.053 175.855C150.943 175.684 150.918 175.469 150.985 175.272C154.654 165.337 156.53 160.45 160.434 151.089C160.518 150.883 160.695 150.738 160.914 150.703C161.124 150.669 161.343 150.746 161.486 150.909C170.287 160.939 175.016 166.185 184.515 176.412C184.692 176.601 184.734 176.884 184.633 177.115C184.54 177.364 184.313 177.51 184.061 177.51ZM152.483 174.912C163.379 175.435 169.959 175.701 182.554 176.172C173.972 166.923 169.286 161.719 161.225 152.538C157.683 161.025 155.823 165.868 152.483 174.912Z" fill="white"/>
<path d="M184.061 177.51C183.892 177.51 183.724 177.441 183.606 177.312C174.098 167.068 169.353 161.822 160.552 151.783C160.417 151.629 160.358 151.415 160.409 151.209C160.451 151.003 160.594 150.84 160.788 150.755C172.315 145.971 178.533 143.597 191.027 139.199C191.246 139.122 191.482 139.173 191.65 139.328C191.818 139.482 191.894 139.713 191.852 139.945C189.092 153.378 187.485 161.41 184.692 176.995C184.65 177.235 184.481 177.424 184.254 177.492C184.187 177.501 184.128 177.51 184.061 177.51ZM162.092 151.603C170.245 160.896 174.948 166.1 183.674 175.504C186.257 161.145 187.83 153.215 190.388 140.785C178.903 144.84 172.744 147.189 162.092 151.603Z" fill="white"/>
<path d="M206.206 172.315C206.071 172.315 205.937 172.272 205.819 172.177C205.609 172.015 205.525 171.723 205.609 171.466L206.29 169.4C213.812 146.503 217.59 135.016 224.994 116.499C225.062 116.336 225.18 116.208 225.339 116.148C225.499 116.079 225.676 116.088 225.827 116.156C241.267 122.997 249.041 126.58 263.985 134.536C264.187 134.647 264.313 134.853 264.321 135.084C264.33 135.316 264.212 135.53 264.018 135.659C259.694 138.359 255.747 140.802 252.02 143.117C237.119 152.366 225.348 159.67 206.543 172.212C206.442 172.28 206.324 172.315 206.206 172.315ZM225.912 117.605C218.684 135.727 214.906 147.197 207.477 169.82L207.376 170.129C225.323 158.187 236.858 151.021 251.364 142.019C254.813 139.876 258.457 137.622 262.411 135.153C248.335 127.678 240.594 124.111 225.912 117.605Z" fill="white"/>
<path d="M263.69 135.753C263.589 135.753 263.488 135.727 263.396 135.676C248.486 127.738 240.728 124.171 225.314 117.339C225.062 117.228 224.91 116.962 224.936 116.688C224.961 116.413 225.163 116.182 225.432 116.122C231.322 114.853 236.421 113.756 241.124 112.753C253.383 110.13 263.059 108.055 277.136 104.832C277.38 104.78 277.624 104.866 277.775 105.063C277.927 105.261 277.952 105.526 277.834 105.749C272.533 116.25 269.799 122.354 264.262 135.359C264.195 135.521 264.06 135.65 263.892 135.71C263.833 135.736 263.766 135.753 263.69 135.753ZM227.636 116.962C241.696 123.203 249.42 126.795 263.387 134.218C268.545 122.114 271.271 116.019 276.109 106.384C262.731 109.444 253.274 111.467 241.393 114.013C237.211 114.905 232.718 115.865 227.636 116.962Z" fill="white"/>
<path d="M184.061 177.51C183.901 177.51 183.741 177.45 183.623 177.329C183.472 177.184 183.396 176.961 183.438 176.747C186.231 161.153 187.838 153.112 190.598 139.671C190.657 139.405 190.867 139.199 191.137 139.165C191.398 139.13 191.667 139.276 191.785 139.516C197.178 150.635 200.064 156.884 205.306 168.234L206.77 171.397C206.854 171.577 206.854 171.775 206.77 171.955C206.686 172.135 206.526 172.255 206.341 172.297L205.18 172.563C196.934 174.475 192.39 175.529 184.212 177.484C184.162 177.51 184.111 177.51 184.061 177.51ZM191.465 141.762C188.983 153.858 187.418 161.77 184.86 176.018C192.466 174.201 196.976 173.155 204.902 171.32L205.297 171.226L204.17 168.783C199.206 158.024 196.353 151.852 191.465 141.762Z" fill="white"/>
<path d="M206.206 172.315C205.962 172.315 205.743 172.169 205.634 171.946L204.17 168.783C198.936 157.441 196.05 151.201 190.657 140.091C190.522 139.808 190.607 139.465 190.851 139.285C204.414 129.315 211.339 124.772 225.247 116.199C225.482 116.053 225.777 116.079 225.987 116.259C226.198 116.439 226.265 116.73 226.164 116.988C218.776 135.461 214.999 146.94 207.485 169.811L206.803 171.877C206.719 172.126 206.501 172.297 206.24 172.315C206.231 172.315 206.214 172.315 206.206 172.315ZM192.029 140.013C197.27 150.832 200.148 157.064 205.314 168.243L206.105 169.957L206.282 169.417C213.56 147.274 217.329 135.796 224.271 118.316C211.608 126.135 204.734 130.678 192.029 140.013Z" fill="white"/>
<path d="M225.575 117.391C225.381 117.391 225.196 117.296 225.07 117.133C224.919 116.936 224.902 116.671 225.011 116.448C230.657 105.303 233.526 100.151 239.357 91.5617C239.517 91.3302 239.795 91.2274 240.064 91.3131C255.983 96.2766 263.631 98.934 277.523 104.849C277.775 104.961 277.935 105.218 277.91 105.501C277.884 105.783 277.691 106.006 277.422 106.075C263.345 109.307 253.652 111.381 241.393 114.004C236.69 115.007 231.599 116.105 225.701 117.373C225.659 117.391 225.617 117.391 225.575 117.391ZM240.139 92.6933C234.729 100.674 231.894 105.741 226.753 115.839C232.096 114.682 236.791 113.679 241.141 112.753C252.828 110.25 262.176 108.252 275.217 105.269C262.613 99.9627 255.007 97.331 240.139 92.6933Z" fill="white"/>
<path d="M277.279 106.101C277.194 106.101 277.11 106.083 277.035 106.049C263.194 100.151 255.571 97.5024 239.694 92.5561C239.441 92.4789 239.264 92.2475 239.248 91.9818C239.231 91.716 239.382 91.4674 239.626 91.356C251.978 85.8867 258.213 83.4092 269.597 79.1573C269.916 79.0373 270.27 79.2002 270.396 79.5174C273.408 87.0097 274.906 92.5304 277.893 105.312C277.952 105.543 277.868 105.792 277.691 105.955C277.573 106.049 277.43 106.101 277.279 106.101ZM241.696 91.836C256.101 96.3452 263.665 98.9941 276.378 104.378C273.677 92.8476 272.197 87.4641 269.462 80.5718C258.953 84.498 252.802 86.9411 241.696 91.836Z" fill="white"/>
<path d="M277.279 106.101C277.194 106.101 277.11 106.083 277.035 106.049C276.85 105.972 276.715 105.801 276.664 105.603C273.703 92.8905 272.213 87.4041 269.235 79.9974C269.126 79.7317 269.21 79.4231 269.437 79.2431C269.664 79.063 269.975 79.063 270.203 79.2345L292.272 96.1223C292.441 96.2509 292.533 96.4566 292.525 96.671C292.516 96.8853 292.398 97.0824 292.213 97.1853L290.144 98.4283C285.751 101.077 282.849 102.817 277.615 105.989C277.506 106.066 277.396 106.101 277.279 106.101ZM271.237 81.6433C273.652 87.9784 275.125 93.4819 277.691 104.455C282.478 101.557 285.306 99.8513 289.487 97.331L290.741 96.5766L271.237 81.6433Z" fill="white"/>
<path d="M310.665 110.37C310.632 110.37 310.606 110.37 310.573 110.361C298.642 108.527 291.473 107.609 277.22 106.092C276.951 106.066 276.732 105.861 276.673 105.586C276.614 105.312 276.732 105.038 276.967 104.892C282.209 101.72 285.112 99.9713 289.504 97.3224L291.574 96.0794C291.784 95.9509 292.045 95.9594 292.255 96.1051L311.035 109.187C311.279 109.358 311.372 109.675 311.263 109.95C311.153 110.207 310.918 110.37 310.665 110.37ZM279.239 105.021C291.212 106.306 298.145 107.189 308.04 108.681L291.86 97.4082L290.135 98.4454C286.223 100.803 283.497 102.44 279.239 105.021Z" fill="white"/>
<path d="M138.987 207.102C138.802 207.102 138.625 207.016 138.507 206.87C138.356 206.69 138.314 206.442 138.407 206.219C143.144 193.994 145.609 187.771 151.011 175.246C151.103 175.024 151.314 174.878 151.558 174.861C151.802 174.852 152.02 174.972 152.138 175.178C157.935 185.431 160.964 190.6 167.451 200.981C167.569 201.161 167.578 201.392 167.494 201.59C167.409 201.787 167.224 201.924 167.022 201.958C154.654 203.999 148.89 205.019 139.122 207.076C139.071 207.102 139.029 207.102 138.987 207.102ZM151.658 176.935C146.77 188.302 144.313 194.475 140.005 205.593C148.873 203.741 154.603 202.721 165.87 200.861C159.938 191.371 156.917 186.219 151.658 176.935Z" fill="white"/>
<path d="M138.987 207.102C138.785 207.102 138.583 206.999 138.465 206.827C133.686 199.798 131.398 196.112 127.351 188.894C127.182 188.594 127.275 188.217 127.553 188.037C135.655 182.679 140.594 180.064 151.313 174.929C151.549 174.818 151.835 174.861 152.02 175.049C152.205 175.238 152.264 175.521 152.155 175.769C146.762 188.268 144.296 194.492 139.568 206.699C139.483 206.922 139.282 207.076 139.054 207.102C139.038 207.102 139.012 207.102 138.987 207.102ZM128.739 188.782C132.441 195.349 134.595 198.838 138.827 205.104C143.085 194.114 145.542 187.942 150.321 176.824C140.914 181.359 136.109 183.947 128.739 188.782Z" fill="white"/>
<path d="M127.897 189.22C127.729 189.22 127.561 189.151 127.443 189.022C127.233 188.8 127.208 188.457 127.384 188.208C137.834 173.292 144.666 165.62 160.594 150.883C160.813 150.678 161.141 150.661 161.385 150.832C161.629 151.003 161.713 151.329 161.604 151.603C157.708 160.947 155.832 165.825 152.172 175.735C152.113 175.889 151.995 176.018 151.852 176.086C141.192 181.196 136.286 183.793 128.242 189.108C128.133 189.185 128.015 189.22 127.897 189.22ZM159.315 153.807C145.903 166.322 139.231 173.781 130.329 186.228C136.858 182.053 141.789 179.498 151.078 175.041C154.326 166.262 156.168 161.428 159.315 153.807Z" fill="white"/>
<path d="M181.999 256.282C181.822 256.282 181.646 256.205 181.52 256.059C171.086 243.612 165.685 236.154 156.387 221.366C156.269 221.178 156.252 220.929 156.353 220.723C160.173 213.12 162.201 209.099 166.349 201.041C166.475 200.801 166.728 200.672 166.98 200.698C167.241 200.732 167.451 200.921 167.519 201.178C173.425 225.258 176.665 236.917 182.588 255.433C182.681 255.725 182.563 256.042 182.294 256.196C182.209 256.256 182.1 256.282 181.999 256.282ZM157.641 220.981C166.147 234.499 171.398 241.863 180.409 252.742C175.209 236.334 172.037 224.813 166.703 203.133C163.11 210.111 161.116 214.063 157.641 220.981Z" fill="white"/>
<path d="M156.917 221.658C156.774 221.658 156.64 221.606 156.522 221.521L138.592 206.965C138.398 206.81 138.314 206.553 138.373 206.313C138.432 206.073 138.617 205.884 138.861 205.833C148.646 203.776 154.427 202.747 166.812 200.707C167.048 200.664 167.283 200.767 167.426 200.964C167.569 201.161 167.586 201.427 167.477 201.641C163.329 209.691 161.309 213.703 157.481 221.306C157.397 221.478 157.237 221.598 157.052 221.641C157.001 221.658 156.959 221.658 156.917 221.658ZM140.434 206.819L156.707 220.029C160.123 213.223 162.125 209.262 165.769 202.19C154.797 203.99 149.101 205.01 140.434 206.819Z" fill="white"/>
<path d="M225.575 117.391C225.449 117.391 225.331 117.356 225.23 117.288C218.886 113.036 215.714 111.004 209.109 106.924C208.915 106.804 208.798 106.581 208.806 106.349C208.814 106.118 208.949 105.903 209.151 105.801C221.435 99.4055 227.535 96.5852 239.635 91.3388C239.896 91.2274 240.19 91.3046 240.375 91.5274C240.552 91.7503 240.569 92.0675 240.409 92.2989C234.612 100.82 231.768 105.955 226.147 117.039C226.063 117.202 225.92 117.322 225.743 117.365C225.684 117.391 225.625 117.391 225.575 117.391ZM210.724 106.426C216.513 110.001 219.66 112.033 225.331 115.822C230.363 105.912 233.198 100.786 238.129 93.3962C227.67 97.9482 221.637 100.769 210.724 106.426Z" fill="white"/>
<path d="M239.879 92.5818C239.71 92.5818 239.551 92.5132 239.433 92.3932C239.248 92.2046 239.197 91.9218 239.307 91.6731C242.083 85.4409 243.404 82.9206 246.055 78.823C246.172 78.6344 246.391 78.5315 246.601 78.5315C256.235 78.8315 261.082 78.9344 269.832 79.1144C270.135 79.123 270.396 79.3459 270.447 79.6545C270.497 79.9631 270.329 80.2546 270.043 80.366C258.684 84.6008 252.458 87.0783 240.14 92.539C240.047 92.5647 239.963 92.5818 239.879 92.5818ZM246.913 79.826C244.658 83.3407 243.37 85.741 241.132 90.6787C251.364 86.1696 257.397 83.735 266.45 80.3232C259.752 80.1946 255.041 80.0746 246.913 79.826Z" fill="white"/>
<path d="M209.437 107.018C209.227 107.018 209.016 106.906 208.899 106.709C208.73 106.426 208.798 106.049 209.067 105.852L246.214 78.6515C246.458 78.4715 246.803 78.4972 247.022 78.7116C247.241 78.9259 247.283 79.2688 247.115 79.5259C244.506 83.555 243.202 86.041 240.459 92.2047C240.392 92.3504 240.274 92.4704 240.131 92.5304C228.065 97.7596 221.974 100.571 209.723 106.949C209.631 107.001 209.53 107.018 209.437 107.018ZM244.296 81.6348L216.328 102.114C224.262 98.1111 230.034 95.4965 239.408 91.4417C241.435 86.8897 242.689 84.3351 244.296 81.6348Z" fill="white"/>
<path d="M191.221 140.451C191.078 140.451 190.926 140.399 190.809 140.296C190.59 140.108 190.522 139.782 190.649 139.516C197.944 124.6 201.604 117.665 208.89 106.032C209.075 105.741 209.454 105.646 209.748 105.826C216.37 109.915 219.542 111.956 225.912 116.216C226.097 116.336 226.198 116.542 226.198 116.765C226.198 116.988 226.08 117.185 225.895 117.305C212.02 125.86 205.112 130.387 191.591 140.331C191.482 140.408 191.355 140.451 191.221 140.451ZM209.631 107.249C202.975 117.905 199.357 124.677 192.929 137.759C204.893 129.015 211.759 124.523 224.389 116.722C218.751 112.967 215.596 110.936 209.631 107.249Z" fill="white"/>
<path d="M216.109 280.697C216 280.697 215.882 280.662 215.79 280.602C201.503 271.927 194.477 266.895 181.595 256.128C181.41 255.974 181.326 255.716 181.385 255.476C181.444 255.236 181.629 255.048 181.873 255.005C190.926 253.093 197.792 251.687 205.053 250.196C212.113 248.747 219.408 247.255 228.974 245.241C229.201 245.189 229.429 245.275 229.572 245.447C229.723 245.618 229.765 245.858 229.698 246.081C224.405 261.906 221.78 269.072 216.681 280.319C216.606 280.482 216.463 280.611 216.294 280.662C216.236 280.688 216.177 280.697 216.109 280.697ZM183.421 255.999C195.419 265.986 202.395 270.958 215.832 279.136C220.602 268.558 223.202 261.469 228.15 246.732C219.105 248.636 212.087 250.076 205.297 251.464C198.389 252.879 191.835 254.225 183.421 255.999Z" fill="white"/>
<path d="M227.249 290.966C227.106 290.966 226.963 290.915 226.854 290.821C222.395 287.135 220.198 285.111 215.672 280.508C215.478 280.311 215.428 280.019 215.554 279.771C215.672 279.522 215.933 279.385 216.202 279.411L219.837 279.874C236.143 281.957 245.987 283.208 262.866 285.651C263.177 285.694 263.412 285.977 263.404 286.294C263.396 286.62 263.16 286.886 262.849 286.92C254.544 287.889 248.604 288.558 242.041 289.295C237.699 289.783 233.08 290.298 227.333 290.958C227.291 290.966 227.275 290.966 227.249 290.966ZM217.868 280.928C221.461 284.528 223.606 286.483 227.443 289.655C233.072 289.012 237.615 288.506 241.89 288.026C247.081 287.443 251.885 286.903 257.775 286.226C243.757 284.228 234.325 283.028 219.668 281.16L217.868 280.928Z" fill="white"/>
<path d="M247.611 299.067C247.544 299.067 247.468 299.059 247.401 299.033C239.206 296.127 235.007 294.455 226.997 290.915C226.736 290.804 226.585 290.521 226.627 290.229C226.669 289.938 226.896 289.715 227.182 289.689C232.929 289.029 237.548 288.515 241.89 288.026C248.452 287.289 254.393 286.629 262.697 285.651C262.975 285.617 263.244 285.78 263.354 286.046C263.463 286.312 263.379 286.62 263.16 286.8L247.998 298.93C247.889 299.016 247.746 299.067 247.611 299.067ZM229.681 290.692C236.261 293.564 240.215 295.116 247.485 297.696L260.619 287.186C253.442 288.018 247.99 288.635 242.024 289.303C238.297 289.723 234.368 290.161 229.681 290.692Z" fill="white"/>
<path d="M236.05 304.545C235.84 304.545 235.646 304.442 235.52 304.254L226.719 290.675C226.568 290.435 226.585 290.126 226.761 289.904C226.938 289.689 227.241 289.612 227.493 289.723C235.562 293.29 239.551 294.876 247.813 297.807C248.057 297.893 248.225 298.125 248.234 298.382C248.251 298.639 248.099 298.887 247.872 298.999L236.311 304.485C236.235 304.528 236.143 304.545 236.05 304.545ZM228.941 291.772L236.278 303.097L245.937 298.51C239.323 296.144 235.285 294.541 228.941 291.772Z" fill="white"/>
<path d="M195.596 291.224C195.302 291.224 195.049 291.018 194.982 290.726C194.915 290.426 195.058 290.126 195.327 289.998C203.665 286.037 207.678 283.971 215.806 279.488C216.05 279.351 216.353 279.394 216.555 279.599C221.057 284.168 223.227 286.174 227.645 289.826C227.855 289.998 227.931 290.281 227.838 290.538C227.746 290.795 227.51 290.966 227.241 290.966C214.729 290.949 208.217 291.001 195.596 291.224ZM216 280.851C209.109 284.649 205.011 286.775 198.533 289.895C208.739 289.723 215.049 289.672 225.474 289.689C221.991 286.757 219.828 284.734 216 280.851Z" fill="white"/>
<path d="M236.05 304.545C236.042 304.545 236.033 304.545 236.025 304.545C229.538 304.288 224.06 304.314 218.263 304.357C213.829 304.382 209.252 304.408 204.161 304.297C203.875 304.288 203.631 304.091 203.564 303.808C203.497 303.525 203.615 303.234 203.867 303.088L226.938 289.758C227.224 289.595 227.594 289.681 227.779 289.964L236.58 303.542C236.707 303.739 236.723 304.005 236.606 304.211C236.488 304.425 236.277 304.545 236.05 304.545ZM224.119 303.045C227.552 303.045 231.027 303.079 234.847 303.217L227.047 291.181L206.501 303.054C210.674 303.114 214.519 303.097 218.263 303.071C220.232 303.062 222.167 303.045 224.119 303.045Z" fill="white"/>
<path d="M204.178 304.297C203.976 304.297 203.774 304.194 203.657 304.014L195.074 290.941C194.948 290.744 194.931 290.495 195.041 290.289C195.15 290.084 195.361 289.946 195.588 289.946C208.217 289.723 214.721 289.663 227.258 289.689C227.544 289.689 227.796 289.886 227.864 290.169C227.939 290.452 227.813 290.752 227.561 290.889L204.49 304.22C204.389 304.271 204.288 304.297 204.178 304.297ZM196.766 291.207L204.38 302.797L224.868 290.966C214.216 290.958 207.83 291.009 196.766 291.207Z" fill="white"/>
<path d="M195.596 291.224C195.453 291.224 195.318 291.172 195.201 291.086C190.405 287.212 187.931 284.923 183.194 279.951C183.017 279.762 182.967 279.488 183.068 279.248C183.169 279.008 183.404 278.879 183.657 278.862C196.395 279.025 202.899 279.119 216.126 279.419C216.412 279.428 216.656 279.625 216.723 279.908C216.791 280.191 216.665 280.482 216.412 280.628C208.352 285.077 204.128 287.246 195.865 291.172C195.773 291.206 195.689 291.224 195.596 291.224ZM185.163 280.165C189.134 284.289 191.448 286.406 195.68 289.835C203.042 286.329 207.031 284.306 213.703 280.645C202.554 280.405 196.151 280.302 185.163 280.165Z" fill="white"/>
<path d="M175.234 296.676C175.041 296.676 174.847 296.582 174.729 296.41C174.578 296.196 174.57 295.913 174.704 295.69C177.96 290.384 179.601 287.16 183.076 279.239C183.16 279.042 183.337 278.905 183.539 278.871C183.741 278.828 183.96 278.905 184.103 279.059C188.857 284.04 191.187 286.209 195.992 290.084C196.177 290.238 196.269 290.478 196.219 290.718C196.168 290.958 195.992 291.147 195.764 291.207C189.959 292.767 186.198 293.77 181.764 294.953L175.403 296.65C175.335 296.667 175.285 296.676 175.234 296.676ZM183.842 280.628C180.889 287.315 179.256 290.581 176.597 295.004L181.427 293.718C185.55 292.621 189.084 291.678 194.216 290.298C190.253 287.049 187.847 284.803 183.842 280.628Z" fill="white"/>
<path d="M204.178 304.297C204.145 304.297 204.111 304.297 204.077 304.288C202.193 303.988 200.485 303.731 198.92 303.491C190.026 302.154 185.129 301.416 174.965 296.616C174.721 296.504 174.578 296.247 174.603 295.973C174.629 295.699 174.814 295.476 175.074 295.407L181.435 293.71C185.878 292.527 189.631 291.524 195.436 289.964C195.697 289.895 195.975 289.998 196.118 290.229L204.7 303.302C204.843 303.517 204.843 303.791 204.708 304.005C204.591 304.185 204.389 304.297 204.178 304.297ZM177.111 296.196C186.013 300.251 190.548 300.928 199.105 302.222C200.274 302.402 201.52 302.582 202.857 302.797L195.327 291.327C189.765 292.827 186.088 293.804 181.755 294.961L177.111 296.196Z" fill="white"/>
<path d="M216.109 280.697C216.101 280.697 216.101 280.697 216.092 280.697C202.874 280.397 196.37 280.302 183.631 280.139C183.303 280.139 183.034 279.874 183.009 279.548C182.386 271.275 182.075 266.492 181.377 255.999L181.351 255.682C181.334 255.425 181.469 255.185 181.696 255.065C181.923 254.945 182.193 254.979 182.386 255.142C195.209 265.858 202.201 270.873 216.421 279.505C216.665 279.651 216.782 279.951 216.707 280.234C216.639 280.508 216.387 280.697 216.109 280.697ZM184.229 278.862C195.815 279.008 202.251 279.102 213.737 279.359C201.2 271.678 194.275 266.698 182.714 257.079C183.345 266.526 183.665 271.258 184.229 278.862Z" fill="white"/>
<path d="M183.648 280.148C183.606 280.148 183.556 280.139 183.514 280.131C171.902 277.508 166.366 276.145 156.446 273.256C156.21 273.187 156.034 272.981 156 272.733C155.966 272.484 156.067 272.236 156.278 272.098C160.409 269.329 163.716 267.118 166.98 264.932C171.322 262.034 175.596 259.171 181.654 255.099C181.839 254.971 182.083 254.962 182.285 255.056C182.487 255.159 182.622 255.356 182.639 255.588L182.655 255.905C183.345 266.389 183.665 271.173 184.288 279.436C184.305 279.642 184.22 279.839 184.069 279.968C183.943 280.088 183.8 280.148 183.648 280.148ZM158.112 272.398C166.963 274.962 172.449 276.307 182.958 278.682C182.395 271.13 182.075 266.372 181.444 256.779C175.857 260.534 171.793 263.252 167.67 266.003C164.7 267.984 161.713 269.981 158.112 272.398Z" fill="white"/>
<path d="M159.214 287.46C159.096 287.46 158.987 287.426 158.886 287.366C158.735 287.272 158.625 287.117 158.592 286.937L155.992 272.75C155.95 272.527 156.025 272.304 156.185 272.158C156.345 272.004 156.572 271.953 156.783 272.013C166.677 274.902 172.197 276.256 183.783 278.871C184.061 278.931 184.271 279.188 184.279 279.479C184.288 279.771 184.103 280.037 183.825 280.114C173.366 283.174 168.545 284.606 159.399 287.435C159.34 287.452 159.273 287.46 159.214 287.46ZM157.422 273.539L159.711 285.994C167.721 283.517 172.458 282.111 181.099 279.582C171.44 277.388 166.046 276.042 157.422 273.539Z" fill="white"/>
<path d="M175.234 296.676C175.142 296.676 175.058 296.659 174.974 296.616C168.293 293.461 164.978 291.558 158.869 287.357C158.667 287.22 158.558 286.972 158.6 286.732C158.634 286.483 158.81 286.286 159.038 286.209C168.192 283.38 173.005 281.948 183.48 278.888C183.716 278.819 183.968 278.896 184.128 279.085C184.288 279.274 184.33 279.539 184.229 279.771C180.729 287.752 179.071 291.018 175.773 296.376C175.647 296.564 175.445 296.676 175.234 296.676ZM160.67 287.04C165.937 290.615 169.05 292.381 174.99 295.201C177.876 290.461 179.509 287.28 182.512 280.499C173.417 283.165 168.638 284.58 160.67 287.04Z" fill="white"/>
<path d="M156.614 273.281C156.513 273.281 156.404 273.256 156.311 273.204C156.109 273.093 155.983 272.87 155.983 272.63C156.084 263.474 156.109 256.171 156.143 247.71C156.168 240.294 156.202 231.885 156.295 221.006C156.295 220.723 156.48 220.475 156.749 220.398C157.018 220.321 157.304 220.432 157.456 220.672C166.719 235.4 172.096 242.832 182.479 255.228C182.597 255.365 182.647 255.554 182.622 255.734C182.597 255.914 182.496 256.076 182.344 256.179C176.278 260.251 172.003 263.114 167.662 266.012C164.397 268.198 161.09 270.401 156.959 273.179C156.85 273.239 156.732 273.281 156.614 273.281ZM157.531 223.175C157.456 233.008 157.422 240.792 157.397 247.71C157.363 255.794 157.338 262.823 157.254 271.43C160.931 268.961 163.968 266.938 166.972 264.932C171.17 262.129 175.302 259.36 181.048 255.502C171.347 243.895 166.013 236.574 157.531 223.175Z" fill="white"/>
<path d="M156.614 273.281C156.496 273.281 156.379 273.247 156.269 273.179L126.189 253.513C126.038 253.41 125.929 253.248 125.903 253.067C125.878 252.887 125.929 252.699 126.046 252.553C136.109 240.655 142.083 234.379 156.471 220.552C156.656 220.372 156.926 220.329 157.153 220.432C157.38 220.535 157.531 220.766 157.531 221.024C157.439 231.893 157.414 240.303 157.38 247.718C157.346 256.179 157.321 263.483 157.22 272.647C157.22 272.879 157.094 273.093 156.892 273.204C156.816 273.256 156.715 273.281 156.614 273.281ZM127.485 252.827L155.992 271.464C156.076 262.84 156.109 255.802 156.135 247.71C156.16 240.637 156.194 232.665 156.269 222.515C142.908 235.374 136.985 241.623 127.485 252.827Z" fill="white"/>
<path d="M126.534 253.608C126.433 253.608 126.332 253.582 126.232 253.53C125.971 253.385 125.844 253.076 125.929 252.785C129.757 239.137 132.138 230.05 135.436 217.474C136.328 214.071 137.296 210.394 138.373 206.287C138.432 206.082 138.583 205.91 138.785 205.842C138.987 205.773 139.206 205.816 139.374 205.953L157.304 220.509C157.447 220.629 157.531 220.801 157.54 220.989C157.548 221.178 157.472 221.358 157.346 221.486C142.992 235.271 137.035 241.529 127.006 253.385C126.888 253.53 126.711 253.608 126.534 253.608ZM139.349 207.573C138.364 211.302 137.481 214.671 136.656 217.809C133.585 229.51 131.305 238.194 127.923 250.341C136.791 239.952 142.841 233.651 155.958 221.049L139.349 207.573Z" fill="white"/>
<path d="M126.534 253.608C126.248 253.608 126.004 253.41 125.929 253.136L114.906 212.571C114.822 212.245 114.99 211.911 115.302 211.791C122.083 209.331 127.14 208.139 138.869 205.824C139.08 205.782 139.307 205.859 139.45 206.022C139.601 206.185 139.652 206.416 139.601 206.63C138.516 210.737 137.557 214.414 136.665 217.817C133.367 230.402 130.977 239.489 127.149 253.145C127.065 253.419 126.812 253.608 126.534 253.608ZM116.278 212.811L126.543 250.59C130.018 238.143 132.323 229.373 135.436 217.483C136.253 214.354 137.136 211.002 138.112 207.29C127.468 209.399 122.521 210.574 116.278 212.811Z" fill="white"/>
<path d="M115.512 213.043C115.344 213.043 115.176 212.974 115.049 212.837C114.881 212.648 114.831 212.374 114.932 212.142C118.979 202.687 121.537 197.766 127.359 188.234C127.477 188.045 127.696 187.925 127.906 187.934C128.125 187.934 128.335 188.062 128.444 188.259C132.525 195.52 134.696 199.018 139.509 206.099C139.627 206.279 139.652 206.51 139.576 206.707C139.492 206.905 139.324 207.059 139.113 207.093C127.452 209.399 122.437 210.574 115.731 213.008C115.655 213.034 115.579 213.043 115.512 213.043ZM127.872 189.828C122.748 198.255 120.241 203.073 116.665 211.302C122.622 209.228 127.628 208.053 137.91 206.013C133.712 199.807 131.457 196.172 127.872 189.828Z" fill="white"/>
<path d="M161.023 151.998C160.821 151.998 160.628 151.904 160.51 151.723C160.342 151.483 160.358 151.149 160.552 150.926C177.742 131.158 188.621 121.043 209.067 105.861C209.311 105.681 209.647 105.698 209.875 105.912C210.093 106.126 210.135 106.469 209.976 106.726C202.723 118.316 199.071 125.226 191.801 140.099C191.726 140.253 191.599 140.365 191.44 140.416C178.979 144.805 172.769 147.18 161.267 151.946C161.183 151.981 161.099 151.998 161.023 151.998ZM207.115 108.904C189.151 122.423 178.642 132.221 163.287 149.717C173.207 145.637 179.374 143.297 190.775 139.285C197.38 125.792 200.998 118.848 207.115 108.904Z" fill="white"/>
<path d="M209.429 107.018C209.302 107.018 209.176 106.984 209.075 106.906C208.856 106.752 208.755 106.478 208.823 106.212C212.668 91.1502 214.603 84.858 218.49 77.297C218.608 77.0742 218.835 76.937 219.088 76.9542C229.891 77.6571 235.436 77.9657 246.61 78.5229C246.879 78.54 247.106 78.7201 247.182 78.9858C247.258 79.2516 247.165 79.5344 246.946 79.6887L209.799 106.889C209.689 106.984 209.563 107.018 209.429 107.018ZM219.424 78.2657C215.865 85.2609 213.955 91.3217 210.489 104.815L244.75 79.7231C234.872 79.2259 229.378 78.9172 219.424 78.2657Z" fill="white"/>
<path d="M209.437 107.018C209.403 107.018 209.378 107.018 209.344 107.009C198.305 105.406 192.777 104.6 182.369 102.98C182.125 102.946 181.932 102.766 181.856 102.526C181.789 102.286 181.856 102.029 182.041 101.866C196.294 88.7928 203.85 83.6836 218.802 77.0056C219.046 76.8942 219.332 76.9542 219.517 77.1599C219.702 77.3571 219.736 77.6571 219.618 77.8971C215.781 85.3466 213.863 91.5788 210.051 106.538C209.967 106.829 209.715 107.018 209.437 107.018ZM183.875 101.917C193.274 103.375 198.768 104.18 208.957 105.655C212.432 92.0675 214.351 85.7238 217.674 78.9173C204.279 85.038 196.858 90.0958 183.875 101.917Z" fill="white"/>
<path d="M161.023 151.998C160.914 151.998 160.804 151.972 160.703 151.904C160.443 151.741 160.333 151.423 160.434 151.132C168.747 128.166 173.366 117.613 181.915 102.037C182.041 101.806 182.302 101.677 182.563 101.712C192.963 103.332 198.49 104.138 209.53 105.741C209.782 105.775 209.992 105.972 210.051 106.221C210.11 106.478 210.018 106.744 209.807 106.898C189.454 122.02 178.617 132.092 161.494 151.775C161.368 151.921 161.2 151.998 161.023 151.998ZM182.798 103.049C174.822 117.613 170.279 127.849 162.773 148.372C178.364 130.644 189.042 120.802 207.805 106.786C197.918 105.355 192.441 104.549 182.798 103.049Z" fill="white"/>
<path d="M161.023 151.998C160.821 151.998 160.628 151.895 160.51 151.723C155.117 143.897 152.449 139.979 147.233 132.281C147.064 132.032 147.09 131.69 147.292 131.475C159.45 118.428 166.938 112.059 182.117 101.814C182.361 101.652 182.681 101.677 182.891 101.883C183.101 102.089 183.152 102.406 183.009 102.672C174.494 118.179 169.891 128.689 161.604 151.586C161.52 151.809 161.326 151.972 161.09 151.998C161.074 151.989 161.048 151.998 161.023 151.998ZM148.554 131.981C153.358 139.07 156 142.954 160.838 149.983C168.478 128.946 173.013 118.454 180.645 104.36C167.132 113.602 159.845 119.902 148.554 131.981Z" fill="white"/>
<path d="M127.897 189.22C127.805 189.22 127.712 189.202 127.62 189.151C127.342 189.014 127.208 188.688 127.292 188.388C134.334 164.282 138.104 152.392 147.174 131.647C147.266 131.432 147.468 131.287 147.695 131.27C147.923 131.244 148.141 131.355 148.276 131.544C153.493 139.242 156.152 143.16 161.545 150.978C161.73 151.243 161.688 151.603 161.452 151.826C145.6 166.485 138.802 174.123 128.419 188.945C128.293 189.125 128.099 189.22 127.897 189.22ZM147.864 133.224C139.618 152.204 135.815 163.845 129.563 185.122C138.76 172.28 145.659 164.711 160.182 151.261C155.226 144.06 152.576 140.168 147.864 133.224Z" fill="white"/>
<path d="M115.512 213.043C115.479 213.043 115.436 213.043 115.403 213.034C115.117 212.982 114.898 212.742 114.881 212.442C114.242 202.395 112.542 176.138 112.416 175.246C112.374 174.981 112.508 174.706 112.736 174.578C112.971 174.449 113.257 174.475 113.451 174.655L128.31 188.097C128.537 188.302 128.587 188.654 128.428 188.92C122.647 198.392 120.106 203.27 116.084 212.665C115.983 212.897 115.756 213.043 115.512 213.043ZM113.796 176.678C114.2 182.164 115.327 199.575 115.975 209.742C119.399 201.924 121.966 197.106 127.081 188.697L113.796 176.678Z" fill="white"/>
<path d="M127.897 189.22C127.746 189.22 127.595 189.168 127.477 189.057L112.618 175.615C112.441 175.461 112.365 175.212 112.424 174.981C116.387 158.521 119.197 150.575 126.088 136.353C126.215 136.087 126.501 135.95 126.787 136.01C127.073 136.07 127.275 136.319 127.283 136.61C128.049 157.004 128.318 168.174 128.529 188.559C128.529 188.817 128.385 189.048 128.158 189.151C128.074 189.202 127.99 189.22 127.897 189.22ZM113.737 174.912L127.25 187.128C127.031 167.042 126.753 156.413 126.114 139.216C120.115 151.843 117.414 159.713 113.737 174.912Z" fill="white"/>
<path d="M127.897 189.22C127.872 189.22 127.839 189.22 127.813 189.211C127.502 189.168 127.275 188.902 127.266 188.585C127.039 166.554 126.736 155.83 126.021 136.67C126.013 136.37 126.206 136.096 126.492 136.027C133.627 134.15 138.028 133.19 147.628 131.287C147.855 131.244 148.099 131.329 148.242 131.518C148.385 131.707 148.419 131.964 148.327 132.178C139.29 152.864 135.529 164.711 128.503 188.765C128.419 189.04 128.175 189.22 127.897 189.22ZM127.3 137.142C127.998 155.761 128.276 166.708 128.478 184.342C134.662 163.305 138.474 151.672 146.677 132.787C138.129 134.484 133.821 135.427 127.3 137.142Z" fill="white"/>
<path d="M182.462 102.989C182.361 102.989 182.268 102.963 182.176 102.92C174.124 98.7712 170.119 96.7481 162.521 92.9162C162.294 92.8047 162.159 92.5561 162.167 92.2989C162.184 92.0417 162.344 91.8189 162.588 91.7332C183.379 84.2065 195.722 81.4461 218.928 76.9627C219.239 76.9027 219.551 77.0913 219.652 77.4085C219.753 77.7257 219.593 78.06 219.298 78.1886C204.498 84.798 197.01 89.8644 182.883 102.826C182.765 102.937 182.613 102.989 182.462 102.989ZM164.422 92.4446C171.069 95.7965 175.041 97.8111 182.361 101.583C194.788 90.2072 202.142 84.918 213.947 79.2516C194.553 83.0664 182.706 85.8953 164.422 92.4446Z" fill="white"/>
<path d="M246.585 79.8174C246.576 79.8174 246.568 79.8174 246.551 79.8174C235.369 79.2516 229.824 78.9515 219.012 78.2486C218.701 78.2314 218.448 77.9828 218.423 77.6657C218.398 77.3485 218.6 77.057 218.894 76.9799L236.564 72.4793C236.723 72.4365 236.9 72.4622 237.043 72.5565L246.904 78.6344C247.148 78.7887 247.266 79.0887 247.182 79.3716C247.106 79.6288 246.854 79.8174 246.585 79.8174ZM223.143 77.2199C230.724 77.7 235.924 77.9914 244.119 78.4029L236.622 73.7824L223.143 77.2199Z" fill="white"/>
<path d="M126.652 137.287C126.442 137.287 126.24 137.176 126.122 136.987C125.979 136.756 125.996 136.447 126.173 136.233L162.327 91.9303C162.529 91.6817 162.891 91.6217 163.16 91.8017C163.43 91.9818 163.522 92.3418 163.379 92.6333C157.195 105.003 153.972 113.49 148.36 132.101C148.293 132.324 148.108 132.495 147.881 132.547C138.306 134.45 133.922 135.401 126.82 137.27C126.762 137.279 126.703 137.287 126.652 137.287ZM159.837 96.9796L128.377 135.53C134.376 133.987 138.768 133.044 147.25 131.355C152.054 115.462 155.125 106.949 159.837 96.9796Z" fill="white"/>
<path d="M113.038 175.778C112.752 175.778 112.5 175.581 112.424 175.298C111.272 170.712 110.75 168.457 109.791 163.845C109.757 163.682 109.782 163.519 109.866 163.373C114.25 156.104 125.718 137.073 126.08 136.362C126.232 136.044 126.61 135.916 126.921 136.07C127.216 136.216 127.351 136.576 127.233 136.884C127.224 136.902 127.216 136.919 127.216 136.927C120.375 151.046 117.582 158.933 113.644 175.289C113.585 175.581 113.333 175.778 113.038 175.778ZM111.078 163.828C111.818 167.36 112.298 169.503 113.03 172.495C115.622 162.002 117.809 155.007 121.192 147.026C117.128 153.798 112.29 161.83 111.078 163.828Z" fill="white"/>
<path d="M147.746 132.555C147.637 132.555 147.527 132.53 147.426 132.47C147.174 132.315 147.056 132.015 147.14 131.724C152.769 113.027 156.017 104.506 162.235 92.0503C162.395 91.7332 162.765 91.6131 163.076 91.7674C170.674 95.5993 174.687 97.6224 182.74 101.772C182.941 101.874 183.076 102.08 183.085 102.312C183.101 102.543 182.992 102.757 182.807 102.886C167.721 113.062 160.283 119.397 148.2 132.358C148.083 132.487 147.914 132.555 147.746 132.555ZM163.085 93.199C157.38 104.686 154.191 112.942 149.143 129.495C160.014 117.999 167.409 111.784 181.217 102.423C173.989 98.7026 170.018 96.6966 163.085 93.199Z" fill="white"/>
<path d="M159.214 287.46C159.046 287.46 158.886 287.392 158.768 287.272L126.088 253.419C125.861 253.187 125.844 252.819 126.046 252.562C126.248 252.305 126.61 252.244 126.879 252.424L156.959 272.09C157.102 272.184 157.203 272.338 157.237 272.51L159.837 286.697C159.887 286.972 159.753 287.255 159.509 287.383C159.416 287.443 159.315 287.46 159.214 287.46ZM130.935 256.608L158.213 284.871L156.042 273.033L130.935 256.608Z" fill="white"/>
<path d="M338.313 167.677C338.154 167.677 338.002 167.617 337.884 167.505L325.482 155.658C325.356 155.538 325.289 155.375 325.28 155.204L324.868 130.884C324.859 130.567 325.078 130.301 325.381 130.241C325.684 130.181 325.987 130.361 326.088 130.652L338.902 166.828C339.003 167.111 338.902 167.42 338.658 167.583C338.549 167.643 338.431 167.677 338.313 167.677ZM326.534 154.904L336.824 164.737L326.189 134.724L326.534 154.904Z" fill="white"/>
<path d="M236.05 304.545C235.781 304.545 235.537 304.374 235.453 304.108C235.352 303.8 235.495 303.457 235.781 303.319L247.342 297.833C247.409 297.799 247.476 297.782 247.544 297.773L273.543 295.013C273.871 294.987 274.182 295.21 274.233 295.553C274.283 295.887 274.073 296.213 273.745 296.281L236.193 304.528C236.143 304.545 236.092 304.545 236.05 304.545ZM247.779 299.05L241.41 302.068L262.1 297.524L247.779 299.05Z" fill="white"/>
<path d="M115.512 213.043C115.226 213.043 114.974 212.845 114.906 212.562L108.52 187.831C108.487 187.711 108.495 187.591 108.529 187.471L112.441 174.938C112.534 174.646 112.82 174.458 113.114 174.492C113.417 174.526 113.644 174.775 113.67 175.083L116.143 212.348C116.168 212.682 115.933 212.974 115.613 213.025C115.579 213.043 115.546 213.043 115.512 213.043ZM109.782 187.685L114.435 205.704L112.635 178.547L109.782 187.685Z" fill="white"/>
<path d="M109.118 188.311C109.084 188.311 109.042 188.311 109 188.302C108.688 188.242 108.47 187.959 108.487 187.634L109.774 163.674C109.791 163.356 110.035 163.099 110.346 163.065C110.666 163.039 110.943 163.245 111.019 163.562L113.644 174.989C113.67 175.101 113.67 175.221 113.627 175.332L109.715 187.865C109.639 188.139 109.395 188.311 109.118 188.311ZM110.8 168.226L110.026 182.67L112.391 175.118L110.8 168.226Z" fill="white"/>
<path d="M261.654 357.849C261.553 357.849 261.46 357.832 261.359 357.806C261.065 357.721 260.829 357.515 260.695 357.232L153.568 124.069C153.341 123.58 153.51 123.006 153.955 122.714L341.25 0.178928C341.502 0.00747821 341.822 -0.035379 342.108 0.0503459C342.403 0.136071 342.638 0.341796 342.773 0.624688L449.899 233.788C450.126 234.277 449.958 234.851 449.512 235.142L262.218 357.678C262.049 357.789 261.848 357.849 261.654 357.849ZM155.865 124.009L262.091 355.209L447.602 233.839L341.376 2.63923L155.865 124.009Z" fill="white"/>
<path d="M1.04886 143.837C0.611335 143.837 0.21588 143.554 0.064429 143.125C-0.10385 142.654 0.0728429 142.131 0.485126 141.857L187.78 19.3213C187.914 19.2356 188.066 19.1756 188.217 19.1584L341.687 0.00746108C342.26 -0.0611189 342.79 0.350358 342.857 0.94186C342.924 1.53336 342.52 2.06487 341.94 2.13345L188.705 21.2587L5.49142 141.128L154.393 122.543C154.965 122.474 155.495 122.886 155.563 123.477C155.63 124.069 155.226 124.6 154.645 124.669L1.17507 143.828C1.133 143.837 1.09093 143.837 1.04886 143.837Z" fill="white"/>
<path d="M108.175 377C107.771 377 107.401 376.76 107.224 376.383L0.0980847 143.22C-0.14592 142.679 0.0812569 142.045 0.602921 141.796C1.133 141.548 1.75563 141.779 1.99964 142.311L108.806 374.771L261.519 355.715C262.091 355.637 262.622 356.057 262.689 356.649C262.756 357.24 262.352 357.772 261.772 357.841L108.301 376.991C108.259 376.991 108.217 377 108.175 377Z" fill="white"/>
<path d="M295.47 253.813C295.31 253.813 295.158 253.719 295.091 253.565L187.965 20.41L188.73 20.05L295.73 252.93L448.898 233.814L448.999 234.662L295.529 253.813C295.503 253.813 295.486 253.813 295.47 253.813Z" fill="white"/>
<path d="M295.298 253.075L107.95 375.534L108.404 376.256L295.752 253.797L295.298 253.075Z" fill="white"/>
</g>
</svg>
